<?xml version="1.0" encoding="utf-8"?>
<!-- Generated by IcoMoon.io -->
<!DOCTYPE svg PUBLIC "-//W3C//DTD SVG 1.1//EN" "http://www.w3.org/Graphics/SVG/1.1/DTD/svg11.dtd">
<svg version="1.1" xmlns="http://www.w3.org/2000/svg" xmlns:xlink="http://www.w3.org/1999/xlink" width="32" height="32" viewBox="0 0 32 32">
	<path d="M12 18.333c0 0 6.373-3.824 9.961-2.313 0.744-1.133 1.477-2.354 2.194-3.601-3.51-0.86-8.155-0.086-8.155-0.086s5.944-3.566 9.583-2.45c0.73-1.316 1.439-2.614 2.124-3.822-2.899-0.196-5.707 0.272-5.707 0.272s3.723-2.234 7.081-2.612c1.056-1.714 2.037-3.059 2.919-3.721-17.531 0-28 20-32 32h2l6-10c0 0 2 2 8 0 1.421-0.474 2.842-1.789 4.237-3.56-3.519-0.892-8.237-0.106-8.237-0.106z" fill="#ffffff" />
</svg>
