<?xml version="1.0" encoding="utf-8"?>
<!-- Generator: Adobe Illustrator 16.0.0, SVG Export Plug-In . SVG Version: 6.00 Build 0)  -->
<!DOCTYPE svg PUBLIC "-//W3C//DTD SVG 1.1//EN" "http://www.w3.org/Graphics/SVG/1.1/DTD/svg11.dtd">
<svg version="1.1" id="Capa_1" xmlns="http://www.w3.org/2000/svg" xmlns:xlink="http://www.w3.org/1999/xlink" x="0px" y="0px"
	 width="24px" height="24px" viewBox="0 0 24 24" enable-background="new 0 0 24 24" xml:space="preserve">
<path fill="none" d="M0,0h24v24H0V0z"/>
<path fill="#BA68C8" d="M7.52,21.48C4.25,19.939,1.91,16.76,1.55,13h-1.5C0.56,19.16,5.71,24,12,24l0.66-0.03l-3.81-3.81L7.52,21.48
	z"/>
<path fill="#29B6F6" d="M8.41,14.96c-0.19,0-0.37-0.03-0.52-0.08c-0.16-0.06-0.29-0.13-0.4-0.239c-0.11-0.101-0.2-0.221-0.26-0.371
	c-0.06-0.14-0.09-0.3-0.09-0.47h-1.3c0,0.36,0.07,0.681,0.21,0.95c0.14,0.27,0.33,0.5,0.56,0.689c0.24,0.181,0.51,0.318,0.82,0.41
	C7.73,15.95,8.05,16,8.39,16c0.37,0,0.72-0.05,1.03-0.15c0.32-0.1,0.6-0.25,0.83-0.438c0.23-0.189,0.42-0.432,0.55-0.723
	C10.93,14.4,11,14.08,11,13.72c0-0.188-0.02-0.38-0.07-0.56c-0.05-0.18-0.12-0.35-0.23-0.51c-0.1-0.16-0.24-0.3-0.4-0.433
	c-0.17-0.13-0.37-0.229-0.61-0.31c0.2-0.09,0.37-0.2,0.52-0.33s0.27-0.27,0.37-0.42c0.1-0.15,0.17-0.3,0.22-0.46
	c0.05-0.16,0.07-0.32,0.07-0.48c0-0.36-0.06-0.68-0.18-0.96c-0.12-0.28-0.29-0.51-0.51-0.69c-0.2-0.19-0.47-0.33-0.77-0.43
	C9.1,8.05,8.76,8,8.39,8c-0.36,0-0.69,0.05-1,0.16C7.09,8.27,6.82,8.42,6.6,8.61C6.39,8.8,6.22,9.02,6.09,9.28
	c-0.12,0.26-0.18,0.54-0.18,0.85h1.3c0-0.17,0.03-0.32,0.09-0.45c0.06-0.13,0.14-0.25,0.25-0.34c0.11-0.09,0.23-0.17,0.38-0.22
	c0.15-0.05,0.3-0.08,0.48-0.08c0.4,0,0.7,0.1,0.89,0.31c0.19,0.2,0.29,0.49,0.29,0.86c0,0.18-0.03,0.34-0.08,0.49
	c-0.05,0.15-0.14,0.27-0.25,0.37c-0.11,0.1-0.25,0.18-0.41,0.24c-0.16,0.06-0.36,0.09-0.58,0.09H7.5v1.03h0.77
	c0.22,0,0.42,0.02,0.6,0.07c0.18,0.05,0.33,0.13,0.45,0.23c0.12,0.107,0.22,0.237,0.29,0.397c0.07,0.16,0.1,0.353,0.1,0.57
	c0,0.407-0.12,0.72-0.35,0.93C9.13,14.859,8.81,14.96,8.41,14.96z"/>
<path fill="#29B6F6" d="M17.71,10.24c-0.181-0.47-0.431-0.87-0.75-1.2s-0.7-0.59-1.14-0.77C15.391,8.09,14.9,8,14.359,8H12v8h2.3
	c0.55,0,1.062-0.09,1.511-0.27c0.449-0.183,0.84-0.433,1.16-0.763c0.319-0.329,0.569-0.729,0.739-1.188
	c0.17-0.472,0.261-0.99,0.261-1.57v-0.4C17.971,11.23,17.88,10.71,17.71,10.24z M16.57,12.2c0,0.42-0.051,0.79-0.141,1.13
	c-0.102,0.33-0.24,0.62-0.432,0.85c-0.189,0.23-0.432,0.41-0.71,0.53c-0.29,0.12-0.62,0.181-0.99,0.181h-0.909V9.12h0.971
	c0.721,0,1.271,0.23,1.641,0.69c0.38,0.46,0.57,1.12,0.57,1.99V12.2z"/>
<path fill="#BA68C8" d="M12,0l-0.66,0.03l3.811,3.81l1.33-1.33c3.271,1.55,5.609,4.72,5.959,8.48h1.5C23.439,4.84,18.29,0,12,0z"/>
</svg>
