<?xml version="1.0" encoding="utf-8"?>
<!-- Generator: Adobe Illustrator 16.0.0, SVG Export Plug-In . SVG Version: 6.00 Build 0)  -->
<!DOCTYPE svg PUBLIC "-//W3C//DTD SVG 1.1//EN" "http://www.w3.org/Graphics/SVG/1.1/DTD/svg11.dtd">
<svg version="1.1" id="Capa_1" xmlns="http://www.w3.org/2000/svg" xmlns:xlink="http://www.w3.org/1999/xlink" x="0px" y="0px"
	 width="24px" height="24px" viewBox="0 0 24 24" enable-background="new 0 0 24 24" xml:space="preserve">
<path fill="none" d="M-618-568H782v3600H-618V-568z M0,0h24v24H0V0z"/>
<path fill="#66BB6A" d="M12,4c-5,0-9,4-9,9s4,9,9,9s9-4,9-9S17,4,12,4z"/>
<path fill="#C8E6C9" d="M12,20c-3.9,0-7-3.1-7-7c0-3.9,3.1-7,7-7c3.9,0,7,3.1,7,7C19,16.9,15.9,20,12,20z"/>
<polygon fill="#43A047" points="22,5.7 17.4,1.8 16.1,3.3 20.7,7.2 "/>
<polygon fill="#43A047" points="7.9,3.4 6.6,1.9 2,5.7 3.3,7.2 "/>
<polygon fill="#43A047" points="12.5,8 11,8 11,14 15.7,16.9 16.5,15.7 12.5,13.3 "/>
</svg>
