<?xml version="1.0" encoding="utf-8"?>
<!-- Generator: Adobe Illustrator 16.0.0, SVG Export Plug-In . SVG Version: 6.00 Build 0)  -->
<!DOCTYPE svg PUBLIC "-//W3C//DTD SVG 1.1//EN" "http://www.w3.org/Graphics/SVG/1.1/DTD/svg11.dtd">
<svg version="1.1" id="Capa_1" xmlns="http://www.w3.org/2000/svg" xmlns:xlink="http://www.w3.org/1999/xlink" x="0px" y="0px"
	 width="24px" height="24px" viewBox="0 0 24 24" enable-background="new 0 0 24 24" xml:space="preserve">
<path fill="none" d="M0,0h24v24H0V0z"/>
<path fill="#6D4C41" d="M21,18v1c0,1.1-0.9,2-2,2H5c-1.11,0-2-0.9-2-2V5c0-1.1,0.89-2,2-2h14c1.1,0,2,0.9,2,2v1h-9
	c-1.11,0-2,0.9-2,2v8c0,1.1,0.89,2,2,2H21z"/>
<rect x="12" y="8" fill="#4CAF50" width="10" height="8"/>
<circle fill="#FFFFFF" cx="16" cy="12" r="1.5"/>
</svg>
