<?xml version="1.0" encoding="utf-8"?>
<!-- Generator: Adobe Illustrator 16.0.0, SVG Export Plug-In . SVG Version: 6.00 Build 0)  -->
<!DOCTYPE svg PUBLIC "-//W3C//DTD SVG 1.1//EN" "http://www.w3.org/Graphics/SVG/1.1/DTD/svg11.dtd">
<svg version="1.1" id="Capa_1" xmlns="http://www.w3.org/2000/svg" xmlns:xlink="http://www.w3.org/1999/xlink" x="0px" y="0px"
	 width="24px" height="24px" viewBox="0 0 24 24" enable-background="new 0 0 24 24" xml:space="preserve">
<path fill="#7986CB" d="M3,5v14c0,1.1,0.89,2,2,2h14c1.1,0,2-0.9,2-2V5c0-1.1-0.9-2-2-2H5C3.89,3,3,3.9,3,5z"/>
<path fill="#3F51B5" d="M15,9c0,1.66-1.34,3-3,3s-3-1.34-3-3s1.34-3,3-3S15,7.34,15,9z"/>
<path fill="#3F51B5" d="M6,17c0-2,4-3.1,6-3.1s6,1.1,6,3.1v1H6V17z"/>
<path fill="none" d="M0,0h24v24H0V0z"/>
</svg>
