<?xml version="1.0" encoding="utf-8"?>
<!-- Generator: Adobe Illustrator 15.0.0, SVG Export Plug-In . SVG Version: 6.00 Build 0)  -->
<!DOCTYPE svg PUBLIC "-//W3C//DTD SVG 1.1//EN" "http://www.w3.org/Graphics/SVG/1.1/DTD/svg11.dtd">
<svg version="1.1" id="Layer_1" xmlns="http://www.w3.org/2000/svg" xmlns:xlink="http://www.w3.org/1999/xlink" x="0px" y="0px"
	 width="24px" height="24px" viewBox="0 0 24 24" enable-background="new 0 0 24 24" xml:space="preserve">
<path fill="#7986CB" d="M12,2C6.48,2,2,6.48,2,12c0,5.52,4.48,10,10,10c5.52,0,10-4.48,10-10C22,6.48,17.52,2,12,2z"/>
<path fill="#3F51B5" d="M12,5c1.66,0,3,1.34,3,3s-1.34,3-3,3S9,9.66,9,8S10.34,5,12,5z M12,19.2c-2.5,0-4.71-1.28-6-3.22
	c0.03-1.99,4-3.08,6-3.08c1.99,0,5.971,1.09,6,3.08C16.71,17.92,14.5,19.2,12,19.2z"/>
<path fill="none" d="M0,0h24v24H0V0z"/>
</svg>
