<?xml version="1.0" encoding="utf-8"?>
<!-- Generator: Adobe Illustrator 16.0.0, SVG Export Plug-In . SVG Version: 6.00 Build 0)  -->
<!DOCTYPE svg PUBLIC "-//W3C//DTD SVG 1.1//EN" "http://www.w3.org/Graphics/SVG/1.1/DTD/svg11.dtd">
<svg version="1.1" id="Capa_1" xmlns="http://www.w3.org/2000/svg" xmlns:xlink="http://www.w3.org/1999/xlink" x="0px" y="0px"
	 width="24px" height="24px" viewBox="0 0 24 24" enable-background="new 0 0 24 24" xml:space="preserve">
<path fill="none" d="M0,0h24v24H0V0z"/>
<path fill="#42A5F5" d="M16.5,12c1.38,0,2.49-1.12,2.49-2.5S17.88,7,16.5,7S14,8.12,14,9.5S15.12,12,16.5,12z"/>
<path fill="#1565C0" d="M9,11c1.66,0,2.99-1.34,2.99-3S10.66,5,9,5S6,6.34,6,8S7.34,11,9,11z"/>
<path fill="#42A5F5" d="M16.5,14c-1.83,0-5.5,0.92-5.5,2.75V19h11v-2.25C22,14.92,18.33,14,16.5,14z"/>
<path fill="#1565C0" d="M9,13c-2.33,0-7,1.17-7,3.5V19h7v-2.25c0-0.85,0.33-2.34,2.37-3.47C10.5,13.1,9.66,13,9,13z"/>
</svg>
