<?xml version="1.0" encoding="utf-8"?>
<!-- Generator: Adobe Illustrator 16.0.0, SVG Export Plug-In . SVG Version: 6.00 Build 0)  -->
<!DOCTYPE svg PUBLIC "-//W3C//DTD SVG 1.1//EN" "http://www.w3.org/Graphics/SVG/1.1/DTD/svg11.dtd">
<svg version="1.1" id="Capa_1" xmlns="http://www.w3.org/2000/svg" xmlns:xlink="http://www.w3.org/1999/xlink" x="0px" y="0px"
	 width="24px" height="24px" viewBox="0 0 24 24" enable-background="new 0 0 24 24" xml:space="preserve">
<path fill="none" d="M0,0h24v24H0V0z"/>
<path fill="#4CAF50" d="M5,16c0,3.87,3.13,7,7,7s7-3.13,7-7v-4H5V16z"/>
<path fill="#4CAF50" d="M16.12,4.37l2.101-2.1L17.4,1.44L15.1,3.75C14.16,3.28,13.12,3,12,3S9.84,3.28,8.91,3.75L6.6,1.44L5.78,2.27
	l2.1,2.1C6.14,5.64,5,7.68,5,10v1h14v-1C19,7.68,17.859,5.64,16.12,4.37z"/>
<circle fill="#FFFFFF" cx="9" cy="8" r="1"/>
<circle fill="#FFFFFF" cx="15" cy="8" r="1"/>
</svg>
