<?xml version="1.0" encoding="utf-8"?>
<!-- Generator: Adobe Illustrator 16.0.0, SVG Export Plug-In . SVG Version: 6.00 Build 0)  -->
<!DOCTYPE svg PUBLIC "-//W3C//DTD SVG 1.1//EN" "http://www.w3.org/Graphics/SVG/1.1/DTD/svg11.dtd">
<svg version="1.1" id="Capa_1" xmlns="http://www.w3.org/2000/svg" xmlns:xlink="http://www.w3.org/1999/xlink" x="0px" y="0px"
	 width="24px" height="24px" viewBox="0 0 24 24" enable-background="new 0 0 24 24" xml:space="preserve">
<g>
	<path fill="#66BB6A" d="M21.003,5.112v13.623c0,1.248-1.021,2.271-2.271,2.271H5.11c-1.249,0-2.271-1.022-2.271-2.271V5.112
		c0-1.249,1.022-2.271,2.271-2.271h13.623C19.98,2.841,21.003,3.863,21.003,5.112z"/>
	<path opacity="0.7" fill="#4CAF50" d="M21.003,5.112v13.623c0,1.248-1.021,2.271-2.271,2.271h-6.812V2.841h6.812
		C19.98,2.841,21.003,3.863,21.003,5.112z"/>
	<polygon fill="#FFFFFF" points="17.598,13.059 13.057,13.059 13.057,17.6 10.786,17.6 10.786,13.059 6.246,13.059 6.246,10.788 
		10.786,10.788 10.786,6.247 13.057,6.247 13.057,10.788 17.598,10.788 	"/>
</g>
<path fill="none" d="M0,0h24v24H0V0z"/>
</svg>
