<?xml version="1.0" encoding="utf-8"?>
<!-- Generator: Adobe Illustrator 15.0.0, SVG Export Plug-In . SVG Version: 6.00 Build 0)  -->
<!DOCTYPE svg PUBLIC "-//W3C//DTD SVG 1.1//EN" "http://www.w3.org/Graphics/SVG/1.1/DTD/svg11.dtd">
<svg version="1.1" id="Layer_1" xmlns="http://www.w3.org/2000/svg" xmlns:xlink="http://www.w3.org/1999/xlink" x="0px" y="0px"
	 width="24px" height="24px" viewBox="0 0 24 24" enable-background="new 0 0 24 24" xml:space="preserve">
<path fill="none" d="M0,0h24v24H0V0z M18.311,6l-2.761,5L18.311,6z"/>
<polygon fill="#4CAF50" points="11,9 13,9 13,6 16,6 16,4 13,4 13,1 11,1 11,4 8,4 8,6 11,6 "/>
<path fill="#455A64" d="M7,18c-1.1,0-1.99,0.9-1.99,2S5.9,22,7,22s2-0.9,2-2S8.1,18,7,18z M17,18c-1.1,0-1.99,0.9-1.99,2
	S15.9,22,17,22s2-0.9,2-2S18.1,18,17,18z"/>
<path fill="#607D8B" d="M7.17,14.75l0.03-0.12L8.1,13h7.45c0.75,0,1.41-0.41,1.75-1.03l3.86-7.01L19.42,4h-0.01l-1.1,2l-2.761,5
	H8.53L8.4,10.73L6.16,6L5.21,4L4.27,2H1v2h2l3.6,7.59l-1.35,2.45C5.09,14.32,5,14.65,5,15c0,1.1,0.9,2,2,2h12v-2H7.42
	C7.29,15,7.17,14.891,7.17,14.75z"/>
</svg>
