<?xml version="1.0" encoding="utf-8"?>
<!-- Generator: Adobe Illustrator 16.0.0, SVG Export Plug-In . SVG Version: 6.00 Build 0)  -->
<!DOCTYPE svg PUBLIC "-//W3C//DTD SVG 1.1//EN" "http://www.w3.org/Graphics/SVG/1.1/DTD/svg11.dtd">
<svg version="1.1" id="Capa_1" xmlns="http://www.w3.org/2000/svg" xmlns:xlink="http://www.w3.org/1999/xlink" x="0px" y="0px"
	 width="24px" height="24px" viewBox="0 0 24 24" enable-background="new 0 0 24 24" xml:space="preserve">
<path fill="#78909C" d="M12,2C6.49,2,2,6.49,2,12s4.49,10,10,10s10-4.49,10-10S17.51,2,12,2z M12,20c-4.41,0-8-3.59-8-8s3.59-8,8-8
	s8,3.59,8,8S16.41,20,12,20z"/>
<path fill="#546E7A" d="M15,12c0,1.66-1.34,3-3,3s-3-1.34-3-3s1.34-3,3-3S15,10.34,15,12z"/>
<path fill="none" d="M0,0h24v24H0V0z"/>
</svg>
