<?xml version="1.0" encoding="utf-8"?>
<!-- Generator: Adobe Illustrator 16.0.0, SVG Export Plug-In . SVG Version: 6.00 Build 0)  -->
<!DOCTYPE svg PUBLIC "-//W3C//DTD SVG 1.1//EN" "http://www.w3.org/Graphics/SVG/1.1/DTD/svg11.dtd">
<svg version="1.1" xmlns="http://www.w3.org/2000/svg" xmlns:xlink="http://www.w3.org/1999/xlink" x="0px" y="0px" width="24px"
	 height="24px" viewBox="0 0 24 24" enable-background="new 0 0 24 24" xml:space="preserve">
<g id="Capa_1">
	<path opacity="0.8" fill="#90A4AE" d="M20.969,16v-2l-8-5V3.5c0-0.83-0.67-1.5-1.5-1.5s-1.5,0.67-1.5,1.5V9l-8,5v2l8-2.5V19l-2,1.5
		V22l3.5-1l3.5,1v-1.5l-2-1.5v-5.5L20.969,16z"/>
	<path fill="none" d="M0,0h24v24H0V0z M0,0h24v24H0V0z M0,0h24v24H0V0z"/>
</g>
<g id="Capa_2">
	<polygon fill="#9FA8DA" points="3.016,5.281 4.25,3.984 19.984,19.719 18.703,20.969 	"/>
</g>
</svg>
