<?xml version="1.0" encoding="utf-8"?>
<!-- Generator: Adobe Illustrator 15.0.0, SVG Export Plug-In . SVG Version: 6.00 Build 0)  -->
<!DOCTYPE svg PUBLIC "-//W3C//DTD SVG 1.1//EN" "http://www.w3.org/Graphics/SVG/1.1/DTD/svg11.dtd">
<svg version="1.1" id="Layer_1" xmlns="http://www.w3.org/2000/svg" xmlns:xlink="http://www.w3.org/1999/xlink" x="0px" y="0px"
	 width="24px" height="24px" viewBox="0 0 24 24" enable-background="new 0 0 24 24" xml:space="preserve">
<path fill="none" d="M0,0h24v24H0V0z"/>
<polygon fill="#B39DDB" points="22,5.72 17.4,1.86 16.109,3.39 20.71,7.25 "/>
<polygon fill="#B39DDB" points="7.88,3.39 6.6,1.86 2,5.71 3.29,7.24 "/>
<path fill="#7E57C2" d="M12,4c-4.97,0-9,4.03-9,9s4.02,9,9,9c4.971,0,9-4.03,9-9S16.971,4,12,4z"/>
<path fill="#E0E0E0" d="M12,20c-3.87,0-7-3.13-7-7s3.13-7,7-7s7,3.13,7,7S15.87,20,12,20z"/>
<polygon fill="#303F9F" points="12.5,8 11,8 11,14 15.75,16.85 16.5,15.62 12.5,13.25 "/>
</svg>
