<?xml version="1.0" encoding="utf-8"?>
<!-- Generator: Adobe Illustrator 15.0.0, SVG Export Plug-In . SVG Version: 6.00 Build 0)  -->
<!DOCTYPE svg PUBLIC "-//W3C//DTD SVG 1.1//EN" "http://www.w3.org/Graphics/SVG/1.1/DTD/svg11.dtd">
<svg version="1.1" id="Layer_1" xmlns="http://www.w3.org/2000/svg" xmlns:xlink="http://www.w3.org/1999/xlink" x="0px" y="0px"
	 width="24px" height="24px" viewBox="0 0 24 24" enable-background="new 0 0 24 24" xml:space="preserve">
<path fill="none" d="M0,0h24v24H0V0z"/>
<path fill="#263238" d="M10.564,13.436L4.93,19.07C3.12,17.26,2,14.76,2,12C2,6.48,6.48,2,12,2v7.967
	c-1.118,0-2.033,0.915-2.033,2.033C9.967,12.559,10.196,13.067,10.564,13.436z M19.07,4.93l-5.635,5.634
	c0.369,0.369,0.598,0.877,0.598,1.436c0,1.118-0.915,2.033-2.033,2.033V22c5.52,0,10-4.48,10-10C22,9.24,20.88,6.74,19.07,4.93z"/>
<path fill="#546E7A" d="M12,9.967V2c2.76,0,5.26,1.12,7.07,2.93l-5.635,5.634C13.067,10.196,12.559,9.967,12,9.967z M4.93,19.07
	C6.74,20.88,9.24,22,12,22v-7.967c-0.559,0-1.067-0.229-1.436-0.598L4.93,19.07z"/>
<path fill="#64B5F6" d="M12,16.5c-2.49,0-4.5-2.01-4.5-4.5S9.51,7.5,12,7.5s4.5,2.01,4.5,4.5S14.49,16.5,12,16.5z M12,11
	c-0.55,0-1,0.45-1,1s0.45,1,1,1s1-0.45,1-1S12.55,11,12,11z"/>
</svg>
