<?xml version="1.0" encoding="utf-8"?>
<!-- Generator: Adobe Illustrator 16.0.0, SVG Export Plug-In . SVG Version: 6.00 Build 0)  -->
<!DOCTYPE svg PUBLIC "-//W3C//DTD SVG 1.1//EN" "http://www.w3.org/Graphics/SVG/1.1/DTD/svg11.dtd">
<svg version="1.1" id="Capa_1" xmlns="http://www.w3.org/2000/svg" xmlns:xlink="http://www.w3.org/1999/xlink" x="0px" y="0px"
	 width="24px" height="24px" viewBox="0 0 24 24" enable-background="new 0 0 24 24" xml:space="preserve">
<path fill="none" d="M0,0h24v24H0V0z"/>
<path fill="#4CAF50" d="M6,18c0,0.55,0.45,1,1,1h1v3.5C8,23.33,8.67,24,9.5,24s1.5-0.67,1.5-1.5V19h2v3.5c0,0.83,0.67,1.5,1.5,1.5
	s1.5-0.67,1.5-1.5V19h1c0.55,0,1-0.45,1-1V8H6V18z"/>
<path fill="#4CAF50" d="M3.5,8C2.67,8,2,8.67,2,9.5v7C2,17.33,2.67,18,3.5,18S5,17.33,5,16.5v-7C5,8.67,4.33,8,3.5,8z"/>
<path fill="#4CAF50" d="M20.5,8C19.67,8,19,8.67,19,9.5v7c0,0.83,0.67,1.5,1.5,1.5s1.5-0.67,1.5-1.5v-7C22,8.67,21.33,8,20.5,8z"/>
<path fill="#4CAF50" d="M15.529,2.16l1.301-1.3c0.199-0.2,0.199-0.51,0-0.71c-0.2-0.2-0.51-0.2-0.71,0l-1.479,1.48
	C13.85,1.23,12.95,1,12,1c-0.96,0-1.86,0.23-2.66,0.63L7.85,0.15c-0.2-0.2-0.51-0.2-0.71,0c-0.2,0.2-0.2,0.51,0,0.71l1.31,1.31
	C6.97,3.26,6,5.01,6,7h12C18,5.01,17.029,3.25,15.529,2.16z"/>
<rect x="9" y="4" fill="#FFFFFF" width="1" height="1"/>
<rect x="14" y="4" fill="#FFFFFF" width="1" height="1"/>
</svg>
