<?xml version="1.0" encoding="utf-8"?>
<!-- Generator: Adobe Illustrator 15.0.0, SVG Export Plug-In . SVG Version: 6.00 Build 0)  -->
<!DOCTYPE svg PUBLIC "-//W3C//DTD SVG 1.1//EN" "http://www.w3.org/Graphics/SVG/1.1/DTD/svg11.dtd">
<svg version="1.1" id="Layer_1" xmlns="http://www.w3.org/2000/svg" xmlns:xlink="http://www.w3.org/1999/xlink" x="0px" y="0px"
	 width="24px" height="24px" viewBox="0 0 24 24" enable-background="new 0 0 24 24" xml:space="preserve">
<path fill="#795548" d="M20.54,5.23l-1.39-1.68C18.88,3.21,18.471,3,18,3H6C5.53,3,5.12,3.21,4.84,3.55L3.46,5.23
	C3.17,5.57,3,6.02,3,6.5V19c0,1.1,0.9,2,2,2h14c1.1,0,2-0.9,2-2V6.5C21,6.02,20.83,5.57,20.54,5.23z"/>
<polygon fill="#FB8C00" points="12,17.5 6.5,12 10,12 10,10 14,10 14,12 17.5,12 "/>
<polygon fill="#5D4037" points="5.12,5 5.93,4 17.93,4 18.87,5 "/>
<path fill="none" d="M0,0h24v24H0V0z"/>
</svg>
