<?xml version="1.0" encoding="utf-8"?>
<!-- Generator: Adobe Illustrator 16.0.0, SVG Export Plug-In . SVG Version: 6.00 Build 0)  -->
<!DOCTYPE svg PUBLIC "-//W3C//DTD SVG 1.1//EN" "http://www.w3.org/Graphics/SVG/1.1/DTD/svg11.dtd">
<svg version="1.1" id="Capa_1" xmlns="http://www.w3.org/2000/svg" xmlns:xlink="http://www.w3.org/1999/xlink" x="0px" y="0px"
	 width="24px" height="24px" viewBox="0 0 24 24" enable-background="new 0 0 24 24" xml:space="preserve">
<rect x="2.708" y="4.25" fill="#C5CAE9" width="18.667" height="15.375"/>
<polygon fill="#9FA8DA" points="19,12 17,12 17,15 14,15 14,17 19,17 "/>
<polygon fill="#9FA8DA" points="7,9 10,9 10,7 5,7 5,12 7,12 "/>
<path fill="#5C6BC0" d="M21,3H3C1.9,3,1,3.9,1,5v14c0,1.1,0.9,2,2,2h18c1.1,0,2-0.9,2-2V5C23,3.9,22.1,3,21,3z M21,19.01H3V4.99h18
	V19.01z"/>
<path fill="none" d="M0,0v24h24V0H0z M3,4.99h18v14.02H3V4.99z"/>
</svg>
