<?xml version="1.0" encoding="utf-8"?>
<!-- Generator: Adobe Illustrator 16.0.0, SVG Export Plug-In . SVG Version: 6.00 Build 0)  -->
<!DOCTYPE svg PUBLIC "-//W3C//DTD SVG 1.1//EN" "http://www.w3.org/Graphics/SVG/1.1/DTD/svg11.dtd">
<svg version="1.1" id="Capa_1" xmlns="http://www.w3.org/2000/svg" xmlns:xlink="http://www.w3.org/1999/xlink" x="0px" y="0px"
	 width="24px" height="24px" viewBox="0 0 24 24" enable-background="new 0 0 24 24" xml:space="preserve">
<path fill="#9FA8DA" d="M19,3H5C3.9,3,3,3.9,3,5v14c0,1.1,0.9,2,2,2h14c1.1,0,2-0.9,2-2V5C21,3.9,20.1,3,19,3z M9,17H7v-7h2V17z
	 M13,17h-2V7h2V17z M17,17h-2v-4h2V17z"/>
<rect x="15" y="13" fill="#BA68C8" width="2" height="4"/>
<rect x="11" y="7" fill="#F06292" width="2" height="10"/>
<rect x="7" y="10" fill="#4FC3F7" width="2" height="7"/>
<path fill="none" d="M0,0h24v24H0V0z"/>
</svg>
