<?xml version="1.0" encoding="utf-8"?>
<!-- Generator: Adobe Illustrator 16.0.0, SVG Export Plug-In . SVG Version: 6.00 Build 0)  -->
<!DOCTYPE svg PUBLIC "-//W3C//DTD SVG 1.1//EN" "http://www.w3.org/Graphics/SVG/1.1/DTD/svg11.dtd">
<svg version="1.1" id="Capa_1" xmlns="http://www.w3.org/2000/svg" xmlns:xlink="http://www.w3.org/1999/xlink" x="0px" y="0px"
	 width="24px" height="24px" viewBox="0 0 24 24" enable-background="new 0 0 24 24" xml:space="preserve">
<path fill="none" d="M0,0h24v24H0V0z"/>
<g>
	<path fill="#4E342E" d="M21,5.02v14c0,1.101-0.9,2-2,2H5c-1.1,0-2-0.899-2-2v-14c0-1.1,0.9-2,2-2h3.73v0.01h3.17
		c0.03-0.01,0.07-0.01,0.1-0.01s0.07,0,0.1,0.01h3.419V3.02H19C20.1,3.02,21,3.92,21,5.02z"/>
	<path fill="#D7CCC8" d="M19.709,6.553c0-1.354-1.1-2.454-2.455-2.454H6.79c-1.356,0-2.455,1.099-2.455,2.454V17.23
		c0,1.354,1.099,2.453,2.455,2.453h10.464c1.355,0,2.455-1.1,2.455-2.453V6.553z"/>
	<path fill="#F1F8E9" d="M13,4.02c0,0.03,0,0.05-0.01,0.08C12.95,4.61,12.52,5.02,12,5.02c-0.52,0-0.95-0.41-0.99-0.92
		C11,4.07,11,4.05,11,4.02c0-0.52,0.4-0.94,0.9-0.99c0.03-0.01,0.07-0.01,0.1-0.01s0.07,0,0.1,0.01C12.6,3.08,13,3.5,13,4.02z"/>
</g>
<polygon fill="#FF7043" points="16,15 12,15 12,18 7,13 12,8 12,11 16,11 "/>
<path fill="#FFA000" d="M7.019,6.229l9.985,0.031l0.002-1.236v-2h-2.18c-0.42-1.16-1.521-2-2.821-2c-1.3,0-2.4,0.84-2.82,2h-2.18v2
	L7.019,6.229z M12.005,3.024c0.549,0,1,0.45,1,1s-0.451,1-1,1c-0.55,0-1-0.45-1-1S11.456,3.024,12.005,3.024z"/>
<path fill="#4E342E" d="M12.1,3.03h-0.2c0.03-0.01,0.07-0.01,0.1-0.01S12.07,3.02,12.1,3.03z"/>
</svg>
