<?xml version="1.0" encoding="utf-8"?>
<!-- Generator: Adobe Illustrator 16.0.0, SVG Export Plug-In . SVG Version: 6.00 Build 0)  -->
<!DOCTYPE svg PUBLIC "-//W3C//DTD SVG 1.1//EN" "http://www.w3.org/Graphics/SVG/1.1/DTD/svg11.dtd">
<svg version="1.1" id="Capa_1" xmlns="http://www.w3.org/2000/svg" xmlns:xlink="http://www.w3.org/1999/xlink" x="0px" y="0px"
	 width="24px" height="24px" viewBox="0 0 24 24" enable-background="new 0 0 24 24" xml:space="preserve">
<g>
	<path fill="#4E342E" d="M19.029,3.019h-4.18c-0.42-1.16-1.521-2-2.823-2c-1.299,0-2.4,0.84-2.82,2h-4.18c-1.1,0-2,0.9-2,2v14
		c0,1.1,0.9,2,2,2h14c1.101,0,2-0.9,2-2v-14C21.029,3.918,20.129,3.019,19.029,3.019z"/>
	<path fill="#D7CCC8" d="M19.736,6.556c0-1.355-1.1-2.454-2.455-2.454H6.817c-1.356,0-2.455,1.099-2.455,2.454v10.676
		c0,1.354,1.099,2.453,2.455,2.453h10.464c1.355,0,2.455-1.1,2.455-2.453V6.556z"/>
	<circle fill="#F1F8E9" cx="12.029" cy="4.019" r="1"/>
</g>
<rect x="11" y="16" fill="#8E24AA" width="2" height="2"/>
<rect x="11" y="8" fill="#8E24AA" width="2" height="6"/>
<path fill="#FFA000" d="M7.026,6.224l9.984,0.031l0.002-1.236v-2h-2.18c-0.42-1.16-1.521-2-2.82-2c-1.299,0-2.4,0.84-2.82,2h-2.18v2
	L7.026,6.224z M12.013,3.019c0.549,0,1,0.45,1,1c0,0.55-0.451,1-1,1c-0.55,0-1-0.45-1-1C11.013,3.469,11.463,3.019,12.013,3.019z"/>
</svg>
