<?xml version="1.0" encoding="utf-8"?>
<!-- Generator: Adobe Illustrator 16.0.0, SVG Export Plug-In . SVG Version: 6.00 Build 0)  -->
<!DOCTYPE svg PUBLIC "-//W3C//DTD SVG 1.1//EN" "http://www.w3.org/Graphics/SVG/1.1/DTD/svg11.dtd">
<svg version="1.1" id="Capa_1" xmlns="http://www.w3.org/2000/svg" xmlns:xlink="http://www.w3.org/1999/xlink" x="0px" y="0px"
	 width="24px" height="24px" viewBox="0 0 24 24" enable-background="new 0 0 24 24" xml:space="preserve">
<path fill="none" d="M0,0h24v24H0V0z"/>
<g>
	<path fill="#4E342E" d="M18.993,3.019h-4.181c-0.42-1.16-1.521-2-2.819-2c-1.299,0-2.4,0.84-2.82,2h-4.18c-1.1,0-2,0.9-2,2v14
		c0,1.1,0.9,2,2,2h14c1.1,0,2-0.9,2-2v-14C20.993,3.918,20.093,3.019,18.993,3.019z"/>
	<path fill="#D7CCC8" d="M19.701,6.556c0-1.355-1.102-2.454-2.455-2.454H6.781c-1.356,0-2.455,1.099-2.455,2.454v10.676
		c0,1.354,1.099,2.453,2.455,2.453h10.465c1.354,0,2.455-1.099,2.455-2.453V6.556z"/>
	<circle fill="#F1F8E9" cx="11.993" cy="4.019" r="1"/>
</g>
<path fill="#039BE5" d="M12,7.346c1.66,0,3,1.34,3,3c0,1.66-1.34,3-3,3s-3-1.34-3-3C9,8.686,10.34,7.346,12,7.346z"/>
<path fill="#0288D1" d="M18,19H6v-1.4c0-2,4-3.1,6-3.1s6,1.1,6,3.1V19z"/>
<path fill="#FFA000" d="M7.01,6.24l9.984,0.031l0.002-1.236v-2h-2.18c-0.42-1.16-1.521-2-2.82-2s-2.4,0.84-2.82,2h-2.18v2L7.01,6.24
	z M11.998,3.035c0.549,0,1,0.45,1,1c0,0.55-0.451,1-1,1c-0.551,0-1-0.45-1-1C10.998,3.484,11.447,3.035,11.998,3.035z"/>
</svg>
