<?xml version="1.0" encoding="utf-8"?>
<!-- Generator: Adobe Illustrator 16.0.0, SVG Export Plug-In . SVG Version: 6.00 Build 0)  -->
<!DOCTYPE svg PUBLIC "-//W3C//DTD SVG 1.1//EN" "http://www.w3.org/Graphics/SVG/1.1/DTD/svg11.dtd">
<svg version="1.1" id="Capa_1" xmlns="http://www.w3.org/2000/svg" xmlns:xlink="http://www.w3.org/1999/xlink" x="0px" y="0px"
	 width="24px" height="24px" viewBox="0 0 24 24" enable-background="new 0 0 24 24" xml:space="preserve">
<g>
	<path fill="#4E342E" d="M19.001,3.016H14.82c-0.42-1.16-1.521-2-2.819-2s-2.4,0.84-2.82,2h-4.18c-1.1,0-2,0.9-2,2v14
		c0,1.101,0.9,2,2,2h14c1.101,0,2-0.899,2-2v-14C21.001,3.916,20.102,3.016,19.001,3.016z"/>
	<path fill="#D7CCC8" d="M19.71,6.553c0-1.354-1.103-2.454-2.455-2.454H6.79c-1.356,0-2.455,1.099-2.455,2.454V17.23
		c0,1.354,1.099,2.453,2.455,2.453h10.465c1.354,0,2.455-1.101,2.455-2.453V6.553z"/>
	<circle fill="#F1F8E9" cx="12.001" cy="4.016" r="1"/>
</g>
<path fill="none" d="M0,0h24v24H0V0z"/>
<rect x="7" y="16" fill="#455A64" width="7" height="2"/>
<rect x="7" y="12" fill="#455A64" width="10" height="2"/>
<rect x="7" y="8" fill="#455A64" width="10" height="2"/>
<path fill="#FFA000" d="M7.011,6.213l9.984,0.031l0.002-1.236v-2h-2.18c-0.42-1.16-1.521-2-2.82-2s-2.4,0.84-2.82,2h-2.18v2
	L7.011,6.213z M11.997,3.008c0.55,0,1,0.45,1,1s-0.45,1-1,1s-1-0.45-1-1S11.447,3.008,11.997,3.008z"/>
</svg>
