<?xml version="1.0" encoding="utf-8"?>
<!-- Generator: Adobe Illustrator 15.0.0, SVG Export Plug-In . SVG Version: 6.00 Build 0)  -->
<!DOCTYPE svg PUBLIC "-//W3C//DTD SVG 1.1//EN" "http://www.w3.org/Graphics/SVG/1.1/DTD/svg11.dtd">
<svg version="1.1" id="Layer_1" xmlns="http://www.w3.org/2000/svg" xmlns:xlink="http://www.w3.org/1999/xlink" x="0px" y="0px"
	 width="24px" height="24px" viewBox="0 0 24 24" enable-background="new 0 0 24 24" xml:space="preserve">
<rect x="10" y="6.01" opacity="0.5" fill="#689F38" width="3" height="12"/>
<path fill="#689F38" d="M11.8,10.9c-2.27-0.59-3-1.2-3-2.15c0-1.09,1.01-1.85,2.7-1.85c1.779,0,2.439,0.85,2.5,2.1h2.21
	C16.141,7.28,15.09,5.7,13,5.19V3h-3v2.16C8.06,5.58,6.5,6.84,6.5,8.77c0,2.31,1.91,3.46,4.7,4.13c2.5,0.6,3,1.479,3,2.41
	c0,0.689-0.49,1.789-2.7,1.789c-2.06,0-2.87-0.92-2.98-2.1h-2.2c0.12,2.189,1.76,3.42,3.68,3.83V21h3v-2.15
	c1.95-0.369,3.5-1.5,3.5-3.55C16.5,12.46,14.07,11.49,11.8,10.9z"/>
<path fill="none" d="M0,0h24v24H0V0z"/>
</svg>
