<?xml version="1.0" encoding="utf-8"?>
<!-- Generator: Adobe Illustrator 15.0.0, SVG Export Plug-In . SVG Version: 6.00 Build 0)  -->
<!DOCTYPE svg PUBLIC "-//W3C//DTD SVG 1.1//EN" "http://www.w3.org/Graphics/SVG/1.1/DTD/svg11.dtd">
<svg version="1.1" id="Layer_1" xmlns="http://www.w3.org/2000/svg" xmlns:xlink="http://www.w3.org/1999/xlink" x="0px" y="0px"
	 width="24px" height="24px" viewBox="0 0 24 24" enable-background="new 0 0 24 24" xml:space="preserve">
<path fill="none" d="M0,0h24v24H0V0z"/>
<path fill="#757575" d="M7,17.5c0,3.04,2.46,5.5,5.5,5.5s5.5-2.46,5.5-5.5V6h-1.5v11.5c0,2.21-1.79,4-4,4s-4-1.79-4-4V6H7V17.5z"/>
<path fill="#616161" d="M7,5v1h1.5V5c0-1.38,1.12-2.5,2.5-2.5s2.5,1.12,2.5,2.5v10.5c0,0.55-0.45,1-1,1s-1-0.45-1-1V6H10v9.5
	c0,1.38,1.12,2.5,2.5,2.5s2.5-1.12,2.5-2.5V5c0-2.21-1.79-4-4-4S7,2.79,7,5z"/>
</svg>
