<?xml version="1.0" encoding="utf-8"?>
<!-- Generator: Adobe Illustrator 15.0.0, SVG Export Plug-In . SVG Version: 6.00 Build 0)  -->
<!DOCTYPE svg PUBLIC "-//W3C//DTD SVG 1.1//EN" "http://www.w3.org/Graphics/SVG/1.1/DTD/svg11.dtd">
<svg version="1.1" id="Layer_1" xmlns="http://www.w3.org/2000/svg" xmlns:xlink="http://www.w3.org/1999/xlink" x="0px" y="0px"
	 width="24px" height="24px" viewBox="0 0 24 24" enable-background="new 0 0 24 24" xml:space="preserve">
<path fill="none" d="M0,0h24v24H0V0z"/>
<path fill="#757575" d="M7.5,7C4.46,7,2,9.46,2,12.5S4.46,18,7.5,18H17v-1.5H7.5c-2.21,0-4-1.79-4-4s1.79-4,4-4H17V7H7.5z"/>
<path fill="#616161" d="M18,7h-1v1.5h1c1.38,0,2.5,1.12,2.5,2.5s-1.12,2.5-2.5,2.5H9.5c-0.55,0-1-0.45-1-1s0.45-1,1-1H17V10H9.5
	C8.12,10,7,11.12,7,12.5S8.12,15,9.5,15H18c2.21,0,4-1.79,4-4S20.21,7,18,7z"/>
</svg>
