<?xml version="1.0" encoding="utf-8"?>
<!-- Generator: Adobe Illustrator 16.0.0, SVG Export Plug-In . SVG Version: 6.00 Build 0)  -->
<!DOCTYPE svg PUBLIC "-//W3C//DTD SVG 1.1//EN" "http://www.w3.org/Graphics/SVG/1.1/DTD/svg11.dtd">
<svg version="1.1" id="Capa_1" xmlns="http://www.w3.org/2000/svg" xmlns:xlink="http://www.w3.org/1999/xlink" x="0px" y="0px"
	 width="24px" height="24px" viewBox="0 0 24 24" enable-background="new 0 0 24 24" xml:space="preserve">
<path fill="#FFA726" d="M12,6v3l4-4l-4-4v3c-4.42,0-8,3.58-8,8c0,1.57,0.46,3.03,1.24,4.26L6.7,14.8C6.25,13.97,6,13.01,6,12
	C6,8.69,8.69,6,12,6z"/>
<path fill="#FB8C00" d="M18.76,7.74L17.3,9.2c0.44,0.84,0.7,1.79,0.7,2.8c0,3.311-2.689,6-6,6v-3l-4,4l4,4v-3c4.42,0,8-3.58,8-8
	C20,10.43,19.54,8.97,18.76,7.74z"/>
<path fill="none" d="M0,0h24v24H0V0z"/>
</svg>
