<?xml version="1.0" encoding="utf-8"?>
<!-- Generator: Adobe Illustrator 15.0.0, SVG Export Plug-In . SVG Version: 6.00 Build 0)  -->
<!DOCTYPE svg PUBLIC "-//W3C//DTD SVG 1.1//EN" "http://www.w3.org/Graphics/SVG/1.1/DTD/svg11.dtd">
<svg version="1.1" id="Layer_1" xmlns="http://www.w3.org/2000/svg" xmlns:xlink="http://www.w3.org/1999/xlink" x="0px" y="0px"
	 width="24px" height="24px" viewBox="0 0 24 24" enable-background="new 0 0 24 24" xml:space="preserve">
<path fill="none" d="M0,0h24v24H0V0z"/>
<path opacity="0.3" d="M11,17c0,0.55,0.45,1,1,1s1-0.45,1-1s-0.45-1-1-1S11,16.45,11,17z M18,12c0-0.55-0.45-1-1-1s-1,0.45-1,1
	s0.45,1,1,1S18,12.55,18,12z M6,12c0,0.55,0.45,1,1,1s1-0.45,1-1s-0.45-1-1-1S6,11.45,6,12z"/>
<path fill="#43A047" d="M12,13l1.41-1.41l-6.8-6.8v0.02C6.079,5.208,5.596,5.664,5.165,6.165L6.58,7.58L12,13z"/>
<path fill="#AED581" d="M5,12c0-1.68,0.59-3.22,1.58-4.42L5.165,6.165C3.817,7.733,3,9.765,3,12c0,2.74,1.227,5.19,3.158,6.842
	l1.417-1.417C6.003,16.142,5,14.19,5,12z"/>
<path fill="#FFB74D" d="M19.201,17.381l-1.426-1.426C16.516,17.794,14.401,19,12,19c-1.68,0-3.22-0.591-4.425-1.575l-1.417,1.417
	C7.729,20.185,9.766,21,12,21C14.95,21,17.561,19.574,19.201,17.381z"/>
<path fill="#FF8A65" d="M21,12c0-4.97-4.029-9-9-9h-1v4h2V5.08c3.391,0.49,6,3.39,6,6.92c0,1.469-0.453,2.83-1.225,3.955
	l1.426,1.426C20.326,15.879,21,14.021,21,12z"/>
</svg>
