<?xml version="1.0" encoding="utf-8"?>
<!-- Generator: Adobe Illustrator 16.0.0, SVG Export Plug-In . SVG Version: 6.00 Build 0)  -->
<!DOCTYPE svg PUBLIC "-//W3C//DTD SVG 1.1//EN" "http://www.w3.org/Graphics/SVG/1.1/DTD/svg11.dtd">
<svg version="1.1" id="Capa_1" xmlns="http://www.w3.org/2000/svg" xmlns:xlink="http://www.w3.org/1999/xlink" x="0px" y="0px"
	 width="24px" height="24px" viewBox="0 0 24 24" enable-background="new 0 0 24 24" xml:space="preserve">
<path fill="none" d="M24,0v19c0,1.1-0.9,2-2,2H7c-0.69,0-1.23-0.36-1.59-0.89L0,12V0H24z"/>
<path fill="#E53935" d="M24,5v14c0,1.1-0.9,2-2,2H7c-0.69,0-1.23-0.36-1.59-0.89L0,12l0.03-0.04l5.38-8.08C5.77,3.35,6.31,3,7,3h15
	C23.1,3,24,3.9,24,5z"/>
<path opacity="0.6" fill="#D32F2F" d="M0,11.96V12l5.41,8.11C5.77,20.64,6.31,21,7,21h15c1.1,0,2-0.9,2-2v-7.04H0z"/>
<polygon fill="#FFFFFF" points="19,15.59 17.59,17 14,13.41 10.41,17 9,15.59 12.59,12 9,8.41 10.41,7 14,10.59 17.59,7 19,8.41 
	15.41,12 "/>
</svg>
