<?xml version="1.0" encoding="utf-8"?>
<!-- Generator: Adobe Illustrator 16.0.0, SVG Export Plug-In . SVG Version: 6.00 Build 0)  -->
<!DOCTYPE svg PUBLIC "-//W3C//DTD SVG 1.1//EN" "http://www.w3.org/Graphics/SVG/1.1/DTD/svg11.dtd">
<svg version="1.1" id="Capa_1" xmlns="http://www.w3.org/2000/svg" xmlns:xlink="http://www.w3.org/1999/xlink" x="0px" y="0px"
	 width="24px" height="24px" viewBox="0 0 24 24" enable-background="new 0 0 24 24" xml:space="preserve">
<path fill="#8BC34A" fill-opacity="0.3" d="M17,5.33V9h-4V7l-1.07,2H7V5.33C7,4.6,7.6,4,8.33,4H10V2h4v2h1.67C16.4,4,17,4.6,17,5.33
	z"/>
<polygon fill="#FFFFFF" points="11,20 11,14.5 9,14.5 11.93,9 13,7 13,12.5 15,12.5 "/>
<path fill="#8BC34A" d="M17,9v11.67C17,21.4,16.4,22,15.66,22H8.33C7.6,22,7,21.4,7,20.67V9h4.93L9,14.5h2V20l4-7.5h-2V9H17z"/>
<path fill="none" d="M0,0h24v24H0V0z"/>
</svg>
