<?xml version="1.0" encoding="utf-8"?>
<!-- Generator: Adobe Illustrator 16.0.0, SVG Export Plug-In . SVG Version: 6.00 Build 0)  -->
<!DOCTYPE svg PUBLIC "-//W3C//DTD SVG 1.1//EN" "http://www.w3.org/Graphics/SVG/1.1/DTD/svg11.dtd">
<svg version="1.1" id="Capa_1" xmlns="http://www.w3.org/2000/svg" xmlns:xlink="http://www.w3.org/1999/xlink" x="0px" y="0px"
	 width="24px" height="24px" viewBox="0 0 24 24" enable-background="new 0 0 24 24" xml:space="preserve">
<path fill="none" d="M0,0h24v24H0V0z M9,14.5h2V20l3.471-6.5H9.53L9,14.5z M13,12.5V7l-2.93,5.5l-0.54,1h4.941l0.529-1H13z"/>
<path fill="#FFEE58" d="M17,13.5v7.17C17,21.4,16.4,22,15.66,22H8.33C7.6,22,7,21.4,7,20.67V13.5h2.53L9,14.5h2V20l3.47-6.5H17z"/>
<polygon fill="#FFFFFF" fill-opacity="0.3" points="15,12.5 14.47,13.5 11,20 11,14.5 9,14.5 9.53,13.5 13,7 13,12.5 "/>
<path fill="#FFEE58" fill-opacity="0.3" d="M17,5.33v8.17h-2.53l0.53-1h-2V7l-3.47,6.5H7V5.33C7,4.6,7.6,4,8.33,4H10V2h4v2h1.67
	C16.4,4,17,4.6,17,5.33z"/>
</svg>
