<?xml version="1.0" encoding="utf-8"?>
<!-- Generator: Adobe Illustrator 16.0.0, SVG Export Plug-In . SVG Version: 6.00 Build 0)  -->
<!DOCTYPE svg PUBLIC "-//W3C//DTD SVG 1.1//EN" "http://www.w3.org/Graphics/SVG/1.1/DTD/svg11.dtd">
<svg version="1.1" id="Capa_1" xmlns="http://www.w3.org/2000/svg" xmlns:xlink="http://www.w3.org/1999/xlink" x="0px" y="0px"
	 width="24px" height="24px" viewBox="0 0 24 24" enable-background="new 0 0 24 24" xml:space="preserve">
<path fill="none" d="M0,0h24v24H0V0z"/>
<path fill="#546E7A" d="M14.24,12.01l2.32,2.32C16.84,13.609,17,12.82,17,12c0-0.82-0.16-1.59-0.43-2.31L14.24,12.01z"/>
<path fill="#455A64" d="M19.529,6.71l-1.26,1.26c0.631,1.21,0.98,2.57,0.98,4.021c0,1.449-0.359,2.82-0.98,4.02l1.201,1.2
	c0.969-1.54,1.539-3.36,1.539-5.31C21,10.01,20.46,8.23,19.529,6.71z"/>
<path fill="#1976D2" d="M15.719,7.731l-5.71-5.71h-1v7.59l-4.59-4.59l-1.41,1.41l5.59,5.59l-5.59,5.59l1.41,1.41l4.59-4.59v7.59h1
	l5.71-5.71l-4.3-4.29L15.719,7.731z M11.009,5.852l1.88,1.88l-1.88,1.88V5.852z M12.889,16.312l-1.88,1.88v-3.76L12.889,16.312z"/>
</svg>
