<?xml version="1.0" encoding="utf-8"?>
<!-- Generator: Adobe Illustrator 16.0.0, SVG Export Plug-In . SVG Version: 6.00 Build 0)  -->
<!DOCTYPE svg PUBLIC "-//W3C//DTD SVG 1.1//EN" "http://www.w3.org/Graphics/SVG/1.1/DTD/svg11.dtd">
<svg version="1.1" id="Capa_1" xmlns="http://www.w3.org/2000/svg" xmlns:xlink="http://www.w3.org/1999/xlink" x="0px" y="0px"
	 width="24px" height="24px" viewBox="0 0 24 24" enable-background="new 0 0 24 24" xml:space="preserve">
<path fill="none" d="M0,0h24v24H0V0z"/>
<path fill="#42A5F5" d="M14.24,12.01l2.32,2.32C16.84,13.609,17,12.82,17,12c0-0.82-0.16-1.59-0.43-2.31L14.24,12.01z"/>
<path fill="#1E88E5" d="M19.529,6.71l-1.26,1.26c0.631,1.21,0.98,2.57,0.98,4.021c0,1.449-0.359,2.82-0.98,4.02l1.201,1.2
	c0.969-1.54,1.539-3.36,1.539-5.31C21,10.01,20.46,8.23,19.529,6.71z"/>
<path fill="#1976D2" d="M15.708,7.71L9.998,2h-1v7.59L4.408,5l-1.41,1.41L8.588,12l-5.59,5.59L4.408,19l4.59-4.59V22h1l5.71-5.71
	l-4.3-4.29L15.708,7.71z M10.998,5.83l1.88,1.88l-1.88,1.88V5.83z M12.878,16.29l-1.88,1.88v-3.76L12.878,16.29z"/>
</svg>
