<?xml version="1.0" encoding="utf-8"?>
<!-- Generator: Adobe Illustrator 16.0.0, SVG Export Plug-In . SVG Version: 6.00 Build 0)  -->
<!DOCTYPE svg PUBLIC "-//W3C//DTD SVG 1.1//EN" "http://www.w3.org/Graphics/SVG/1.1/DTD/svg11.dtd">
<svg version="1.1" id="Capa_1" xmlns="http://www.w3.org/2000/svg" xmlns:xlink="http://www.w3.org/1999/xlink" x="0px" y="0px"
	 width="24px" height="24px" viewBox="0 0 24 24" enable-background="new 0 0 24 24" xml:space="preserve">
<path fill="none" d="M0,0h24v24H0V0z"/>
<rect x="3.586" y="10.586" transform="matrix(0.7071 0.7071 -0.7071 0.7071 9.9497 -0.0208)" fill="#81D4FA" width="2.828" height="2.828"/>
<rect x="17.586" y="10.586" transform="matrix(0.7071 -0.7071 0.7071 0.7071 -2.9203 16.9497)" fill="#4FC3F7" width="2.828" height="2.828"/>
<path fill="#1976D2" d="M17.72,7.7l-5.71-5.71h-1v7.59L6.42,4.99L5.01,6.4l5.59,5.59l-5.59,5.59l1.41,1.41l4.59-4.59v7.59h1
	l5.71-5.71l-4.3-4.29L17.72,7.7z M13.01,5.82l1.88,1.88l-1.88,1.88V5.82z M14.89,16.28l-1.88,1.88V14.4L14.89,16.28z"/>
</svg>
