<?xml version="1.0" encoding="utf-8"?>
<!-- Generator: Adobe Illustrator 16.0.0, SVG Export Plug-In . SVG Version: 6.00 Build 0)  -->
<!DOCTYPE svg PUBLIC "-//W3C//DTD SVG 1.1//EN" "http://www.w3.org/Graphics/SVG/1.1/DTD/svg11.dtd">
<svg version="1.1" id="Capa_1" xmlns="http://www.w3.org/2000/svg" xmlns:xlink="http://www.w3.org/1999/xlink" x="0px" y="0px"
	 width="24px" height="24px" viewBox="0 0 24 24" enable-background="new 0 0 24 24" xml:space="preserve">
<circle fill="#90A4AE" cx="6" cy="14" r="1"/>
<circle fill="#90A4AE" cx="6" cy="18" r="1"/>
<circle fill="#90A4AE" cx="6" cy="10" r="1"/>
<path fill="#B0BEC5" d="M3,9.5c-0.279,0-0.5,0.22-0.5,0.5s0.221,0.5,0.5,0.5s0.5-0.22,0.5-0.5S3.279,9.5,3,9.5z"/>
<circle fill="#90A4AE" cx="6" cy="6" r="1"/>
<path fill="#B0BEC5" d="M21,10.5c0.279,0,0.5-0.22,0.5-0.5S21.279,9.5,21,9.5s-0.5,0.22-0.5,0.5S20.721,10.5,21,10.5z"/>
<circle fill="#90A4AE" cx="14" cy="6" r="1"/>
<path fill="#B0BEC5" d="M14,3.5c0.279,0,0.5-0.22,0.5-0.5S14.279,2.5,14,2.5S13.5,2.72,13.5,3S13.721,3.5,14,3.5z"/>
<path fill="#B0BEC5" d="M3,13.5c-0.279,0-0.5,0.22-0.5,0.5s0.221,0.5,0.5,0.5s0.5-0.22,0.5-0.5S3.279,13.5,3,13.5z"/>
<path fill="#B0BEC5" d="M10,20.5c-0.279,0-0.5,0.22-0.5,0.5s0.221,0.5,0.5,0.5s0.5-0.22,0.5-0.5S10.279,20.5,10,20.5z"/>
<path fill="#B0BEC5" d="M10,3.5c0.279,0,0.5-0.22,0.5-0.5S10.279,2.5,10,2.5S9.5,2.72,9.5,3S9.721,3.5,10,3.5z"/>
<circle fill="#90A4AE" cx="10" cy="6" r="1"/>
<circle fill="#78909C" cx="10" cy="14" r="1.5"/>
<circle fill="#90A4AE" cx="18" cy="14" r="1"/>
<circle fill="#90A4AE" cx="18" cy="18" r="1"/>
<circle fill="#90A4AE" cx="18" cy="10" r="1"/>
<circle fill="#90A4AE" cx="18" cy="6" r="1"/>
<path fill="#B0BEC5" d="M21,13.5c-0.279,0-0.5,0.22-0.5,0.5s0.221,0.5,0.5,0.5s0.5-0.22,0.5-0.5S21.279,13.5,21,13.5z"/>
<circle fill="#90A4AE" cx="14" cy="18" r="1"/>
<path fill="#B0BEC5" d="M14,20.5c-0.279,0-0.5,0.22-0.5,0.5s0.221,0.5,0.5,0.5s0.5-0.22,0.5-0.5S14.279,20.5,14,20.5z"/>
<circle fill="#78909C" cx="10" cy="10" r="1.5"/>
<circle fill="#90A4AE" cx="10" cy="18" r="1"/>
<circle fill="#78909C" cx="14" cy="14" r="1.5"/>
<circle fill="#78909C" cx="14" cy="10" r="1.5"/>
<path fill="none" d="M0,0h24v24H0V0z"/>
<polygon fill="#9FA8DA" points="2.5,5.27 3.77,4 20,20.23 18.721,21.5 "/>
</svg>
