<?xml version="1.0" encoding="utf-8"?>
<!-- Generator: Adobe Illustrator 16.0.0, SVG Export Plug-In . SVG Version: 6.00 Build 0)  -->
<!DOCTYPE svg PUBLIC "-//W3C//DTD SVG 1.1//EN" "http://www.w3.org/Graphics/SVG/1.1/DTD/svg11.dtd">
<svg version="1.1" id="Capa_1" xmlns="http://www.w3.org/2000/svg" xmlns:xlink="http://www.w3.org/1999/xlink" x="0px" y="0px"
	 width="24px" height="24px" viewBox="0 0 24 24" enable-background="new 0 0 24 24" xml:space="preserve">
<path fill="none" d="M0,0h24v24H0V0z"/>
<circle fill="#4FC3F7" cx="10" cy="10" r="1"/>
<circle fill="#4FC3F7" cx="10" cy="14" r="1"/>
<path fill="#81D4FA" d="M7,9.5c-0.28,0-0.5,0.22-0.5,0.5s0.22,0.5,0.5,0.5s0.5-0.22,0.5-0.5S7.28,9.5,7,9.5z"/>
<path fill="#81D4FA" d="M10,16.5c-0.28,0-0.5,0.22-0.5,0.5s0.22,0.5,0.5,0.5s0.5-0.22,0.5-0.5S10.28,16.5,10,16.5z"/>
<path fill="#81D4FA" d="M7,13.5c-0.28,0-0.5,0.22-0.5,0.5s0.22,0.5,0.5,0.5s0.5-0.22,0.5-0.5S7.28,13.5,7,13.5z"/>
<path fill="#81D4FA" d="M10,7.5c0.28,0,0.5-0.22,0.5-0.5S10.28,6.5,10,6.5S9.5,6.72,9.5,7S9.72,7.5,10,7.5z"/>
<circle fill="#4FC3F7" cx="14" cy="10" r="1"/>
<path fill="#81D4FA" d="M14,7.5c0.279,0,0.5-0.22,0.5-0.5S14.279,6.5,14,6.5S13.5,6.72,13.5,7S13.721,7.5,14,7.5z"/>
<path fill="#81D4FA" d="M17,13.5c-0.279,0-0.5,0.22-0.5,0.5s0.221,0.5,0.5,0.5s0.5-0.22,0.5-0.5S17.279,13.5,17,13.5z"/>
<path fill="#81D4FA" d="M17,9.5c-0.279,0-0.5,0.22-0.5,0.5s0.221,0.5,0.5,0.5s0.5-0.22,0.5-0.5S17.279,9.5,17,9.5z"/>
<path fill="#039BE5" d="M12,2C6.48,2,2,6.48,2,12c0,5.52,4.48,10,10,10c5.52,0,10-4.48,10-10C22,6.48,17.52,2,12,2z M12,20
	c-4.42,0-8-3.58-8-8s3.58-8,8-8s8,3.58,8,8S16.42,20,12,20z"/>
<path fill="#81D4FA" d="M14,16.5c-0.279,0-0.5,0.22-0.5,0.5s0.221,0.5,0.5,0.5s0.5-0.22,0.5-0.5S14.279,16.5,14,16.5z"/>
<circle fill="#4FC3F7" cx="14" cy="14" r="1"/>
</svg>
