<?xml version="1.0" encoding="utf-8"?>
<!-- Generator: Adobe Illustrator 16.0.0, SVG Export Plug-In . SVG Version: 6.00 Build 0)  -->
<!DOCTYPE svg PUBLIC "-//W3C//DTD SVG 1.1//EN" "http://www.w3.org/Graphics/SVG/1.1/DTD/svg11.dtd">
<svg version="1.1" id="Capa_1" xmlns="http://www.w3.org/2000/svg" xmlns:xlink="http://www.w3.org/1999/xlink" x="0px" y="0px"
	 width="24px" height="24px" viewBox="0 0 24 24" enable-background="new 0 0 24 24" xml:space="preserve">
<rect x="7" y="19" fill="#7E57C2" width="2" height="2"/>
<rect x="7" y="11" fill="#7E57C2" width="2" height="2"/>
<rect x="11" y="11" fill="#7E57C2" width="2" height="2"/>
<rect x="11" y="19" fill="#7E57C2" width="2" height="2"/>
<rect x="3" y="15" fill="#7E57C2" width="2" height="2"/>
<rect x="3" y="19" fill="#7E57C2" width="2" height="2"/>
<rect x="3" y="11" fill="#7E57C2" width="2" height="2"/>
<rect x="3" y="7" fill="#7E57C2" width="2" height="2"/>
<rect x="11" y="15" fill="#7E57C2" width="2" height="2"/>
<rect x="19" y="7" fill="#7E57C2" width="2" height="2"/>
<rect x="19" y="11" fill="#7E57C2" width="2" height="2"/>
<rect x="3" y="3" fill="#512DA8" width="18" height="2"/>
<rect x="19" y="15" fill="#7E57C2" width="2" height="2"/>
<rect x="15" y="19" fill="#7E57C2" width="2" height="2"/>
<rect x="11" y="7" fill="#7E57C2" width="2" height="2"/>
<rect x="19" y="19" fill="#7E57C2" width="2" height="2"/>
<rect x="15" y="11" fill="#7E57C2" width="2" height="2"/>
<path fill="none" d="M0,0h24v24H0V0z"/>
</svg>
