<?xml version="1.0" encoding="utf-8"?>
<!-- Generator: Adobe Illustrator 16.0.0, SVG Export Plug-In . SVG Version: 6.00 Build 0)  -->
<!DOCTYPE svg PUBLIC "-//W3C//DTD SVG 1.1//EN" "http://www.w3.org/Graphics/SVG/1.1/DTD/svg11.dtd">
<svg version="1.1" id="Capa_1" xmlns="http://www.w3.org/2000/svg" xmlns:xlink="http://www.w3.org/1999/xlink" x="0px" y="0px"
	 width="24px" height="24px" viewBox="0 0 24 24" enable-background="new 0 0 24 24" xml:space="preserve">
<g>
	<polygon fill="#C5CAE9" points="18.878,5.873 17.744,7.023 13.996,3.271 15.128,2.123 	"/>
	<path fill="#E57373" d="M20.708,4.042c0.39-0.39,0.39-1.02,0-1.41l-2.34-2.34c-0.39-0.39-1.021-0.39-1.41,0l-1.83,1.83l3.75,3.75
		L20.708,4.042z"/>
	<g>
		<polygon fill="#7986CB" points="3.998,16.99 7.748,16.99 3.998,13.24 		"/>
		<polygon fill="#3F51B5" points="17.75,7 7.748,16.99 3.998,13.24 14.047,3.266 		"/>
	</g>
</g>
<path fill="none" d="M0,0h24v24H0V0z"/>
<path fill="#B71C1C" fill-opacity="0.36" d="M0,20h24v4H0V20z"/>
</svg>
