<?xml version="1.0" encoding="utf-8"?>
<!-- Generator: Adobe Illustrator 16.0.0, SVG Export Plug-In . SVG Version: 6.00 Build 0)  -->
<!DOCTYPE svg PUBLIC "-//W3C//DTD SVG 1.1//EN" "http://www.w3.org/Graphics/SVG/1.1/DTD/svg11.dtd">
<svg version="1.1" id="Capa_1" xmlns="http://www.w3.org/2000/svg" xmlns:xlink="http://www.w3.org/1999/xlink" x="0px" y="0px"
	 width="24px" height="24px" viewBox="0 0 24 24" enable-background="new 0 0 24 24" xml:space="preserve">
<path fill="none" d="M0,0h24v24H0V0z"/>
<polygon fill="#FFEB3B" points="20,8.69 20,4 15.311,4 12,0.69 8.69,4 4,4 4,8.69 0.69,12 4,15.311 4,20 8.69,20 12,23.311 
	15.311,20 20,20 20,15.311 23.311,12 "/>
<path opacity="0.9" fill="#F4511E" enable-background="new    " d="M12,18c-3.31,0-6-2.689-6-6c0-3.31,2.69-6,6-6
	c3.311,0,6,2.69,6,6C18,15.311,15.311,18,12,18z"/>
<circle fill="#FFEB3B" cx="12" cy="12" r="4"/>
</svg>
