<?xml version="1.0" encoding="utf-8"?>
<!-- Generator: Adobe Illustrator 16.0.0, SVG Export Plug-In . SVG Version: 6.00 Build 0)  -->
<!DOCTYPE svg PUBLIC "-//W3C//DTD SVG 1.1//EN" "http://www.w3.org/Graphics/SVG/1.1/DTD/svg11.dtd">
<svg version="1.1" id="Capa_1" xmlns="http://www.w3.org/2000/svg" xmlns:xlink="http://www.w3.org/1999/xlink" x="0px" y="0px"
	 width="24px" height="24px" viewBox="0 0 24 24" enable-background="new 0 0 24 24" xml:space="preserve">
<path fill="none" d="M0,0h24v24H0V0z"/>
<rect x="4.667" y="5.167" fill="#FFCC80" width="14.458" height="13.25"/>
<circle fill="#FFEB3B" cx="12" cy="12" r="4"/>
<path fill="#FFEB3B" d="M20,8.69V4h-4.689L12,0.69L8.69,4H4v4.69L0.69,12L4,15.311V20h4.69L12,23.311L15.311,20H20v-4.689L23.311,12
	L20,8.69z M12,18c-3.31,0-6-2.689-6-6c0-3.31,2.69-6,6-6c3.311,0,6,2.69,6,6C18,15.311,15.311,18,12,18z"/>
</svg>
