<?xml version="1.0" encoding="utf-8"?>
<!-- Generator: Adobe Illustrator 16.0.0, SVG Export Plug-In . SVG Version: 6.00 Build 0)  -->
<!DOCTYPE svg PUBLIC "-//W3C//DTD SVG 1.1//EN" "http://www.w3.org/Graphics/SVG/1.1/DTD/svg11.dtd">
<svg version="1.1" id="Capa_1" xmlns="http://www.w3.org/2000/svg" xmlns:xlink="http://www.w3.org/1999/xlink" x="0px" y="0px"
	 width="24px" height="24px" viewBox="0 0 24 24" enable-background="new 0 0 24 24" xml:space="preserve">
<g>
	<polygon fill="#FFEB3B" points="19.999,15.31 23.31,11.999 19.999,8.688 19.999,3.999 15.311,3.999 12,0.688 8.688,3.999 
		3.999,3.999 3.999,8.688 0.688,11.999 3.999,15.31 3.999,19.999 8.688,19.999 12,23.31 15.311,19.999 19.999,19.999 	"/>
	<path opacity="0.8" fill="#FFCC80" enable-background="new    " d="M12.01,6.012v12c-3.311,0-6-2.689-6-6
		C6.011,8.701,8.699,6.012,12.01,6.012z"/>
	<path fill="#FFF9C4" d="M11.999,18.014V6.012c3.312,0,6,2.689,6,6.001C17.999,15.324,15.311,18.014,11.999,18.014z"/>
</g>
<path fill="none" d="M0,0h24v24H0V0z"/>
</svg>
