<?xml version="1.0" encoding="utf-8"?>
<!-- Generator: Adobe Illustrator 16.0.0, SVG Export Plug-In . SVG Version: 6.00 Build 0)  -->
<!DOCTYPE svg PUBLIC "-//W3C//DTD SVG 1.1//EN" "http://www.w3.org/Graphics/SVG/1.1/DTD/svg11.dtd">
<svg version="1.1" id="Capa_1" xmlns="http://www.w3.org/2000/svg" xmlns:xlink="http://www.w3.org/1999/xlink" x="0px" y="0px"
	 width="24px" height="24px" viewBox="0 0 24 24" enable-background="new 0 0 24 24" xml:space="preserve">
<rect x="5.776" y="5.038" fill="#FFEB3B" width="12.945" height="13.452"/>
<path fill="none" d="M0,0h24v24H0V0z"/>
<circle opacity="0.8" fill="#FFCC80" enable-background="new    " cx="12.053" cy="11.904" r="6.865"/>
<path fill="#FFEB3B" d="M20,15.311L23.311,12L20,8.69V4h-4.689L12,0.69L8.69,4H4v4.69L0.69,12L4,15.311V20h4.69L12,23.311L15.311,20
	H20V15.311z M12,18c-3.31,0-6-2.689-6-6c0-3.31,2.69-6,6-6c3.311,0,6,2.69,6,6C18,15.311,15.311,18,12,18z"/>
</svg>
