<?xml version="1.0" encoding="utf-8"?>
<!-- Generator: Adobe Illustrator 16.0.0, SVG Export Plug-In . SVG Version: 6.00 Build 0)  -->
<!DOCTYPE svg PUBLIC "-//W3C//DTD SVG 1.1//EN" "http://www.w3.org/Graphics/SVG/1.1/DTD/svg11.dtd">
<svg version="1.1" xmlns="http://www.w3.org/2000/svg" xmlns:xlink="http://www.w3.org/1999/xlink" x="0px" y="0px" width="24px"
	 height="24px" viewBox="0 0 24 24" enable-background="new 0 0 24 24" xml:space="preserve">
<g id="Capa_1">
	<path fill="none" d="M0,0h24v24H0V0z"/>
	<polygon fill="#FFEB3B" points="20,8.69 20,4 15.311,4 12,0.69 8.69,4 4,4 4,8.69 0.69,12 4,15.311 4,20 8.69,20 12,23.311 
		15.311,20 20,20 20,15.311 23.311,12 	"/>
	<path fill="#FFF9C4" d="M9.5,17.45C10.25,17.8,11.09,18,11.97,18v0.01c-3.31,0-6-2.689-6-6c0-2.43,1.45-4.52,3.53-5.46
		C11.56,7.5,13,9.58,13,12S11.56,16.5,9.5,17.45z"/>
	<path opacity="0.8" fill="#FFCC80" d="M12,18c-0.89,0-1.74-0.2-2.5-0.55C11.56,16.5,13,14.42,13,12s-1.44-4.5-3.5-5.45
		C10.26,6.2,11.11,6,12,6c3.311,0,6,2.69,6,6C18,15.311,15.311,18,12,18z"/>
</g>
<g id="Capa_2">
</g>
</svg>
