<?xml version="1.0" encoding="utf-8"?>
<!-- Generator: Adobe Illustrator 15.0.0, SVG Export Plug-In . SVG Version: 6.00 Build 0)  -->
<!DOCTYPE svg PUBLIC "-//W3C//DTD SVG 1.1//EN" "http://www.w3.org/Graphics/SVG/1.1/DTD/svg11.dtd">
<svg version="1.1" id="Layer_1" xmlns="http://www.w3.org/2000/svg" xmlns:xlink="http://www.w3.org/1999/xlink" x="0px" y="0px"
	 width="24px" height="24px" viewBox="0 0 24 24" enable-background="new 0 0 24 24" xml:space="preserve">
<path fill="none" d="M0,0h24v24H0V0z"/>
<path fill="#4CAF50" d="M20,8h-2.811C16.74,7.22,16.12,6.55,15.37,6.04L17,4.41L15.59,3l-2.17,2.17C12.96,5.06,12.49,5,12,5
	s-0.96,0.06-1.41,0.17L8.41,3L7,4.41l1.62,1.63C7.88,6.55,7.26,7.22,6.81,8H4v2h2.09C6.04,10.33,6,10.66,6,11v1H4v2h2v1
	c0,0.34,0.04,0.67,0.09,1H4v2h2.81c1.04,1.79,2.97,3,5.19,3c2.221,0,4.15-1.21,5.189-3H20v-2h-2.09c0.05-0.33,0.09-0.66,0.09-1v-1h2
	v-2h-2v-1c0-0.34-0.04-0.67-0.09-1H20V8z"/>
<path fill="#9CCC65" d="M14,16h-4v-2h4V16z M14,12h-4v-2h4V12z"/>
</svg>
