<?xml version="1.0" encoding="utf-8"?>
<!-- Generator: Adobe Illustrator 15.0.0, SVG Export Plug-In . SVG Version: 6.00 Build 0)  -->
<!DOCTYPE svg PUBLIC "-//W3C//DTD SVG 1.1//EN" "http://www.w3.org/Graphics/SVG/1.1/DTD/svg11.dtd">
<svg version="1.1" id="Layer_1" xmlns="http://www.w3.org/2000/svg" xmlns:xlink="http://www.w3.org/1999/xlink" x="0px" y="0px"
	 width="24px" height="24px" viewBox="0 0 24 24" enable-background="new 0 0 24 24" xml:space="preserve">
<path fill="#311B92" d="M19,8l-4,4h3c0,3.311-2.689,6-6,6c-1.01,0-1.97-0.25-2.8-0.7l-1.46,1.46C8.97,19.54,10.43,20,12,20
	c4.42,0,8-3.58,8-8h3L19,8z"/>
<path fill="#0D47A1" d="M6,12c0-3.31,2.69-6,6-6c1.01,0,1.971,0.25,2.8,0.7l1.46-1.46C15.029,4.46,13.57,4,12,4c-4.42,0-8,3.58-8,8
	H1l4,4l4-4H6z"/>
<path fill="none" d="M0,0h24v24H0V0z"/>
</svg>
