<?xml version="1.0" encoding="utf-8"?>
<!-- Generator: Adobe Illustrator 15.0.0, SVG Export Plug-In . SVG Version: 6.00 Build 0)  -->
<!DOCTYPE svg PUBLIC "-//W3C//DTD SVG 1.1//EN" "http://www.w3.org/Graphics/SVG/1.1/DTD/svg11.dtd">
<svg version="1.1" id="Layer_1" xmlns="http://www.w3.org/2000/svg" xmlns:xlink="http://www.w3.org/1999/xlink" x="0px" y="0px"
	 width="24px" height="24px" viewBox="0 0 24 24" enable-background="new 0 0 24 24" xml:space="preserve">
<path fill="#FBC02D" d="M12,7c1.1,0,2-0.9,2-2c0-0.38-0.1-0.73-0.29-1.03L12,1l-1.71,2.97C10.1,4.27,10,4.62,10,5
	C10,6.1,10.9,7,12,7z"/>
<path fill="#E57373" d="M5,15c-1.1,0-2,0.9-2,2v4h18v-4c0-1.1-0.9-2-2-2H5z"/>
<path fill="#EF9A9A" d="M18,15v-3c0-1.1-0.9-2-2-2h-3V8h-2v2H8c-1.1,0-2,0.9-2,2v3H18z"/>
<rect x="1" y="21" fill="#EF9A9A" width="22" height="2"/>
<path fill="none" d="M0,0h24v24H0V0z"/>
</svg>
