<?xml version="1.0" encoding="utf-8"?>
<!-- Generator: Adobe Illustrator 15.0.0, SVG Export Plug-In . SVG Version: 6.00 Build 0)  -->
<!DOCTYPE svg PUBLIC "-//W3C//DTD SVG 1.1//EN" "http://www.w3.org/Graphics/SVG/1.1/DTD/svg11.dtd">
<svg version="1.1" id="Layer_1" xmlns="http://www.w3.org/2000/svg" xmlns:xlink="http://www.w3.org/1999/xlink" x="0px" y="0px"
	 width="24px" height="24px" viewBox="0 0 24 24" enable-background="new 0 0 24 24" xml:space="preserve">
<path fill="none" d="M0,0h24v24H0V0z"/>
<line display="none" fill="none" x1="0.29" y1="11.67" x2="17.834" y2="30.166"/>
<line display="none" fill="none" x1="12" y1="7" x2="12" y2="30.5"/>
<line display="none" fill="none" x1="7.4" y1="9.72" x2="12" y2="24.016"/>
<g>
	<path fill="#F44336" d="M3.48,15.85c0.27,0,0.52-0.1,0.7-0.279c0.79-0.73,1.68-1.36,2.66-1.851c0.33-0.159,0.56-0.51,0.56-0.899
		V9.72c-2.474,0.796-4.66,2.224-6.388,4.082l1.758,1.759C2.95,15.74,3.2,15.85,3.48,15.85z"/>
	<path fill="#D32F2F" d="M12,9c1.601,0,3.15,0.25,4.601,0.72c2.474,0.796,4.659,2.224,6.388,4.082l0.722-0.722
		c0.181-0.17,0.29-0.42,0.29-0.7c0-0.28-0.109-0.53-0.29-0.71C20.66,8.78,16.54,7,12,7S3.34,8.78,0.29,11.67
		C0.11,11.85,0,12.1,0,12.38c0,0.28,0.11,0.53,0.29,0.7l0.722,0.722C2.74,11.943,4.926,10.516,7.4,9.72C8.85,9.25,10.399,9,12,9z"/>
	<path fill="#F44336" d="M20.521,15.85c-0.271,0-0.521-0.1-0.7-0.279c-0.79-0.73-1.68-1.36-2.66-1.851
		c-0.33-0.159-0.56-0.51-0.56-0.899V9.72c2.474,0.796,4.659,2.224,6.388,4.082l-1.758,1.759C21.05,15.74,20.8,15.85,20.521,15.85z"
		/>
</g>
</svg>
