<?xml version="1.0" encoding="utf-8"?>
<!-- Generator: Adobe Illustrator 15.0.0, SVG Export Plug-In . SVG Version: 6.00 Build 0)  -->
<!DOCTYPE svg PUBLIC "-//W3C//DTD SVG 1.1//EN" "http://www.w3.org/Graphics/SVG/1.1/DTD/svg11.dtd">
<svg version="1.1" id="Layer_1" xmlns="http://www.w3.org/2000/svg" xmlns:xlink="http://www.w3.org/1999/xlink" x="0px" y="0px"
	 width="24px" height="24px" viewBox="0 0 24 24" enable-background="new 0 0 24 24" xml:space="preserve">
<path fill="none" d="M0,0h24v24H0V0z"/>
<path fill="#4CAF50" d="M8.193,3.3c0.191,0.191,0.297,0.438,0.297,0.693C8.533,5.068,8.713,6.518,9.06,7.558
	C9.181,7.904,9.095,8.314,8.82,8.59L6.239,11.17C4.843,8.449,4.908,5.54,5,3.003l2.487,0C7.742,3.003,7.996,3.103,8.193,3.3z"/>
<path fill="#4CAF50" d="M20.699,15.807c-0.191-0.191-0.438-0.297-0.693-0.297c-1.074-0.043-2.525-0.223-3.564-0.57
	c-0.347-0.12-0.757-0.035-1.032,0.24l-2.581,2.582c2.722,1.396,5.631,1.33,8.168,1.238v-2.486
	C20.996,16.258,20.896,16.004,20.699,15.807z"/>
<path fill="#388E3C" d="M19.938,19C11.701,19,5,12.299,5,4.062V3.003H3.997c-0.248-0.007-0.502,0.092-0.7,0.29
	C3.099,3.491,3,3.807,3,4.062C3,13.416,10.583,21,19.938,21c0.254,0,0.572-0.099,0.77-0.297s0.297-0.453,0.289-0.7V19H19.938z"/>
</svg>
