<?xml version="1.0" encoding="utf-8"?>
<!-- Generator: Adobe Illustrator 16.0.0, SVG Export Plug-In . SVG Version: 6.00 Build 0)  -->
<!DOCTYPE svg PUBLIC "-//W3C//DTD SVG 1.1//EN" "http://www.w3.org/Graphics/SVG/1.1/DTD/svg11.dtd">
<svg version="1.1" id="Capa_1" xmlns="http://www.w3.org/2000/svg" xmlns:xlink="http://www.w3.org/1999/xlink" x="0px" y="0px"
	 width="24px" height="24px" viewBox="0 0 24 24" enable-background="new 0 0 24 24" xml:space="preserve">
<path fill="none" d="M0,0h24v24H0V0z"/>
<polygon points="18.41,19 17,20.41 12.02,15.39 12,15.37 11.9,15.27 12,15.12 12.98,13.6 13,13.62 "/>
<polygon fill="#26C6DA" points="16.5,8 13,8 13,14.41 12.02,15.39 12,15.41 7,20.41 5.59,19 11,13.59 11,8 7.5,8 12,3.5 "/>
<polygon fill="#66BB6A" points="18.41,19 17,20.41 12.02,15.39 12,15.41 12,3.5 16.5,8 13,8 13,13.62 "/>
</svg>
