<?xml version="1.0" encoding="utf-8"?>
<!-- Generator: Adobe Illustrator 15.0.0, SVG Export Plug-In . SVG Version: 6.00 Build 0)  -->
<!DOCTYPE svg PUBLIC "-//W3C//DTD SVG 1.1//EN" "http://www.w3.org/Graphics/SVG/1.1/DTD/svg11.dtd">
<svg version="1.1" id="Layer_1" xmlns="http://www.w3.org/2000/svg" xmlns:xlink="http://www.w3.org/1999/xlink" x="0px" y="0px"
	 width="24px" height="24px" viewBox="0 0 24 24" enable-background="new 0 0 24 24" xml:space="preserve">
<path fill="none" d="M0,0h24v24H0V0z"/>
<circle fill="#1A237E" cx="12" cy="12" r="6"/>
<path fill="#4FC3F7" d="M21.538,9c1.08,3.418,0.229,7.152-2.169,9.762l-5.64-9.759L21.538,9z"/>
<path fill="#03A9F4" d="M19.369,18.761c-2.421,2.645-6.081,3.774-9.54,3.004L15.462,12L19.369,18.761z"/>
<path fill="#4FC3F7" d="M9.828,21.765c-3.5-0.774-6.308-3.379-7.37-6.76L13.73,15L9.828,21.765z"/>
<path fill="#03A9F4" d="M2.459,15.003C1.38,11.584,2.231,7.85,4.628,5.24L10.269,15L2.459,15.003z"/>
<path fill="#4FC3F7" d="M4.631,5.239c2.42-2.645,6.08-3.773,9.539-3.002L8.538,12L4.631,5.239z"/>
<path fill="#03A9F4" d="M14.17,2.24c3.5,0.774,6.309,3.379,7.37,6.76L10.268,9.005L14.17,2.24z"/>
</svg>
