<?xml version="1.0" encoding="utf-8"?>
<!-- Generator: Adobe Illustrator 16.0.0, SVG Export Plug-In . SVG Version: 6.00 Build 0)  -->
<!DOCTYPE svg PUBLIC "-//W3C//DTD SVG 1.1//EN" "http://www.w3.org/Graphics/SVG/1.1/DTD/svg11.dtd">
<svg version="1.1" id="Capa_1" xmlns="http://www.w3.org/2000/svg" xmlns:xlink="http://www.w3.org/1999/xlink" x="0px" y="0px"
	 width="24px" height="24px" viewBox="0 0 24 24" enable-background="new 0 0 24 24" xml:space="preserve">
<path fill="none" d="M0,0h24v24H0V0z"/>
<polygon fill="#5C6BC0" points="10,20 5,20 5,22 10,22 10,24 13,21 10,18 "/>
<rect x="14" y="20" fill="#AB47BC" width="5" height="2"/>
<path fill="#78909C" d="M19,2v14c0,1.1-0.9,2-2,2H7c-1.1,0-2-0.9-2-2V2c0-1.1,0.9-2,2-2h10C18.1,0,19,0.9,19,2z"/>
<path opacity="0.4" fill="#546E7A" enable-background="new    " d="M19,2v14c0,1.1-0.9,2-2,2h-5V0h5C18.1,0,19,0.9,19,2z"/>
<path fill="#FFFFFF" d="M12,6c-1.11,0-2-0.9-2-2s0.89-2,1.99-2c1.1,0,2,0.9,2,2C14,5.1,13.1,6,12,6z"/>
</svg>
