<?xml version="1.0" encoding="utf-8"?>
<!-- Generator: Adobe Illustrator 16.0.0, SVG Export Plug-In . SVG Version: 6.00 Build 0)  -->
<!DOCTYPE svg PUBLIC "-//W3C//DTD SVG 1.1//EN" "http://www.w3.org/Graphics/SVG/1.1/DTD/svg11.dtd">
<svg version="1.1" id="Capa_1" xmlns="http://www.w3.org/2000/svg" xmlns:xlink="http://www.w3.org/1999/xlink" x="0px" y="0px"
	 width="24px" height="24px" viewBox="0 0 24 24" enable-background="new 0 0 24 24" xml:space="preserve">
<path fill="none" d="M0,0h24v24H0V0z"/>
<path fill="#5E35B1" d="M14,5c0-1.1-0.9-2-2-2h-1V2c0-0.55-0.45-1-1-1H6C5.45,1,5,1.45,5,2v1H4C2.9,3,2,3.9,2,5v15c0,1.1,0.9,2,2,2
	h8c1.1,0,2-0.9,2-2h8V5H14z"/>
<rect x="7.969" y="5" fill="#311B92" enable-background="new    " width="14.031" height="14.969"/>
<rect x="10" y="16" opacity="0.5" fill="#B39DDB" enable-background="new    " width="2" height="2"/>
<rect x="10" y="7" opacity="0.5" fill="#B39DDB" enable-background="new    " width="2" height="2"/>
<rect x="14" y="16" opacity="0.5" fill="#B39DDB" enable-background="new    " width="2" height="2"/>
<rect x="14" y="7" opacity="0.5" fill="#B39DDB" enable-background="new    " width="2" height="2"/>
<rect x="18" y="16" opacity="0.5" fill="#B39DDB" enable-background="new    " width="2" height="2"/>
<rect x="18" y="7" opacity="0.5" fill="#B39DDB" enable-background="new    " width="2" height="2"/>
</svg>
