<?xml version="1.0" encoding="utf-8"?>
<!-- Generator: Adobe Illustrator 16.0.0, SVG Export Plug-In . SVG Version: 6.00 Build 0)  -->
<!DOCTYPE svg PUBLIC "-//W3C//DTD SVG 1.1//EN" "http://www.w3.org/Graphics/SVG/1.1/DTD/svg11.dtd">
<svg version="1.1" id="Capa_1" xmlns="http://www.w3.org/2000/svg" xmlns:xlink="http://www.w3.org/1999/xlink" x="0px" y="0px"
	 width="24px" height="24px" viewBox="0 0 24 24" enable-background="new 0 0 24 24" xml:space="preserve">
<path fill="#78909C" d="M17,0H7C5.9,0,5,0.9,5,2v14c0,1.1,0.9,2,2,2h10c1.1,0,2-0.9,2-2V2C19,0.9,18.1,0,17,0z M17,12.5
	c0-0.05,0-0.1-0.02-0.15C16.79,10.78,13.62,10,12,10c-1.67,0-5,0.83-5,2.5V2h10V12.5z"/>
<path opacity="0.4" fill="#546E7A" enable-background="new    " d="M19,2v14c0,1.1-0.9,2-2,2h-4.97v-5.311h4.951V8.52H12.03V0H17
	C18.1,0,19,0.9,19,2z"/>
<path fill="none" d="M0,0h24v24H0V0z"/>
<polygon fill="#AB47BC" points="10,20 5,20 5,22 10,22 10,24 13,21 10,18 "/>
<rect x="14" y="20" fill="#5C6BC0" width="5" height="2"/>
<rect x="7" y="2" fill="#B3E5FC" width="9.98" height="10.689"/>
<path fill="#1E88E5" d="M12,8c1.1,0,2-0.9,2-2s-0.9-2-2-2c-1.1,0-1.99,0.9-1.99,2S10.9,8,12,8z"/>
<path fill="#1E88E5" d="M16.98,12.35v0.34H7V12.5c0-1.67,3.33-2.5,5-2.5C13.62,10,16.79,10.78,16.98,12.35z"/>
</svg>
