<?xml version="1.0" encoding="utf-8"?>
<!-- Generator: Adobe Illustrator 15.0.0, SVG Export Plug-In . SVG Version: 6.00 Build 0)  -->
<!DOCTYPE svg PUBLIC "-//W3C//DTD SVG 1.1//EN" "http://www.w3.org/Graphics/SVG/1.1/DTD/svg11.dtd">
<svg version="1.1" id="Layer_1" xmlns="http://www.w3.org/2000/svg" xmlns:xlink="http://www.w3.org/1999/xlink" x="0px" y="0px"
	 width="24px" height="24px" viewBox="0 0 24 24" enable-background="new 0 0 24 24" xml:space="preserve">
<path d="M12,2C6.47,2,2,6.47,2,12s4.47,10,10,10c5.529,0,10-4.47,10-10S17.529,2,12,2z M17,15.59L15.59,17L12,13.41L8.41,17L7,15.59
	L10.59,12L7,8.41L8.41,7L12,10.59L15.59,7L17,8.41L13.41,12L17,15.59z"/>
<path fill="none" d="M0,0h24v24H0V0z"/>
<path fill="#E57373" d="M12,2C6.48,2,2,6.48,2,12c0,5.52,4.48,10,10,10c5.52,0,10-4.48,10-10C22,6.48,17.52,2,12,2z"/>
<path fill="#F44336" d="M12,4c-4.417,0-8,3.583-8,8c0,4.414,3.583,8,8,8c4.414,0,8-3.586,8-8C20,7.583,16.414,4,12,4z"/>
<polygon fill="#CFD8DC" points="16.242,9.171 13.414,12 16.242,14.828 14.828,16.242 12,13.414 9.171,16.242 7.757,14.828 
	10.586,12 7.757,9.171 9.171,7.757 12,10.586 14.828,7.757 "/>
</svg>
