<?xml version="1.0" encoding="utf-8"?>
<!-- Generator: Adobe Illustrator 16.0.0, SVG Export Plug-In . SVG Version: 6.00 Build 0)  -->
<!DOCTYPE svg PUBLIC "-//W3C//DTD SVG 1.1//EN" "http://www.w3.org/Graphics/SVG/1.1/DTD/svg11.dtd">
<svg version="1.1" id="Capa_1" xmlns="http://www.w3.org/2000/svg" xmlns:xlink="http://www.w3.org/1999/xlink" x="0px" y="0px"
	 width="24px" height="24px" viewBox="0 0 24 24" enable-background="new 0 0 24 24" xml:space="preserve">
<rect x="2.99" y="5" opacity="0.7" fill="#C5CAE9" enable-background="new    " width="18.01" height="14"/>
<path opacity="0.6" fill="#BA68C8" enable-background="new    " d="M3,21h18c1.1,0,2-0.9,2-2v-3h-2v3H3V5h7V3H3C1.9,3,1,3.9,1,5v14
	C1,20.1,1.9,21,3,21z"/>
<path fill="none" d="M0,0h24v24H0V0z"/>
<path fill="none" d="M0,0h24v24H0V0z"/>
<path fill="#CE93D8" d="M21,3H3C1.9,3,1,3.9,1,5v3h2V5h18v14h-7v2h7c1.1,0,2-0.9,2-2V5C23,3.9,22.1,3,21,3z"/>
<path fill="#CE93D8" d="M21,3H3C1.9,3,1,3.9,1,5v3h2V5h18v14h-7v2h7c1.1,0,2-0.9,2-2V5C23,3.9,22.1,3,21,3z"/>
<path fill="#42A5F5" d="M1,18v3h3C4,19.34,2.66,18,1,18z"/>
<path fill="#42A5F5" d="M1,14v2c2.76,0,5,2.24,5,5h2C8,17.13,4.87,14,1,14z"/>
<path fill="#42A5F5" d="M1,10v2c4.97,0,9,4.03,9,9h2C12,14.92,7.07,10,1,10z"/>
</svg>
