<?xml version="1.0" encoding="utf-8"?>
<!-- Generator: Adobe Illustrator 16.0.0, SVG Export Plug-In . SVG Version: 6.00 Build 0)  -->
<!DOCTYPE svg PUBLIC "-//W3C//DTD SVG 1.1//EN" "http://www.w3.org/Graphics/SVG/1.1/DTD/svg11.dtd">
<svg version="1.1" id="Capa_1" xmlns="http://www.w3.org/2000/svg" xmlns:xlink="http://www.w3.org/1999/xlink" x="0px" y="0px"
	 width="24px" height="24px" viewBox="0 0 24 24" enable-background="new 0 0 24 24" xml:space="preserve">
<path fill="none" d="M0,0h24v24H0V0z"/>
<path fill="#FF8A65" d="M19.35,10.04C18.67,6.59,15.641,4,12,4C9.11,4,6.6,5.64,5.35,8.04C2.34,8.36,0,10.91,0,14
	c0,3.311,2.69,6,6,6h13c2.76,0,5-2.24,5-5C24,12.36,21.95,10.22,19.35,10.04z"/>
<path fill="#FF8A65" d="M19,18H6c-2.21,0-4-1.79-4-4s1.79-4,4-4h0.71C7.37,7.69,9.48,6,12,6c3.04,0,5.5,2.46,5.5,5.5V12H19
	c1.66,0,3,1.34,3,3S20.66,18,19,18z"/>
</svg>
