<?xml version="1.0" encoding="utf-8"?>
<!-- Generator: Adobe Illustrator 15.0.0, SVG Export Plug-In . SVG Version: 6.00 Build 0)  -->
<!DOCTYPE svg PUBLIC "-//W3C//DTD SVG 1.1//EN" "http://www.w3.org/Graphics/SVG/1.1/DTD/svg11.dtd">
<svg version="1.1" id="Layer_1" xmlns="http://www.w3.org/2000/svg" xmlns:xlink="http://www.w3.org/1999/xlink" x="0px" y="0px"
	 width="24px" height="24px" viewBox="0 0 24 24" enable-background="new 0 0 24 24" xml:space="preserve">
<path fill="none" d="M0,0h24v24H0V0z"/>
<path fill="#009688" d="M18,20V8c0-1.1-0.9-2-2-2H4C2.9,6,2,6.9,2,8v12c0,1.1,0.9,2,2,2h12C17.1,22,18,21.1,18,20z"/>
<path fill="#8BC34A" d="M22,16V4c0-1.1-0.9-2-2-2H8C6.9,2,6,2.9,6,4v12c0,1.1,0.9,2,2,2h12C21.1,18,22,17.1,22,16z"/>
<polygon fill="#388E3C" points="11,12 13.029,14.71 16,11 20,16 8,16 "/>
</svg>
