<?xml version="1.0" encoding="utf-8"?>
<!-- Generator: Adobe Illustrator 15.0.0, SVG Export Plug-In . SVG Version: 6.00 Build 0)  -->
<!DOCTYPE svg PUBLIC "-//W3C//DTD SVG 1.1//EN" "http://www.w3.org/Graphics/SVG/1.1/DTD/svg11.dtd">
<svg version="1.1" id="Layer_1" xmlns="http://www.w3.org/2000/svg" xmlns:xlink="http://www.w3.org/1999/xlink" x="0px" y="0px"
	 width="24px" height="24px" viewBox="0 0 24 24" enable-background="new 0 0 24 24" xml:space="preserve">
<path fill="none" d="M0,0h24v24H0V0z"/>
<polygon fill="#BBDEFB" points="11.92,7.33 3,16.25 3,21 7.75,21 16.67,12.08 "/>
<polygon fill="#7986CB" points="6.92,19 5,19 5,17.08 10.915,11.165 12.835,13.085 "/>
<path fill="#311B92" d="M18.09,13.5l1.41-1.41l-1.92-1.92l3.12-3.12c0.399-0.4,0.399-1.03,0.01-1.42l-2.34-2.34
	c-0.39-0.39-1.021-0.39-1.41,0l-3.12,3.12L11.91,4.5L10.5,5.91L18.09,13.5z"/>
</svg>
