<?xml version="1.0" encoding="utf-8"?>
<!-- Generator: Adobe Illustrator 16.0.0, SVG Export Plug-In . SVG Version: 6.00 Build 0)  -->
<!DOCTYPE svg PUBLIC "-//W3C//DTD SVG 1.1//EN" "http://www.w3.org/Graphics/SVG/1.1/DTD/svg11.dtd">
<svg version="1.1" xmlns="http://www.w3.org/2000/svg" xmlns:xlink="http://www.w3.org/1999/xlink" x="0px" y="0px" width="24px"
	 height="24px" viewBox="0 0 24 24" enable-background="new 0 0 24 24" xml:space="preserve">
<g id="Capa_1">
	<g>
		<path fill="#ECEFF1" d="M21.025,4.932v14c0,1.1-0.912,2-2.023,2h-7.045v-18h7.045C20.113,2.932,21.025,3.832,21.025,4.932z"/>
		<path fill="#263238" d="M11.973,2.932L4.968,2.984c-1.089,0-1.98,0.9-1.98,2v14c0,1.1,0.775,1.994,1.865,1.994h7.156l-0.143-2.004
			l0.112-7.824l0,0L11.973,2.932z"/>
		<polygon fill="#ECEFF1" points="12.025,10.979 12.009,20.979 4.853,20.979 		"/>
		<polygon fill="#263238" points="11.978,10.979 11.994,20.979 19.15,20.979 		"/>
	</g>
	<path fill="none" d="M0,0h24v24H0V0z"/>
</g>
<g id="Capa_2">
	<rect x="10.98" y="1.02" fill="#64B5F6" width="2.02" height="21.95"/>
	<rect x="11.98" y="1.02" opacity="0.5" fill="#42A5F5" width="1.049" height="21.95"/>
</g>
</svg>
