<?xml version="1.0" encoding="utf-8"?>
<!-- Generator: Adobe Illustrator 16.0.0, SVG Export Plug-In . SVG Version: 6.00 Build 0)  -->
<!DOCTYPE svg PUBLIC "-//W3C//DTD SVG 1.1//EN" "http://www.w3.org/Graphics/SVG/1.1/DTD/svg11.dtd">
<svg version="1.1" id="Capa_1" xmlns="http://www.w3.org/2000/svg" xmlns:xlink="http://www.w3.org/1999/xlink" x="0px" y="0px"
	 width="24px" height="24px" viewBox="0 0 24 24" enable-background="new 0 0 24 24" xml:space="preserve">
<path fill="#546E7A" d="M20,18c1.1,0,1.99-0.9,1.99-2L22,6c0-1.1-0.9-2-2-2H4C2.9,4,2,4.9,2,6v10c0,1.1,0.9,2,2,2H0v2h24v-2H20z"/>
<rect x="4" y="6" fill="#9FA8DA" width="16" height="10"/>
<rect fill="none" width="24" height="20"/>
<path fill="none" d="M-591.667-1721h1400v3600h-1400V-1721z M26.333-1h24v24h-24V-1z"/>
<rect y="18" fill="#37474F" width="24" height="2"/>
</svg>
