<?xml version="1.0" encoding="utf-8"?>
<!-- Generator: Adobe Illustrator 15.0.0, SVG Export Plug-In . SVG Version: 6.00 Build 0)  -->
<!DOCTYPE svg PUBLIC "-//W3C//DTD SVG 1.1//EN" "http://www.w3.org/Graphics/SVG/1.1/DTD/svg11.dtd">
<svg version="1.1" id="Layer_1" xmlns="http://www.w3.org/2000/svg" xmlns:xlink="http://www.w3.org/1999/xlink" x="0px" y="0px"
	 width="24px" height="24px" viewBox="0 0 24 24" enable-background="new 0 0 24 24" xml:space="preserve">
<path fill="none" d="M0,0h24v24H0V0z"/>
<g>
	<path fill="#5D4037" d="M19,2H5C3.9,2,3,2.9,3,4v16c0,1.1,0.9,2,2,2h14c1.1,0,2-0.9,2-2V4C21,2.9,20.1,2,19,2z"/>
	<rect x="5" y="4" fill="#D7CCC8" width="14" height="16"/>
	<path fill="#FFA000" d="M7,7h10V4V2h-2.18C14.4,0.84,13.3,0,12,0S9.6,0.84,9.18,2H7v2V7z M12,2c0.55,0,1,0.45,1,1s-0.45,1-1,1
		s-1-0.45-1-1S11.45,2,12,2z"/>
</g>
</svg>
