<?xml version="1.0" encoding="utf-8"?>
<!-- Generator: Adobe Illustrator 16.0.0, SVG Export Plug-In . SVG Version: 6.00 Build 0)  -->
<!DOCTYPE svg PUBLIC "-//W3C//DTD SVG 1.1//EN" "http://www.w3.org/Graphics/SVG/1.1/DTD/svg11.dtd">
<svg version="1.1" id="Capa_1" xmlns="http://www.w3.org/2000/svg" xmlns:xlink="http://www.w3.org/1999/xlink" x="0px" y="0px"
	 width="24px" height="24px" viewBox="0 0 24 24" enable-background="new 0 0 24 24" xml:space="preserve">
<path fill="none" d="M0,0h24v24H0V0z"/>
<path fill="#4FC3F7" d="M15,3c-4.96,0-9,4.04-9,9s4.04,9,9,9s9-4.04,9-9S19.96,3,15,3z"/>
<path fill="#2196F3" d="M15,19c-3.86,0-7-3.141-7-7c0-3.86,3.14-7,7-7c3.859,0,7,3.14,7,7C22,15.859,18.859,19,15,19z"/>
<polygon fill="#CFD8DC" points="16,8 14,8 14,11 11,11 11,13 14,13 14,16 16,16 16,13 19,13 19,11 16,11 "/>
<path fill="#2196F3" d="M2,12c0-2.79,1.64-5.2,4.01-6.32V3.52C2.52,4.76,0,8.09,0,12s2.52,7.24,6.01,8.48v-2.16
	C3.64,17.2,2,14.79,2,12z"/>
</svg>
