<?xml version="1.0" encoding="utf-8"?>
<!-- Generator: Adobe Illustrator 15.0.0, SVG Export Plug-In . SVG Version: 6.00 Build 0)  -->
<!DOCTYPE svg PUBLIC "-//W3C//DTD SVG 1.1//EN" "http://www.w3.org/Graphics/SVG/1.1/DTD/svg11.dtd">
<svg version="1.1" id="Layer_1" xmlns="http://www.w3.org/2000/svg" xmlns:xlink="http://www.w3.org/1999/xlink" x="0px" y="0px"
	 width="24px" height="24px" viewBox="0 0 24 24" enable-background="new 0 0 24 24" xml:space="preserve">
<path fill="none" d="M0,0h24v24H0V0z"/>
<path fill="#303F9F" d="M10,11.999l2-2L9.64,7.64C9.87,7.14,10,6.589,10,5.999c0-2.21-1.79-4-4-4s-4,1.79-4,4s1.79,4,4,4
	c0.59,0,1.14-0.13,1.64-0.359L10,11.999z M8,5.999c0,1.109-0.9,2-2,2s-2-0.891-2-2s0.9-2,2-2S8,4.89,8,5.999z"/>
<path fill="#1A237E" d="M12,14l-2-2l-2.359,2.359C7.141,14.13,6.591,14,6.001,14c-2.21,0-4,1.79-4,4s1.79,4,4,4s4-1.79,4-4
	c0-0.59-0.13-1.141-0.36-1.641L12,14z M8,17.999c0,1.11-0.9,2-2,2s-2-0.89-2-2s0.9-2,2-2S8,16.889,8,17.999z"/>
<path fill="#616161" d="M22,3h-3l-7,7l-2,2l0,0l2,2L22,4V3z"/>
<path fill="#9E9E9E" d="M22,20L12,10l-2,2l0,0l2,2l7,7h3V20z M12,12.5c-0.28,0-0.5-0.22-0.5-0.5s0.22-0.5,0.5-0.5s0.5,0.22,0.5,0.5
	S12.28,12.5,12,12.5z"/>
</svg>
