<?xml version="1.0" encoding="utf-8"?>
<!-- Generator: Adobe Illustrator 15.0.0, SVG Export Plug-In . SVG Version: 6.00 Build 0)  -->
<!DOCTYPE svg PUBLIC "-//W3C//DTD SVG 1.1//EN" "http://www.w3.org/Graphics/SVG/1.1/DTD/svg11.dtd">
<svg version="1.1" id="Layer_1" xmlns="http://www.w3.org/2000/svg" xmlns:xlink="http://www.w3.org/1999/xlink" x="0px" y="0px"
	 width="24px" height="24px" viewBox="0 0 24 24" enable-background="new 0 0 24 24" xml:space="preserve">
<path fill="none" d="M0,0h24v24H0V0z M0,0h24v24H0V0z M0,0h24v24H0V0z"/>
<path opacity="0.6" fill="#FFA000" d="M20,0H4v2h16V0z M4,24h16v-2H4V24z"/>
<path fill="#FFA000" d="M20,4H4C2.9,4,2,4.9,2,6v12c0,1.1,0.9,2,2,2h16c1.1,0,2-0.9,2-2V6C22,4.9,21.1,4,20,4z"/>
<path fill="#FF6F00" d="M12,6.75c1.24,0,2.25,1.01,2.25,2.25s-1.01,2.25-2.25,2.25S9.75,10.24,9.75,9S10.76,6.75,12,6.75z M17,17H7
	v-1.5c0-1.67,3.33-2.5,5-2.5s5,0.83,5,2.5V17z"/>
</svg>
