<?xml version="1.0" encoding="utf-8"?>
<!-- Generator: Adobe Illustrator 15.0.0, SVG Export Plug-In . SVG Version: 6.00 Build 0)  -->
<!DOCTYPE svg PUBLIC "-//W3C//DTD SVG 1.1//EN" "http://www.w3.org/Graphics/SVG/1.1/DTD/svg11.dtd">
<svg version="1.1" id="Layer_1" xmlns="http://www.w3.org/2000/svg" xmlns:xlink="http://www.w3.org/1999/xlink" x="0px" y="0px"
	 width="24px" height="24px" viewBox="0 0 24 24" enable-background="new 0 0 24 24" xml:space="preserve">
<path fill="none" d="M0,0h24v24H0V0z"/>
<path fill="#B0BEC5" d="M14,1H4C2.9,1,2,1.9,2,3v12c0,1.1,0.9,2,2,2h10c1.1,0,2-0.9,2-2V3C16,1.9,15.1,1,14,1z"/>
<path fill="#E0E0E0" d="M19,5H8C6.9,5,6,5.9,6,7v14c0,1.1,0.9,2,2,2h11c1.1,0,2-0.9,2-2V7C21,5.9,20.1,5,19,5z"/>
</svg>
