<?xml version="1.0" encoding="utf-8"?>
<!-- Generator: Adobe Illustrator 15.0.0, SVG Export Plug-In . SVG Version: 6.00 Build 0)  -->
<!DOCTYPE svg PUBLIC "-//W3C//DTD SVG 1.1//EN" "http://www.w3.org/Graphics/SVG/1.1/DTD/svg11.dtd">
<svg version="1.1" id="Layer_1" xmlns="http://www.w3.org/2000/svg" xmlns:xlink="http://www.w3.org/1999/xlink" x="0px" y="0px"
	 width="24px" height="24px" viewBox="0 0 24 24" enable-background="new 0 0 24 24" xml:space="preserve">
<path fill="none" d="M0,0h24v24H0V0z"/>
<path fill="#03A9F4" d="M12,19c-3.865,0-7-3.138-7-7c0-3.865,3.135-7,7-7V2C6.48,2,2,6.48,2,12c0,5.52,4.48,10,10,10
	c3.668,0,6.868-1.985,8.608-4.933l-2.583-1.521C16.808,17.61,14.566,19,12,19z"/>
<path fill="#9575CD" d="M12,2v3c3.862,0,7,3.135,7,7c0,1.296-0.359,2.506-0.975,3.547l2.583,1.521C21.487,15.58,22,13.852,22,12
	C22,6.48,17.52,2,12,2z"/>
</svg>
