<?xml version="1.0" encoding="utf-8"?>
<!-- Generator: Adobe Illustrator 15.0.0, SVG Export Plug-In . SVG Version: 6.00 Build 0)  -->
<!DOCTYPE svg PUBLIC "-//W3C//DTD SVG 1.1//EN" "http://www.w3.org/Graphics/SVG/1.1/DTD/svg11.dtd">
<svg version="1.1" id="Layer_1" xmlns="http://www.w3.org/2000/svg" xmlns:xlink="http://www.w3.org/1999/xlink" x="0px" y="0px"
	 width="24px" height="24px" viewBox="0 0 24 24" enable-background="new 0 0 24 24" xml:space="preserve">
<path fill="none" d="M0,0h24v24H0V0z"/>
<polygon fill="#607D8B" points="10,18 8,21 8,22 16,22 16,21 14,18 "/>
<path fill="#90A4AE" d="M3,18c1.167,0,16.5,0,18,0c1.1,0,2-0.9,2-2H1C1,17.1,1.9,18,3,18z"/>
<path fill="#263238" d="M21,2H3C1.9,2,1,2.9,1,4v12h22V4C23,2.9,22.1,2,21,2z"/>
<rect x="3" y="4" fill="#5C6BC0" width="18" height="10"/>
</svg>
