<?xml version="1.0" encoding="utf-8"?>
<!-- Generator: Adobe Illustrator 15.0.0, SVG Export Plug-In . SVG Version: 6.00 Build 0)  -->
<!DOCTYPE svg PUBLIC "-//W3C//DTD SVG 1.1//EN" "http://www.w3.org/Graphics/SVG/1.1/DTD/svg11.dtd">
<svg version="1.1" id="Layer_1" xmlns="http://www.w3.org/2000/svg" xmlns:xlink="http://www.w3.org/1999/xlink" x="0px" y="0px"
	 width="24px" height="24px" viewBox="0 0 24 24" enable-background="new 0 0 24 24" xml:space="preserve">
<path fill="none" d="M0,0h24v24H0V0z"/>
<path fill="#006064" d="M12,19c-1.1,0-2,0.9-2,2s0.9,2,2,2c1.1,0,2-0.9,2-2S13.1,19,12,19z"/>
<path opacity="0.8" fill="#006064" d="M6,13c-1.1,0-2,0.9-2,2s0.9,2,2,2s2-0.9,2-2S7.1,13,6,13z M12,13c-1.1,0-2,0.9-2,2s0.9,2,2,2
	c1.1,0,2-0.9,2-2S13.1,13,12,13z M18,13c-1.1,0-2,0.9-2,2s0.9,2,2,2s2-0.9,2-2S19.1,13,18,13z"/>
<path opacity="0.7" fill="#006064" d="M6,7C4.9,7,4,7.9,4,9s0.9,2,2,2s2-0.9,2-2S7.1,7,6,7z M18,7c-1.1,0-2,0.9-2,2s0.9,2,2,2
	s2-0.9,2-2S19.1,7,18,7z M12,7c-1.1,0-2,0.9-2,2s0.9,2,2,2c1.1,0,2-0.9,2-2S13.1,7,12,7z"/>
<path opacity="0.6" fill="#006064" d="M6,1C4.9,1,4,1.9,4,3s0.9,2,2,2s2-0.9,2-2S7.1,1,6,1z M18,5c1.1,0,2-0.9,2-2s-0.9-2-2-2
	s-2,0.9-2,2S16.9,5,18,5z M12,1c-1.1,0-2,0.9-2,2s0.9,2,2,2c1.1,0,2-0.9,2-2S13.1,1,12,1z"/>
</svg>
