<?xml version="1.0" encoding="utf-8"?>
<!-- Generator: Adobe Illustrator 16.0.0, SVG Export Plug-In . SVG Version: 6.00 Build 0)  -->
<!DOCTYPE svg PUBLIC "-//W3C//DTD SVG 1.1//EN" "http://www.w3.org/Graphics/SVG/1.1/DTD/svg11.dtd">
<svg version="1.1" id="Capa_1" xmlns="http://www.w3.org/2000/svg" xmlns:xlink="http://www.w3.org/1999/xlink" x="0px" y="0px"
	 width="24px" height="24px" viewBox="0 0 24 24" enable-background="new 0 0 24 24" xml:space="preserve">
<path fill="none" d="M0,0h24v24H0V0z"/>
<path d="M12,2C7.58,2,4,2.5,4,6v9.5C4,17.43,5.57,19,7.5,19L6,20.5V21h12v-0.5L16.5,19c1.93,0,3.5-1.57,3.5-3.5V6
	C20,2.5,16.42,2,12,2z M7.5,17C6.67,17,6,16.33,6,15.5S6.67,14,7.5,14S9,14.67,9,15.5S8.33,17,7.5,17z M11,11H6V6h5V11z M16.5,17
	c-0.83,0-1.5-0.67-1.5-1.5s0.67-1.5,1.5-1.5s1.5,0.67,1.5,1.5S17.33,17,16.5,17z M18,11h-5V6h5V11z"/>
<g>
	<path fill="#37474F" d="M19.992,6.003v9.5c0,1.93-1.57,3.5-3.5,3.5l1.5,1.5v0.5h-12v-0.5l1.5-1.5c-1.93,0-3.5-1.57-3.5-3.5v-9.5
		c0-3.5,3.58-4,8-4C16.412,2.003,19.992,2.503,19.992,6.003z"/>
	<circle fill="#FFFFFF" cx="7.493" cy="15.503" r="1.5"/>
	<rect x="5.993" y="6.003" fill="#66BB6A" width="5" height="5"/>
	<circle fill="#FFFFFF" cx="16.492" cy="15.503" r="1.5"/>
	<rect x="12.992" y="6.003" fill="#66BB6A" width="5" height="5"/>
	<polygon fill="#DCE775" points="17.992,20.503 17.992,21.003 5.993,21.003 5.993,20.503 7.443,19.053 16.543,19.053 	"/>
</g>
</svg>
