<?xml version="1.0" encoding="utf-8"?>
<!-- Generator: Adobe Illustrator 16.0.0, SVG Export Plug-In . SVG Version: 6.00 Build 0)  -->
<!DOCTYPE svg PUBLIC "-//W3C//DTD SVG 1.1//EN" "http://www.w3.org/Graphics/SVG/1.1/DTD/svg11.dtd">
<svg version="1.1" id="Capa_1" xmlns="http://www.w3.org/2000/svg" xmlns:xlink="http://www.w3.org/1999/xlink" x="0px" y="0px"
	 width="24px" height="24px" viewBox="0 0 24 24" enable-background="new 0 0 24 24" xml:space="preserve">
<path fill="none" d="M24,0v24H0V0h2.38v15.72H4V6c0-3.5,3.58-4,8-4s8,0.5,8,4v9.72h1.5V0H24z"/>
<path d="M20,6v10c0,0.88-0.39,1.67-1,2.22V20c0,0.55-0.45,1-1,1h-1c-0.55,0-1-0.45-1-1v-1H8v1c0,0.55-0.45,1-1,1H6
	c-0.55,0-1-0.45-1-1v-1.78C4.39,17.67,4,16.88,4,16V6c0-3.5,3.58-4,8-4S20,2.5,20,6z"/>
<path fill="#455A64" d="M20,15.75V16c0,0.88-0.39,1.67-1,2.22V20c0,0.55-0.45,1-1,1h-1c-0.55,0-1-0.45-1-1v-1H8v1c0,0.55-0.45,1-1,1
	H6c-0.55,0-1-0.45-1-1v-1.78C4.39,17.67,4,16.88,4,16v-0.25H20z"/>
<path fill="#1E88E5" d="M20,6v9.72H4V6c0-3.5,3.58-4,8-4S20,2.5,20,6z"/>
<circle fill="#FFFFFF" cx="7.5" cy="15.5" r="1.5"/>
<circle fill="#FFFFFF" cx="16.5" cy="15.5" r="1.5"/>
<rect x="6" y="6" fill="#BBDEFB" width="12" height="5"/>
</svg>
