<?xml version="1.0" encoding="utf-8"?>
<!-- Generator: Adobe Illustrator 16.0.0, SVG Export Plug-In . SVG Version: 6.00 Build 0)  -->
<!DOCTYPE svg PUBLIC "-//W3C//DTD SVG 1.1//EN" "http://www.w3.org/Graphics/SVG/1.1/DTD/svg11.dtd">
<svg version="1.1" id="Capa_1" xmlns="http://www.w3.org/2000/svg" xmlns:xlink="http://www.w3.org/1999/xlink" x="0px" y="0px"
	 width="24px" height="24px" viewBox="0 0 24 24" enable-background="new 0 0 24 24" xml:space="preserve">
<path fill="#26C6DA" d="M21.71,11.29l-9-9c-0.39-0.39-1.02-0.39-1.41,0l-9,9c-0.39,0.39-0.39,1.02,0,1.41l9,9
	c0.39,0.39,1.02,0.39,1.41,0l9-9C22.1,12.32,22.1,11.69,21.71,11.29z"/>
<path fill="#AB47BC" d="M14,14.5V12h-4v3H8v-4c0-0.55,0.45-1,1-1h5V7.5l3.5,3.5L14,14.5z"/>
<path fill="none" d="M0,0h24v24H0V0z"/>
</svg>
