<?xml version="1.0" encoding="utf-8"?>
<!-- Generator: Adobe Illustrator 16.0.0, SVG Export Plug-In . SVG Version: 6.00 Build 0)  -->
<!DOCTYPE svg PUBLIC "-//W3C//DTD SVG 1.1//EN" "http://www.w3.org/Graphics/SVG/1.1/DTD/svg11.dtd">
<svg version="1.1" id="Capa_1" xmlns="http://www.w3.org/2000/svg" xmlns:xlink="http://www.w3.org/1999/xlink" x="0px" y="0px"
	 width="24px" height="24px" viewBox="0 0 24 24" enable-background="new 0 0 24 24" xml:space="preserve">
<path fill="none" d="M0,0h24v24H0V0z"/>
<path fill="#78909C" d="M16,4.8c0.99,0,1.8-0.81,1.8-1.8S16.99,1.2,16,1.2c-1,0-1.8,0.81-1.8,1.8S15,4.8,16,4.8z"/>
<circle fill="#37474F" cx="19" cy="17" r="5"/>
<path fill="#B0BEC5" d="M19,20.5c-1.93,0-3.5-1.57-3.5-3.5s1.57-3.5,3.5-3.5s3.5,1.57,3.5,3.5S20.93,20.5,19,20.5z"/>
<path fill="#78909C" d="M14.8,10H19V8.2h-3.2l-1.93-3.27c-0.3-0.5-0.841-0.83-1.46-0.83c-0.47,0-0.89,0.19-1.2,0.5l-3.7,3.7
	C7.19,8.6,7,9.03,7,9.5c0,0.63,0.33,1.16,0.85,1.47L11.2,13v5H13v-6.48l-2.25-1.67l2.32-2.33L14.8,10z"/>
<circle fill="#37474F" cx="5" cy="17" r="5"/>
<path fill="#B0BEC5" d="M5,20.5c-1.93,0-3.5-1.57-3.5-3.5s1.57-3.5,3.5-3.5s3.5,1.57,3.5,3.5S6.93,20.5,5,20.5z"/>
</svg>
