<?xml version="1.0" encoding="utf-8"?>
<!-- Generator: Adobe Illustrator 16.0.0, SVG Export Plug-In . SVG Version: 6.00 Build 0)  -->
<!DOCTYPE svg PUBLIC "-//W3C//DTD SVG 1.1//EN" "http://www.w3.org/Graphics/SVG/1.1/DTD/svg11.dtd">
<svg version="1.1" id="Capa_1" xmlns="http://www.w3.org/2000/svg" xmlns:xlink="http://www.w3.org/1999/xlink" x="0px" y="0px"
	 width="24px" height="24px" viewBox="0 0 24 24" enable-background="new 0 0 24 24" xml:space="preserve">
<path fill="none" d="M0,0h24v24H0V0z"/>
<path fill="#455A64" d="M14.12,10H19V8.2h-3.62l-1.66-2.76l-0.34-0.57c-0.3-0.5-0.84-0.83-1.46-0.83c-0.17,0-0.34,0.03-0.49,0.07
	L6,5.8V11h1.8V7.33l2.11-0.66L6,22h1.8l2.87-8.11L13,17v5h1.8v-6.41l-2.49-4.54l0.73-2.87L14.12,10z M14,0.2c-1,0-1.8,0.81-1.8,1.8
	S13,3.8,14,3.8c0.99,0,1.8-0.81,1.8-1.8C15.8,1,14.99,0.2,14,0.2z"/>
<polygon fill="#37474F" points="10.67,13.89 12.31,11.05 14.8,15.59 14.8,22 13,22 13,17 "/>
<polygon fill="#37474F" points="13.04,8.18 12.31,11.05 13.72,5.44 15.38,8.2 19,8.2 19,10 14.12,10 "/>
</svg>
