<?xml version="1.0" encoding="utf-8"?>
<!-- Generator: Adobe Illustrator 16.0.0, SVG Export Plug-In . SVG Version: 6.00 Build 0)  -->
<!DOCTYPE svg PUBLIC "-//W3C//DTD SVG 1.1//EN" "http://www.w3.org/Graphics/SVG/1.1/DTD/svg11.dtd">
<svg version="1.1" xmlns="http://www.w3.org/2000/svg" xmlns:xlink="http://www.w3.org/1999/xlink" x="0px" y="0px" width="24px"
	 height="24px" viewBox="0 0 24 24" enable-background="new 0 0 24 24" xml:space="preserve">
<g id="Capa_1">
	<path fill="none" d="M0,0h24v24H0V0z"/>
	<path fill="#29B6F6" d="M20,21c-1.391,0-2.779-0.47-4-1.32c-2.439,1.711-5.56,1.711-8,0C6.78,20.53,5.39,21,4,21H2v2h2
		c1.38,0,2.74-0.35,4-0.99c2.52,1.29,5.48,1.29,8,0c1.26,0.65,2.62,0.99,4,0.99h2v-2H20z"/>
	<path fill="#546E7A" d="M21.94,12.32l-1.87,6.61L20.05,19H20c-0.22,0-0.44-0.02-0.65-0.05c-1.33-0.2-2.51-0.98-3.35-1.95
		c-0.98,1.12-2.4,2-4,2c-1.6,0-3.02-0.88-4-2c-0.98,1.12-2.4,2-4,2H3.95l-1.9-6.68c-0.09-0.26-0.06-0.54,0.06-0.78
		c0.12-0.24,0.34-0.42,0.6-0.5L4,10.62V6c0-1.1,0.9-2,2-2h3V1h6v3h3c1.1,0,2,0.9,2,2v4.62l1.28,0.42c0.26,0.08,0.479,0.26,0.6,0.5
		C22,11.78,22.02,12.06,21.94,12.32z"/>
	<polygon fill="#BBDEFB" points="6,6 18,6 18,9.97 12,8 6,9.97 	"/>
	<path fill="#EF5350" d="M21.94,12.32l-1.78,6.3l-0.09,0.31L19.35,18.95c-0.399-0.061-0.779-0.17-1.149-0.33
		c-0.86-0.36-1.61-0.94-2.2-1.62c-0.59,0.68-1.34,1.26-2.2,1.62C13.24,18.86,12.63,19,12,19c-1.6,0-3.02-0.88-4-2
		c-0.98,1.12-2.4,2-4,2H3.95l-1.9-6.68c-0.09-0.26-0.06-0.54,0.06-0.78c0.12-0.24,0.34-0.42,0.6-0.5L4,10.62l7.94-2.6L12,8l8,2.62
		l1.28,0.42c0.26,0.08,0.479,0.26,0.6,0.5C22,11.78,22.02,12.06,21.94,12.32z"/>
	<path fill="#E53935" d="M21.94,12.32l-1.78,6.3H18.2c-0.86-0.36-1.61-0.94-2.2-1.62c-0.59,0.68-1.34,1.26-2.2,1.62h-1.86V8.02L12,8
		l8,2.62l1.28,0.42c0.26,0.08,0.479,0.26,0.6,0.5C22,11.78,22.02,12.06,21.94,12.32z"/>
	<path fill="#64B5F6" d="M20.073,18.135c-1.391,0-2.837-0.506-4.058-1.229c-2.439,1.453-5.094,2.313-8.047,0.047
		c-1.221,0.723-2.505,1.182-3.896,1.182h-2v1.699h2c1.38,0,2.74-0.297,4-0.841c2.52,1.096,5.48,1.096,8,0
		c1.26,0.552,2.62,0.841,4,0.841h2v-1.699H20.073z"/>
	<rect x="9" y="1" fill="#EF5350" width="6" height="2.99"/>
</g>
<g id="Capa_2">
</g>
</svg>
