<?xml version="1.0" encoding="utf-8"?>
<!-- Generator: Adobe Illustrator 16.0.0, SVG Export Plug-In . SVG Version: 6.00 Build 0)  -->
<!DOCTYPE svg PUBLIC "-//W3C//DTD SVG 1.1//EN" "http://www.w3.org/Graphics/SVG/1.1/DTD/svg11.dtd">
<svg version="1.1" id="Capa_1" xmlns="http://www.w3.org/2000/svg" xmlns:xlink="http://www.w3.org/1999/xlink" x="0px" y="0px"
	 width="24px" height="24px" viewBox="0 0 24 24" enable-background="new 0 0 24 24" xml:space="preserve">
<path fill="none" d="M0,0h24v24H0V0z"/>
<path fill="#0288D1" d="M20,13H4c-0.55,0-1,0.45-1,1v6c0,0.55,0.45,1,1,1h16c0.55,0,1-0.45,1-1v-6C21,13.45,20.55,13,20,13z"/>
<path fill="#80DEEA" d="M7,19c-1.1,0-2-0.9-2-2s0.9-2,2-2s2,0.9,2,2S8.1,19,7,19z"/>
<path fill="#0288D1" d="M20,3H4C3.45,3,3,3.45,3,4v6c0,0.55,0.45,1,1,1h16c0.55,0,1-0.45,1-1V4C21,3.45,20.55,3,20,3z"/>
<path fill="#80DEEA" d="M7,9C5.9,9,5,8.1,5,7s0.9-2,2-2s2,0.9,2,2S8.1,9,7,9z"/>
</svg>
