<?xml version="1.0" encoding="utf-8"?>
<!-- Generator: Adobe Illustrator 16.0.0, SVG Export Plug-In . SVG Version: 6.00 Build 0)  -->
<!DOCTYPE svg PUBLIC "-//W3C//DTD SVG 1.1//EN" "http://www.w3.org/Graphics/SVG/1.1/DTD/svg11.dtd">
<svg version="1.1" id="Capa_1" xmlns="http://www.w3.org/2000/svg" xmlns:xlink="http://www.w3.org/1999/xlink" x="0px" y="0px"
	 width="24px" height="24px" viewBox="0 0 24 24" enable-background="new 0 0 24 24" xml:space="preserve">
<path fill="none" d="M0,0h24v24H0V0z"/>
<polygon fill="#26C6DA" points="22,7 22,21 2,21 2,3 12,3 12,7 "/>
<polygon fill="#42A5F5" points="14.54,10.42 14.54,17.58 12,17.58 12,21 2,21 2,3 12,3 12,10.42 "/>
<rect x="4" y="17" fill="#FDD835" width="2" height="2"/>
<rect x="4" y="13" fill="#FDD835" width="2" height="2"/>
<rect x="4" y="9" fill="#FDD835" width="2" height="2"/>
<rect x="4" y="5" fill="#FDD835" width="2" height="2"/>
<rect x="8" y="17" fill="#FDD835" width="2" height="2"/>
<rect x="8" y="13" fill="#FDD835" width="2" height="2"/>
<rect x="8" y="9" fill="#FDD835" width="2" height="2"/>
<rect x="8" y="5" fill="#FDD835" width="2" height="2"/>
<polygon fill="#26C6DA" points="20,19 12,19 12,17 14,17 14,15 12,15 12,13 14,13 14,11 12,11 12,9 20,9 "/>
<rect x="16" y="11" fill="#42A5F5" width="2" height="2"/>
<rect x="16" y="15" fill="#42A5F5" width="2" height="2"/>
</svg>
