<?xml version="1.0" encoding="utf-8"?>
<!-- Generator: Adobe Illustrator 16.0.0, SVG Export Plug-In . SVG Version: 6.00 Build 0)  -->
<!DOCTYPE svg PUBLIC "-//W3C//DTD SVG 1.1//EN" "http://www.w3.org/Graphics/SVG/1.1/DTD/svg11.dtd">
<svg version="1.1" id="Capa_1" xmlns="http://www.w3.org/2000/svg" xmlns:xlink="http://www.w3.org/1999/xlink" x="0px" y="0px"
	 width="24px" height="24px" viewBox="0 0 24 24" enable-background="new 0 0 24 24" xml:space="preserve">
<path fill="none" d="M0,0h24v24H0V0z"/>
<path fill="#37474F" d="M23,5l-0.01,12c0,0.99-0.721,1.81-1.66,1.97C21.22,18.99,21.11,19,21,19h-5v2H8v-2H3
	c-0.11,0-0.22-0.01-0.33-0.03C1.72,18.81,1,17.99,1,17V5c0-1.1,0.9-2,2-2h18C22.1,3,23,3.9,23,5z"/>
<path fill="#455A64" d="M23,5l-0.01,12c0,0.99-0.721,1.81-1.66,1.97H2.67C1.72,18.81,1,17.99,1,17V5c0-1.1,0.9-2,2-2h18
	C22.1,3,23,3.9,23,5z"/>
<rect x="3" y="5" fill="#E3F2FD" width="18" height="12"/>
<rect x="8" y="8" fill="#64B5F6" width="11" height="2"/>
<rect x="8" y="12" fill="#F48FB1" width="11" height="2"/>
<rect x="5" y="8" fill="#42A5F5" width="2" height="2"/>
<rect x="5" y="12" fill="#F06292" width="2" height="2"/>
<rect y="1.25" fill="none" width="0" height="0.094"/>
</svg>
