<?xml version="1.0" encoding="utf-8"?>
<!-- Generator: Adobe Illustrator 15.0.0, SVG Export Plug-In . SVG Version: 6.00 Build 0)  -->
<!DOCTYPE svg PUBLIC "-//W3C//DTD SVG 1.1//EN" "http://www.w3.org/Graphics/SVG/1.1/DTD/svg11.dtd">
<svg version="1.1" id="Layer_1" xmlns="http://www.w3.org/2000/svg" xmlns:xlink="http://www.w3.org/1999/xlink" x="0px" y="0px"
	 width="24px" height="24px" viewBox="0 0 24 24" enable-background="new 0 0 24 24" xml:space="preserve">
<path fill="#CFD8DC" d="M12,11L2.315,4.947C2.667,4.381,3.287,4,4,4h16c0.712,0,1.335,0.38,1.69,0.944L12,11z M12,13L2.009,6.756
	L2,18c0,1.1,0.9,2,2,2h16c1.1,0,2-0.9,2-2V6.75L12,13z"/>
<path fill="#90A4AE" d="M22,6.75V6c0-0.388-0.116-0.749-0.31-1.056L12,11L2.315,4.947C2.125,5.254,2.01,5.613,2.01,6l0,0.756L12,13
	L22,6.75z"/>
<path fill="none" d="M0,0h24v24H0V0z"/>
</svg>
