<?xml version="1.0" encoding="utf-8"?>
<!-- Generator: Adobe Illustrator 16.0.0, SVG Export Plug-In . SVG Version: 6.00 Build 0)  -->
<!DOCTYPE svg PUBLIC "-//W3C//DTD SVG 1.1//EN" "http://www.w3.org/Graphics/SVG/1.1/DTD/svg11.dtd">
<svg version="1.1" id="Capa_1" xmlns="http://www.w3.org/2000/svg" xmlns:xlink="http://www.w3.org/1999/xlink" x="0px" y="0px"
	 width="24px" height="24px" viewBox="0 0 24 24" enable-background="new 0 0 24 24" xml:space="preserve">
<path fill="none" d="M0,0h24v24H0V0z"/>
<g>
	<path fill="#D7CCC8" d="M2.99,8.016l-0.008,11c0,1.1,0.891,2,2,2h14c1.1,0,2-0.9,2-2v-11H2.99z"/>
	<path fill="#C2185B" d="M20.982,5.016c0-1.1-0.9-2-2-2h-14c-1.109,0-1.99,0.9-1.99,2l-0.002,3h17.992V5.016z"/>
	<path fill="#A1887F" d="M7.982,5.016h-2v-4h2V5.016z M17.982,1.016h-2v4h2V1.016z"/>
</g>
<polygon fill="#E53935" points="9.31,17 11.75,14.561 14.189,17 15.25,15.939 12.811,13.5 15.25,11.06 14.189,10 11.75,12.44 
	9.31,10 8.25,11.06 10.69,13.5 8.25,15.939 "/>
</svg>
