<?xml version="1.0" encoding="utf-8"?>
<!-- Generator: Adobe Illustrator 15.0.0, SVG Export Plug-In . SVG Version: 6.00 Build 0)  -->
<!DOCTYPE svg PUBLIC "-//W3C//DTD SVG 1.1//EN" "http://www.w3.org/Graphics/SVG/1.1/DTD/svg11.dtd">
<svg version="1.1" id="Layer_1" xmlns="http://www.w3.org/2000/svg" xmlns:xlink="http://www.w3.org/1999/xlink" x="0px" y="0px"
	 width="24px" height="24px" viewBox="0 0 24 24" enable-background="new 0 0 24 24" xml:space="preserve">
<path fill="#D7CCC8" d="M3.008,8L3,19c0,1.1,0.89,2,2,2h14c1.1,0,2-0.9,2-2V8H3.008z"/>
<rect x="12" y="12" fill="#F57C00" width="5" height="5"/>
<path fill="#C2185B" d="M21,5c0-1.1-0.9-2-2-2H5C3.89,3,3.01,3.9,3.01,5L3.008,8H21V5z"/>
<path fill="#A1887F" d="M8,5H6V1h2V5z M18,1h-2v4h2V1z"/>
<path fill="none" d="M0,0h24v24H0V0z"/>
</svg>
