<?xml version="1.0" encoding="utf-8"?>
<!-- Generator: Adobe Illustrator 16.0.0, SVG Export Plug-In . SVG Version: 6.00 Build 0)  -->
<!DOCTYPE svg PUBLIC "-//W3C//DTD SVG 1.1//EN" "http://www.w3.org/Graphics/SVG/1.1/DTD/svg11.dtd">
<svg version="1.1" id="Capa_1" xmlns="http://www.w3.org/2000/svg" xmlns:xlink="http://www.w3.org/1999/xlink" x="0px" y="0px"
	 width="24px" height="24px" viewBox="0 0 24 24" enable-background="new 0 0 24 24" xml:space="preserve">
<path fill="none" d="M0,0h24v24H0V0z"/>
<g>
	<path fill="#D7CCC8" d="M2.993,8.067l-0.008,11c0,1.1,0.891,2,2,2h14c1.1,0,2-0.9,2-2v-11H2.993z"/>
	<path fill="#C2185B" d="M20.984,5.067c0-1.1-0.9-2-2-2h-14c-1.109,0-1.99,0.9-1.99,2l-0.002,3h17.992V5.067z"/>
	<path fill="#A1887F" d="M7.985,5.067h-2v-4h2V5.067z M17.984,1.067h-2v4h2V1.067z"/>
</g>
<rect x="7" y="10" fill="#455A64" width="10" height="2"/>
<rect x="7" y="14" fill="#455A64" width="7" height="2"/>
</svg>
