<?xml version="1.0" encoding="utf-8"?>
<!-- Generator: Adobe Illustrator 16.0.0, SVG Export Plug-In . SVG Version: 6.00 Build 0)  -->
<!DOCTYPE svg PUBLIC "-//W3C//DTD SVG 1.1//EN" "http://www.w3.org/Graphics/SVG/1.1/DTD/svg11.dtd">
<svg version="1.1" id="Capa_1" xmlns="http://www.w3.org/2000/svg" xmlns:xlink="http://www.w3.org/1999/xlink" x="0px" y="0px"
	 width="24px" height="24px" viewBox="0 0 24 24" enable-background="new 0 0 24 24" xml:space="preserve">
<path fill="none" d="M0,0h24v24H0V0z M0,0h24v24H0V0z M0,0h24v24H0V0z M0,0h24v24H0V0z"/>
<path fill="#546E7A" d="M16.141,12.5c0,1-0.101,1.85-0.301,2.55c-0.199,0.7-0.48,1.271-0.83,1.7c-0.359,0.439-0.789,0.75-1.3,0.95
	c-0.51,0.2-1.069,0.3-1.7,0.3c-0.62,0-1.18-0.1-1.69-0.3c-0.51-0.2-0.95-0.511-1.31-0.95c-0.36-0.439-0.65-1.01-0.85-1.7
	c-0.2-0.7-0.3-1.55-0.3-2.55v-2.04c0-1,0.1-1.85,0.3-2.55C8.36,7.21,8.64,6.65,9,6.22c0.36-0.43,0.8-0.74,1.31-0.93
	C10.81,5.1,11.38,5,12,5c0.63,0,1.189,0.1,1.7,0.29c0.51,0.19,0.95,0.5,1.31,0.93c0.36,0.43,0.641,0.99,0.84,1.69
	c0.2,0.7,0.301,1.54,0.301,2.55v2.04H16.141z M14.029,10.14c0-0.64-0.049-1.18-0.129-1.62c-0.09-0.44-0.221-0.79-0.4-1.06
	C13.33,7.19,13.109,7,12.859,6.88C12.609,6.75,12.32,6.69,12,6.69s-0.61,0.06-0.86,0.18s-0.47,0.31-0.64,0.58
	c-0.17,0.27-0.31,0.62-0.4,1.06c-0.09,0.44-0.13,0.98-0.13,1.62v2.67c0,0.64,0.05,1.181,0.14,1.62c0.09,0.45,0.23,0.811,0.4,1.09
	c0.17,0.28,0.39,0.48,0.64,0.61s0.54,0.19,0.87,0.19s0.621-0.061,0.871-0.19s0.459-0.33,0.629-0.61
	c0.17-0.279,0.301-0.64,0.391-1.09s0.13-0.99,0.13-1.62v-2.66H14.029z"/>
</svg>
