<?xml version="1.0" encoding="utf-8"?>
<!-- Generator: Adobe Illustrator 16.0.0, SVG Export Plug-In . SVG Version: 6.00 Build 0)  -->
<!DOCTYPE svg PUBLIC "-//W3C//DTD SVG 1.1//EN" "http://www.w3.org/Graphics/SVG/1.1/DTD/svg11.dtd">
<svg version="1.1" xmlns="http://www.w3.org/2000/svg" xmlns:xlink="http://www.w3.org/1999/xlink" x="0px" y="0px" width="24px"
	 height="24px" viewBox="0 0 24 24" enable-background="new 0 0 24 24" xml:space="preserve">
<g id="Capa_1">
	<path fill="#D1C4E9" d="M22,4v16c0,1.1-0.9,2-2,2H4c-0.56,0-1.08-0.24-1.44-0.62C2.21,21.02,2,20.54,2,20V4c0-1.1,0.9-2,2-2h16
		c0.55,0,1.04,0.22,1.4,0.58C21.77,2.94,22,3.45,22,4z"/>
	<path fill="none" d="M0,0h24v24H0V0z"/>
	<polygon fill="#E6EE9C" points="20,20 4,20 20,4 	"/>
	<path fill="#9575CD" d="M22,4v16c0,1.1-0.9,2-2,2H4c-0.56,0-1.08-0.24-1.44-0.62L21.4,2.58C21.77,2.94,22,3.45,22,4z"/>
	<polygon fill="#D1C4E9" points="15,17 15,19 17,19 17,17 19,17 19,15 17,15 17,13 15,13 15,15 13,15 13,17 	"/>
	<rect x="5" y="5" fill="#9575CD" width="6" height="2"/>
</g>
<g id="Capa_2">
</g>
</svg>
