<?xml version="1.0" encoding="utf-8"?>
<!-- Generator: Adobe Illustrator 16.0.0, SVG Export Plug-In . SVG Version: 6.00 Build 0)  -->
<!DOCTYPE svg PUBLIC "-//W3C//DTD SVG 1.1//EN" "http://www.w3.org/Graphics/SVG/1.1/DTD/svg11.dtd">
<svg version="1.1" id="Capa_1" xmlns="http://www.w3.org/2000/svg" xmlns:xlink="http://www.w3.org/1999/xlink" x="0px" y="0px"
	 width="24px" height="24px" viewBox="0 0 24 24" enable-background="new 0 0 24 24" xml:space="preserve">
<path fill="none" d="M0,0h24v24H0V0z M0,0h24v24H0V0z"/>
<path fill="#546E7A" d="M15.05,16.29l2.86-3.07c0.38-0.39,0.72-0.79,1.04-1.18c0.319-0.39,0.59-0.78,0.819-1.17
	c0.23-0.39,0.41-0.78,0.541-1.17C20.439,9.31,20.5,8.91,20.5,8.52c0-0.53-0.09-1.02-0.27-1.46c-0.181-0.44-0.44-0.81-0.78-1.11
	c-0.341-0.31-0.771-0.54-1.261-0.71C17.68,5.08,17.109,5,16.471,5c-0.691,0-1.311,0.11-1.851,0.32c-0.54,0.21-1,0.51-1.36,0.88
	c-0.369,0.37-0.65,0.8-0.84,1.3c-0.18,0.47-0.27,0.97-0.28,1.5h2.139c0.011-0.31,0.051-0.6,0.131-0.87c0.09-0.29,0.23-0.54,0.4-0.75
	c0.18-0.21,0.41-0.37,0.68-0.49c0.27-0.12,0.6-0.18,0.96-0.18c0.31,0,0.579,0.05,0.81,0.15s0.43,0.25,0.59,0.43
	c0.16,0.18,0.28,0.4,0.371,0.65C18.3,8.19,18.35,8.46,18.35,8.75c0,0.22-0.029,0.43-0.08,0.65c-0.06,0.22-0.149,0.45-0.289,0.7
	c-0.141,0.25-0.32,0.53-0.561,0.83c-0.23,0.3-0.52,0.65-0.88,1.03l-4.17,4.55V18H21v-1.71H15.05z"/>
<rect x="2" y="11" fill="#E53935" width="8" height="2"/>
</svg>
