<?xml version="1.0" encoding="utf-8"?>
<!-- Generator: Adobe Illustrator 16.0.0, SVG Export Plug-In . SVG Version: 6.00 Build 0)  -->
<!DOCTYPE svg PUBLIC "-//W3C//DTD SVG 1.1//EN" "http://www.w3.org/Graphics/SVG/1.1/DTD/svg11.dtd">
<svg version="1.1" id="Capa_1" xmlns="http://www.w3.org/2000/svg" xmlns:xlink="http://www.w3.org/1999/xlink" x="0px" y="0px"
	 width="24px" height="24px" viewBox="0 0 24 24" enable-background="new 0 0 24 24" xml:space="preserve">
<circle fill="#3E2723" cx="12" cy="12" r="12"/>
<path fill="#FFCDD2" d="M19.96,14.82c-1.09,3.74-4.271,6.46-8.04,6.46c-3.78,0-6.96-2.72-8.04-6.47C2.69,14.7,1.75,13.63,1.75,12.29
	c0-1.27,0.85-2.31,1.97-2.5c2.09-1.46,3.8-3.49,4.09-5.05V4.73c1.35,2.63,6.299,5.19,11.831,5.06l0.299-0.03
	c1.281,0,2.311,1.14,2.311,2.54C22.25,13.68,21.23,14.811,19.96,14.82z"/>
<path fill="#AD1457" d="M14.689,17.1C13.95,17.68,12.99,18,12,18s-1.95-0.32-2.69-0.9c-0.22-0.17-0.53-0.13-0.7,0.09
	c-0.17,0.221-0.13,0.53,0.09,0.701C9.61,18.609,10.79,19,12,19s2.391-0.391,3.311-1.1c0.219-0.17,0.26-0.48,0.09-0.7
	C15.23,16.97,14.91,16.939,14.689,17.1z"/>
<circle fill="#263238" cx="8.5" cy="12.5" r="1"/>
<circle fill="#263238" cx="15.5" cy="12.5" r="1"/>
<path fill="none" d="M0,0h24v24H0V0z"/>
</svg>
