<?xml version="1.0" encoding="utf-8"?>
<!-- Generator: Adobe Illustrator 15.0.0, SVG Export Plug-In . SVG Version: 6.00 Build 0)  -->
<!DOCTYPE svg PUBLIC "-//W3C//DTD SVG 1.1//EN" "http://www.w3.org/Graphics/SVG/1.1/DTD/svg11.dtd">
<svg version="1.1" id="Layer_1" xmlns="http://www.w3.org/2000/svg" xmlns:xlink="http://www.w3.org/1999/xlink" x="0px" y="0px"
	 width="24px" height="24px" viewBox="0 0 24 24" enable-background="new 0 0 24 24" xml:space="preserve">
<path fill="none" d="M0,0h24v24H0V0z"/>
<path fill="#F06292" d="M20.176,13.266L12,5.09C13.09,3.81,14.76,3,16.5,3C19.58,3,22,5.42,22,8.5
	C22,10.159,21.345,11.682,20.176,13.266z M7.5,3C4.42,3,2,5.42,2,8.5c0,3.78,3.4,6.859,8.55,11.53L12,21.35V5.09
	C10.91,3.81,9.24,3,7.5,3z"/>
<path fill="#EC407A" d="M20.176,13.266L12,5.09v16.26l1.45-1.31C16.341,17.413,18.679,15.29,20.176,13.266z"/>
</svg>
