<?xml version="1.0" encoding="utf-8"?>
<!-- Generator: Adobe Illustrator 16.0.0, SVG Export Plug-In . SVG Version: 6.00 Build 0)  -->
<!DOCTYPE svg PUBLIC "-//W3C//DTD SVG 1.1//EN" "http://www.w3.org/Graphics/SVG/1.1/DTD/svg11.dtd">
<svg version="1.1" id="Capa_1" xmlns="http://www.w3.org/2000/svg" xmlns:xlink="http://www.w3.org/1999/xlink" x="0px" y="0px"
	 width="24px" height="24px" viewBox="0 0 24 24" enable-background="new 0 0 24 24" xml:space="preserve">
<g>
	<path fill="#00ACC1" d="M22.999,2.999v14c0,1.1-0.9,2-2,2h-14c-1.1,0-2-0.9-2-2v-14c0-1.1,0.9-2,2-2h14
		C22.099,0.999,22.999,1.899,22.999,2.999z"/>
	<path fill="#0097A7" d="M2.999,4.999h-2v16c0,1.1,0.9,2,2,2h16v-2h-16V4.999z"/>
	<path opacity="0.5" fill="#0097A7" d="M22.999,2.999v14c0,1.1-0.9,2-2,2h-7.01v-18h7.01C22.099,0.999,22.999,1.899,22.999,2.999z"
		/>
</g>
<path fill="none" d="M0,0h24v24H0V0z"/>
<path fill="#CFD8DC" d="M17,8.5V7c0-1.11-0.9-2-2-2h-2c-1.1,0-2,0.89-2,2v1.5c0,0.83,0.67,1.5,1.5,1.5c-0.83,0-1.5,0.67-1.5,1.5V13
	c0,1.11,0.9,2,2,2h2c1.1,0,2-0.89,2-2v-1.5c0-0.83-0.67-1.5-1.5-1.5C16.33,10,17,9.33,17,8.5z M15,13h-2v-2h2V13z M15,9h-2V7h2V9z"
	/>
</svg>
