<?xml version="1.0" encoding="utf-8"?>
<!-- Generator: Adobe Illustrator 16.0.0, SVG Export Plug-In . SVG Version: 6.00 Build 0)  -->
<!DOCTYPE svg PUBLIC "-//W3C//DTD SVG 1.1//EN" "http://www.w3.org/Graphics/SVG/1.1/DTD/svg11.dtd">
<svg version="1.1" id="Capa_1" xmlns="http://www.w3.org/2000/svg" xmlns:xlink="http://www.w3.org/1999/xlink" x="0px" y="0px"
	 width="24px" height="24px" viewBox="0 0 24 24" enable-background="new 0 0 24 24" xml:space="preserve">
<g>
	<path fill="#00ACC1" d="M22.999,2.999v14c0,1.1-0.9,2-2,2h-14c-1.1,0-2-0.9-2-2v-14c0-1.1,0.9-2,2-2h14
		C22.099,0.999,22.999,1.899,22.999,2.999z"/>
	<path fill="#0097A7" d="M2.999,4.999h-2v16c0,1.1,0.9,2,2,2h16v-2h-16V4.999z"/>
	<path opacity="0.5" fill="#0097A7" d="M22.999,2.999v14c0,1.1-0.9,2-2,2h-7.01v-18h7.01C22.099,0.999,22.999,1.899,22.999,2.999z"
		/>
</g>
<path fill="none" d="M0,0h24v24H0V0z"/>
<path fill="#CFD8DC" d="M17,7V5h-4c-1.1,0-2,0.89-2,2v6c0,1.11,0.9,2,2,2h2c1.1,0,2-0.89,2-2v-2c0-1.11-0.9-2-2-2h-2V7H17z M15,11v2
	h-2v-2H15z"/>
</svg>
