<?xml version="1.0" encoding="utf-8"?>
<!-- Generator: Adobe Illustrator 16.0.0, SVG Export Plug-In . SVG Version: 6.00 Build 0)  -->
<!DOCTYPE svg PUBLIC "-//W3C//DTD SVG 1.1//EN" "http://www.w3.org/Graphics/SVG/1.1/DTD/svg11.dtd">
<svg version="1.1" id="Capa_1" xmlns="http://www.w3.org/2000/svg" xmlns:xlink="http://www.w3.org/1999/xlink" x="0px" y="0px"
	 width="24px" height="24px" viewBox="0 0 24 24" enable-background="new 0 0 24 24" xml:space="preserve">
<path fill="none" d="M0,0h24v24H0V0z"/>
<path fill="#9FA8DA" d="M11,4.07V2.05c-2.01,0.2-3.84,1-5.32,2.21L7.1,5.69C8.21,4.83,9.54,4.25,11,4.07z"/>
<path fill="#9FA8DA" d="M18.32,4.26C16.84,3.05,15.01,2.25,13,2.05v2.02c1.46,0.18,2.79,0.76,3.9,1.62L18.32,4.26z"/>
<path fill="#9FA8DA" d="M19.93,11h2.021c-0.2-2.01-1-3.84-2.21-5.32l-1.43,1.42C19.17,8.21,19.75,9.54,19.93,11z"/>
<path fill="#9FA8DA" d="M5.69,7.1L4.26,5.68C3.05,7.16,2.25,8.99,2.05,11h2.02C4.25,9.54,4.83,8.21,5.69,7.1z"/>
<path fill="#9FA8DA" d="M4.07,13H2.05c0.2,2.01,1,3.84,2.21,5.32l1.43-1.43C4.83,15.79,4.25,14.46,4.07,13z"/>
<path fill="#5C6BC0" d="M15,12c0-1.66-1.34-3-3-3s-3,1.34-3,3s1.34,3,3,3S15,13.66,15,12z"/>
<path fill="#9FA8DA" d="M18.311,16.9l1.43,1.43c1.21-1.48,2.01-3.32,2.21-5.32H19.93C19.75,14.46,19.17,15.79,18.311,16.9z"/>
<path fill="#9FA8DA" d="M13,19.93v2.021c2.01-0.2,3.84-1,5.32-2.21l-1.43-1.43C15.79,19.17,14.46,19.75,13,19.93z"/>
<path fill="#9FA8DA" d="M5.68,19.74C7.16,20.95,9,21.75,11,21.95V19.93c-1.46-0.18-2.79-0.76-3.9-1.619L5.68,19.74z"/>
</svg>
