<?xml version="1.0" encoding="utf-8"?>
<!-- Generator: Adobe Illustrator 16.0.0, SVG Export Plug-In . SVG Version: 6.00 Build 0)  -->
<!DOCTYPE svg PUBLIC "-//W3C//DTD SVG 1.1//EN" "http://www.w3.org/Graphics/SVG/1.1/DTD/svg11.dtd">
<svg version="1.1" id="Capa_1" xmlns="http://www.w3.org/2000/svg" xmlns:xlink="http://www.w3.org/1999/xlink" x="0px" y="0px"
	 width="24px" height="24px" viewBox="0 0 24 24" enable-background="new 0 0 24 24" xml:space="preserve">
<g id="Capa_1_1_">
	<g>
		<path fill="#FFD54F" d="M9.95,9.639c0,0-3.174-5.414,2.134-8.854c0,0,4.986,2.934,1.947,8.961"/>
		<path fill="#FFCA28" d="M13.045,9.059c0,0,3.111-5.45,8.738-2.565c0,0-0.057,5.786-6.797,6.154"/>
		<path fill="#FFCA28" d="M10.995,9.032c0,0-3.11-5.45-8.738-2.565c0,0,0.056,5.785,6.796,6.155"/>
		<path fill="#FFD54F" d="M13.004,15.016c0,0,3.109,5.448,8.738,2.563c0,0-0.057-5.784-6.797-6.154"/>
		<path fill="#FFD54F" d="M10.953,15.042c0,0-3.11,5.449-8.738,2.563c0,0,0.056-5.783,6.796-6.153"/>
		<path fill="#FFCA28" d="M9.935,14.357c0,0-3.174,5.414,2.134,8.855c0,0,4.988-2.934,1.947-8.963"/>
		<circle fill="#5D4037" cx="12.019" cy="12.062" r="4"/>
	</g>
	<path fill="none" d="M0,0h24v24H0V0z"/>
</g>
<g id="Capa_2">
</g>
</svg>
