<?xml version="1.0" encoding="utf-8"?>
<!-- Generator: Adobe Illustrator 16.0.0, SVG Export Plug-In . SVG Version: 6.00 Build 0)  -->
<!DOCTYPE svg PUBLIC "-//W3C//DTD SVG 1.1//EN" "http://www.w3.org/Graphics/SVG/1.1/DTD/svg11.dtd">
<svg version="1.1" id="Capa_1" xmlns="http://www.w3.org/2000/svg" xmlns:xlink="http://www.w3.org/1999/xlink" x="0px" y="0px"
	 width="24px" height="24px" viewBox="0 0 24 24" enable-background="new 0 0 24 24" xml:space="preserve">
<path fill="none" d="M0,0h24v24H0V0z"/>
<path fill="#9575CD" d="M19.35,10.04C18.67,6.59,15.641,4,12,4C9.11,4,6.61,5.64,5.36,8.04C2.35,8.36,0,10.9,0,14
	c0,3.311,2.69,6,6,6h13c2.76,0,5-2.24,5-5C24,12.36,21.95,10.22,19.35,10.04z M19,18H6c-2.21,0-4-1.79-4-4s1.79-4,4-4s4,1.79,4,4h2
	c0-2.76-1.86-5.08-4.4-5.78C8.61,6.88,10.2,6,12,6c3.029,0,5.5,2.47,5.5,5.5V12H19c1.65,0,3,1.35,3,3S20.65,18,19,18z"/>
</svg>
