<?xml version="1.0" encoding="utf-8"?>
<!-- Generator: Adobe Illustrator 16.0.0, SVG Export Plug-In . SVG Version: 6.00 Build 0)  -->
<!DOCTYPE svg PUBLIC "-//W3C//DTD SVG 1.1//EN" "http://www.w3.org/Graphics/SVG/1.1/DTD/svg11.dtd">
<svg version="1.1" id="Capa_1" xmlns="http://www.w3.org/2000/svg" xmlns:xlink="http://www.w3.org/1999/xlink" x="0px" y="0px"
	 width="24px" height="24px" viewBox="0 0 24 24" enable-background="new 0 0 24 24" xml:space="preserve">
<polygon fill="#FFFFFF" points="19,5 19,19 12,11 12,5 "/>
<path fill="none" d="M0,0h24v24H0V0z"/>
<g>
	<path fill="#ECEFF1" d="M21,5v14c0,1.1-0.911,2-2.024,2h-7.045V3h7.045C20.089,3,21,3.9,21,5z"/>
	<path fill="#263238" d="M11.948,3L4.943,3.052c-1.089,0-1.98,0.9-1.98,2v14c0,1.1,0.775,1.995,1.865,1.995h7.156l-0.142-2.005
		l0.112-7.823l0,0L11.948,3z"/>
	<polygon fill="#ECEFF1" points="12,11.047 11.984,21.047 4.828,21.047 	"/>
	<polygon fill="#263238" points="11.953,11.047 11.969,21.047 19.125,21.047 	"/>
</g>
</svg>
