<?xml version="1.0" encoding="utf-8"?>
<!-- Generator: Adobe Illustrator 15.0.0, SVG Export Plug-In . SVG Version: 6.00 Build 0)  -->
<!DOCTYPE svg PUBLIC "-//W3C//DTD SVG 1.1//EN" "http://www.w3.org/Graphics/SVG/1.1/DTD/svg11.dtd">
<svg version="1.1" id="Layer_1" xmlns="http://www.w3.org/2000/svg" xmlns:xlink="http://www.w3.org/1999/xlink" x="0px" y="0px"
	 width="24px" height="24px" viewBox="0 0 24 24" enable-background="new 0 0 24 24" xml:space="preserve">
<path fill="none" d="M0,0h24v24H0V0z"/>
<path fill="#E0E0E0" d="M20,19.59V8l-6-6H6C4.9,2,4.01,2.9,4.01,4L4,20c0,1.1,0.89,2,1.99,2H18c0.45,0,0.85-0.15,1.189-0.4"/>
<path fill="#7986CB" d="M16.17,15.75C16.689,14.96,17,14.02,17,13c0-2.76-2.24-5-5-5s-5,2.24-5,5s2.24,5,5,5
	c1.02,0,1.96-0.311,2.76-0.83l4.43,4.43C19.678,21.237,20,20.663,20,20.01c0-0.095,0-0.248,0-0.422L16.17,15.75z M12,16
	c-1.66,0-3-1.34-3-3s1.34-3,3-3s3,1.34,3,3S13.66,16,12,16z"/>
<path fill="#BDBDBD" d="M14,2l0.01,4c0,1.1,0.891,2,1.99,2h4L14,2z"/>
</svg>
