<?xml version="1.0" encoding="utf-8"?>
<!-- Generator: Adobe Illustrator 16.0.0, SVG Export Plug-In . SVG Version: 6.00 Build 0)  -->
<!DOCTYPE svg PUBLIC "-//W3C//DTD SVG 1.1//EN" "http://www.w3.org/Graphics/SVG/1.1/DTD/svg11.dtd">
<svg version="1.1" id="Capa_1" xmlns="http://www.w3.org/2000/svg" xmlns:xlink="http://www.w3.org/1999/xlink" x="0px" y="0px"
	 width="24px" height="24px" viewBox="0 0 24 24" enable-background="new 0 0 24 24" xml:space="preserve">
<path fill="none" d="M0,0h24v24H0V0z"/>
<path fill="#8E24AA" d="M11,6c1.38,0,2.63,0.56,3.54,1.46L12,10h6V4l-2.05,2.05C14.68,4.78,12.93,4,11,4c-3.53,0-6.43,2.61-6.92,6
	H6.1C6.56,7.72,8.58,6,11,6z"/>
<path fill="#BA68C8" d="M21.496,19.984l-1.487,1.493l-4.869-4.842c-0.02,0.021-0.05,0.03-0.069,0.04
	c-0.181,0.13-0.391,0.262-0.6,0.381c-1.019,0.603-2.209,0.944-3.469,0.946c-1.93,0.004-3.681-0.773-4.954-2.041l-2.046,2.054
	l-0.01-6l6-0.011L7.456,14.55c0.912,0.898,2.163,1.456,3.542,1.453c2.42-0.004,4.438-1.728,4.893-4.008l2.02-0.004
	c-0.128,0.941-0.446,1.822-0.915,2.591c0,0-0.08,0.15-0.239,0.371c-0.04,0.06-0.08,0.12-0.12,0.18L21.496,19.984z"/>
<path fill="#8E24AA" d="M21.496,19.984l-1.487,1.493l-4.869-4.842c-0.02,0.021-0.05,0.03-0.069,0.04
	c0.839-0.611,1.397-1.303,1.687-1.723c-0.04,0.06-0.08,0.12-0.12,0.18L21.496,19.984z"/>
</svg>
