<?xml version="1.0" encoding="utf-8"?>
<!-- Generator: Adobe Illustrator 16.0.0, SVG Export Plug-In . SVG Version: 6.00 Build 0)  -->
<!DOCTYPE svg PUBLIC "-//W3C//DTD SVG 1.1//EN" "http://www.w3.org/Graphics/SVG/1.1/DTD/svg11.dtd">
<svg version="1.1" id="Capa_1" xmlns="http://www.w3.org/2000/svg" xmlns:xlink="http://www.w3.org/1999/xlink" x="0px" y="0px"
	 width="24px" height="24px" viewBox="0 0 24 24" enable-background="new 0 0 24 24" xml:space="preserve">
<path fill="none" d="M0,0h24v24H0V0z"/>
<rect x="1" y="11" fill="#90CAF9" width="6" height="2"/>
<rect x="5.906" y="6.408" transform="matrix(0.7072 0.707 -0.707 0.7072 7.4037 -3.0673)" fill="#64B5F6" width="2.998" height="1.994"/>
<rect x="11" y="1" fill="#90CAF9" width="2" height="6"/>
<rect x="15.598" y="5.906" transform="matrix(0.707 0.7072 -0.7072 0.707 10.0994 -9.5666)" fill="#64B5F6" width="1.993" height="2.998"/>
<rect x="17" y="11" fill="#90CAF9" width="6" height="2"/>
<path fill="#42A5F5" d="M12,9c-1.66,0-3,1.34-3,3s1.34,3,3,3s3-1.34,3-3S13.66,9,12,9z"/>
<rect x="15.096" y="15.599" transform="matrix(-0.7073 -0.7069 0.7069 -0.7073 16.5998 40.064)" fill="#64B5F6" width="2.998" height="1.993"/>
<rect x="6.408" y="15.096" transform="matrix(-0.7072 -0.707 0.707 -0.7072 0.9095 33.5671)" fill="#64B5F6" width="1.993" height="2.998"/>
<rect x="11" y="17" fill="#90CAF9" width="2" height="6"/>
</svg>
