<?xml version="1.0" encoding="utf-8"?>
<!-- Generator: Adobe Illustrator 16.0.0, SVG Export Plug-In . SVG Version: 6.00 Build 0)  -->
<!DOCTYPE svg PUBLIC "-//W3C//DTD SVG 1.1//EN" "http://www.w3.org/Graphics/SVG/1.1/DTD/svg11.dtd">
<svg version="1.1" id="Capa_1" xmlns="http://www.w3.org/2000/svg" xmlns:xlink="http://www.w3.org/1999/xlink" x="0px" y="0px"
	 width="24px" height="24px" viewBox="0 0 24 24" enable-background="new 0 0 24 24" xml:space="preserve">
<path fill="none" d="M0,0h24v24H0V0z"/>
<rect x="15" y="19" fill="#26C6DA" width="2" height="2"/>
<rect x="19" y="7" fill="#26C6DA" width="2" height="2"/>
<path fill="#0097A7" d="M3,5v14c0,1.1,0.9,2,2,2h4v-2H5V5h4V3H5C3.9,3,3,3.9,3,5z"/>
<path fill="#26C6DA" d="M19,3v2h2C21,3.9,20.1,3,19,3z"/>
<rect x="11" y="1" fill="#0097A7" width="2" height="22"/>
<rect x="19" y="15" fill="#26C6DA" width="2" height="2"/>
<rect x="15" y="3" fill="#26C6DA" width="2" height="2"/>
<rect x="19" y="11" fill="#26C6DA" width="2" height="2"/>
<path fill="#26C6DA" d="M19,21c1.1,0,2-0.9,2-2h-2V21z"/>
</svg>
