<?xml version="1.0" encoding="utf-8"?>
<!-- Generator: Adobe Illustrator 16.0.0, SVG Export Plug-In . SVG Version: 6.00 Build 0)  -->
<!DOCTYPE svg PUBLIC "-//W3C//DTD SVG 1.1//EN" "http://www.w3.org/Graphics/SVG/1.1/DTD/svg11.dtd">
<svg version="1.1" id="Capa_1" xmlns="http://www.w3.org/2000/svg" xmlns:xlink="http://www.w3.org/1999/xlink" x="0px" y="0px"
	 width="24px" height="24px" viewBox="0 0 24 24" enable-background="new 0 0 24 24" xml:space="preserve">
<path fill="none" d="M0,0h24v24H0V0z"/>
<rect x="7" y="7" fill="#26C6DA" width="2" height="2"/>
<rect x="7" y="11" fill="#26C6DA" width="2" height="2"/>
<path fill="#26C6DA" d="M9,3C7.89,3,7,3.9,7,5h2V3z"/>
<rect x="11" y="15" fill="#26C6DA" width="2" height="2"/>
<path fill="#26C6DA" d="M19,3v2h2C21,3.9,20.1,3,19,3z"/>
<rect x="11" y="3" fill="#26C6DA" width="2" height="2"/>
<path fill="#26C6DA" d="M9,17v-2H7C7,16.1,7.89,17,9,17z"/>
<rect x="19" y="11" fill="#26C6DA" width="2" height="2"/>
<rect x="19" y="7" fill="#26C6DA" width="2" height="2"/>
<path fill="#26C6DA" d="M19,17c1.1,0,2-0.9,2-2h-2V17z"/>
<path fill="#0097A7" d="M5,7H3v12c0,1.1,0.89,2,2,2h12v-2H5V7z"/>
<rect x="15" y="3" fill="#26C6DA" width="2" height="2"/>
<rect x="15" y="15" fill="#26C6DA" width="2" height="2"/>
</svg>
