<?xml version="1.0" encoding="utf-8"?>
<!-- Generator: Adobe Illustrator 15.0.0, SVG Export Plug-In . SVG Version: 6.00 Build 0)  -->
<!DOCTYPE svg PUBLIC "-//W3C//DTD SVG 1.1//EN" "http://www.w3.org/Graphics/SVG/1.1/DTD/svg11.dtd">
<svg version="1.1" id="Layer_1" xmlns="http://www.w3.org/2000/svg" xmlns:xlink="http://www.w3.org/1999/xlink" x="0px" y="0px"
	 width="24px" height="24px" viewBox="0 0 24 24" enable-background="new 0 0 24 24" xml:space="preserve">
<path fill="none" d="M0,0h24v24H0V0z"/>
<path d="M20,6h-8l-2-2H4C2.9,4,2.01,4.9,2.01,6L2,18c0,1.1,0.9,2,2,2h16c1.1,0,2-0.9,2-2V8C22,6.9,21.1,6,20,6z"/>
<g>
	<path fill="#FFC107" d="M2,18c0,1.1,0.9,2,2,2h16c1.1,0,2-0.9,2-2v-2H2.001L2,18z"/>
	<path fill="#FF9800" d="M20,6h-8l-2-2H4C2.9,4,2.01,4.9,2.01,6L2.001,16H22V8C22,6.9,21.1,6,20,6z"/>
	<rect x="4" y="8" fill="#D7CCC8" width="16" height="8"/>
</g>
</svg>
