<?xml version="1.0" encoding="utf-8"?>
<!-- Generator: Adobe Illustrator 15.0.0, SVG Export Plug-In . SVG Version: 6.00 Build 0)  -->
<!DOCTYPE svg PUBLIC "-//W3C//DTD SVG 1.1//EN" "http://www.w3.org/Graphics/SVG/1.1/DTD/svg11.dtd">
<svg version="1.1" id="Layer_1" xmlns="http://www.w3.org/2000/svg" xmlns:xlink="http://www.w3.org/1999/xlink" x="0px" y="0px"
	 width="24px" height="24px" viewBox="0 0 24 24" enable-background="new 0 0 24 24" xml:space="preserve">
<path fill="#607D8B" d="M15.6,10.79c0.971-0.67,1.65-1.77,1.65-2.79c0-2.26-1.75-4-4-4H7v14h7.04c2.09,0,3.71-1.7,3.71-3.79
	C17.75,12.689,16.891,11.39,15.6,10.79z M10,6.5h3c0.83,0,1.5,0.67,1.5,1.5S13.83,9.5,13,9.5h-3V6.5z M13.5,15.5H10v-3h3.5
	c0.83,0,1.5,0.67,1.5,1.5S14.33,15.5,13.5,15.5z"/>
<path fill="none" d="M0,0h24v24H0V0z"/>
<rect x="7" y="4" fill="#455A64" width="3" height="14"/>
</svg>
