<?xml version="1.0" encoding="utf-8"?>
<!-- Generator: Adobe Illustrator 15.0.0, SVG Export Plug-In . SVG Version: 6.00 Build 0)  -->
<!DOCTYPE svg PUBLIC "-//W3C//DTD SVG 1.1//EN" "http://www.w3.org/Graphics/SVG/1.1/DTD/svg11.dtd">
<svg version="1.1" id="Layer_1" xmlns="http://www.w3.org/2000/svg" xmlns:xlink="http://www.w3.org/1999/xlink" x="0px" y="0px"
	 width="24px" height="24px" viewBox="0 0 24 24" enable-background="new 0 0 24 24" xml:space="preserve">
<path fill="#607D8B" d="M2,17h2v0.5H3v1h1V19H2v1h3v-4H2V17z M3,8h1V4H2v1h1V8z M2,11h1.8L2,13.1V14h3v-1H3.2L5,10.9V10H2V11z"/>
<path fill="none" d="M0,0h24v24H0V0z"/>
<path fill="#90A4AE" d="M7,5v2h14V5H7z M7,19h14v-2H7V19z M7,13h14v-2H7V13z"/>
</svg>
