<?xml version="1.0" encoding="utf-8"?>
<!-- Generator: Adobe Illustrator 16.0.0, SVG Export Plug-In . SVG Version: 6.00 Build 0)  -->
<!DOCTYPE svg PUBLIC "-//W3C//DTD SVG 1.1//EN" "http://www.w3.org/Graphics/SVG/1.1/DTD/svg11.dtd">
<svg version="1.1" xmlns="http://www.w3.org/2000/svg" xmlns:xlink="http://www.w3.org/1999/xlink" x="0px" y="0px" width="24px"
	 height="24px" viewBox="0 0 24 24" enable-background="new 0 0 24 24" xml:space="preserve">
<g id="Capa_1">
	<path fill="none" d="M0,0h24v24H0V0z"/>
	<path fill="#B0BEC5" d="M16.56,8.94L7.62,0L6.21,1.41l2.38,2.38L3.44,8.94c-0.59,0.59-0.59,1.54,0,2.12l5.5,5.5
		C9.23,16.85,9.62,17,10,17s0.77-0.15,1.06-0.44l5.5-5.5C17.15,10.48,17.15,9.53,16.56,8.94z M5.21,10L10,5.21L14.79,10H5.21z"/>
	<path fill="#26A69A" d="M19,11.5c0,0-2,2.17-2,3.5c0,1.1,0.9,2,2,2s2-0.9,2-2C21,13.67,19,11.5,19,11.5z"/>
	<path fill="#26A69A" fill-opacity="0.36" d="M0,20h24v4H0V20z"/>
</g>
<g id="Capa_2">
	<polygon fill="#26A69A" points="14.854,10.021 9.938,14.542 5.146,9.979 	"/>
</g>
</svg>
