<?xml version="1.0" encoding="utf-8"?>
<!-- Generator: Adobe Illustrator 16.0.0, SVG Export Plug-In . SVG Version: 6.00 Build 0)  -->
<!DOCTYPE svg PUBLIC "-//W3C//DTD SVG 1.1//EN" "http://www.w3.org/Graphics/SVG/1.1/DTD/svg11.dtd">
<svg version="1.1" id="Capa_1" xmlns="http://www.w3.org/2000/svg" xmlns:xlink="http://www.w3.org/1999/xlink" x="0px" y="0px"
	 width="24px" height="24px" viewBox="0 0 24 24" enable-background="new 0 0 24 24" xml:space="preserve">
<g>
	<path fill="#EF5350" d="M18.012,2.784v4.4c-0.091,0.46-0.498,0.8-0.978,0.8H5.075c-0.548,0-0.997-0.45-0.997-1v-4
		c0-0.55,0.449-1,0.997-1h11.959C17.514,1.984,17.921,2.324,18.012,2.784z"/>
	<polygon fill="#78909C" points="21,4 21,12 13,12 13,14.061 12.98,14.061 12.98,10 19,10 19,6 18,6 18,4 	"/>
	<path fill="#FDD835" d="M12.98,10v11.2c-0.09,0.46-0.5,0.8-0.98,0.8h-2c-0.55,0-1-0.45-1-1V10H12.98z"/>
</g>
<path fill="none" d="M0,0h24v24H0V0z"/>
</svg>
