<?xml version="1.0" encoding="utf-8"?>
<!-- Generator: Adobe Illustrator 15.0.0, SVG Export Plug-In . SVG Version: 6.00 Build 0)  -->
<!DOCTYPE svg PUBLIC "-//W3C//DTD SVG 1.1//EN" "http://www.w3.org/Graphics/SVG/1.1/DTD/svg11.dtd">
<svg version="1.1" id="Layer_1" xmlns="http://www.w3.org/2000/svg" xmlns:xlink="http://www.w3.org/1999/xlink" x="0px" y="0px"
	 width="24px" height="24px" viewBox="0 0 24 24" enable-background="new 0 0 24 24" xml:space="preserve">
<path fill="#90A4AE" d="M7,19h14v-2H7V19z M7,13h14v-2H7V13z M7,5v2h14V5H7z"/>
<path fill="none" d="M0,0h24v24H0V0z"/>
<path fill="#607D8B" d="M4,10.5c-0.83,0-1.5,0.67-1.5,1.5s0.67,1.5,1.5,1.5s1.5-0.67,1.5-1.5S4.83,10.5,4,10.5z M4,4.5
	C3.17,4.5,2.5,5.17,2.5,6S3.17,7.5,4,7.5S5.5,6.83,5.5,6S4.83,4.5,4,4.5z M4,16.67c-0.74,0-1.33,0.6-1.33,1.33s0.6,1.33,1.33,1.33
	s1.33-0.6,1.33-1.33S4.74,16.67,4,16.67z"/>
</svg>
