<?xml version="1.0" encoding="utf-8"?>
<!-- Generator: Adobe Illustrator 16.0.0, SVG Export Plug-In . SVG Version: 6.00 Build 0)  -->
<!DOCTYPE svg PUBLIC "-//W3C//DTD SVG 1.1//EN" "http://www.w3.org/Graphics/SVG/1.1/DTD/svg11.dtd">
<svg version="1.1" id="Capa_1" xmlns="http://www.w3.org/2000/svg" xmlns:xlink="http://www.w3.org/1999/xlink" x="0px" y="0px"
	 width="24px" height="24px" viewBox="0 0 24 24" enable-background="new 0 0 24 24" xml:space="preserve">
<path fill="#0097A7" d="M4.59,6.89c0.7-0.71,1.4-1.35,1.71-1.22c0.5,0.2,0,1.03-0.3,1.52c-0.25,0.42-2.86,3.89-2.86,6.31
	c0,1.28,0.48,2.34,1.34,2.98c0.75,0.56,1.74,0.729,2.64,0.459c1.07-0.31,1.95-1.399,3.06-2.77c1.21-1.49,2.83-3.44,4.08-3.44
	c1.631,0,1.65,1.01,1.76,1.79c-3.779,0.641-5.379,3.67-5.379,5.371c0,1.699,1.44,3.09,3.209,3.09c1.631,0,4.291-1.33,4.69-6.101H21
	v-2.5h-2.471c-0.149-1.65-1.09-4.2-4.029-4.2c-2.25,0-4.18,1.91-4.94,2.84c-0.58,0.73-2.06,2.48-2.29,2.72
	c-0.25,0.3-0.68,0.84-1.11,0.84c-0.45,0-0.72-0.83-0.36-1.92c0.35-1.09,1.4-2.86,1.85-3.52C8.43,8,8.95,7.22,8.95,5.86
	C8.95,3.69,7.31,3,6.44,3C5.12,3,3.97,4,3.72,4.25C3.36,4.61,3.06,4.91,2.84,5.18L4.59,6.89z M13.88,18.55
	c-0.31,0-0.739-0.26-0.739-0.72c0-0.6,0.729-2.2,2.869-2.76C15.71,17.76,14.58,18.55,13.88,18.55z"/>
<path fill="none" d="M0,0h24v24H0V0z"/>
</svg>
