<?xml version="1.0" encoding="utf-8"?>
<!-- Generator: Adobe Illustrator 16.0.0, SVG Export Plug-In . SVG Version: 6.00 Build 0)  -->
<!DOCTYPE svg PUBLIC "-//W3C//DTD SVG 1.1//EN" "http://www.w3.org/Graphics/SVG/1.1/DTD/svg11.dtd">
<svg version="1.1" id="Capa_1" xmlns="http://www.w3.org/2000/svg" xmlns:xlink="http://www.w3.org/1999/xlink" x="0px" y="0px"
	 width="24px" height="24px" viewBox="0 0 24 24" enable-background="new 0 0 24 24" xml:space="preserve">
<path fill="#CFD8DC" d="M21,5v6H3V5c0-1.1,0.9-2,2-2h14C20.1,3,21,3.9,21,5z"/>
<rect x="3" y="11" opacity="0.8" fill="#B0BEC5" width="18" height="3.996"/>
<rect x="11" y="9" fill="#78909C" width="2" height="2"/>
<rect x="9" y="11" fill="#546E7A" width="2" height="2"/>
<rect x="13" y="11" fill="#546E7A" width="2" height="2"/>
<rect x="15" y="9" fill="#78909C" width="2" height="2"/>
<rect x="7" y="9" fill="#78909C" width="2" height="2"/>
<path opacity="0.7" fill="#90A4AE" d="M21,15v4c0,1.1-0.9,2-2,2H5c-1.1,0-2-0.9-2-2v-4H21z"/>
<rect x="7" y="16" fill="#263238" width="2" height="2"/>
<rect x="11" y="16" fill="#263238" width="2" height="2"/>
<rect x="15" y="16" fill="#263238" width="2" height="2"/>
<path fill="none" d="M0,0h24v24H0V0z"/>
<rect x="5" y="11" fill="#546E7A" width="2" height="2"/>
<rect x="17" y="11" fill="#546E7A" width="1.984" height="2"/>
<rect x="15" y="12.984" fill="#455A64" width="1.984" height="2"/>
<rect x="11.016" y="12.984" fill="#455A64" width="1.984" height="2"/>
<rect x="7" y="13" fill="#455A64" width="1.984" height="2"/>
</svg>
