<?xml version="1.0" encoding="utf-8"?>
<!-- Generator: Adobe Illustrator 16.0.0, SVG Export Plug-In . SVG Version: 6.00 Build 0)  -->
<!DOCTYPE svg PUBLIC "-//W3C//DTD SVG 1.1//EN" "http://www.w3.org/Graphics/SVG/1.1/DTD/svg11.dtd">
<svg version="1.1" id="Capa_1" xmlns="http://www.w3.org/2000/svg" xmlns:xlink="http://www.w3.org/1999/xlink" x="0px" y="0px"
	 width="24px" height="24px" viewBox="0 0 24 24" enable-background="new 0 0 24 24" xml:space="preserve">
<path fill="none" d="M0,0h24v24H0V0z"/>
<path fill="#FFD54F" d="M10,12c-1.1,0-2,0.9-2,2s0.9,2,2,2s2-0.9,2-2S11.1,12,10,12z"/>
<path fill="#FFCA28" d="M6,8c-1.1,0-2,0.9-2,2s0.9,2,2,2s2-0.9,2-2S7.1,8,6,8z"/>
<path fill="#FFCA28" d="M6,16c-1.1,0-2,0.9-2,2s0.9,2,2,2s2-0.9,2-2S7.1,16,6,16z"/>
<path fill="#FFD54F" d="M18,8c1.1,0,2-0.9,2-2s-0.9-2-2-2s-2,0.9-2,2S16.9,8,18,8z"/>
<path fill="#FFCA28" d="M14,16c-1.1,0-2,0.9-2,2s0.9,2,2,2s2-0.9,2-2S15.1,16,14,16z"/>
<path fill="#FFD54F" d="M18,12c-1.1,0-2,0.9-2,2s0.9,2,2,2s2-0.9,2-2S19.1,12,18,12z"/>
<path fill="#FFCA28" d="M14,8c-1.1,0-2,0.9-2,2s0.9,2,2,2s2-0.9,2-2S15.1,8,14,8z"/>
<path fill="#FFD54F" d="M10,4C8.9,4,8,4.9,8,6s0.9,2,2,2s2-0.9,2-2S11.1,4,10,4z"/>
</svg>
