<?xml version="1.0" encoding="utf-8"?>
<!-- Generator: Adobe Illustrator 15.0.0, SVG Export Plug-In . SVG Version: 6.00 Build 0)  -->
<!DOCTYPE svg PUBLIC "-//W3C//DTD SVG 1.1//EN" "http://www.w3.org/Graphics/SVG/1.1/DTD/svg11.dtd">
<svg version="1.1" id="Layer_1" xmlns="http://www.w3.org/2000/svg" xmlns:xlink="http://www.w3.org/1999/xlink" x="0px" y="0px"
	 width="24px" height="24px" viewBox="0 0 24 24" enable-background="new 0 0 24 24" xml:space="preserve">
<path fill="none" d="M0,0h24v24H0V0z"/>
<polygon fill="#8BC34A" points="8,10 5,10 5,7 3,7 3,10 0,10 0,12 3,12 3,15 5,15 5,12 8,12 "/>
<path fill="#00BCD4" d="M18,11c1.66,0,2.99-1.34,2.99-3S19.66,5,18,5s-3,1.34-3,3S16.34,11,18,11z M18,13c-2,0-6,1-6,3v2h12v-2
	C24,14,20,13,18,13z"/>
<path fill="#1976D2" d="M13,11c1.66,0,2.99-1.34,2.99-3S14.66,5,13,5s-3,1.34-3,3S11.34,11,13,11z M13,13c-2,0-6,1-6,3v2h12v-2
	C19,14,15,13,13,13z"/>
</svg>
