<?xml version="1.0" encoding="utf-8"?>
<!-- Generator: Adobe Illustrator 15.0.0, SVG Export Plug-In . SVG Version: 6.00 Build 0)  -->
<!DOCTYPE svg PUBLIC "-//W3C//DTD SVG 1.1//EN" "http://www.w3.org/Graphics/SVG/1.1/DTD/svg11.dtd">
<svg version="1.1" id="Layer_1" xmlns="http://www.w3.org/2000/svg" xmlns:xlink="http://www.w3.org/1999/xlink" x="0px" y="0px"
	 width="24px" height="24px" viewBox="0 0 24 24" enable-background="new 0 0 24 24" xml:space="preserve">
<path fill="none" d="M0,0h24v24H0V0z"/>
<path fill="#00BCD4" d="M15.995,11c1.66,0,2.99-1.34,2.99-3s-1.33-3-2.99-3s-3,1.34-3,3S14.335,11,15.995,11z M15.995,13
	c-2.33,0-7,1.17-7,3.5V19h14v-2.5C22.995,14.17,18.325,13,15.995,13z"/>
<path fill="#1976D2" d="M8,11c1.66,0,2.99-1.34,2.99-3S9.66,5,8,5S5,6.34,5,8S6.34,11,8,11z M8,13c-2.33,0-7,1.17-7,3.5V19h14v-2.5
	C15,14.17,10.33,13,8,13z"/>
</svg>
