<?xml version="1.0" encoding="utf-8"?>
<!-- Generator: Adobe Illustrator 16.0.0, SVG Export Plug-In . SVG Version: 6.00 Build 0)  -->
<!DOCTYPE svg PUBLIC "-//W3C//DTD SVG 1.1//EN" "http://www.w3.org/Graphics/SVG/1.1/DTD/svg11.dtd">
<svg version="1.1" id="Capa_1" xmlns="http://www.w3.org/2000/svg" xmlns:xlink="http://www.w3.org/1999/xlink" x="0px" y="0px"
	 width="24px" height="24px" viewBox="0 0 24 24" enable-background="new 0 0 24 24" xml:space="preserve">
<path fill="none" d="M0,0h24v24H0V0z"/>
<path fill="#00ACC1" d="M6,11H4V7H2v10h2v-4h2v4h2V7H6V11z M13,7H9v10h4c1.1,0,2-0.9,2-2V9C15,7.9,14.1,7,13,7z M13,15h-2V9h2V15z
	 M22,11V9c0-1.1-0.9-2-2-2h-4v10h2v-4h1l1,4h2l-1.189-4.17C21.51,12.52,22,11.82,22,11z M20,11h-2V9h2V11z"/>
<path fill="none" d="M0,0h24v24H0V0z"/>
</svg>
