<?xml version="1.0" encoding="utf-8"?>
<!-- Generator: Adobe Illustrator 16.0.0, SVG Export Plug-In . SVG Version: 6.00 Build 0)  -->
<!DOCTYPE svg PUBLIC "-//W3C//DTD SVG 1.1//EN" "http://www.w3.org/Graphics/SVG/1.1/DTD/svg11.dtd">
<svg version="1.1" id="Capa_1" xmlns="http://www.w3.org/2000/svg" xmlns:xlink="http://www.w3.org/1999/xlink" x="0px" y="0px"
	 width="24px" height="24px" viewBox="0 0 24 24" enable-background="new 0 0 24 24" xml:space="preserve">
<path fill="none" d="M0,0h24v24H0V0z"/>
<path fill="#3F51B5" d="M12,1c-4.97,0-9,4.03-9,9v7c0,1.66,1.34,3,3,3h3v-8H5v-2c0-3.87,3.13-7,7-7s7,3.13,7,7v2h-4v8h4v1h-7v2h6
	c1.66,0,3-1.34,3-3V10C21,5.03,16.971,1,12,1z"/>
<path fill="none" d="M0,0h24v24H0V0z"/>
<g>
	<path fill="#9575CD" d="M12,1c-4.971,0-9,4.03-9,9v7c0,1.309,0.836,2.405,2,2.816V12v-2c0-3.87,3.13-7,7-7s7,3.13,7,7v2v7.816
		c1.164-0.411,2-1.51,2-2.816v-7C21,5.03,16.971,1,12,1z"/>
	<path fill="#3F51B5" d="M9,20v-8H5v7.816C5.314,19.93,5.646,20,6,20H9z"/>
	<path fill="#3F51B5" d="M15,12v8h3c0.354,0,0.686-0.07,1-0.184V12H15z"/>
</g>
</svg>
