<?xml version="1.0" encoding="utf-8"?>
<!-- Generator: Adobe Illustrator 16.0.0, SVG Export Plug-In . SVG Version: 6.00 Build 0)  -->
<!DOCTYPE svg PUBLIC "-//W3C//DTD SVG 1.1//EN" "http://www.w3.org/Graphics/SVG/1.1/DTD/svg11.dtd">
<svg version="1.1" xmlns="http://www.w3.org/2000/svg" xmlns:xlink="http://www.w3.org/1999/xlink" x="0px" y="0px" width="24px"
	 height="24px" viewBox="0 0 24 24" enable-background="new 0 0 24 24" xml:space="preserve">
<g id="Capa_1">
	<path fill="#BCAAA4" d="M21.72,17.41l-4.34,4.34c-0.2,0.19-0.45,0.29-0.71,0.29s-0.51-0.09-0.71-0.29l-3.98-3.98l-0.55,0.551
		L8,21.75c-0.39,0.39-1.02,0.39-1.41,0l-4.34-4.34c-0.39-0.391-0.39-1.021,0-1.41l3.98-3.98L2.25,8.04c-0.39-0.39-0.39-1.02,0-1.41
		l4.34-4.34C6.78,2.1,7.04,2,7.29,2C7.55,2,7.8,2.1,8,2.29l3.98,3.98l0.66-0.66l3.32-3.32c0.39-0.39,1.021-0.39,1.41,0l4.34,4.34
		c0.39,0.39,0.39,1.02,0,1.41l-3.04,3.05l-0.939,0.93L21.72,16C22.11,16.39,22.11,17.02,21.72,17.41z"/>
	<circle fill="#D7CCC8" cx="12" cy="10" r="1"/>
	<polygon fill="#A1887F" points="7.29,10.96 3.66,7.34 7.29,3.71 10.91,7.33 	"/>
	<circle fill="#D7CCC8" cx="10" cy="12" r="1"/>
	<circle fill="#D7CCC8" cx="12" cy="14" r="1"/>
	<circle fill="#D7CCC8" cx="14" cy="12" r="1"/>
	<polygon fill="#A1887F" points="16.66,20.34 13.029,16.72 16.66,13.09 20.279,16.71 	"/>
</g>
<g id="Capa_2">
	<path fill="#A1887F" d="M11.98,6.27l-5.75,5.75L2.25,8.04c-0.39-0.39-0.39-1.02,0-1.41l4.34-4.34C6.78,2.1,7.04,2,7.29,2
		C7.55,2,7.8,2.1,8,2.29L11.98,6.27z"/>
	<path fill="#A1887F" d="M21.72,17.41l-4.34,4.34c-0.2,0.19-0.45,0.29-0.71,0.29s-0.51-0.09-0.71-0.29l-3.98-3.98l-0.55,0.551
		l-0.01-0.011l4.83-4.81l0.41-0.41l1.07-1.07L21.72,16C22.11,16.39,22.11,17.02,21.72,17.41z"/>
</g>
</svg>
