<?xml version="1.0" encoding="utf-8"?>
<!-- Generator: Adobe Illustrator 16.0.0, SVG Export Plug-In . SVG Version: 6.00 Build 0)  -->
<!DOCTYPE svg PUBLIC "-//W3C//DTD SVG 1.1//EN" "http://www.w3.org/Graphics/SVG/1.1/DTD/svg11.dtd">
<svg version="1.1" id="Capa_1" xmlns="http://www.w3.org/2000/svg" xmlns:xlink="http://www.w3.org/1999/xlink" x="0px" y="0px"
	 width="24px" height="24px" viewBox="0 0 24 24" enable-background="new 0 0 24 24" xml:space="preserve">
<path fill="#FFCCBC" d="M21,9v9l-2.188,2.531c0,0-2.125,0.594-2.188,0.594s-2.938-3.594-2.938-3.594l-2.875-3.719
	c0,0-2.281-4.375-2.313-4.563C8.466,9.061,9.311,6.155,9.311,6.155l1.531-1.531c0,0,2.969-1.375,3.063-1.406
	C13.999,3.187,18,4,18.094,4.063s2.375,3.687,2.375,3.687L21,9z"/>
<path fill="#FFAB91" d="M17,20c-0.29,0-0.561-0.061-0.76-0.15c-0.711-0.369-1.211-0.88-1.711-2.38c-0.51-1.56-1.469-2.29-2.389-3
	c-0.79-0.61-1.61-1.239-2.32-2.53C9.29,10.98,9,9.93,9,9c0-2.8,2.2-5,5-5s3.859-0.141,6.953,4.938L21,9c0-3.93-3.07-7-7-7
	c-3.93,0-7,3.07-7,7c0,1.26,0.38,2.65,1.07,3.9c0.91,1.647,1.98,2.479,2.85,3.147c0.81,0.62,1.39,1.07,1.71,2.052
	c0.601,1.818,1.37,2.84,2.729,3.551C15.87,21.88,16.43,22,17,22c2.21,0,4-1.79,4-4h-2C19,19.1,18.1,20,17,20z"/>
<path fill="#43A047" d="M7.64,2.64L6.22,1.22C4.23,3.21,3,5.96,3,9s1.23,5.79,3.22,7.78l1.41-1.41C6.01,13.74,5,11.49,5,9
	S6.01,4.26,7.64,2.64z"/>
<path fill="none" d="M0,0h24v24H0V0z"/>
<path fill="#FFAB91" d="M19.688,19.184c-0.783,0-1.719-0.168-2.506-0.795c-1.062-0.846-1.527-2.248-1.388-4.17
	c0.243-3.333-0.237-6.921-1.39-7.25c-0.575,0.166-1.919,0.852-2.303,2.086l-1.018-1.034c1.042-1.813,1.313-2.417,2.787-2.596
	c2.563,0.733,4.183,5.325,3.918,8.94c-0.062,0.841-0.001,1.949,0.638,2.457c0.801,0.638,2.854,0.242,2.573,0.209V18
	C20.902,18.07,20.514,19.184,19.688,19.184z"/>
</svg>
