<?xml version="1.0" encoding="utf-8"?>
<!-- Generator: Adobe Illustrator 15.0.0, SVG Export Plug-In . SVG Version: 6.00 Build 0)  -->
<!DOCTYPE svg PUBLIC "-//W3C//DTD SVG 1.1//EN" "http://www.w3.org/Graphics/SVG/1.1/DTD/svg11.dtd">
<svg version="1.1" id="Layer_1" xmlns="http://www.w3.org/2000/svg" xmlns:xlink="http://www.w3.org/1999/xlink" x="0px" y="0px"
	 width="24px" height="24px" viewBox="0 0 24 24" enable-background="new 0 0 24 24" xml:space="preserve">
<path fill="none" d="M0,0h24v24H0V0z"/>
<path fill="#64B5F6" d="M12,2C6.48,2,2,6.48,2,12c0,5.52,4.48,10,10,10c5.52,0,10-4.48,10-10C22,6.48,17.52,2,12,2z"/>
<path fill="#2196F3" d="M12,4c-4.417,0-8,3.583-8,8c0,4.414,3.583,8,8,8c4.414,0,8-3.586,8-8C20,7.583,16.414,4,12,4z"/>
<path fill="#CFD8DC" d="M13,19h-2v-2h2V19z M15.07,11.25l-0.9,0.92C13.45,12.9,13,13.5,13,15h-2v-0.5c0-1.1,0.45-2.1,1.17-2.83
	l1.24-1.26C13.779,10.05,14,9.55,14,9c0-1.1-0.9-2-2-2c-1.1,0-2,0.9-2,2H8c0-2.21,1.79-4,4-4s4,1.79,4,4
	C16,9.88,15.641,10.68,15.07,11.25z"/>
</svg>
