<?xml version="1.0" encoding="utf-8"?>
<!-- Generator: Adobe Illustrator 16.0.0, SVG Export Plug-In . SVG Version: 6.00 Build 0)  -->
<!DOCTYPE svg PUBLIC "-//W3C//DTD SVG 1.1//EN" "http://www.w3.org/Graphics/SVG/1.1/DTD/svg11.dtd">
<svg version="1.1" id="Capa_1" xmlns="http://www.w3.org/2000/svg" xmlns:xlink="http://www.w3.org/1999/xlink" x="0px" y="0px"
	 width="24px" height="24px" viewBox="0 0 24 24" enable-background="new 0 0 24 24" xml:space="preserve">
<path fill="none" d="M0,0h24v24H0V0z"/>
<path fill="#78909C" d="M21,6v12c0,1.1-0.9,2-2,2H5c-1.11,0-2-0.9-2-2V6c0-1.1,0.89-2,2-2h14C20.1,4,21,4.9,21,6z"/>
<polygon fill="#ECEFF1" points="11,15 9.5,15 9.5,13 7.5,13 7.5,15 6,15 6,9 7.5,9 7.5,11.5 9.5,11.5 9.5,9 11,9 "/>
<path opacity="0.2" fill="#546E7A" d="M20.875,5.958v12c0,1.1-0.9,2-2,2h-7v-16h7C19.975,3.958,20.875,4.858,20.875,5.958z"/>
<path fill="#ECEFF1" d="M17,9h-3c-0.55,0-1,0.45-1,1v4c0,0.55,0.45,1,1,1h0.75v1.5h1.5V15H17c0.55,0,1-0.45,1-1v-4
	C18,9.45,17.55,9,17,9z M16.5,13.5h-2v-3h2V13.5z"/>
</svg>
