<?xml version="1.0" encoding="utf-8"?>
<!-- Generator: Adobe Illustrator 16.0.0, SVG Export Plug-In . SVG Version: 6.00 Build 0)  -->
<!DOCTYPE svg PUBLIC "-//W3C//DTD SVG 1.1//EN" "http://www.w3.org/Graphics/SVG/1.1/DTD/svg11.dtd">
<svg version="1.1" id="Capa_1" xmlns="http://www.w3.org/2000/svg" xmlns:xlink="http://www.w3.org/1999/xlink" x="0px" y="0px"
	 width="24px" height="24px" viewBox="0 0 24 24" enable-background="new 0 0 24 24" xml:space="preserve">
<path fill="none" d="M0,0h24v24H0V0z"/>
<path fill="#EF5350" d="M12,2C6.47,2,2,6.47,2,12c0,5.53,4.47,10,10,10c5.53,0,10-4.47,10-10C22,6.47,17.53,2,12,2z M12,20
	c-4.41,0-8-3.59-8-8s3.59-8,8-8s8,3.59,8,8S16.41,20,12,20z"/>
<path opacity="0.3" fill="#D32F2F" enable-background="new    " d="M22,12c0,5.53-4.47,10-10,10v-2c4.41,0,8-3.59,8-8s-3.59-8-8-8V2
	C17.53,2,22,6.47,22,12z"/>
<polygon fill="#E53935" points="14.59,8 12,10.59 9.41,8 8,9.41 10.59,12 8,14.59 9.41,16 12,13.41 14.59,16 16,14.59 13.41,12 
	16,9.41 "/>
</svg>
