<?xml version="1.0" encoding="utf-8"?>
<!-- Generator: Adobe Illustrator 15.0.0, SVG Export Plug-In . SVG Version: 6.00 Build 0)  -->
<!DOCTYPE svg PUBLIC "-//W3C//DTD SVG 1.1//EN" "http://www.w3.org/Graphics/SVG/1.1/DTD/svg11.dtd">
<svg version="1.1" id="Layer_1" xmlns="http://www.w3.org/2000/svg" xmlns:xlink="http://www.w3.org/1999/xlink" x="0px" y="0px"
	 width="24px" height="24px" viewBox="0 0 24 24" enable-background="new 0 0 24 24" xml:space="preserve">
<path fill="none" d="M0,0h24v24H0V0z"/>
<path opacity="0.5" fill="#F57C00" d="M13.908,3.909C9.942,3.909,4,7.03,4,12s4.02,9,9,9c4.971,0,8.092-5.942,8.092-9.909
	S17.876,3.909,13.908,3.909z"/>
<path fill="#E0E0E0" d="M13,19c-3.87,0-7-3.13-7-7s3.13-7,7-7s7,3.13,7,7S16.87,19,13,19z"/>
<polygon fill="#FFA000" points="13.5,7 12,7 12,13 16.75,15.85 17.5,14.62 13.5,12.25 "/>
<path fill="#F57C00" d="M13,3c-4.97,0-9,4.03-9,9H1l3.89,3.891l0.07,0.14L9,12H6c0-3.87,3.13-7,7-7s7,3.13,7,7s-3.13,7-7,7
	c-1.93,0-3.68-0.79-4.94-2.061l-1.42,1.42C8.27,19.99,10.51,21,13,21c4.971,0,9-4.03,9-9S17.971,3,13,3z"/>
</svg>
