<?xml version="1.0" encoding="utf-8"?>
<!-- Generator: Adobe Illustrator 16.0.0, SVG Export Plug-In . SVG Version: 6.00 Build 0)  -->
<!DOCTYPE svg PUBLIC "-//W3C//DTD SVG 1.1//EN" "http://www.w3.org/Graphics/SVG/1.1/DTD/svg11.dtd">
<svg version="1.1" id="Capa_1" xmlns="http://www.w3.org/2000/svg" xmlns:xlink="http://www.w3.org/1999/xlink" x="0px" y="0px"
	 width="24px" height="24px" viewBox="0 0 24 24" enable-background="new 0 0 24 24" xml:space="preserve">
<path fill="none" d="M0,0h24v24H0V0z"/>
<path fill="#90A4AE" d="M18,8h-1V6c0-2.76-2.24-5-5-5S7,3.24,7,6v2H6c-1.1,0-2,0.9-2,2v10c0,1.1,0.9,2,2,2h12c1.1,0,2-0.9,2-2V10
	C20,8.9,19.1,8,18,8z M8.9,8V6c0-1.71,1.39-3.1,3.1-3.1s3.1,1.39,3.1,3.1v2H8.9z"/>
<path fill="#607D8B" d="M12,17c-1.1,0-2-0.9-2-2s0.9-2,2-2c1.1,0,2,0.9,2,2S13.1,17,12,17z"/>
<path fill="#BDBDBD" d="M17,6v2h-1.9V6c0-1.71-1.39-3.1-3.1-3.1S8.9,4.29,8.9,6v2H7V6c0-2.76,2.24-5,5-5S17,3.24,17,6z"/>
</svg>
