<?xml version="1.0" encoding="utf-8"?>
<!-- Generator: Adobe Illustrator 16.0.0, SVG Export Plug-In . SVG Version: 6.00 Build 0)  -->
<!DOCTYPE svg PUBLIC "-//W3C//DTD SVG 1.1//EN" "http://www.w3.org/Graphics/SVG/1.1/DTD/svg11.dtd">
<svg version="1.1" id="Capa_1" xmlns="http://www.w3.org/2000/svg" xmlns:xlink="http://www.w3.org/1999/xlink" x="0px" y="0px"
	 width="24px" height="24px" viewBox="0 0 24 24" enable-background="new 0 0 24 24" xml:space="preserve">
<path fill="#5C6BC0" d="M20,4H4C2.9,4,2,4.9,2,6v12c0,1.1,0.9,2,2,2h16c1.1,0,2-0.9,2-2V6C22,4.9,21.1,4,20,4z"/>
<rect x="4" y="6" fill="#C5CAE9" width="16" height="12"/>
<path fill="none" d="M0,0h24v24H0V0z"/>
<rect x="14" y="10" fill="#9FA8DA" width="2" height="2"/>
<rect x="14" y="14" fill="#9FA8DA" width="2" height="2"/>
<rect x="6" y="10" fill="#9FA8DA" width="2" height="2"/>
<rect x="10" y="10" fill="#9FA8DA" width="2" height="2"/>
</svg>
