<?xml version="1.0" encoding="utf-8"?>
<!-- Generator: Adobe Illustrator 16.0.0, SVG Export Plug-In . SVG Version: 6.00 Build 0)  -->
<!DOCTYPE svg PUBLIC "-//W3C//DTD SVG 1.1//EN" "http://www.w3.org/Graphics/SVG/1.1/DTD/svg11.dtd">
<svg version="1.1" id="Capa_1" xmlns="http://www.w3.org/2000/svg" xmlns:xlink="http://www.w3.org/1999/xlink" x="0px" y="0px"
	 width="24px" height="24px" viewBox="0 0 24 24" enable-background="new 0 0 24 24" xml:space="preserve">
<rect x="9.375" y="9.958" fill="#9FA8DA" width="10.167" height="8.958"/>
<path fill="#C5CAE9" d="M4.609,17.984l3.938-4.469c0,0,3.922,4.797,3.969,4.766"/>
<path fill="none" d="M0,0h24v24H0V0z"/>
<path fill="#5C6BC0" d="M21,19V5c0-1.1-0.9-2-2-2H5C3.9,3,3,3.9,3,5v14c0,1.1,0.9,2,2,2h14C20.1,21,21,20.1,21,19z M8.5,13.5
	l2.5,3.01L14.5,12l4.5,6H5L8.5,13.5z"/>
</svg>
