<?xml version="1.0" encoding="utf-8"?>
<!-- Generator: Adobe Illustrator 15.0.0, SVG Export Plug-In . SVG Version: 6.00 Build 0)  -->
<!DOCTYPE svg PUBLIC "-//W3C//DTD SVG 1.1//EN" "http://www.w3.org/Graphics/SVG/1.1/DTD/svg11.dtd">
<svg version="1.1" id="Layer_1" xmlns="http://www.w3.org/2000/svg" xmlns:xlink="http://www.w3.org/1999/xlink" x="0px" y="0px"
	 width="24px" height="24px" viewBox="0 0 24 24" enable-background="new 0 0 24 24" xml:space="preserve">
<path fill="#FFC107" d="M19,3H4.99c-1.1,0-1.98,0.9-1.98,2L3,19c0,1.1,0.89,2,1.99,2H19c1.1,0,2-0.9,2-2V5C21,3.9,20.1,3,19,3z"/>
<path fill="#FF9800" d="M19,15h-4c0,1.66-1.34,3-3,3s-3-1.34-3-3H4.99V5H19V15z"/>
<polygon fill="#F5F5F5" points="16,10 14,10 14,7 10,7 10,10 8,10 12,14 "/>
<path fill="none" d="M0,0h24v24H0V0z"/>
</svg>
