<?xml version="1.0" encoding="utf-8"?>
<!-- Generator: Adobe Illustrator 15.0.0, SVG Export Plug-In . SVG Version: 6.00 Build 0)  -->
<!DOCTYPE svg PUBLIC "-//W3C//DTD SVG 1.1//EN" "http://www.w3.org/Graphics/SVG/1.1/DTD/svg11.dtd">
<svg version="1.1" id="Layer_1" xmlns="http://www.w3.org/2000/svg" xmlns:xlink="http://www.w3.org/1999/xlink" x="0px" y="0px"
	 width="24px" height="24px" viewBox="0 0 24 24" enable-background="new 0 0 24 24" xml:space="preserve">
<path fill="none" d="M24,24H0V0h24V24z"/>
<path fill="#4FC3F7" d="M12,22c5.52,0,10-4.48,10-10S17.52,2,12,2S2,6.48,2,12S6.48,22,12,22z"/>
<path fill="#2196F3" d="M12,20c4.417,0,8-3.583,8-8c0-4.414-3.583-8-8-8c-4.414,0-8,3.586-8,8C4,16.417,7.586,20,12,20z"/>
<path fill="#CFD8DC" d="M11,7h2v2h-2V7z M11,11h2v6h-2V11z"/>
</svg>
