<?xml version="1.0" encoding="utf-8"?>
<!-- Generator: Adobe Illustrator 16.0.0, SVG Export Plug-In . SVG Version: 6.00 Build 0)  -->
<!DOCTYPE svg PUBLIC "-//W3C//DTD SVG 1.1//EN" "http://www.w3.org/Graphics/SVG/1.1/DTD/svg11.dtd">
<svg version="1.1" id="Capa_1" xmlns="http://www.w3.org/2000/svg" xmlns:xlink="http://www.w3.org/1999/xlink" x="0px" y="0px"
	 width="24px" height="24px" viewBox="0 0 24 24" enable-background="new 0 0 24 24" xml:space="preserve">
<path fill="#C5CAE9" d="M22.999,4.999V19c0,1.1-0.9,2-2,2h-18c-1.101,0-2-0.9-2-2V4.999c0-1.1,0.899-2,2-2h18
	C22.099,2.999,22.999,3.899,22.999,4.999z"/>
<path fill="none" d="M0,0h24v24H0V0z"/>
<polygon fill="#42A5F5" points="11,16 15,12 11,8 11,11 1,11 1,13 11,13 "/>
<path fill="none" d="M30.204-4.178h24v24h-24V-4.178z"/>
</svg>
