<?xml version="1.0" encoding="utf-8"?>
<!-- Generator: Adobe Illustrator 16.0.0, SVG Export Plug-In . SVG Version: 6.00 Build 0)  -->
<!DOCTYPE svg PUBLIC "-//W3C//DTD SVG 1.1//EN" "http://www.w3.org/Graphics/SVG/1.1/DTD/svg11.dtd">
<svg version="1.1" id="Capa_1" xmlns="http://www.w3.org/2000/svg" xmlns:xlink="http://www.w3.org/1999/xlink" x="0px" y="0px"
	 width="24px" height="24px" viewBox="0 0 24 24" enable-background="new 0 0 24 24" xml:space="preserve">
<g>
	<path opacity="0.8" fill="#FFAB91" enable-background="new    " d="M3.007,8.001l-0.008,11c0,1.1,0.891,2,2,2h14c1.1,0,2-0.9,2-2
		v-11H3.007z"/>
	<rect x="12.021" y="11.999" opacity="0.8" fill="#42A5F5" enable-background="new    " width="5" height="5"/>
	<path opacity="0.8" fill="#C2185B" enable-background="new    " d="M20.999,5.001c0-1.1-0.9-2-2-2h-14c-1.109,0-1.99,0.9-1.99,2
		l-0.002,3h17.992V5.001z"/>
	<path fill="#A1887F" enable-background="new    " d="M7.999,5.001h-2v-4h2V5.001z M17.999,1.001h-2v4h2V1.001z"/>
</g>
<path fill="none" d="M0,0h24v24H0V0z"/>
<rect x="11.928" y="11.984" fill="#CFD8DC" width="2.557" height="5.015"/>
</svg>
