<?xml version="1.0" encoding="utf-8"?>
<!-- Generator: Adobe Illustrator 16.0.0, SVG Export Plug-In . SVG Version: 6.00 Build 0)  -->
<!DOCTYPE svg PUBLIC "-//W3C//DTD SVG 1.1//EN" "http://www.w3.org/Graphics/SVG/1.1/DTD/svg11.dtd">
<svg version="1.1" id="Capa_1" xmlns="http://www.w3.org/2000/svg" xmlns:xlink="http://www.w3.org/1999/xlink" x="0px" y="0px"
	 width="24px" height="24px" viewBox="0 0 24 24" enable-background="new 0 0 24 24" xml:space="preserve">
<g>
	<polygon fill="#43A047" points="19,17.979 5,17.979 8.5,13.479 11,16.489 14.5,11.979 	"/>
	<polygon fill="#66BB6A" points="5,17.979 8.5,13.479 12.234,17.979 	"/>
</g>
<rect x="3.906" y="4.844" fill="#CFD8DC" width="15.094" height="11.188"/>
<path fill="#D1C4E9" d="M21,19V5c0-1.1-0.9-2-2-2H5C3.9,3,3,3.9,3,5v14c0,1.1,0.9,2,2,2h14C20.1,21,21,20.1,21,19z M8.5,13.5
	l2.5,3.01L14.5,12l4.5,6H5L8.5,13.5z"/>
<path fill="none" d="M0,0h24v24H0V0z"/>
<path fill="none" d="M0,0h24v24H0V0z"/>
</svg>
