<?xml version="1.0" encoding="utf-8"?>
<!-- Generator: Adobe Illustrator 16.0.0, SVG Export Plug-In . SVG Version: 6.00 Build 0)  -->
<!DOCTYPE svg PUBLIC "-//W3C//DTD SVG 1.1//EN" "http://www.w3.org/Graphics/SVG/1.1/DTD/svg11.dtd">
<svg version="1.1" id="Capa_1" xmlns="http://www.w3.org/2000/svg" xmlns:xlink="http://www.w3.org/1999/xlink" x="0px" y="0px"
	 width="24px" height="24px" viewBox="0 0 24 24" enable-background="new 0 0 24 24" xml:space="preserve">
<g>
	<path fill="#66BB6A" d="M22.023,21.973l-4-4h-14c-1.1,0-2-0.9-2-2v-12c0-1.1,0.9-2,2-2h16c1.1,0,1.99,0.9,1.99,2v6.96
		L22.023,21.973z"/>
	<rect x="6.023" y="11.971" fill="#CFD8DC" width="12" height="2"/>
	<path opacity="0.2" fill="#43A047" enable-background="new    " d="M22.014,3.971v6.96H2.023v-6.96c0-1.1,0.9-2,2-2h16
		C21.123,1.971,22.014,2.871,22.014,3.971z"/>
	<rect x="6.02" y="8.97" fill="#455A64" width="12" height="2"/>
	<rect x="6.023" y="5.971" fill="#455A64" width="12" height="2"/>
	<rect x="12" y="8.97" fill="#CFD8DC" width="6.02" height="2"/>
</g>
<path fill="none" d="M0,0h24v24H0V0z"/>
</svg>
