<?xml version="1.0" encoding="utf-8"?>
<!-- Generator: Adobe Illustrator 16.0.0, SVG Export Plug-In . SVG Version: 6.00 Build 0)  -->
<!DOCTYPE svg PUBLIC "-//W3C//DTD SVG 1.1//EN" "http://www.w3.org/Graphics/SVG/1.1/DTD/svg11.dtd">
<svg version="1.1" id="Capa_1" xmlns="http://www.w3.org/2000/svg" xmlns:xlink="http://www.w3.org/1999/xlink" x="0px" y="0px"
	 width="24px" height="24px" viewBox="0 0 24 24" enable-background="new 0 0 24 24" xml:space="preserve">
<path fill="none" d="M24,0H0v24h24V0z"/>
<g>
	<path fill="#81C784" d="M13.162,18.408c-1.503,1.503-3.479,2.255-5.454,2.255s-3.951-0.752-5.454-2.255
		c-3.006-3.006-3.006-7.892,0-10.897l5.454-5.454l5.454,5.454C16.168,10.517,16.168,15.402,13.162,18.408z"/>
	<path fill="#4DD0E1" d="M13.162,18.408c-1.503,1.503-3.479,2.255-5.454,2.255V2.057l5.454,5.454
		C16.168,10.517,16.168,15.402,13.162,18.408z"/>
</g>
<polygon opacity="0.9" fill="#43A047" enable-background="new    " points="19.854,15.209 11.063,24 6.968,19.905 8.008,18.872 
	11.078,21.949 18.82,14.176 "/>
<polygon fill="#66BB6A" points="22.96,14.176 15.209,21.927 12.147,18.872 11.114,19.905 15.209,24 24,15.209 "/>
</svg>
