<?xml version="1.0" encoding="utf-8"?>
<!-- Generator: Adobe Illustrator 16.0.0, SVG Export Plug-In . SVG Version: 6.00 Build 0)  -->
<!DOCTYPE svg PUBLIC "-//W3C//DTD SVG 1.1//EN" "http://www.w3.org/Graphics/SVG/1.1/DTD/svg11.dtd">
<svg version="1.1" xmlns="http://www.w3.org/2000/svg" xmlns:xlink="http://www.w3.org/1999/xlink" x="0px" y="0px" width="24px"
	 height="24px" viewBox="0 0 24 24" enable-background="new 0 0 24 24" xml:space="preserve">
<g id="Capa_1">
	<path fill="none" d="M0,0h24v24H0V0z M0,0h24v24H0V0z"/>
	<g>
		<path fill="#CFD8DC" d="M17.632,19.227c-1.561,1.559-3.61,2.34-5.66,2.34s-4.1-0.781-5.66-2.34c-3.12-3.121-3.12-8.191,0-11.311
			l5.66-5.66l5.66,5.66C20.752,11.036,20.752,16.105,17.632,19.227z"/>
		<path fill="#B0BEC5" d="M17.632,19.227c-1.561,1.559-3.61,2.34-5.66,2.34V2.256l5.66,5.66
			C20.752,11.036,20.752,16.105,17.632,19.227z"/>
	</g>
</g>
<g id="Capa_2">
	<polygon fill="#9FA8DA" points="2.984,5.781 4.266,4.484 20.984,21.219 19.703,22.516 	"/>
</g>
</svg>
