<?xml version="1.0" encoding="utf-8"?>
<!-- Generator: Adobe Illustrator 16.0.0, SVG Export Plug-In . SVG Version: 6.00 Build 0)  -->
<!DOCTYPE svg PUBLIC "-//W3C//DTD SVG 1.1//EN" "http://www.w3.org/Graphics/SVG/1.1/DTD/svg11.dtd">
<svg version="1.1" id="Capa_1" xmlns="http://www.w3.org/2000/svg" xmlns:xlink="http://www.w3.org/1999/xlink" x="0px" y="0px"
	 width="24px" height="24px" viewBox="0 0 24 24" enable-background="new 0 0 24 24" xml:space="preserve">
<path fill="none" d="M0,0v24h24V0H0z M22.09,17l-0.399,3.66l-1.91,1.45L8.77,22.84l-4.71-0.68l-0.9-1.351L1.81,19.03l-0.72-7.31
	c0,0,1.41-9.16,1.29-9.1c0.15-0.15,1.68-1.34,1.68-1.34l5.72-0.16l7.69,0.22l3.811,1.38l0.8,2.25l0.2,6.61L22.09,17z M19,3H5
	C3.9,3,3,3.9,3,5v14c0,0.54,0.21,1.03,0.58,1.39C3.93,20.77,4.44,21,5,21h14c1.1,0,2-0.9,2-2V5c0-0.55-0.22-1.05-0.59-1.41
	C20.05,3.22,19.55,3,19,3z M0,0v24h24V0H0z M22.09,17l-0.399,3.66l-1.91,1.45L8.77,22.84l-4.71-0.68l-0.9-1.351L1.81,19.03
	l-0.72-7.31c0,0,1.41-9.16,1.29-9.1c0.15-0.15,1.68-1.34,1.68-1.34l5.72-0.16l7.69,0.22l3.811,1.38l0.8,2.25l0.2,6.61L22.09,17z
	 M19,3H5C3.9,3,3,3.9,3,5v14c0,0.54,0.21,1.03,0.58,1.39C3.93,20.77,4.44,21,5,21h14c1.1,0,2-0.9,2-2V5c0-0.55-0.22-1.05-0.59-1.41
	C20.05,3.22,19.55,3,19,3z"/>
<path d="M20.41,3.59C20.05,3.22,19.55,3,19,3H5C3.9,3,3,3.9,3,5v14c0,0.54,0.21,1.03,0.58,1.39C3.93,20.77,4.44,21,5,21h14
	c1.1,0,2-0.9,2-2V5C21,4.45,20.78,3.95,20.41,3.59z M5.5,7.5h2v-2H9v2h2V9H9v2H7.5V9h-2V7.5z M19,19H5L19,5V19z"/>
<path fill="#DCE775" d="M21,5v14c0,1.1-0.9,2-2,2H5c-0.56,0-1.07-0.23-1.42-0.61L19,5l1.41-1.41C20.78,3.95,21,4.45,21,5z"/>
<path fill="#66BB6A" d="M20.41,3.59L19,5L3.58,20.39C3.21,20.03,3,19.54,3,19V5c0-1.1,0.9-2,2-2h14C19.55,3,20.05,3.22,20.41,3.59z"
	/>
<rect x="12" y="15.5" fill="#66BB6A" width="5" height="1.5"/>
<polygon fill="#DCE775" points="11,7.5 11,9 9,9 9,11 7.5,11 7.5,9 5.5,9 5.5,7.5 7.5,7.5 7.5,5.5 9,5.5 9,7.5 "/>
</svg>
