<?xml version="1.0" encoding="utf-8"?>
<!-- Generator: Adobe Illustrator 15.0.0, SVG Export Plug-In . SVG Version: 6.00 Build 0)  -->
<!DOCTYPE svg PUBLIC "-//W3C//DTD SVG 1.1//EN" "http://www.w3.org/Graphics/SVG/1.1/DTD/svg11.dtd">
<svg version="1.1" id="Layer_1" xmlns="http://www.w3.org/2000/svg" xmlns:xlink="http://www.w3.org/1999/xlink" x="0px" y="0px"
	 width="24px" height="24px" viewBox="0 0 24 24" enable-background="new 0 0 24 24" xml:space="preserve">
<path fill="#607D8B" d="M17.3,12c0,3-2.54,5.1-5.3,5.1S6.7,15,6.7,12H5c0,3.42,2.72,6.23,6,6.72V22h2v-3.28
	c3.279-0.479,6-3.3,6-6.72H17.3z"/>
<path fill="none" d="M0,0h24v24H0V0z"/>
<g>
	<path fill="#1976D2" d="M15,6c0-1.66-1.34-3-3-3S9,4.34,9,6v3h5.995L15,6z"/>
	<path fill="#0D47A1" d="M12,15c1.66,0,2.99-1.34,2.99-3l0.005-3H9v3C9,13.66,10.34,15,12,15z"/>
</g>
</svg>
