<?xml version="1.0" encoding="utf-8"?>
<!-- Generator: Adobe Illustrator 16.0.0, SVG Export Plug-In . SVG Version: 6.00 Build 0)  -->
<!DOCTYPE svg PUBLIC "-//W3C//DTD SVG 1.1//EN" "http://www.w3.org/Graphics/SVG/1.1/DTD/svg11.dtd">
<svg version="1.1" id="Capa_1" xmlns="http://www.w3.org/2000/svg" xmlns:xlink="http://www.w3.org/1999/xlink" x="0px" y="0px"
	 width="24px" height="24px" viewBox="0 0 24 24" enable-background="new 0 0 24 24" xml:space="preserve">
<path fill="none" d="M0-1h24v24H0V-1z"/>
<path fill="#0D47A1" d="M11.99,1C6.47,1,2,5.48,2,11c0,5.52,4.47,10,9.99,10C17.52,21,22,16.52,22,11C22,5.48,17.52,1,11.99,1z"/>
<circle fill="#0D47A1" cx="12" cy="11" r="8"/>
<circle fill="#64B5F6" cx="15.5" cy="8.5" r="1.5"/>
<circle fill="#64B5F6" cx="8.5" cy="8.5" r="1.5"/>
<path fill="#64B5F6" d="M12,17c2.609,0,4.83-1.67,5.65-4H6.35C7.17,15.33,9.39,17,12,17z"/>
</svg>
