<?xml version="1.0" encoding="utf-8"?>
<!-- Generator: Adobe Illustrator 15.0.0, SVG Export Plug-In . SVG Version: 6.00 Build 0)  -->
<!DOCTYPE svg PUBLIC "-//W3C//DTD SVG 1.1//EN" "http://www.w3.org/Graphics/SVG/1.1/DTD/svg11.dtd">
<svg version="1.1" id="Layer_1" xmlns="http://www.w3.org/2000/svg" xmlns:xlink="http://www.w3.org/1999/xlink" x="0px" y="0px"
	 width="24px" height="24px" viewBox="0 0 24 24" enable-background="new 0 0 24 24" xml:space="preserve">
<g>
	<path fill="none" d="M0,0v24h24V0H0z M17.63,18.16C17.27,18.67,16.67,19,16,19l-2.964-0.003l-1.615,2.276l1.615-2.276L5,18.99
		c-1.1,0-2-0.891-2-1.99V7c0-1.1,0.9-1.99,2-1.99l8.036-0.007l-1.615-2.276l1.615,2.276L16,5c0.67,0,1.27,0.33,1.63,0.84L22,12
		L17.63,18.16z"/>
	<path fill="#F57C00" d="M13.036,5.002L5,5.01C3.9,5.01,3,5.9,3,7v10c0,1.1,0.9,1.99,2,1.99l8.036,0.007L18,12L13.036,5.002z"/>
	<path fill="#FF5722" d="M16,5l-2.964,0.002L18,12l-4.964,6.997L16,19c0.67,0,1.27-0.33,1.63-0.84L22,12l-4.37-6.16
		C17.27,5.33,16.67,5,16,5z"/>
</g>
</svg>
