<?xml version="1.0" encoding="utf-8"?>
<!-- Generator: Adobe Illustrator 16.0.0, SVG Export Plug-In . SVG Version: 6.00 Build 0)  -->
<!DOCTYPE svg PUBLIC "-//W3C//DTD SVG 1.1//EN" "http://www.w3.org/Graphics/SVG/1.1/DTD/svg11.dtd">
<svg version="1.1" id="Capa_1" xmlns="http://www.w3.org/2000/svg" xmlns:xlink="http://www.w3.org/1999/xlink" x="0px" y="0px"
	 width="24px" height="24px" viewBox="0 0 24 24" enable-background="new 0 0 24 24" xml:space="preserve">
<path fill="none" d="M0,0v24h24V0H0z M5,7h11l3.55,5L16,17H5V7z"/>
<path d="M17.63,5.84C17.27,5.33,16.67,5,16,5h-2.96L5,5.01C3.9,5.01,3,5.9,3,7v10c0,1.1,0.9,1.99,2,1.99L13.04,19H16
	c0.67,0,1.27-0.33,1.63-0.84L22,12L17.63,5.84z M16,17H5V7h11l3.55,5L16,17z"/>
<g>
	<path fill="none" d="M0,0v24h24V0H0z M17.63,18.16C17.27,18.67,16.67,19,16,19h-2.96L5,18.99c-1.1,0-2-0.891-2-1.99V7
		c0-1.1,0.9-1.99,2-1.99L13.04,5H16c0.67,0,1.27,0.33,1.63,0.84L22,12L17.63,18.16z"/>
	<path fill="#F57C00" d="M5,17h9.46l-1.42,2L5,18.99c-1.1,0-2-0.891-2-1.99V7c0-1.1,0.9-1.99,2-1.99L13.04,5l1.42,2H5V17z"/>
	<path fill="#FF5722" d="M22,12l-4.37,6.16C17.27,18.67,16.67,19,16,19h-2.96l1.42-2H16l3.55-5L16,7h-1.54l-1.42-2H16
		c0.67,0,1.27,0.33,1.63,0.84L22,12z"/>
</g>
</svg>
