<?xml version="1.0" encoding="utf-8"?>
<!-- Generator: Adobe Illustrator 15.0.0, SVG Export Plug-In . SVG Version: 6.00 Build 0)  -->
<!DOCTYPE svg PUBLIC "-//W3C//DTD SVG 1.1//EN" "http://www.w3.org/Graphics/SVG/1.1/DTD/svg11.dtd">
<svg version="1.1" id="Layer_1" xmlns="http://www.w3.org/2000/svg" xmlns:xlink="http://www.w3.org/1999/xlink" x="0px" y="0px"
	 width="24px" height="24px" viewBox="0 0 24 24" enable-background="new 0 0 24 24" xml:space="preserve">
<path fill="none" d="M0,0h24v24H0V0z"/>
<path fill="#00BCD4" d="M11.991,3C7.023,3,3,7.032,3,12c0,4.967,4.023,9,8.991,9C16.967,21,21,16.967,21,12
	C21,7.032,16.967,3,11.991,3z"/>
<path fill="#0097A7" d="M11.99,2C6.47,2,2,6.48,2,12c0,5.52,4.47,10,9.99,10C17.52,22,22,17.52,22,12C22,6.48,17.52,2,11.99,2z
	 M18.92,8h-2.949c-0.32-1.25-0.781-2.45-1.381-3.56C16.43,5.07,17.96,6.35,18.92,8z M12,4.04c0.83,1.2,1.48,2.53,1.91,3.96h-3.82
	C10.52,6.57,11.17,5.24,12,4.04z M4.26,14C4.1,13.359,4,12.689,4,12c0-0.69,0.1-1.36,0.26-2h3.38c-0.08,0.66-0.14,1.32-0.14,2
	c0,0.68,0.06,1.34,0.14,2H4.26z M5.08,16h2.95c0.32,1.25,0.78,2.45,1.38,3.561C7.57,18.93,6.04,17.66,5.08,16z M8.03,8H5.08
	c0.96-1.66,2.49-2.93,4.33-3.56C8.81,5.55,8.35,6.75,8.03,8z M12,19.96c-0.83-1.2-1.48-2.53-1.91-3.96h3.82
	C13.48,17.43,12.83,18.76,12,19.96z M14.34,14H9.66c-0.09-0.66-0.16-1.32-0.16-2c0-0.68,0.07-1.35,0.16-2h4.68
	c0.09,0.65,0.16,1.32,0.16,2C14.5,12.68,14.43,13.34,14.34,14z M14.59,19.561c0.6-1.11,1.061-2.311,1.381-3.561h2.949
	C17.96,17.65,16.43,18.93,14.59,19.561z M16.359,14c0.08-0.66,0.141-1.32,0.141-2c0-0.68-0.061-1.34-0.141-2h3.381
	C19.9,10.64,20,11.31,20,12c0,0.689-0.1,1.359-0.26,2H16.359z"/>
</svg>
