<?xml version="1.0" encoding="utf-8"?>
<!-- Generator: Adobe Illustrator 16.0.0, SVG Export Plug-In . SVG Version: 6.00 Build 0)  -->
<!DOCTYPE svg PUBLIC "-//W3C//DTD SVG 1.1//EN" "http://www.w3.org/Graphics/SVG/1.1/DTD/svg11.dtd">
<svg version="1.1" id="Capa_1" xmlns="http://www.w3.org/2000/svg" xmlns:xlink="http://www.w3.org/1999/xlink" x="0px" y="0px"
	 width="24px" height="24px" viewBox="0 0 24 24" enable-background="new 0 0 24 24" xml:space="preserve">
<path fill="none" d="M0,0h24v24H0V0z"/>
<path fill="#455A64" d="M24,18v2H0v-2h4v-1c-0.09,0-0.18-0.01-0.27-0.02C2.75,16.85,2,16.01,2,15V5c0-1.1,0.9-2,2-2h16
	c1.1,0,2,0.9,2,2l-0.01,10c0,1.01-0.75,1.85-1.721,1.98C20.18,16.99,20.09,17,20,17v1H24z"/>
<rect x="4" y="5" fill="#E3F2FD" width="16" height="10"/>
<rect y="18.014" fill="#455A64" width="24.008" height="1.972"/>
<path fill="#263238" d="M20.27,16.98C20.18,16.99,20.09,17,20,17v1H4v-1c-0.09,0-0.18-0.01-0.27-0.02H20.27z"/>
</svg>
