<?xml version="1.0" encoding="utf-8"?>
<!-- Generator: Adobe Illustrator 15.0.0, SVG Export Plug-In . SVG Version: 6.00 Build 0)  -->
<!DOCTYPE svg PUBLIC "-//W3C//DTD SVG 1.1//EN" "http://www.w3.org/Graphics/SVG/1.1/DTD/svg11.dtd">
<svg version="1.1" id="Layer_1" xmlns="http://www.w3.org/2000/svg" xmlns:xlink="http://www.w3.org/1999/xlink" x="0px" y="0px"
	 width="24px" height="24px" viewBox="0 0 24 24" enable-background="new 0 0 24 24" xml:space="preserve">
<path fill="none" d="M0,0h24v24H0V0z"/>
<path opacity="0.6" fill="#8BC34A" enable-background="new    " d="M3,19c0,1.1,0.89,2,2,2h14c1.1,0,2-0.9,2-2V5c0-1.1-0.9-2-2-2H5
	C3.89,3,3,3.9,3,5S3,17.167,3,19z M5,5h14v14H5V5z"/>
<polygon fill="#4CAF50" points="14,3 14,5 17.59,5 7.76,14.83 9.17,16.24 19,6.41 19,10 21,10 21,3 "/>
</svg>
