<?xml version="1.0" encoding="utf-8"?>
<!-- Generator: Adobe Illustrator 16.0.0, SVG Export Plug-In . SVG Version: 6.00 Build 0)  -->
<!DOCTYPE svg PUBLIC "-//W3C//DTD SVG 1.1//EN" "http://www.w3.org/Graphics/SVG/1.1/DTD/svg11.dtd">
<svg version="1.1" xmlns="http://www.w3.org/2000/svg" xmlns:xlink="http://www.w3.org/1999/xlink" x="0px" y="0px" width="24px"
	 height="24px" viewBox="0 0 24 24" enable-background="new 0 0 24 24" xml:space="preserve">
<g id="Capa_1">
	<g>
		<path fill="#CFD8DC" d="M6,3c0,1.66-1.34,3-3,3V4.28h1.31V3H6z"/>
		<path fill="#CFD8DC" d="M13.999,2.999h-2c0,4.97-4.029,9-9,9v2C9.079,13.999,13.999,9.069,13.999,2.999z"/>
		<path fill="#CFD8DC" d="M9.999,2.999h-2c0,2.76-2.24,5-5,5v2C6.869,9.999,9.999,6.869,9.999,2.999z"/>
		<path fill="#B0BEC5" d="M9.999,20.999h2c0-4.97,4.029-9,9-9v-2C14.929,9.999,9.999,14.929,9.999,20.999z"/>
		<path fill="#B0BEC5" d="M21,18v1.7h-1.31V21H18C18,19.34,19.34,18,21,18z"/>
		<path fill="#B0BEC5" d="M13.999,20.999h2c0-2.76,2.24-5,5-5v-2C17.129,13.999,13.999,17.129,13.999,20.999z"/>
	</g>
</g>
<g id="Capa_2">
	<polygon fill="#9FA8DA" points="2.984,4.297 4.297,2.984 20.969,19.719 19.719,21.016 	"/>
</g>
</svg>
