<?xml version="1.0" encoding="utf-8"?>
<!-- Generator: Adobe Illustrator 16.0.0, SVG Export Plug-In . SVG Version: 6.00 Build 0)  -->
<!DOCTYPE svg PUBLIC "-//W3C//DTD SVG 1.1//EN" "http://www.w3.org/Graphics/SVG/1.1/DTD/svg11.dtd">
<svg version="1.1" id="Capa_1" xmlns="http://www.w3.org/2000/svg" xmlns:xlink="http://www.w3.org/1999/xlink" x="0px" y="0px"
	 width="24px" height="24px" viewBox="0 0 24 24" enable-background="new 0 0 24 24" xml:space="preserve">
<path fill="none" d="M0,0v24h24V0H0z M22.92,22.61H11.96V22H12c5.52,0,10-4.48,10-10c0-5.52-4.48-10-10-10h-0.04V1.58h10.96V22.61z"
	/>
<path opacity="0.9" fill="#1565C0" d="M22,12c0,5.52-4.48,10-10,10h-0.04C6.46,21.98,2,17.51,2,12s4.46-9.98,9.96-10H12
	C17.52,2,22,6.48,22,12z"/>
<path opacity="0.3" fill="#1565C0" d="M19.155,19.174c-3.902,3.902-10.238,3.902-14.141,0l-0.028-0.029L19.128,5.003l0.028,0.028
	C23.06,8.934,23.06,15.27,19.155,19.174z"/>
</svg>
