<?xml version="1.0" encoding="utf-8"?>
<!-- Generator: Adobe Illustrator 16.0.0, SVG Export Plug-In . SVG Version: 6.00 Build 0)  -->
<!DOCTYPE svg PUBLIC "-//W3C//DTD SVG 1.1//EN" "http://www.w3.org/Graphics/SVG/1.1/DTD/svg11.dtd">
<svg version="1.1" id="Capa_1" xmlns="http://www.w3.org/2000/svg" xmlns:xlink="http://www.w3.org/1999/xlink" x="0px" y="0px"
	 width="24px" height="24px" viewBox="0 0 24 24" enable-background="new 0 0 24 24" xml:space="preserve">
<path fill="none" d="M0,0h24v24H0V0z"/>
<path fill="#42A5F5" d="M3.9,12c0-1.71,1.39-3.1,3.1-3.1h4V7H7c-2.76,0-5,2.24-5,5s2.24,5,5,5h4v-1.9H7C5.29,15.1,3.9,13.71,3.9,12z
	"/>
<rect x="8" y="11" fill="#1976D2" width="8" height="2"/>
<path fill="#42A5F5" d="M17,7h-4v1.9h4c1.71,0,3.1,1.39,3.1,3.1s-1.39,3.1-3.1,3.1h-4V17h4c2.76,0,5-2.24,5-5S19.76,7,17,7z"/>
</svg>
