<?xml version="1.0" encoding="utf-8"?>
<!-- Generator: Adobe Illustrator 16.0.0, SVG Export Plug-In . SVG Version: 6.00 Build 0)  -->
<!DOCTYPE svg PUBLIC "-//W3C//DTD SVG 1.1//EN" "http://www.w3.org/Graphics/SVG/1.1/DTD/svg11.dtd">
<svg version="1.1" id="Capa_1" xmlns="http://www.w3.org/2000/svg" xmlns:xlink="http://www.w3.org/1999/xlink" x="0px" y="0px"
	 width="24px" height="24px" viewBox="0 0 24 24" enable-background="new 0 0 24 24" xml:space="preserve">
<path fill="#B0BEC5" d="M21,4v14c0,1.1-0.9,2-2,2h-4l-3,3l-3-3H5c-1.11,0-2-0.9-2-2V4c0-1.1,0.89-2,2-2h14C20.1,2,21,2.9,21,4z"/>
<path fill="none" d="M0,0h24v24H0V0z"/>
<path opacity="0.5" fill="#90A4AE" d="M21,4v14c0,1.1-0.9,2-2,2h-4l-3,3V2h7C20.1,2,21,2.9,21,4z"/>
<rect x="11" y="16" fill="#37474F" width="2" height="2"/>
<path fill="#37474F" d="M15.07,10.25l-0.9,0.92C13.45,11.9,13,12.5,13,14h-2v-0.5c0-1.1,0.45-2.1,1.17-2.83l1.24-1.26
	C13.779,9.05,14,8.55,14,8c0-1.1-0.9-2-2-2c-1.1,0-2,0.9-2,2H8c0-2.21,1.79-4,4-4s4,1.79,4,4C16,8.88,15.641,9.68,15.07,10.25z"/>
</svg>
