<?xml version="1.0" encoding="utf-8"?>
<!-- Generator: Adobe Illustrator 15.0.0, SVG Export Plug-In . SVG Version: 6.00 Build 0)  -->
<!DOCTYPE svg PUBLIC "-//W3C//DTD SVG 1.1//EN" "http://www.w3.org/Graphics/SVG/1.1/DTD/svg11.dtd">
<svg version="1.1" id="Layer_1" xmlns="http://www.w3.org/2000/svg" xmlns:xlink="http://www.w3.org/1999/xlink" x="0px" y="0px"
	 width="24px" height="24px" viewBox="0 0 24 24" enable-background="new 0 0 24 24" xml:space="preserve">
<path fill="none" d="M0,0h24v24H0V0z"/>
<path opacity="0.5" fill="#00BCD4" d="M3.684,12c0-4.158,4.158-8.316,8.316-8.316v16.633c4.159,0,8.316-4.157,8.316-8.316H3.684z"/>
<path fill="#0097A7" d="M20.939,11C20.48,6.83,17.17,3.52,13,3.06V1h-2v2.06C6.83,3.52,3.52,6.83,3.06,11H1v2h2.06
	c0.46,4.17,3.77,7.48,7.94,7.939V23h2v-2.061c4.17-0.459,7.48-3.77,7.939-7.939H23v-2H20.939z M12,19c-3.87,0-7-3.13-7-7s3.13-7,7-7
	s7,3.13,7,7S15.87,19,12,19z"/>
</svg>
