<?xml version="1.0" encoding="utf-8"?>
<!-- Generator: Adobe Illustrator 16.0.0, SVG Export Plug-In . SVG Version: 6.00 Build 0)  -->
<!DOCTYPE svg PUBLIC "-//W3C//DTD SVG 1.1//EN" "http://www.w3.org/Graphics/SVG/1.1/DTD/svg11.dtd">
<svg version="1.1" id="Capa_1" xmlns="http://www.w3.org/2000/svg" xmlns:xlink="http://www.w3.org/1999/xlink" x="0px" y="0px"
	 width="24px" height="24px" viewBox="0 0 24 24" enable-background="new 0 0 24 24" xml:space="preserve">
<path fill="#546E7A" d="M18,2.01L6,2C4.89,2,4,2.89,4,4v16c0,1.109,0.89,2,2,2h12c1.109,0,2-0.891,2-2V4
	C20,2.89,19.109,2.01,18,2.01z"/>
<path fill="#B3E5FC" d="M12,20c-3.31,0-6-2.689-6-6c0-3.31,2.69-6,6-6c3.311,0,6,2.69,6,6C18,17.311,15.311,20,12,20z"/>
<path fill="#E1F5FE" d="M9.17,16.736c1.56,1.561,4.1,1.561,5.66,0c1.561-1.562,1.561-4.101,0-5.66L9.17,16.736z"/>
<circle fill="#EF5350" cx="10" cy="5" r="1"/>
<circle fill="#66BB6A" cx="7" cy="5" r="1"/>
<path fill="none" d="M0,0h24v24H0V0z"/>
</svg>
