<?xml version="1.0" encoding="utf-8"?>
<!-- Generator: Adobe Illustrator 15.0.0, SVG Export Plug-In . SVG Version: 6.00 Build 0)  -->
<!DOCTYPE svg PUBLIC "-//W3C//DTD SVG 1.1//EN" "http://www.w3.org/Graphics/SVG/1.1/DTD/svg11.dtd">
<svg version="1.1" id="Layer_1" xmlns="http://www.w3.org/2000/svg" xmlns:xlink="http://www.w3.org/1999/xlink" x="0px" y="0px"
	 width="24px" height="24px" viewBox="0 0 24 24" enable-background="new 0 0 24 24" xml:space="preserve">
<path fill="none" d="M0,0h24v24H0V0z"/>
<path fill="#9E9E9E" d="M13.41,13l-9.5-9.5c-1.56,1.56-1.56,4.09,0,5.66l6.67,6.67L12,14.41l6.88,6.88l1.41-1.41L13.41,13z"/>
<path fill="#BDBDBD" d="M14.88,11.53c1.53,0.71,3.681,0.21,5.271-1.38c1.91-1.91,2.279-4.65,0.81-6.12c-1.46-1.46-4.2-1.1-6.12,0.81
	c-1.59,1.59-2.09,3.74-1.38,5.27L3.7,19.87l1.41,1.41L14.88,11.53z"/>
</svg>
