<?xml version="1.0" encoding="utf-8"?>
<!-- Generator: Adobe Illustrator 16.0.0, SVG Export Plug-In . SVG Version: 6.00 Build 0)  -->
<!DOCTYPE svg PUBLIC "-//W3C//DTD SVG 1.1//EN" "http://www.w3.org/Graphics/SVG/1.1/DTD/svg11.dtd">
<svg version="1.1" id="Capa_1" xmlns="http://www.w3.org/2000/svg" xmlns:xlink="http://www.w3.org/1999/xlink" x="0px" y="0px"
	 width="24px" height="24px" viewBox="0 0 24 24" enable-background="new 0 0 24 24" xml:space="preserve">
<g>
	<path fill="#78909C" d="M21.005,16.53v3.5c0,0.55-0.45,1-1,1c-9.392,0-17-7.609-17-17c0-0.55,0.45-1,1-1h3.5c0.55,0,1,0.45,1,1
		c0,1.25,0.2,2.45,0.569,3.57c0.109,0.35,0.029,0.74-0.25,1l-2.199,2.21c0.271,0.52,0.568,1.04,0.92,1.56
		c0.21,0.318,0.439,0.63,0.682,0.939c0.129,0.157,0.25,0.301,0.369,0.448c0.289,0.341,0.59,0.658,0.899,0.959
		c0.22,0.211,0.448,0.42,0.688,0.632c0.119,0.108,0.239,0.221,0.369,0.312c0.133,0.102,0.25,0.2,0.383,0.3
		c0.131,0.109,0.26,0.2,0.397,0.29c0.144,0.103,0.276,0.188,0.42,0.29c0.276,0.2,0.58,0.381,0.88,0.54
		c0.188,0.108,0.393,0.221,0.58,0.319l2.2-2.199c0.276-0.271,0.67-0.352,1.021-0.24c1.118,0.37,2.318,0.57,3.568,0.57
		C20.555,15.53,21.005,15.979,21.005,16.53z"/>
	<g id="Capa_2">
		<path fill="#455A64" d="M21.005,19.71v0.32c0,0.55-0.45,1-1,1c-9.392,0-17-7.609-17-17c0-0.55,0.45-1,1-1h0.688l0.012,0.06
			c0,0-0.131,3.77,1.92,7.72c0.271,0.52,0.568,1.04,0.92,1.56c0.21,0.318,0.439,0.63,0.682,0.939
			c0.129,0.157,0.25,0.301,0.369,0.448c0.289,0.341,0.59,0.658,0.899,0.959c0.22,0.211,0.448,0.42,0.688,0.632
			c0.119,0.102,0.239,0.198,0.369,0.312c0.133,0.102,0.25,0.2,0.383,0.3c0.131,0.104,0.271,0.189,0.397,0.29
			c0.144,0.103,0.276,0.188,0.42,0.29c0.276,0.184,0.58,0.37,0.88,0.54c0.188,0.108,0.393,0.221,0.58,0.319
			c2.051,1.067,4.604,1.869,7.764,2.211L21.005,19.71z"/>
	</g>
</g>
<path fill="none" d="M0,0h24v24H0V0z"/>
<g>
	<path fill="#FFEE58" d="M17.817,2.394c-0.16-0.161-0.375-0.254-0.615-0.254l-3.046-0.01c-0.247-0.001-0.469,0.103-0.625,0.266
		c-0.152,0.156-0.248,0.367-0.25,0.602l-0.002,3.046c-0.001,0.24,0.094,0.458,0.252,0.619l3.908,3.926
		c0.154,0.154,0.371,0.25,0.611,0.251c0.237,0.003,0.456-0.091,0.613-0.253l3.055-3.037c0.161-0.16,0.258-0.378,0.254-0.615
		c0.005-0.237-0.098-0.463-0.252-0.62L17.817,2.394z M15.458,3.658c0,0.191-0.077,0.353-0.204,0.472
		c-0.117,0.111-0.273,0.182-0.449,0.178c-0.363-0.001-0.654-0.294-0.651-0.655c-0.002-0.175,0.066-0.329,0.181-0.449
		c0.116-0.123,0.283-0.202,0.475-0.201C15.169,3.001,15.46,3.295,15.458,3.658z"/>
	<path opacity="0.2" fill="#8D6E63" enable-background="new    " d="M21.721,6.317c0.154,0.158,0.259,0.382,0.252,0.618
		c0.004,0.238-0.093,0.456-0.254,0.616l-1.542,1.532L15.254,4.13c0.127-0.12,0.204-0.281,0.204-0.472
		c0.002-0.363-0.289-0.656-0.649-0.654c-0.191-0.001-0.356,0.079-0.474,0.201l-0.804-0.808c0.156-0.163,0.378-0.267,0.625-0.266
		l3.046,0.01c0.239,0,0.454,0.093,0.615,0.254L21.721,6.317z"/>
</g>
</svg>
