<?xml version="1.0" encoding="utf-8"?>
<!-- Generator: Adobe Illustrator 16.0.0, SVG Export Plug-In . SVG Version: 6.00 Build 0)  -->
<!DOCTYPE svg PUBLIC "-//W3C//DTD SVG 1.1//EN" "http://www.w3.org/Graphics/SVG/1.1/DTD/svg11.dtd">
<svg version="1.1" xmlns="http://www.w3.org/2000/svg" xmlns:xlink="http://www.w3.org/1999/xlink" x="0px" y="0px" width="24px"
	 height="24px" viewBox="0 0 24 24" enable-background="new 0 0 24 24" xml:space="preserve">
<g id="Capa_1">
	<path fill="none" d="M0,0h24v24H0V0z"/>
	<path fill="#FFCC80" d="M20.99,6l-0.95,1.68L12,22L3.74,7.3L3.01,6C5.23,3.54,8.43,2,12,2C15.57,2,18.78,3.55,20.99,6z"/>
	<path fill="#43A047" d="M7,7c0-1.1,0.9-2,2-2s2,0.9,2,2s-0.9,2-2,2S7,8.1,7,7z"/>
	<path fill="#D32F2F" d="M12,15c-1.1,0-2-0.9-2-2c0-1.1,0.9-2,2-2c1.1,0,2,0.9,2,2C14,14.1,13.1,15,12,15z"/>
</g>
<g id="Capa_2">
	<path fill="#FFB74D" d="M20.99,6l-0.95,1.68c-0.48-1.19-2.32-4.42-8.06-4.39C6.51,3.32,4.41,6.08,3.74,7.3L3.01,6
		C5.23,3.54,8.43,2,12,2C15.57,2,18.78,3.55,20.99,6z"/>
</g>
</svg>
