<?xml version="1.0" encoding="utf-8"?>
<!-- Generator: Adobe Illustrator 16.0.0, SVG Export Plug-In . SVG Version: 6.00 Build 0)  -->
<!DOCTYPE svg PUBLIC "-//W3C//DTD SVG 1.1//EN" "http://www.w3.org/Graphics/SVG/1.1/DTD/svg11.dtd">
<svg version="1.1" id="Capa_1" xmlns="http://www.w3.org/2000/svg" xmlns:xlink="http://www.w3.org/1999/xlink" x="0px" y="0px"
	 width="24px" height="24px" viewBox="0 0 24 24" enable-background="new 0 0 24 24" xml:space="preserve">
<g>
	<path fill="#B0BEC5" d="M19,8.973c0,5.041-6.45,12.38-6.96,12.96C12.01,21.963,12,21.973,12,21.973s-7-7.75-7-13c0-3.87,3.13-7,7-7
		h0.04C15.891,1.993,19,5.113,19,8.973z"/>
	<path opacity="0.3" fill="#90A4AE" enable-background="new    " d="M19,8.973c0,5.041-6.45,12.38-6.96,12.96V1.973
		C15.891,1.993,19,5.113,19,8.973z"/>
	<circle fill="#CFD8DC" cx="12" cy="8.973" r="2.5"/>
</g>
<path fill="none" d="M0,0h24v24H0V0z M11.75,11.47l-0.11-0.11L11.75,11.47z"/>
<rect x="10.102" y="0.17" transform="matrix(-0.7071 0.7071 -0.7071 -0.7071 27.2636 12.7075)" fill="#9FA8DA" width="1.796" height="23.66"/>
</svg>
