<?xml version="1.0" encoding="utf-8"?>
<!-- Generator: Adobe Illustrator 16.0.0, SVG Export Plug-In . SVG Version: 6.00 Build 0)  -->
<!DOCTYPE svg PUBLIC "-//W3C//DTD SVG 1.1//EN" "http://www.w3.org/Graphics/SVG/1.1/DTD/svg11.dtd">
<svg version="1.1" id="Capa_1" xmlns="http://www.w3.org/2000/svg" xmlns:xlink="http://www.w3.org/1999/xlink" x="0px" y="0px"
	 width="24px" height="24px" viewBox="0 0 24 24" enable-background="new 0 0 24 24" xml:space="preserve">
<path fill="none" d="M0,0h24v24H0V0z"/>
<polygon fill="#F48FB1" points="22,7 22,20 14,20 14,16 10,16 10,20 2,20 2,7 5,7 5,4 19,4 19,7 "/>
<polygon fill="#F06292" points="22,7 22,9.97 2,9.97 2,7 5,7 5,4 19,4 19,7 "/>
<polygon fill="#CFD8DC" points="11,10 9,10 9,11 11,11 11,12 8,12 8,9 10,9 10,8 8,8 8,7 11,7 "/>
<polygon fill="#CFD8DC" points="16,12 15,12 15,10 13,10 13,7 14,7 14,9 15,9 15,7 16,7 "/>
</svg>
