<?xml version="1.0" encoding="utf-8"?>
<!-- Generator: Adobe Illustrator 16.0.0, SVG Export Plug-In . SVG Version: 6.00 Build 0)  -->
<!DOCTYPE svg PUBLIC "-//W3C//DTD SVG 1.1//EN" "http://www.w3.org/Graphics/SVG/1.1/DTD/svg11.dtd">
<svg version="1.1" id="Capa_1" xmlns="http://www.w3.org/2000/svg" xmlns:xlink="http://www.w3.org/1999/xlink" x="0px" y="0px"
	 width="24px" height="24px" viewBox="0 0 24 24" enable-background="new 0 0 24 24" xml:space="preserve">
<path fill="none" d="M0,0h24v24H0V0z"/>
<path fill="#42A5F5" d="M20,12c0,1.1,0.9,2,2,2v4c0,1.1-0.9,2-2,2H4c-1.1,0-2-0.9-2-2v-4c1.11,0,2-0.9,2-2c0-1.1-0.89-2-1.99-2V6
	C2.01,4.9,2.9,4,4,4h16c1.1,0,2,0.9,2,2v4C20.9,10,20,10.9,20,12z"/>
<polygon fill="#C5CAE9" points="15.58,16.8 12,14.5 8.42,16.8 9.5,12.68 6.21,9.99 10.45,9.74 12,5.8 13.54,9.75 17.779,10 
	14.49,12.689 "/>
<path fill="#C5CAE9" d="M4.97,4v16H4c-1.1,0-2-0.9-2-2v-4c1.11,0,2-0.9,2-2c0-1.1-0.89-2-1.99-2V6C2.01,4.9,2.9,4,4,4H4.97z"/>
<path fill="#C5CAE9" d="M20,12c0,1.1,0.9,2,2,2v4c0,1.1-0.9,2-2,2h-0.97V4H20c1.1,0,2,0.9,2,2v4C20.9,10,20,10.9,20,12z"/>
</svg>
