<?xml version="1.0" encoding="utf-8"?>
<!-- Generator: Adobe Illustrator 16.0.0, SVG Export Plug-In . SVG Version: 6.00 Build 0)  -->
<!DOCTYPE svg PUBLIC "-//W3C//DTD SVG 1.1//EN" "http://www.w3.org/Graphics/SVG/1.1/DTD/svg11.dtd">
<svg version="1.1" id="Capa_1" xmlns="http://www.w3.org/2000/svg" xmlns:xlink="http://www.w3.org/1999/xlink" x="0px" y="0px"
	 width="24px" height="24px" viewBox="0 0 24 24" enable-background="new 0 0 24 24" xml:space="preserve">
<path fill="#0097A7" d="M19,2H5C3.89,2,3,2.9,3,4v14c0,1.1,0.89,2,2,2h4l3,3l3-3h4c1.1,0,2-0.9,2-2V4C21,2.9,20.1,2,19,2z M12,5.3
	c1.49,0,2.7,1.21,2.7,2.7s-1.21,2.7-2.7,2.7S9.3,9.49,9.3,8S10.51,5.3,12,5.3z M18,16H6v-0.9c0-2,4-3.1,6-3.1s6,1.1,6,3.1V16z"/>
<path opacity="0.5" fill="#00BCD4" enable-background="new    " d="M18,15.1V16H6v-0.9c0-2,4-3.1,6-3.1S18,13.1,18,15.1z"/>
<circle opacity="0.5" fill="#00BCD4" enable-background="new    " cx="12" cy="8" r="2.7"/>
<path fill="none" d="M0,0h24v24H0V0z"/>
</svg>
