<?xml version="1.0" encoding="utf-8"?>
<!-- Generator: Adobe Illustrator 16.0.0, SVG Export Plug-In . SVG Version: 6.00 Build 0)  -->
<!DOCTYPE svg PUBLIC "-//W3C//DTD SVG 1.1//EN" "http://www.w3.org/Graphics/SVG/1.1/DTD/svg11.dtd">
<svg version="1.1" id="Capa_1" xmlns="http://www.w3.org/2000/svg" xmlns:xlink="http://www.w3.org/1999/xlink" x="0px" y="0px"
	 width="24px" height="24px" viewBox="0 0 24 24" enable-background="new 0 0 24 24" xml:space="preserve">
<path fill="none" d="M0,0h24v24H0V0z"/>
<path fill="#66BB6A" d="M12,22c4.971,0,9-4.03,9-9C16.029,13,12,17.03,12,22z"/>
<path fill="#EF5350" d="M5.6,10.25c0,1.38,1.12,2.5,2.5,2.5c0.53,0,1.01-0.16,1.42-0.44L9.5,12.5c0,1.38,1.12,2.5,2.5,2.5
	s2.5-1.12,2.5-2.5l-0.02-0.19c0.399,0.28,0.89,0.44,1.42,0.44c1.379,0,2.5-1.12,2.5-2.5c0-1-0.59-1.85-1.43-2.25
	c0.84-0.4,1.43-1.25,1.43-2.25c0-1.38-1.121-2.5-2.5-2.5c-0.53,0-1.01,0.16-1.42,0.44L14.5,3.5C14.5,2.12,13.38,1,12,1
	S9.5,2.12,9.5,3.5l0.02,0.19C9.12,3.41,8.63,3.25,8.1,3.25c-1.38,0-2.5,1.12-2.5,2.5c0,1,0.59,1.85,1.43,2.25
	C6.19,8.4,5.6,9.25,5.6,10.25z"/>
<circle fill="#FFF176" cx="12" cy="8" r="2.5"/>
<path fill="#81C784" d="M3,13c0,4.97,4.03,9,9,9C12,17.03,7.97,13,3,13z"/>
</svg>
