<?xml version="1.0" encoding="utf-8"?>
<!-- Generator: Adobe Illustrator 16.0.0, SVG Export Plug-In . SVG Version: 6.00 Build 0)  -->
<!DOCTYPE svg PUBLIC "-//W3C//DTD SVG 1.1//EN" "http://www.w3.org/Graphics/SVG/1.1/DTD/svg11.dtd">
<svg version="1.1" id="Capa_1" xmlns="http://www.w3.org/2000/svg" xmlns:xlink="http://www.w3.org/1999/xlink" x="0px" y="0px"
	 width="24px" height="24px" viewBox="0 0 24 24" enable-background="new 0 0 24 24" xml:space="preserve">
<path fill="#90A4AE" d="M20,4H4C2.89,4,2.01,4.89,2.01,6L2,18c0,1.109,0.89,2,2,2h16c1.109,0,2-0.891,2-2V6C22,4.89,21.109,4,20,4z"
	/>
<rect x="4" y="6" fill="#78909C" width="16" height="12"/>
<path fill="none" d="M0,0h24v24H0V0z"/>
<path fill="#FFD54F" d="M11,10v1h3c0.55,0,1,0.45,1,1v3c0,0.55-0.45,1-1,1h-1v1h-2v-1H9v-2h4v-1h-3c-0.55,0-1-0.45-1-1V9
	c0-0.55,0.45-1,1-1h1V7h2v1h2v2H11z"/>
<rect x="11" y="7" fill="#FFCA28" width="2" height="1"/>
<rect x="11" y="16" fill="#FFCA28" width="2" height="1"/>
</svg>
