<?xml version="1.0" encoding="utf-8"?>
<!-- Generator: Adobe Illustrator 16.0.0, SVG Export Plug-In . SVG Version: 6.00 Build 0)  -->
<!DOCTYPE svg PUBLIC "-//W3C//DTD SVG 1.1//EN" "http://www.w3.org/Graphics/SVG/1.1/DTD/svg11.dtd">
<svg version="1.1" id="Layer_1" xmlns="http://www.w3.org/2000/svg" xmlns:xlink="http://www.w3.org/1999/xlink" x="0px" y="0px"
	 width="24px" height="24px" viewBox="0 0 24 24" enable-background="new 0 0 24 24" xml:space="preserve">
<path fill="none" d="M0,0h24v24H0V0z"/>
<path d="M20.939,11C20.48,6.83,17.17,3.52,13,3.06V1h-2v2.06C9.87,3.18,8.81,3.52,7.84,4.03l1.5,1.5C10.16,5.19,11.06,5,12,5
	c3.87,0,7,3.13,7,7c0,0.939-0.189,1.84-0.52,2.65l1.5,1.5c0.5-0.961,0.84-2.021,0.97-3.15H23v-2H20.939z M3,4.27l2.04,2.04
	C3.97,7.62,3.25,9.23,3.06,11H1v2h2.06c0.46,4.17,3.77,7.48,7.94,7.939V23h2v-2.061c1.77-0.199,3.38-0.909,4.689-1.979L19.73,21
	L21,19.73L4.27,3L3,4.27z M16.27,17.54C15.09,18.45,13.609,19,12,19c-3.87,0-7-3.13-7-7c0-1.61,0.55-3.09,1.46-4.27L16.27,17.54z"/>
<path fill="none" d="M0,0h24v24H0V0z"/>
<path opacity="0.5" fill="#90A4AE" enable-background="new    " d="M3.684,12c0-4.158,4.158-8.316,8.316-8.316v16.632
	c4.159,0,8.316-4.156,8.316-8.315L3.684,12L3.684,12z"/>
<path fill="#90A4AE" d="M20.939,11C20.48,6.83,17.17,3.52,13,3.06V1h-2v2.06C6.83,3.52,3.52,6.83,3.06,11H1v2h2.06
	c0.46,4.17,3.77,7.48,7.94,7.939V23h2v-2.061c4.17-0.459,7.48-3.771,7.939-7.939H23v-2H20.939z M12,19c-3.87,0-7-3.13-7-7
	s3.13-7,7-7s7,3.13,7,7S15.87,19,12,19z"/>
<rect x="11.102" y="0.17" transform="matrix(-0.7071 0.7071 -0.7071 -0.7071 28.9707 12.0004)" fill="#9FA8DA" width="1.796" height="23.66"/>
</svg>
