<?xml version="1.0" encoding="utf-8"?>
<!-- Generator: Adobe Illustrator 16.0.0, SVG Export Plug-In . SVG Version: 6.00 Build 0)  -->
<!DOCTYPE svg PUBLIC "-//W3C//DTD SVG 1.1//EN" "http://www.w3.org/Graphics/SVG/1.1/DTD/svg11.dtd">
<svg version="1.1" id="Capa_1" xmlns="http://www.w3.org/2000/svg" xmlns:xlink="http://www.w3.org/1999/xlink" x="0px" y="0px"
	 width="24px" height="24px" viewBox="0 0 24 24" enable-background="new 0 0 24 24" xml:space="preserve">
<polygon fill="none" points="24,0 24,14 23,14 23,20 21,20 21,17 3,17 3,20 1,20 1,5 3,5 3,14 3.51,14 3.51,4.19 0,4.19 0,0 "/>
<path fill="#546E7A" d="M7,13c1.66,0,3-1.34,3-3S8.66,7,7,7s-3,1.34-3,3S5.34,13,7,13z"/>
<path fill="#7E57C2" d="M23,11v9h-2v-3H3v3H1V5h2v9h8V7h8C21.21,7,23,8.79,23,11z"/>
<polygon fill="#B39DDB" points="23,14 23,20 21,20 21,17 3,17 3,20 1,20 1,5 3,5 3,14 "/>
<path fill="none" d="M0,0h24v24H0V0z"/>
</svg>
