<?xml version="1.0" encoding="utf-8"?>
<!-- Generator: Adobe Illustrator 16.0.0, SVG Export Plug-In . SVG Version: 6.00 Build 0)  -->
<!DOCTYPE svg PUBLIC "-//W3C//DTD SVG 1.1//EN" "http://www.w3.org/Graphics/SVG/1.1/DTD/svg11.dtd">
<svg version="1.1" id="Capa_1" xmlns="http://www.w3.org/2000/svg" xmlns:xlink="http://www.w3.org/1999/xlink" x="0px" y="0px"
	 width="24px" height="24px" viewBox="0 0 24 24" enable-background="new 0 0 24 24" xml:space="preserve">
<path fill="none" d="M0,0v24h24V0H0z M22.53,22.43H12.14C14.48,20.31,17.59,19,21,19V8c-3.48,0-6.63,1.35-8.99,3.54V9.13l2.16-1.16
	h8.36V22.43z"/>
<path fill="#E57373" d="M21,8v11c-3.41,0-6.52,1.31-8.86,3.43c-0.05,0.04-0.09,0.08-0.14,0.12C9.64,20.35,6.48,19,3,19V8
	c3.48,0,6.64,1.35,9,3.55l0.01-0.01C14.37,9.35,17.52,8,21,8z"/>
<path fill="#546E7A" d="M12,8c1.66,0,3-1.34,3-3s-1.34-3-3-3S9,3.34,9,5S10.34,8,12,8z"/>
<path fill="#EF5350" d="M21,8v11c-3.41,0-6.52,1.31-8.86,3.43h-0.13V11.54C14.37,9.35,17.52,8,21,8z"/>
</svg>
