<?xml version="1.0" encoding="utf-8"?>
<!-- Generator: Adobe Illustrator 16.0.0, SVG Export Plug-In . SVG Version: 6.00 Build 0)  -->
<!DOCTYPE svg PUBLIC "-//W3C//DTD SVG 1.1//EN" "http://www.w3.org/Graphics/SVG/1.1/DTD/svg11.dtd">
<svg version="1.1" id="Capa_1" xmlns="http://www.w3.org/2000/svg" xmlns:xlink="http://www.w3.org/1999/xlink" x="0px" y="0px"
	 width="24px" height="24px" viewBox="0 0 24 24" enable-background="new 0 0 24 24" xml:space="preserve">
<path fill="none" d="M0,0h24v24H0V0z"/>
<g>
	<path fill="#FFEE58" d="M12.427,2.55c-0.367-0.369-0.861-0.582-1.414-0.583l-7-0.023C3.447,1.943,2.937,2.182,2.576,2.555
		c-0.348,0.36-0.569,0.846-0.571,1.384l-0.008,7c-0.001,0.551,0.216,1.053,0.582,1.422l8.98,9.023
		c0.353,0.354,0.854,0.575,1.405,0.577c0.544,0.008,1.048-0.209,1.409-0.582l7.021-6.979c0.369-0.366,0.59-0.868,0.584-1.414
		c0.01-0.544-0.225-1.063-0.582-1.423L12.427,2.55z M7.007,5.454c-0.002,0.439-0.179,0.812-0.47,1.087
		c-0.271,0.254-0.63,0.416-1.034,0.408C4.668,6.946,3.999,6.272,4.008,5.445C4.003,5.042,4.159,4.688,4.422,4.414
		C4.69,4.132,5.074,3.949,5.513,3.951C6.34,3.946,7.009,4.62,7.007,5.454z"/>
	<path opacity="0.2" fill="#8D6E63" enable-background="new    " d="M21.396,11.566c0.358,0.362,0.594,0.879,0.582,1.422
		c0.006,0.545-0.215,1.048-0.584,1.414l-3.545,3.521L6.537,6.541c0.291-0.275,0.469-0.648,0.47-1.087
		C7.009,4.62,6.34,3.946,5.513,3.951c-0.438-0.002-0.82,0.181-1.09,0.463L2.576,2.555c0.361-0.373,0.871-0.612,1.437-0.611l7,0.023
		c0.551,0.001,1.045,0.215,1.414,0.583L21.396,11.566z"/>
</g>
</svg>
