<?xml version="1.0" encoding="utf-8"?>
<!-- Generator: Adobe Illustrator 16.0.0, SVG Export Plug-In . SVG Version: 6.00 Build 0)  -->
<!DOCTYPE svg PUBLIC "-//W3C//DTD SVG 1.1//EN" "http://www.w3.org/Graphics/SVG/1.1/DTD/svg11.dtd">
<svg version="1.1" id="Capa_1" xmlns="http://www.w3.org/2000/svg" xmlns:xlink="http://www.w3.org/1999/xlink" x="0px" y="0px"
	 width="24px" height="24px" viewBox="0 0 24 24" enable-background="new 0 0 24 24" xml:space="preserve">
<path fill="none" d="M0,0h24v24H0V0z"/>
<polygon fill="#42A5F5" points="19.01,12.97 19,13 21,19 21,21 3,21 3,19 5,13 4.99,12.97 3,7 3,5 15.689,5 17.15,1 19.5,1.86 
	18.359,5 21,5 21,7 "/>
<polygon opacity="0.6" fill="#1E88E5" enable-background="new    " points="21,19 21,21 3,21 3,19 5,13 4.99,12.97 19.01,12.97 
	19,13 "/>
<polygon fill="#FFFFFF" points="16,14 13,14 13,17 11,17 11,14 8,14 8,12 11,12 11,9 13,9 13,12 16,12 "/>
<polygon opacity="0.6" fill="#1E88E5" enable-background="new    " points="19.5,1.86 18.359,5 15.689,5 17.15,1 "/>
</svg>
