<?xml version="1.0" encoding="utf-8"?>
<!-- Generator: Adobe Illustrator 16.0.0, SVG Export Plug-In . SVG Version: 6.00 Build 0)  -->
<!DOCTYPE svg PUBLIC "-//W3C//DTD SVG 1.1//EN" "http://www.w3.org/Graphics/SVG/1.1/DTD/svg11.dtd">
<svg version="1.1" id="Capa_1" xmlns="http://www.w3.org/2000/svg" xmlns:xlink="http://www.w3.org/1999/xlink" x="0px" y="0px"
	 width="24px" height="24px" viewBox="0 0 24 24" enable-background="new 0 0 24 24" xml:space="preserve">
<g>
	<path d="M20.98,13.999v8c0,0.55-0.451,1-1,1h-1c-0.551,0-1-0.45-1-1v-1h-12v1c0,0.55-0.45,1-1,1h-1c-0.55,0-1-0.45-1-1v-8
		l2.08-5.99c0.21-0.59,0.76-1.01,1.42-1.01h11c0.66,0,1.219,0.42,1.42,1.01L20.98,13.999z"/>
	<path fill="#455A64" d="M20.98,16.719v5.28c0,0.55-0.451,1-1,1h-1c-0.551,0-1-0.45-1-1v-1h-12v1c0,0.55-0.45,1-1,1h-1
		c-0.55,0-1-0.45-1-1v-5.28H20.98z"/>
	<path fill="#E53935" d="M20.98,13.999v2.72h-18v-2.72l2.08-5.99c0.21-0.59,0.76-1.01,1.42-1.01h11c0.66,0,1.219,0.42,1.42,1.01
		L20.98,13.999z"/>
	<circle fill="#FFFFFF" cx="6.48" cy="16.499" r="1.5"/>
	<circle fill="#FFFFFF" cx="17.48" cy="16.499" r="1.5"/>
	<polygon fill="#BBDEFB" points="4.98,12.999 6.48,8.499 17.48,8.499 18.98,12.999 	"/>
</g>
<path fill="none" d="M0,0h24v24H0V0z"/>
<path fill="#42A5F5" d="M17,5c0.83,0,1.5-0.67,1.5-1.5c0-1-1.5-2.7-1.5-2.7s-1.5,1.7-1.5,2.7C15.5,4.33,16.17,5,17,5z"/>
<path fill="#42A5F5" d="M12,5c0.83,0,1.5-0.67,1.5-1.5c0-1-1.5-2.7-1.5-2.7s-1.5,1.7-1.5,2.7C10.5,4.33,11.17,5,12,5z"/>
<path fill="#42A5F5" d="M7,5c0.83,0,1.5-0.67,1.5-1.5c0-1-1.5-2.7-1.5-2.7S5.5,2.5,5.5,3.5C5.5,4.33,6.17,5,7,5z"/>
</svg>
