<?xml version="1.0" encoding="utf-8"?>
<!-- Generator: Adobe Illustrator 16.0.0, SVG Export Plug-In . SVG Version: 6.00 Build 0)  -->
<!DOCTYPE svg PUBLIC "-//W3C//DTD SVG 1.1//EN" "http://www.w3.org/Graphics/SVG/1.1/DTD/svg11.dtd">
<svg version="1.1" id="Capa_1" xmlns="http://www.w3.org/2000/svg" xmlns:xlink="http://www.w3.org/1999/xlink" x="0px" y="0px"
	 width="24px" height="24px" viewBox="0 0 24 24" enable-background="new 0 0 24 24" xml:space="preserve">
<path fill="none" d="M0,0h24v24H0V0z"/>
<path fill="#42A5F5" d="M21,5v14c0,1.1-0.9,2-2,2H5c-1.1,0-2-0.9-2-2L3.01,5C3.01,3.9,3.9,3,5,3h14C20.1,3,21,3.9,21,5z"/>
<path opacity="0.5" fill="#1E88E5" d="M21,5v14c0,1.1-0.9,2-2,2h-7.04V3H19C20.1,3,21,3.9,21,5z"/>
<polygon fill="#FFFFFF" points="18,14 14,14 14,18 10,18 10,14 6,14 6,10 10,10 10,6 14,6 14,10 18,10 "/>
</svg>
