<?xml version="1.0" encoding="utf-8"?>
<!-- Generator: Adobe Illustrator 16.0.0, SVG Export Plug-In . SVG Version: 6.00 Build 0)  -->
<!DOCTYPE svg PUBLIC "-//W3C//DTD SVG 1.1//EN" "http://www.w3.org/Graphics/SVG/1.1/DTD/svg11.dtd">
<svg version="1.1" id="Capa_1" xmlns="http://www.w3.org/2000/svg" xmlns:xlink="http://www.w3.org/1999/xlink" x="0px" y="0px"
	 width="24px" height="24px" viewBox="0 0 24 24" enable-background="new 0 0 24 24" xml:space="preserve">
<path fill="none" d="M0,0h24v24H0V0z"/>
<path fill="#EF5350" d="M20,12c0,1.1,0.9,2,2,2v4c0,1.1-0.9,2-2,2H4c-1.01,0-1.85-0.75-1.98-1.73C2.01,18.18,2,18.09,2,18v-4
	c0.01,0,0.01,0,0.02,0C3.12,13.99,4,13.09,4,12c0-1.1-0.88-1.99-1.98-2H2.01V6c0-0.05,0-0.1,0.01-0.14c0-0.05,0-0.1,0.01-0.14
	C2.17,4.75,3,4,4,4h16c1,0,1.84,0.75,1.98,1.72C21.99,5.81,22,5.9,22,6v4C20.9,10,20,10.9,20,12z"/>
<polygon fill="#F3E5F5" points="15.58,16.8 12,14.5 8.42,16.8 9.5,12.68 6.21,9.99 10.45,9.74 12,5.8 13.54,9.75 17.779,10 
	14.49,12.689 "/>
<path fill="#E53935" d="M4.57,4v16H4c-1.01,0-1.85-0.75-1.98-1.73V14C3.12,13.99,4,13.09,4,12c0-1.1-0.88-1.99-1.98-2V5.86
	c0-0.05,0-0.1,0.01-0.14C2.17,4.75,3,4,4,4H4.57z"/>
<path fill="#E53935" d="M20,12c0,1.1,0.9,2,2,2v4c0,1.1-0.9,2-2,2h-0.51V4H20c1,0,1.84,0.75,1.98,1.72C21.99,5.81,22,5.9,22,6v4
	C20.9,10,20,10.9,20,12z"/>
</svg>
