<?xml version="1.0" encoding="utf-8"?>
<!-- Generator: Adobe Illustrator 16.0.0, SVG Export Plug-In . SVG Version: 6.00 Build 0)  -->
<!DOCTYPE svg PUBLIC "-//W3C//DTD SVG 1.1//EN" "http://www.w3.org/Graphics/SVG/1.1/DTD/svg11.dtd">
<svg version="1.1" id="Capa_1" xmlns="http://www.w3.org/2000/svg" xmlns:xlink="http://www.w3.org/1999/xlink" x="0px" y="0px"
	 width="24px" height="24px" viewBox="0 0 24 24" enable-background="new 0 0 24 24" xml:space="preserve">
<path fill="none" d="M0,0h24v24H0V0z"/>
<path fill="#90A4AE" d="M3,2l2.01,18.23C5.13,21.23,5.97,22,7,22h10c1.029,0,1.87-0.77,1.99-1.77L21,2H3z"/>
<polygon fill="#81D4FA" points="5.67,8 18.33,8 16.719,20.063 7.219,20.031 "/>
<path fill="#42A5F5" d="M12,19c-1.66,0-3-1.34-3-3c0-2,3-5.4,3-5.4s3,3.4,3,5.4C15,17.66,13.66,19,12,19z"/>
<polygon fill="#FFFFFF" points="18.33,8 5.67,8 5.23,4 18.76,4 "/>
</svg>
