<?xml version="1.0" encoding="utf-8"?>
<!-- Generator: Adobe Illustrator 16.0.0, SVG Export Plug-In . SVG Version: 6.00 Build 0)  -->
<!DOCTYPE svg PUBLIC "-//W3C//DTD SVG 1.1//EN" "http://www.w3.org/Graphics/SVG/1.1/DTD/svg11.dtd">
<svg version="1.1" id="Capa_1" xmlns="http://www.w3.org/2000/svg" xmlns:xlink="http://www.w3.org/1999/xlink" x="0px" y="0px"
	 width="24px" height="24px" viewBox="0 0 24 24" enable-background="new 0 0 24 24" xml:space="preserve">
<g id="Capa_1_1_">
	<path fill="#455A64" d="M7,18c-1.1,0-1.99,0.9-1.99,2S5.9,22,7,22s2-0.9,2-2S8.1,18,7,18z"/>
	<path fill="#7CB342" d="M7.2,14.63l-0.03,0.12c0,0.141,0.109,0.25,0.25,0.25H19v2H7c-1.1,0-2-0.9-2-2c0-0.35,0.09-0.68,0.25-0.96
		l1.35-2.45l-3.57-7.53L3,4H1V2h3.27l0.94,2H20c0.55,0,1,0.45,1,1c0,0.17-0.04,0.34-0.12,0.48l-3.58,6.49
		c-0.34,0.62-1,1.03-1.75,1.03H8.1L7.2,14.63z"/>
	<path fill="#455A64" d="M17,18c-1.1,0-1.99,0.9-1.99,2S15.9,22,17,22s2-0.9,2-2S18.1,18,17,18z"/>
	<path fill="none" d="M0,0h24v24H0V0z"/>
	<polygon fill="#607D8B" points="5.21,4 1,4 1,2 4.27,2 	"/>
	<path fill="#607D8B" d="M19,15v2H7c-1.1,0-2-0.9-2-2c0-0.35,0.09-0.68,0.25-0.96l1.35-2.45c0,0,0.44,1.36,1.45,1.41H8.1L7.2,14.63
		l-0.03,0.12c0,0.141,0.109,0.25,0.25,0.25H19z"/>
</g>
<path fill="none" d="M0,0h24v24H0V0z"/>
</svg>
