<?xml version="1.0" encoding="utf-8"?>
<!-- Generator: Adobe Illustrator 15.0.0, SVG Export Plug-In . SVG Version: 6.00 Build 0)  -->
<!DOCTYPE svg PUBLIC "-//W3C//DTD SVG 1.1//EN" "http://www.w3.org/Graphics/SVG/1.1/DTD/svg11.dtd">
<svg version="1.1" id="Layer_1" xmlns="http://www.w3.org/2000/svg" xmlns:xlink="http://www.w3.org/1999/xlink" x="0px" y="0px"
	 width="24px" height="24px" viewBox="0 0 24 24" enable-background="new 0 0 24 24" xml:space="preserve">
<path fill="none" d="M0,0h24v24H0V0z"/>
<path fill="#C2185B" d="M5,6C3.9,6,3.01,6.9,3.01,8L3,20c0,1.1,0.9,2,2,2h14c1.1,0,2-0.9,2-2V8c0-1.1-0.9-2-2-2H5z"/>
<path fill="#F06292" d="M12,13c-2.76,0-5-2.24-5-5h2c0,1.66,1.34,3,3,3s3-1.34,3-3h2C17,10.76,14.76,13,12,13z"/>
<path fill="#90A4AE" d="M17,6c0-2.76-2.24-5-5-5S7,3.24,7,6h2c0-1.66,1.34-3,3-3s3,1.34,3,3H17z"/>
</svg>
