<?xml version="1.0" encoding="utf-8"?>
<!-- Generator: Adobe Illustrator 16.0.0, SVG Export Plug-In . SVG Version: 6.00 Build 0)  -->
<!DOCTYPE svg PUBLIC "-//W3C//DTD SVG 1.1//EN" "http://www.w3.org/Graphics/SVG/1.1/DTD/svg11.dtd">
<svg version="1.1" id="Capa_1" xmlns="http://www.w3.org/2000/svg" xmlns:xlink="http://www.w3.org/1999/xlink" x="0px" y="0px"
	 width="24px" height="24px" viewBox="0 0 24 24" enable-background="new 0 0 24 24" xml:space="preserve">
<path fill="none" d="M17.5,11.45c-0.24-0.06-0.48-0.15-0.69-0.25C17.02,11.31,17.25,11.4,17.5,11.45z M0,0v24h24V0H0z M22.88,21.75
	H13.98V21H14v-7.5h1.5v5c0,1.38,1.12,2.5,2.5,2.5s2.5-1.12,2.5-2.5V9c0-0.69-0.28-1.32-0.73-1.77l0.011-0.01L16.06,3.5L15,4.56
	l2.11,2.11C16.17,7.03,15.5,7.93,15.5,9c0,0.69,0.28,1.32,0.73,1.77c0.18,0.17,0.369,0.31,0.579,0.43c0.21,0.11,0.44,0.2,0.69,0.25
	c0.01-0.01,0.01-0.01,0.02,0c0.091,0.01,0.181,0.03,0.271,0.04c0.09,0.01,0.18,0.01,0.27,0.01c0.07,0,0.141,0,0.2-0.01
	c0.26-0.03,0.51-0.1,0.74-0.2v7.21c0,0.55-0.45,1-1,1s-1-0.45-1-1V14c0-1.1-0.9-2-2-2h-1V5c0-0.09-0.01-0.18-0.02-0.27V2.71h8.899
	V21.75z"/>
<path fill="#E53935" d="M20.5,9v9.5c0,1.38-1.12,2.5-2.5,2.5s-2.5-1.12-2.5-2.5v-5H14V21H4V5c0-1.1,0.9-2,2-2h6
	c1.01,0,1.85,0.75,1.98,1.73C13.99,4.82,14,4.91,14,5v7h1c1.1,0,2,0.9,2,2v4.5c0,0.55,0.45,1,1,1s1-0.45,1-1v-7.21
	c-0.23,0.1-0.48,0.17-0.74,0.2c-0.06,0.01-0.13,0.01-0.2,0.01c-0.09,0-0.18,0-0.27-0.01c-0.09-0.01-0.18-0.03-0.271-0.04
	c-0.01-0.01-0.01-0.01-0.02,0c-0.25-0.05-0.48-0.14-0.69-0.25c-0.21-0.12-0.399-0.26-0.579-0.43C15.78,10.32,15.5,9.69,15.5,9
	c0-1.07,0.67-1.97,1.61-2.33L15,4.56l1.06-1.06l3.721,3.72L19.77,7.23C20.22,7.68,20.5,8.31,20.5,9z"/>
<path fill="#90A4AE" d="M20.5,9v9.5c0,1.38-1.12,2.5-2.5,2.5s-2.5-1.12-2.5-2.5v-5H14V21h-0.02V4.73C13.99,4.82,14,4.91,14,5v7h1
	c1.1,0,2,0.9,2,2v4.5c0,0.55,0.45,1,1,1s1-0.45,1-1v-7.21c-0.23,0.1-0.48,0.17-0.74,0.2c-0.06,0.01-0.13,0.01-0.2,0.01
	c-0.09,0-0.18,0-0.27-0.01c-0.09-0.01-0.18-0.03-0.271-0.04c-0.01-0.01-0.01-0.01-0.02,0c-0.25-0.05-0.48-0.14-0.69-0.25
	c-0.21-0.12-0.399-0.26-0.579-0.43C15.78,10.32,15.5,9.69,15.5,9c0-1.07,0.67-1.97,1.61-2.33L15,4.56l1.06-1.06l3.721,3.72
	L19.77,7.23C20.22,7.68,20.5,8.31,20.5,9z"/>
<path fill="#455A64" d="M20.5,9v0.95c-0.3,0.64-0.84,1.14-1.5,1.38c-0.23,0.09-0.48,0.14-0.74,0.16c-0.06,0.01-0.13,0.01-0.2,0.01
	c-0.09,0-0.18,0-0.27-0.01c-0.09-0.01-0.18-0.03-0.271-0.04c-0.01-0.01-0.01-0.01-0.02,0c-0.24-0.06-0.48-0.15-0.69-0.25
	c-0.21-0.12-0.399-0.26-0.579-0.43C15.78,10.32,15.5,9.69,15.5,9c0-1.07,0.67-1.97,1.61-2.33L15,4.56l1.06-1.06l3.721,3.72
	L19.77,7.23C20.22,7.68,20.5,8.31,20.5,9z"/>
<rect x="6" y="5" fill="#E3F2FD" width="6" height="5"/>
<circle fill="#90A4AE" cx="18" cy="9" r="1"/>
<rect x="4.004" y="11.184" fill="#D32F2F" width="9.963" height="6.126"/>
</svg>
