<?xml version="1.0" encoding="utf-8"?>
<!-- Generator: Adobe Illustrator 15.0.0, SVG Export Plug-In . SVG Version: 6.00 Build 0)  -->
<!DOCTYPE svg PUBLIC "-//W3C//DTD SVG 1.1//EN" "http://www.w3.org/Graphics/SVG/1.1/DTD/svg11.dtd">
<svg version="1.1" id="Layer_1" xmlns="http://www.w3.org/2000/svg" xmlns:xlink="http://www.w3.org/1999/xlink" x="0px" y="0px"
	 width="24px" height="24px" viewBox="0 0 24 24" enable-background="new 0 0 24 24" xml:space="preserve">
<path fill="none" d="M0,0h24v24H0V0z"/>
<path fill="#F57C00" d="M17,10V8c0-2.76-2.24-5-5-5S7,5.24,7,8v2h1.9V8c0-1.71,1.39-3.1,3.1-3.1s3.1,1.39,3.1,3.1v2H17z"/>
<path fill="#FFA000" d="M18,10H6c-1.1,0-2,0.9-2,2v8c0,1.1,0.9,2,2,2h12c1.1,0,2-0.9,2-2v-8C20,10.9,19.1,10,18,10z"/>
<polygon fill="#E65100" points="14.828,17.414 13.414,16 14.828,14.586 13.414,13.172 12,14.586 10.585,13.172 9.171,14.586 
	10.585,16 9.171,17.414 10.585,18.828 12,17.414 13.414,18.828 "/>
</svg>
