<?xml version="1.0" encoding="utf-8"?>
<!-- Generator: Adobe Illustrator 16.0.0, SVG Export Plug-In . SVG Version: 6.00 Build 0)  -->
<!DOCTYPE svg PUBLIC "-//W3C//DTD SVG 1.1//EN" "http://www.w3.org/Graphics/SVG/1.1/DTD/svg11.dtd">
<svg version="1.1" id="Capa_1" xmlns="http://www.w3.org/2000/svg" xmlns:xlink="http://www.w3.org/1999/xlink" x="0px" y="0px"
	 width="24px" height="24px" viewBox="0 0 24 24" enable-background="new 0 0 24 24" xml:space="preserve">
<g>
	<path fill="#42A5F5" d="M20.943,5.019v14c0,1.1-0.9,2-2,2h-14c-1.1,0-2-0.9-2-2v-14c0-1.1,0.9-2,2-2h14
		C20.043,3.019,20.943,3.919,20.943,5.019z"/>
	<path opacity="0.5" fill="#1E88E5" enable-background="new    " d="M20.943,5.019v14c0,1.1-0.9,2-2,2h-7.009v-18h7.009
		C20.043,3.019,20.943,3.919,20.943,5.019z"/>
</g>
<path fill="none" d="M0,0h24v24H0V0z"/>
<polygon fill="#CFD8DC" points="14,7 14,17 12,17 12,9 10,9 10,7 "/>
</svg>
