<?xml version="1.0" encoding="utf-8"?>
<!-- Generator: Adobe Illustrator 16.0.0, SVG Export Plug-In . SVG Version: 6.00 Build 0)  -->
<!DOCTYPE svg PUBLIC "-//W3C//DTD SVG 1.1//EN" "http://www.w3.org/Graphics/SVG/1.1/DTD/svg11.dtd">
<svg version="1.1" id="Capa_1" xmlns="http://www.w3.org/2000/svg" xmlns:xlink="http://www.w3.org/1999/xlink" x="0px" y="0px"
	 width="24px" height="24px" viewBox="0 0 24 24" enable-background="new 0 0 24 24" xml:space="preserve">
<path fill="none" d="M0.01,0h24v24h-24V0z"/>
<g>
	<path fill="#42A5F5" d="M21.006,5.019v14c0,1.1-0.9,2-2,2h-14c-1.1,0-2-0.9-2-2v-14c0-1.1,0.9-2,2-2h14
		C20.105,3.019,21.006,3.919,21.006,5.019z"/>
	<path opacity="0.5" fill="#1E88E5" enable-background="new    " d="M21.006,5.019v14c0,1.1-0.9,2-2,2h-7.009v-18h7.009
		C20.105,3.019,21.006,3.919,21.006,5.019z"/>
</g>
<path fill="#CFD8DC" d="M13.51,12c0.83,0,1.5,0.67,1.5,1.5V15c0,1.11-0.899,2-2,2h-4v-2h4v-2h-2v-2h2V9h-4V7h4c1.101,0,2,0.89,2,2
	v1.5C15.01,11.33,14.34,12,13.51,12z"/>
</svg>
