<?xml version="1.0" encoding="utf-8"?>
<!-- Generator: Adobe Illustrator 16.0.0, SVG Export Plug-In . SVG Version: 6.00 Build 0)  -->
<!DOCTYPE svg PUBLIC "-//W3C//DTD SVG 1.1//EN" "http://www.w3.org/Graphics/SVG/1.1/DTD/svg11.dtd">
<svg version="1.1" id="Capa_1" xmlns="http://www.w3.org/2000/svg" xmlns:xlink="http://www.w3.org/1999/xlink" x="0px" y="0px"
	 width="24px" height="24px" viewBox="0 0 24 24" enable-background="new 0 0 24 24" xml:space="preserve">
<path fill="#FFEE58" d="M21.59,16.98H17C16.99,14.23,14.75,12,12,12s-4.99,2.23-5,4.98H1.69L5.66,9.07l6.46-2.1l7.66,2.6
	L21.59,16.98z"/>
<path fill="none" d="M0,0h24v24H0V0z"/>
<path fill="#29B6F6" d="M19,16.98c0,0.01,0,0.01,0,0.02h-2c0-0.01,0-0.01,0-0.02C16.99,14.23,14.75,12,12,12s-4.99,2.23-5,4.98
	c0,0.01,0,0.01,0,0.02H5c0-0.01,0-0.01,0-0.02C5.01,13.13,8.15,10,12,10C15.85,10,18.99,13.13,19,16.98z"/>
<path fill="#FF7043" d="M12,6C5.93,6,1,10.93,1,17h2c0-4.96,4.04-9,9-9s9,4.04,9,9h2C23,10.93,18.07,6,12,6z"/>
</svg>
