<?xml version="1.0" encoding="utf-8"?>
<!-- Generator: Adobe Illustrator 16.0.0, SVG Export Plug-In . SVG Version: 6.00 Build 0)  -->
<!DOCTYPE svg PUBLIC "-//W3C//DTD SVG 1.1//EN" "http://www.w3.org/Graphics/SVG/1.1/DTD/svg11.dtd">
<svg version="1.1" id="Capa_1" xmlns="http://www.w3.org/2000/svg" xmlns:xlink="http://www.w3.org/1999/xlink" x="0px" y="0px"
	 width="24px" height="24px" viewBox="0 0 24 24" enable-background="new 0 0 24 24" xml:space="preserve">
<path fill="none" d="M0,0h24v24H0V0z"/>
<g>
	<path fill="#42A5F5" d="M20.99,4.996v14c0,1.1-0.9,2-2,2h-14c-1.101,0-2-0.9-2-2v-14c0-1.1,0.9-2,2-2h14
		C20.09,2.996,20.99,3.896,20.99,4.996z"/>
	<path opacity="0.5" fill="#1E88E5" enable-background="new    " d="M20.99,4.996v14c0,1.1-0.9,2-2,2h-7.009v-18h7.009
		C20.09,2.996,20.99,3.896,20.99,4.996z"/>
</g>
<polygon fill="#CFD8DC" points="15,7 15,17 13,17 13,13 9,13 9,7 11,7 11,11 13,11 13,7 "/>
</svg>
