<?xml version="1.0" encoding="utf-8"?>
<!-- Generator: Adobe Illustrator 16.0.0, SVG Export Plug-In . SVG Version: 6.00 Build 0)  -->
<!DOCTYPE svg PUBLIC "-//W3C//DTD SVG 1.1//EN" "http://www.w3.org/Graphics/SVG/1.1/DTD/svg11.dtd">
<svg version="1.1" id="Capa_1" xmlns="http://www.w3.org/2000/svg" xmlns:xlink="http://www.w3.org/1999/xlink" x="0px" y="0px"
	 width="24px" height="24px" viewBox="0 0 24 24" enable-background="new 0 0 24 24" xml:space="preserve">
<g>
	<path fill="#A1887F" d="M12.429,2.628c-0.367-0.369-0.861-0.582-1.413-0.583l-7-0.023C3.45,2.021,2.94,2.26,2.579,2.633
		C2.231,2.993,2.01,3.479,2.008,4.017l-0.008,7c-0.001,0.552,0.216,1.054,0.582,1.423l8.981,9.023
		c0.352,0.354,0.853,0.575,1.405,0.577c0.544,0.008,1.048-0.209,1.409-0.582l7.021-6.978c0.369-0.367,0.59-0.869,0.584-1.414
		c0.011-0.545-0.223-1.062-0.582-1.423L12.429,2.628z M7.01,5.532C7.008,5.971,6.831,6.344,6.54,6.619
		C6.27,6.873,5.91,7.035,5.506,7.027C4.671,7.024,4.002,6.35,4.011,5.523C4.006,5.12,4.162,4.766,4.425,4.492
		c0.269-0.282,0.652-0.465,1.09-0.463C6.343,4.024,7.012,4.698,7.01,5.532z"/>
	<path opacity="0.3" fill="#8D6E63" enable-background="new    " d="M21.4,11.644c0.359,0.363,0.593,0.879,0.582,1.422
		c0.006,0.545-0.215,1.048-0.584,1.414l-3.545,3.523L6.54,6.619c0.291-0.275,0.469-0.648,0.47-1.087
		c0.002-0.834-0.667-1.508-1.494-1.503C5.078,4.027,4.695,4.21,4.426,4.492L2.579,2.633C2.94,2.26,3.45,2.021,4.016,2.022l7,0.023
		c0.551,0.001,1.045,0.215,1.413,0.583L21.4,11.644z"/>
</g>
<path fill="#EC407A" d="M17.27,15.27L13,19.54L8.73,15.27C8.28,14.811,8,14.189,8,13.5c0-1.38,1.12-2.5,2.5-2.5
	c0.69,0,1.32,0.28,1.77,0.74L13,12.46l0.73-0.73C14.18,11.28,14.811,11,15.5,11c1.38,0,2.5,1.12,2.5,2.5
	C18,14.189,17.721,14.82,17.27,15.27z"/>
<path fill="none" d="M0,0h24v24H0V0z"/>
</svg>
