<?xml version="1.0" encoding="utf-8"?>
<!-- Generator: Adobe Illustrator 16.0.0, SVG Export Plug-In . SVG Version: 6.00 Build 0)  -->
<!DOCTYPE svg PUBLIC "-//W3C//DTD SVG 1.1//EN" "http://www.w3.org/Graphics/SVG/1.1/DTD/svg11.dtd">
<svg version="1.1" id="Capa_1" xmlns="http://www.w3.org/2000/svg" xmlns:xlink="http://www.w3.org/1999/xlink" x="0px" y="0px"
	 width="24px" height="24px" viewBox="0 0 24 24" enable-background="new 0 0 24 24" xml:space="preserve">
<path fill="#1565C0" d="M12,14c1.66,0,2.99-1.34,2.99-3L15,5c0-1.66-1.34-3-3-3S9,3.34,9,5v6C9,12.66,10.34,14,12,14z"/>
<path fill="#78909C" d="M19,11c0,3.42-2.721,6.24-6,6.72V21h-2v-3.28C7.72,17.23,5,14.41,5,11h1.7c0,2.99,2.52,5.08,5.26,5.1H12
	c2.76,0,5.3-2.1,5.3-5.1H19z"/>
<path fill="none" d="M0,0h24v24H0V0z"/>
<path fill="#546E7A" d="M19,11c0,3.42-2.721,6.24-6,6.72V21h-1.04v-4.9H12c2.76,0,5.3-2.1,5.3-5.1H19z"/>
</svg>
