<?xml version="1.0" encoding="utf-8"?>
<!-- Generator: Adobe Illustrator 15.0.0, SVG Export Plug-In . SVG Version: 6.00 Build 0)  -->
<!DOCTYPE svg PUBLIC "-//W3C//DTD SVG 1.1//EN" "http://www.w3.org/Graphics/SVG/1.1/DTD/svg11.dtd">
<svg version="1.1" id="Layer_1" xmlns="http://www.w3.org/2000/svg" xmlns:xlink="http://www.w3.org/1999/xlink" x="0px" y="0px"
	 width="24px" height="24px" viewBox="0 0 24 24" enable-background="new 0 0 24 24" xml:space="preserve">
<path fill="#FF9800" d="M15,21l5.641-1.9C20.85,19.03,21,18.85,21,18.62V3.5C21,3.22,20.779,3,20.5,3l-0.16,0.03L15,5.1V21z M9,3
	L3.36,4.9C3.15,4.97,3,5.15,3,5.38V20.5C3,20.78,3.22,21,3.5,21l0.16-0.03L9,18.9V3z"/>
<path fill="none" d="M0,0h24v24H0V0z"/>
<polygon fill="#FFC107" points="15,21 9,18.891 9,2.99 15,5.1 "/>
</svg>
