<?xml version="1.0" encoding="utf-8"?>
<!-- Generator: Adobe Illustrator 16.0.0, SVG Export Plug-In . SVG Version: 6.00 Build 0)  -->
<!DOCTYPE svg PUBLIC "-//W3C//DTD SVG 1.1//EN" "http://www.w3.org/Graphics/SVG/1.1/DTD/svg11.dtd">
<svg version="1.1" id="Capa_1" xmlns="http://www.w3.org/2000/svg" xmlns:xlink="http://www.w3.org/1999/xlink" x="0px" y="0px"
	 width="24px" height="24px" viewBox="0 0 24 24" enable-background="new 0 0 24 24" xml:space="preserve">
<path fill="none" d="M-618-3000H782V600H-618V-3000z M0,0h24v24H0V0z"/>
<path fill="#90A4AE" d="M20,6H10l0,0L8.016,6.047L8,4h6V0H6v6H4C2.9,6,2,6.9,2,8v12c0,1.1,0.9,2,2,2h16c1.1,0,2-0.9,2-2V8
	C22,6.9,21.1,6,20,6z"/>
<rect x="6" fill="#E53935" width="8.188" height="4"/>
<rect x="6.011" y="10.458" fill="#546E7A" width="12.531" height="1.531"/>
<rect x="6.011" y="3.74" fill="#E53935" width="2" height="8.25"/>
</svg>
