<?xml version="1.0" encoding="utf-8"?>
<!-- Generator: Adobe Illustrator 16.0.0, SVG Export Plug-In . SVG Version: 6.00 Build 0)  -->
<!DOCTYPE svg PUBLIC "-//W3C//DTD SVG 1.1//EN" "http://www.w3.org/Graphics/SVG/1.1/DTD/svg11.dtd">
<svg version="1.1" id="Capa_1" xmlns="http://www.w3.org/2000/svg" xmlns:xlink="http://www.w3.org/1999/xlink" x="0px" y="0px"
	 width="24px" height="24px" viewBox="0 0 24 24" enable-background="new 0 0 24 24" xml:space="preserve">
<path opacity="0.8" fill="#43A047" d="M19,11v2h2v2h-2v2c0,1.1-0.9,2-2,2h-2v2h-2v-2h-2v2H9v-2H7c-1.1,0-2-0.9-2-2v-2H3v-2h2v-2H3V9
	h2V7c0-1.1,0.9-2,2-2h2V3h2v2h2V3h2v2h2c1.1,0,2,0.9,2,2v2h2v2H19z"/>
<rect x="7" y="7" fill="#B0BEC5" width="10" height="10"/>
<path fill="none" d="M0,0h24v24H0V0z"/>
<rect x="9" y="9" opacity="0.8" fill="#43A047" width="6" height="6"/>
<rect x="11" y="11" fill="#B0BEC5" width="2" height="2"/>
<rect x="9" y="3" fill="#B0BEC5" width="2" height="2"/>
<rect x="13" y="3" fill="#B0BEC5" width="2" height="2"/>
<polygon fill="#B0BEC5" points="8.98,18.98 11,18.98 11,21 9,21 9,19 8.98,19 "/>
<polygon fill="#B0BEC5" points="15.02,18.98 15.02,19 15,19 15,21 13,21 13,18.98 "/>
<rect x="3" y="9" fill="#B0BEC5" width="2" height="2"/>
<rect x="3" y="13" fill="#B0BEC5" width="2" height="2"/>
<rect x="19" y="9" fill="#B0BEC5" width="2" height="2"/>
<rect x="19" y="13" fill="#B0BEC5" width="2" height="2"/>
</svg>
