<?xml version="1.0" encoding="utf-8"?>
<!-- Generator: Adobe Illustrator 16.0.0, SVG Export Plug-In . SVG Version: 6.00 Build 0)  -->
<!DOCTYPE svg PUBLIC "-//W3C//DTD SVG 1.1//EN" "http://www.w3.org/Graphics/SVG/1.1/DTD/svg11.dtd">
<svg version="1.1" id="Capa_1" xmlns="http://www.w3.org/2000/svg" xmlns:xlink="http://www.w3.org/1999/xlink" x="0px" y="0px"
	 width="24px" height="24px" viewBox="0 0 24 24" enable-background="new 0 0 24 24" xml:space="preserve">
<path fill="#4DD0E1" d="M22,4v12c0,1.1-0.9,2-2,2H6l-4,4l0.01-11V4C2.01,2.9,2.9,2,4,2h16C21.1,2,22,2.9,22,4z"/>
<rect x="6" y="12" fill="#CFD8DC" width="12" height="2"/>
<path opacity="0.3" fill="#26C6DA" enable-background="new    " d="M22,4v7H2.01V4C2.01,2.9,2.9,2,4,2h16C21.1,2,22,2.9,22,4z"/>
<rect x="6" y="9" fill="#CFD8DC" width="12" height="2"/>
<rect x="6" y="6" fill="#CFD8DC" width="12" height="2"/>
<path fill="none" d="M0,0h24v24H0V0z"/>
</svg>
