<?xml version="1.0" encoding="utf-8"?>
<!-- Generator: Adobe Illustrator 16.0.0, SVG Export Plug-In . SVG Version: 6.00 Build 0)  -->
<!DOCTYPE svg PUBLIC "-//W3C//DTD SVG 1.1//EN" "http://www.w3.org/Graphics/SVG/1.1/DTD/svg11.dtd">
<svg version="1.1" id="Capa_1" xmlns="http://www.w3.org/2000/svg" xmlns:xlink="http://www.w3.org/1999/xlink" x="0px" y="0px"
	 width="24px" height="24px" viewBox="0 0 24 24" enable-background="new 0 0 24 24" xml:space="preserve">
<g>
	<path fill="#78909C" d="M19.005,11c0,3.42-2.72,6.24-6,6.72V21h-2v-3.28c-3.28-0.489-6-3.31-6-6.72h1.7c0,2.99,2.52,5.08,5.26,5.1
		h0.04c2.761,0,5.3-2.1,5.3-5.1H19.005z"/>
	<path fill="#546E7A" d="M19.005,11c0,3.42-2.72,6.24-6,6.72V21h-1.04v-4.9h0.04c2.761,0,5.3-2.1,5.3-5.1H19.005z"/>
</g>
<path fill="#1565C0" d="M12,2c-1.66,0-3,1.34-3,3v6c0,1.66,1.34,3,3,3s2.99-1.34,2.99-3L15,5C15,3.34,13.66,2,12,2z M13.189,11.1
	c0,0.66-0.529,1.2-1.189,1.2s-1.2-0.54-1.2-1.2V4.9c0-0.66,0.54-1.2,1.2-1.2s1.2,0.54,1.2,1.2L13.189,11.1z"/>
<path fill="none" d="M0,0h24v24H0V0z"/>
</svg>
