<?xml version="1.0" encoding="utf-8"?>
<!-- Generator: Adobe Illustrator 16.0.0, SVG Export Plug-In . SVG Version: 6.00 Build 0)  -->
<!DOCTYPE svg PUBLIC "-//W3C//DTD SVG 1.1//EN" "http://www.w3.org/Graphics/SVG/1.1/DTD/svg11.dtd">
<svg version="1.1" id="Capa_1" xmlns="http://www.w3.org/2000/svg" xmlns:xlink="http://www.w3.org/1999/xlink" x="0px" y="0px"
	 width="24px" height="24px" viewBox="0 0 24 24" enable-background="new 0 0 24 24" xml:space="preserve">
<polygon opacity="0.6" fill="#455A64" points="21,17.31 21,21 15.2,21 17.82,17.31 "/>
<polygon fill="#90A4AE" points="17.82,17.31 15.2,21 3,21 3,17.31 "/>
<g>
	<polygon fill="#CFD8DC" points="17.266,10.453 19.094,8.656 15.344,4.891 13.703,6.547 	"/>
	<polygon fill="#78909C" points="17.811,9.94 6.75,21 3,21 3,17.25 14.061,6.19 	"/>
	<path fill="#B0BEC5" d="M20.71,7.04c0.39-0.39,0.39-1.02,0-1.41l-2.34-2.34c-0.39-0.39-1.021-0.39-1.41,0l-1.83,1.83l3.75,3.75
		L20.71,7.04z"/>
	<polygon fill="#B0BEC5" points="6.75,21 3,21 3,17.25 	"/>
</g>
<g opacity="0.4">
	<polygon fill="#78909C" points="17.82,17.31 15.2,21 9.88,21 13.281,17.313 	"/>
</g>
<path fill="none" d="M0,0h24v24H0V0z"/>
</svg>
