<?xml version="1.0" encoding="utf-8"?>
<!-- Generator: Adobe Illustrator 16.0.0, SVG Export Plug-In . SVG Version: 6.00 Build 0)  -->
<!DOCTYPE svg PUBLIC "-//W3C//DTD SVG 1.1//EN" "http://www.w3.org/Graphics/SVG/1.1/DTD/svg11.dtd">
<svg version="1.1" xmlns="http://www.w3.org/2000/svg" xmlns:xlink="http://www.w3.org/1999/xlink" x="0px" y="0px" width="24px"
	 height="24px" viewBox="0 0 24 24" enable-background="new 0 0 24 24" xml:space="preserve">
<g id="Capa_1">
	<path opacity="0.6" fill="#90A4AE" enable-background="new    " d="M11.984,13.989c1.661,0,2.991-1.34,2.991-3l0.01-6
		c0-1.66-1.34-3-3-3c-1.66,0-3,1.34-3,3v6C8.984,12.649,10.324,13.989,11.984,13.989z"/>
	<path opacity="0.6" fill="#90A4AE" enable-background="new    " d="M18.984,10.989c0,3.42-2.721,6.24-6,6.72v3.28h-2v-3.28
		c-3.279-0.489-6-3.31-6-6.72h1.7c0,2.99,2.521,5.08,5.26,5.1h0.04c2.76,0,5.299-2.1,5.299-5.1H18.984z"/>
	<path opacity="0.6" fill="#90A4AE" enable-background="new    " d="M18.984,10.989c0,3.42-2.721,6.24-6,6.72v3.28h-1.041v-4.9h0.04
		c2.76,0,5.299-2.1,5.299-5.1H18.984z"/>
	<path fill="none" d="M0,0h24v24H0V0z M0,0h24v24H0V0z"/>
</g>
<g id="Capa_2">
	<polygon fill="#9FA8DA" points="2.969,4.281 4.266,2.984 20.984,19.719 19.703,20.984 	"/>
</g>
</svg>
