<?xml version="1.0" encoding="utf-8"?>
<!-- Generator: Adobe Illustrator 16.0.0, SVG Export Plug-In . SVG Version: 6.00 Build 0)  -->
<!DOCTYPE svg PUBLIC "-//W3C//DTD SVG 1.1//EN" "http://www.w3.org/Graphics/SVG/1.1/DTD/svg11.dtd">
<svg version="1.1" id="Capa_1" xmlns="http://www.w3.org/2000/svg" xmlns:xlink="http://www.w3.org/1999/xlink" x="0px" y="0px"
	 width="24px" height="24px" viewBox="0 0 24 24" enable-background="new 0 0 24 24" xml:space="preserve">
<path fill="none" d="M0,0h24v24H0V0z"/>
<path fill="#F48FB1" d="M11.99,2C6.47,2,2,6.48,2,12c0,5.52,4.47,10,9.99,10C17.52,22,22,17.52,22,12C22,6.48,17.52,2,11.99,2z"/>
<circle fill="#F48FB1" cx="12" cy="12" r="8"/>
<circle fill="#CFD8DC" cx="15.5" cy="9.5" r="1.5"/>
<circle fill="#CFD8DC" cx="8.5" cy="9.5" r="1.5"/>
<path fill="#CFD8DC" d="M12,17.5c2.33,0,4.311-1.46,5.109-3.5H6.89C7.69,16.04,9.67,17.5,12,17.5z"/>
</svg>
