<?xml version="1.0" encoding="utf-8"?>
<!-- Generator: Adobe Illustrator 16.0.0, SVG Export Plug-In . SVG Version: 6.00 Build 0)  -->
<!DOCTYPE svg PUBLIC "-//W3C//DTD SVG 1.1//EN" "http://www.w3.org/Graphics/SVG/1.1/DTD/svg11.dtd">
<svg version="1.1" id="Capa_1" xmlns="http://www.w3.org/2000/svg" xmlns:xlink="http://www.w3.org/1999/xlink" x="0px" y="0px"
	 width="24px" height="24px" viewBox="0 0 24 24" enable-background="new 0 0 24 24" xml:space="preserve">
<path fill="none" d="M0,0h24v24H0V0z"/>
<path fill="#263238" d="M6,10c-1.1,0-2,0.9-2,2c0,1.1,0.9,2,2,2s2-0.9,2-2C8,10.9,7.1,10,6,10z"/>
<path fill="#37474F" d="M18,10c-1.1,0-2,0.9-2,2c0,1.1,0.9,2,2,2s2-0.9,2-2C20,10.9,19.1,10,18,10z"/>
<path fill="#455A64" d="M12,10c-1.1,0-2,0.9-2,2c0,1.1,0.9,2,2,2c1.1,0,2-0.9,2-2C14,10.9,13.1,10,12,10z"/>
</svg>
