<?xml version="1.0" encoding="utf-8"?>
<!-- Generator: Adobe Illustrator 16.0.0, SVG Export Plug-In . SVG Version: 6.00 Build 0)  -->
<!DOCTYPE svg PUBLIC "-//W3C//DTD SVG 1.1//EN" "http://www.w3.org/Graphics/SVG/1.1/DTD/svg11.dtd">
<svg version="1.1" id="Capa_1" xmlns="http://www.w3.org/2000/svg" xmlns:xlink="http://www.w3.org/1999/xlink" x="0px" y="0px"
	 width="24px" height="24px" viewBox="0 0 24 24" enable-background="new 0 0 24 24" xml:space="preserve">
<rect x="4.604" y="3.979" fill="#FFFFFF" width="15.792" height="4.146"/>
<path fill="#CFD8DC" d="M22,7.97V18c0,1.1-0.9,2-2,2H4c-1.1,0-2-0.9-2-2L2.01,7.97H22z"/>
<path fill="#455A64" d="M22,4v4.906L2.016,8.859L2.01,6C2.01,4.9,2.9,4,4,4h1l1.99,3.97L7,8h3L9.99,7.97L8,4h2l1.99,3.97L12,8h3
	l-0.01-0.03L13,4h2l1.99,3.97L17,8h3l-0.01-0.03L18,4H22z"/>
<path fill="none" d="M0,0h24v24H0V0z"/>
<g>
	
		<rect x="13.73" y="10.54" transform="matrix(0.7077 -0.7065 0.7065 0.7077 -4.2919 13.461)" fill="#C5CAE9" width="0.787" height="2.756"/>
	<path fill="#E57373" d="M16.326,11.664c0.203-0.203,0.203-0.53,0-0.733l-1.217-1.215c-0.203-0.203-0.529-0.203-0.73,0l-0.953,0.951
		l1.949,1.949L16.326,11.664z"/>
	<g>
		<polygon fill="#7986CB" points="7.125,18.917 9.073,18.917 7.125,16.968 		"/>
		
			<rect x="6.909" y="13.691" transform="matrix(0.7071 -0.7071 0.7071 0.7071 -7.4423 12.1725)" fill="#3F51B5" width="8.126" height="2.756"/>
	</g>
</g>
</svg>
