<?xml version="1.0" encoding="utf-8"?>
<!-- Generator: Adobe Illustrator 16.0.0, SVG Export Plug-In . SVG Version: 6.00 Build 0)  -->
<!DOCTYPE svg PUBLIC "-//W3C//DTD SVG 1.1//EN" "http://www.w3.org/Graphics/SVG/1.1/DTD/svg11.dtd">
<svg version="1.1" id="Capa_1" xmlns="http://www.w3.org/2000/svg" xmlns:xlink="http://www.w3.org/1999/xlink" x="0px" y="0px"
	 width="24px" height="24px" viewBox="0 0 24 24" enable-background="new 0 0 24 24" xml:space="preserve">
<path fill="#00838F" d="M20.939,11C20.48,6.83,17.17,3.52,13,3.06V1h-2v2.06C6.83,3.52,3.52,6.83,3.06,11H1v2h2.06
	c0.46,4.17,3.77,7.48,7.94,7.939V23h2v-2.061c4.17-0.459,7.48-3.77,7.939-7.939H23v-2H20.939z"/>
<path fill="#B2EBF2" d="M12,19c-3.87,0-7-3.13-7-7s3.13-7,7-7s7,3.13,7,7S15.87,19,12,19z"/>
<path fill="none" d="M0,0h24v24H0V0z"/>
<circle fill="#006064" cx="12" cy="12" r="4"/>
</svg>
