<?xml version="1.0" encoding="utf-8"?>
<!-- Generator: Adobe Illustrator 16.0.0, SVG Export Plug-In . SVG Version: 6.00 Build 0)  -->
<!DOCTYPE svg PUBLIC "-//W3C//DTD SVG 1.1//EN" "http://www.w3.org/Graphics/SVG/1.1/DTD/svg11.dtd">
<svg version="1.1" id="Capa_1" xmlns="http://www.w3.org/2000/svg" xmlns:xlink="http://www.w3.org/1999/xlink" x="0px" y="0px"
	 width="24px" height="24px" viewBox="0 0 24 24" enable-background="new 0 0 24 24" xml:space="preserve">
<path fill="none" d="M14,0.54V2h6c1.1,0,2,0.9,2,2v12c0,1.1-0.9,2-2,2h-6v0.78h10V24H0V0h24v0.54H14z"/>
<path fill="#0288D1" d="M22,4v12c0,1.1-0.9,2-2,2H8c-1.1,0-2-0.9-2-2V4c0-1.1,0.9-2,2-2h12C21.1,2,22,2.9,22,4z"/>
<path fill="#01579B" d="M22,4v12c0,1.1-0.9,2-2,2h-6V2h6C21.1,2,22,2.9,22,4z"/>
<path fill="#FFFFFF" d="M18,7h-3v5.5c0,1.38-1.12,2.5-2.5,2.5S10,13.88,10,12.5s1.12-2.5,2.5-2.5c0.57,0,1.08,0.19,1.5,0.51V5h4V7z"
	/>
<path fill="#01579B" d="M4,6H2v14c0,1.1,0.9,2,2,2h14v-2H4V6z"/>
</svg>
