<?xml version="1.0" encoding="utf-8"?>
<!-- Generator: Adobe Illustrator 16.0.0, SVG Export Plug-In . SVG Version: 6.00 Build 0)  -->
<!DOCTYPE svg PUBLIC "-//W3C//DTD SVG 1.1//EN" "http://www.w3.org/Graphics/SVG/1.1/DTD/svg11.dtd">
<svg version="1.1" id="Capa_1" xmlns="http://www.w3.org/2000/svg" xmlns:xlink="http://www.w3.org/1999/xlink" x="0px" y="0px"
	 width="24px" height="24px" viewBox="0 0 24 24" enable-background="new 0 0 24 24" xml:space="preserve">
<path fill="none" d="M0,0h24v24H0V0z"/>
<path fill="#6D4C41" d="M4,6H2v14c0,1.1,0.9,2,2,2h14v-2H4V6z"/>
<path fill="#8D6E63" d="M22,4v12c0,1.1-0.9,2-2,2H8c-1.1,0-2-0.9-2-2V4c0-1.1,0.9-2,2-2h12C21.1,2,22,2.9,22,4z"/>
<path fill="#6D4C41" d="M22,4v12c0,1.1-0.9,2-2,2h-6.04V2H20C21.1,2,22,2.9,22,4z"/>
<rect x="9" y="9" fill="#FFFFFF" width="10" height="2"/>
<rect x="9" y="13" fill="#FFFFFF" width="6" height="2"/>
<rect x="9" y="5" fill="#FFFFFF" width="10" height="2"/>
</svg>
