<?xml version="1.0" encoding="utf-8"?>
<!-- Generator: Adobe Illustrator 16.0.0, SVG Export Plug-In . SVG Version: 6.00 Build 0)  -->
<!DOCTYPE svg PUBLIC "-//W3C//DTD SVG 1.1//EN" "http://www.w3.org/Graphics/SVG/1.1/DTD/svg11.dtd">
<svg version="1.1" id="Capa_1" xmlns="http://www.w3.org/2000/svg" xmlns:xlink="http://www.w3.org/1999/xlink" x="0px" y="0px"
	 width="24px" height="24px" viewBox="0 0 24 24" enable-background="new 0 0 24 24" xml:space="preserve">
<path fill="#1E88E5" d="M4,6H2v14c0,1.1,0.9,2,2,2h14v-2H4V6z"/>
<path fill="#42A5F5" d="M22,4v12c0,1.1-0.9,2-2,2H8c-1.1,0-2-0.9-2-2V4c0-1.1,0.9-2,2-2h12C21.1,2,22,2.9,22,4z"/>
<path fill="#1E88E5" d="M22,4v12c0,1.1-0.9,2-2,2h-6V2h6C21.1,2,22,2.9,22,4z"/>
<polygon fill="#FFFFFF" points="19,11 15,11 15,15 13,15 13,11 9,11 9,9 13,9 13,5 15,5 15,9 19,9 "/>
</svg>
