<?xml version="1.0" encoding="utf-8"?>
<!-- Generator: Adobe Illustrator 16.0.0, SVG Export Plug-In . SVG Version: 6.00 Build 0)  -->
<!DOCTYPE svg PUBLIC "-//W3C//DTD SVG 1.1//EN" "http://www.w3.org/Graphics/SVG/1.1/DTD/svg11.dtd">
<svg version="1.1" id="Capa_1" xmlns="http://www.w3.org/2000/svg" xmlns:xlink="http://www.w3.org/1999/xlink" x="0px" y="0px"
	 width="24px" height="24px" viewBox="0 0 24 24" enable-background="new 0 0 24 24" xml:space="preserve">
<polygon fill="none" points="24,0 24,24 4.91,24 4.91,5.91 0,5.91 0,0 "/>
<g>
	<path fill="#6D4C41" d="M12.99,16.16v3.88h3v2H4.91v-2h6.08V16.1c-3.31-0.55-5.83-3.42-5.83-6.89c0-3.87,3.13-7,7-7
		c3.869,0,7,3.13,7,7c0,3.37-2.37,6.17-5.53,6.851h-0.01c-0.14,0.029-0.29,0.051-0.44,0.069C13.12,16.141,13.061,16.15,12.99,16.16z
		"/>
	<rect x="4.913" y="20.021" fill="#43A047" width="14.118" height="2.021"/>
	<path fill="#43A047" d="M19.162,9.213c0,3.37-2.371,6.17-5.531,6.85h-0.01c-0.139,0.03-0.289,0.052-0.439,0.07
		c-0.061,0.01-0.119,0.021-0.188,0.03c-0.271,0.03-0.55,0.04-0.831,0.04c-0.4,0-0.79-0.03-1.17-0.09v-0.012
		c-3.311-0.55-5.83-3.42-5.83-6.89c0-3.87,3.13-7,7-7C16.031,2.213,19.162,5.343,19.162,9.213z"/>
</g>
</svg>
