<?xml version="1.0" encoding="utf-8"?>
<!-- Generator: Adobe Illustrator 16.0.0, SVG Export Plug-In . SVG Version: 6.00 Build 0)  -->
<!DOCTYPE svg PUBLIC "-//W3C//DTD SVG 1.1//EN" "http://www.w3.org/Graphics/SVG/1.1/DTD/svg11.dtd">
<svg version="1.1" id="Capa_1" xmlns="http://www.w3.org/2000/svg" xmlns:xlink="http://www.w3.org/1999/xlink" x="0px" y="0px"
	 width="24px" height="24px" viewBox="0 0 24 24" enable-background="new 0 0 24 24" xml:space="preserve">
<path fill="none" d="M0,0h24v24H0V0z"/>
<polygon fill="#66BB6A" points="20.56,14.78 20.9,18.46 17.29,19.28 15.4,22.46 12,21 8.6,22.47 6.71,19.29 3.1,18.47 3.44,14.78 
	1,12 3.44,9.21 3.1,5.53 6.71,4.72 8.6,1.54 12,3 15.4,1.54 17.29,4.72 20.9,5.54 20.56,9.22 23,12 "/>
<polygon fill="#43A047" points="20.56,14.78 20.9,18.46 17.29,19.28 15.4,22.46 12,21 12,3 15.4,1.54 17.29,4.72 20.9,5.54 
	20.56,9.22 23,12 "/>
<rect x="11" y="15" fill="#FFFFFF" width="2" height="2"/>
<rect x="11" y="7" fill="#FFFFFF" width="2" height="6"/>
</svg>
