<?xml version="1.0" encoding="utf-8"?>
<!-- Generator: Adobe Illustrator 16.0.0, SVG Export Plug-In . SVG Version: 6.00 Build 0)  -->
<!DOCTYPE svg PUBLIC "-//W3C//DTD SVG 1.1//EN" "http://www.w3.org/Graphics/SVG/1.1/DTD/svg11.dtd">
<svg version="1.1" id="Capa_1" xmlns="http://www.w3.org/2000/svg" xmlns:xlink="http://www.w3.org/1999/xlink" x="0px" y="0px"
	 width="24px" height="24px" viewBox="0 0 24 24" enable-background="new 0 0 24 24" xml:space="preserve">
<path fill="#26C6DA" d="M20,2H4C2.9,2,2,2.9,2,4v16c0,1.1,0.9,2,2,2h16c1.1,0,2-0.9,2-2V4C22,2.9,21.1,2,20,2z M20,20H4V4h16V20z"/>
<path fill="#00ACC1" d="M18,6v12H6V6h4v2H8v8h8V8h-3v2.28c0.05,0.03,0.09,0.06,0.14,0.09c0.051,0.04,0.101,0.08,0.15,0.11
	c0.11,0.09,0.2,0.19,0.29,0.3C13.84,11.11,14,11.54,14,12c0,1.1-0.9,2-2,2c-1.1,0-2-0.9-2-2c0-0.74,0.4-1.37,1-1.72V8
	c0-1.1,0.9-2,2-2H18z"/>
<path fill="none" d="M18,6v12H6V6h4v2H8v8h8V8h-3v2.28c0.05,0.03,0.09,0.06,0.14,0.09c0.051,0.04,0.101,0.08,0.15,0.11
	c0.11,0.09,0.2,0.19,0.29,0.3C13.84,11.11,14,11.54,14,12c0,1.1-0.9,2-2,2c-1.1,0-2-0.9-2-2c0-0.74,0.4-1.37,1-1.72V8
	c0-1.1,0.9-2,2-2H18z"/>
<path fill="none" d="M18,6v12H6V6h4v2H8v8h8V8h-3v2.28c0.05,0.03,0.09,0.06,0.14,0.09c0.051,0.04,0.101,0.08,0.15,0.11
	c0.11,0.09,0.2,0.19,0.29,0.3C13.84,11.11,14,11.54,14,12c0,1.1-0.9,2-2,2c-1.1,0-2-0.9-2-2c0-0.74,0.4-1.37,1-1.72V8
	c0-1.1,0.9-2,2-2H18z"/>
<path fill="none" d="M0,0v24h24V0H0z M4,4h16v16H4V4z"/>
<path fill="#26C6DA" d="M14,12c0,1.1-0.9,2-2,2c-1.1,0-2-0.9-2-2c0-0.74,0.4-1.37,1-1.72v-0.02c0.29-0.16,0.62-0.24,0.97-0.24
	c0.37,0,0.72,0.1,1.03,0.26c0.05,0.03,0.09,0.06,0.14,0.09c0.051,0.04,0.101,0.08,0.15,0.11c0.11,0.09,0.2,0.19,0.29,0.3
	C13.84,11.11,14,11.54,14,12z"/>
</svg>
