<?xml version="1.0" encoding="utf-8"?>
<!-- Generator: Adobe Illustrator 16.0.0, SVG Export Plug-In . SVG Version: 6.00 Build 0)  -->
<!DOCTYPE svg PUBLIC "-//W3C//DTD SVG 1.1//EN" "http://www.w3.org/Graphics/SVG/1.1/DTD/svg11.dtd">
<svg version="1.1" id="Capa_1" xmlns="http://www.w3.org/2000/svg" xmlns:xlink="http://www.w3.org/1999/xlink" x="0px" y="0px"
	 width="24px" height="24px" viewBox="0 0 24 24" enable-background="new 0 0 24 24" xml:space="preserve">
<g>
	<g>
		<path fill="#CFD8DC" d="M18.956,4.867v14.331c0,0.982-0.786,1.789-1.747,1.789H6.731c-0.961,0-1.747-0.807-1.747-1.789L5.002,8.45
			l5.222-5.374h6.984C18.17,3.076,18.956,3.882,18.956,4.867z"/>
		<path opacity="0.2" fill="#90A4AE" enable-background="new    " d="M18.956,4.867v14.331c0,0.982-0.786,1.789-1.747,1.789H11.97
			V3.076h5.239C18.17,3.076,18.956,3.882,18.956,4.867z"/>
	</g>
	<rect x="14.64" y="16.512" fill="#B0BEC5" width="1.746" height="1.792"/>
	<rect x="7.654" y="16.512" fill="#B0BEC5" width="1.746" height="1.792"/>
	<rect x="11.147" y="14.72" fill="#B0BEC5" width="1.746" height="3.584"/>
	<rect x="14.64" y="11.138" fill="#B0BEC5" width="1.746" height="3.582"/>
	<rect x="11.147" y="11.138" fill="#B0BEC5" width="1.746" height="1.792"/>
	<rect x="7.654" y="11.138" fill="#B0BEC5" width="1.746" height="3.582"/>
</g>
<path fill="none" d="M0,0h24v24H0V0z"/>
<rect x="10.852" y="0.897" transform="matrix(-0.7071 0.7071 -0.7071 -0.7071 29.4275 14.3102)" fill="#9FA8DA" width="1.796" height="24.706"/>
</svg>
