<?xml version="1.0" encoding="utf-8"?>
<!-- Generator: Adobe Illustrator 16.0.0, SVG Export Plug-In . SVG Version: 6.00 Build 0)  -->
<!DOCTYPE svg PUBLIC "-//W3C//DTD SVG 1.1//EN" "http://www.w3.org/Graphics/SVG/1.1/DTD/svg11.dtd">
<svg version="1.1" id="Capa_1" xmlns="http://www.w3.org/2000/svg" xmlns:xlink="http://www.w3.org/1999/xlink" x="0px" y="0px"
	 width="24px" height="24px" viewBox="0 0 24 24" enable-background="new 0 0 24 24" xml:space="preserve">
<path fill="#CFD8DC" d="M19.967,7.972v12c0,1.1-0.9,2-2,2H5.958c-1.1,0-1.99-0.9-1.99-2l0.01-16c0-1.1,0.89-2,1.99-2h8L19.967,7.972
	z"/>
<path fill="none" d="M0,0h24v24H0V0z"/>
<polygon fill="#455A64" points="16,16 13,16 13,19 11,19 11,16 8,16 8,14 11,14 11,11 13,11 13,14 16,14 "/>
<polygon opacity="0.5" fill="#90A4AE" enable-background="new    " points="19.967,8.067 19.967,9.067 13.967,9.067 13.967,2.067 
	"/>
</svg>
