<?xml version="1.0" encoding="utf-8"?>
<!-- Generator: Adobe Illustrator 16.0.0, SVG Export Plug-In . SVG Version: 6.00 Build 0)  -->
<!DOCTYPE svg PUBLIC "-//W3C//DTD SVG 1.1//EN" "http://www.w3.org/Graphics/SVG/1.1/DTD/svg11.dtd">
<svg version="1.1" id="Capa_1" xmlns="http://www.w3.org/2000/svg" xmlns:xlink="http://www.w3.org/1999/xlink" x="0px" y="0px"
	 width="24px" height="24px" viewBox="0 0 24 24" enable-background="new 0 0 24 24" xml:space="preserve">
<g id="Capa_1_1_">
	<path fill="none" d="M0,0h24v24H0V0z"/>
	<path fill="#66BB6A" d="M6.58,3.58L5.15,2.15C2.76,3.97,1.18,6.8,1.03,10h2C3.18,7.35,4.54,5.03,6.58,3.58z"/>
	<path fill="#66BB6A" d="M19.971,10h2c-0.15-3.2-1.729-6.03-4.131-7.85l-1.43,1.43C18.46,5.03,19.82,7.35,19.971,10z"/>
	<path fill="#DCE775" d="M20,18v1H3v-1l2-2v-5.5c0-3.07,2.13-5.64,5-6.32V3.5C10,2.67,10.67,2,11.5,2S13,2.67,13,3.5v0.68
		c0.24,0.06,0.471,0.12,0.689,0.21C16.21,5.29,18,7.68,18,10.5V16L20,18z"/>
	<path fill="#DCE775" d="M11.5,22c0.14,0,0.27-0.01,0.4-0.04c0.65-0.13,1.19-0.58,1.44-1.18c0.1-0.24,0.16-0.5,0.16-0.78h-4
		C9.5,21.1,10.4,22,11.5,22z"/>
	<polygon fill="#FDD835" points="20,18 20,19 3,19 3,18 4.96,16.04 18.04,16.04 	"/>
</g>
<g id="Capa_2">
	<path fill="#FDD835" d="M13.689,4.39C13.62,4.38,13.54,4.36,13.45,4.33c-1.6-0.5-2.93-0.28-3.45-0.16V3.5C10,2.67,10.67,2,11.5,2
		S13,2.67,13,3.5v0.68C13.24,4.24,13.471,4.3,13.689,4.39z"/>
</g>
</svg>
