<?xml version="1.0" encoding="utf-8"?>
<!-- Generator: Adobe Illustrator 16.0.0, SVG Export Plug-In . SVG Version: 6.00 Build 0)  -->
<!DOCTYPE svg PUBLIC "-//W3C//DTD SVG 1.1//EN" "http://www.w3.org/Graphics/SVG/1.1/DTD/svg11.dtd">
<svg version="1.1" id="Capa_1" xmlns="http://www.w3.org/2000/svg" xmlns:xlink="http://www.w3.org/1999/xlink" x="0px" y="0px"
	 width="24px" height="24px" viewBox="0 0 24 24" enable-background="new 0 0 24 24" xml:space="preserve">
<g>
	<path fill="#DCE775" d="M18,16v-5.5c0-0.18-0.01-0.35-0.02-0.52C17.97,9.89,17.96,9.8,17.95,9.72c-0.01-0.12-0.03-0.23-0.05-0.35
		C17.88,9.23,17.85,9.09,17.81,8.95c-0.029-0.12-0.06-0.24-0.1-0.36c-0.03-0.11-0.06-0.21-0.11-0.32c-0.04-0.14-0.1-0.28-0.159-0.41
		c-0.061-0.13-0.12-0.26-0.19-0.39c-0.05-0.1-0.11-0.21-0.17-0.31c-0.01-0.02-0.03-0.04-0.04-0.06c-0.07-0.12-0.15-0.24-0.24-0.36
		c-0.38-0.53-0.84-1.01-1.37-1.41c-0.25-0.19-0.52-0.37-0.8-0.52C14.62,4.8,14.6,4.8,14.59,4.79C14.3,4.64,14,4.5,13.69,4.39
		c-0.07-0.03-0.141-0.05-0.21-0.07c-0.07-0.03-0.15-0.05-0.221-0.07C13.18,4.22,13.09,4.2,13,4.18V3.5C13,2.67,12.33,2,11.5,2
		S10,2.67,10,3.5v0.68C7.13,4.86,5,7.43,5,10.5V16l-2,2v1h17v-1L18,16z M16,17H7v-6.5C7,8.01,9.01,6,11.5,6S16,8.01,16,10.5V17z"/>
	<path fill="#DCE775" d="M11.5,22c0.141,0,0.27-0.01,0.4-0.04c0.649-0.13,1.189-0.58,1.439-1.18c0.1-0.24,0.16-0.5,0.16-0.78h-4
		C9.5,21.1,10.4,22,11.5,22z"/>
	<polygon fill="#FDD835" points="20,18 20,19 3,19 3,18 4.96,16.04 7,16.04 7,17 16,17 16,16.04 18.04,16.04 	"/>
	<path fill="#FDD835" d="M13.69,4.39c-0.07-0.01-0.15-0.03-0.24-0.06C11.85,3.83,10.52,4.05,10,4.17V3.5C10,2.67,10.67,2,11.5,2
		S13,2.67,13,3.5v0.68C13.24,4.24,13.47,4.3,13.69,4.39z"/>
</g>
<path fill="none" d="M0,0v24h24V0H0z M7,10.5C7,8.01,9.01,6,11.5,6S16,8.01,16,10.5V17H7V10.5z"/>
<path fill="none" d="M0,0v24h24V0H0z M7,10.5C7,8.01,9.01,6,11.5,6S16,8.01,16,10.5V17H7V10.5z"/>
</svg>
