<?xml version="1.0" encoding="utf-8"?>
<!-- Generator: Adobe Illustrator 16.0.0, SVG Export Plug-In . SVG Version: 6.00 Build 0)  -->
<!DOCTYPE svg PUBLIC "-//W3C//DTD SVG 1.1//EN" "http://www.w3.org/Graphics/SVG/1.1/DTD/svg11.dtd">
<svg version="1.1" id="Capa_1" xmlns="http://www.w3.org/2000/svg" xmlns:xlink="http://www.w3.org/1999/xlink" x="0px" y="0px"
	 width="24px" height="24px" viewBox="0 0 24 24" enable-background="new 0 0 24 24" xml:space="preserve">
<path fill="#546E7A" enable-background="new    " d="M18.04,16v-5.5c0-2.7-1.64-5.01-4-5.98c-0.1-0.05-0.2-0.09-0.31-0.13
	c-0.221-0.09-0.45-0.15-0.69-0.21V3.5c0-0.74-0.53-1.35-1.24-1.47C11.72,2.01,11.63,2,11.54,2c-0.1,0-0.2,0.01-0.3,0.03
	c-0.69,0.14-1.2,0.74-1.2,1.47v0.68c-2.87,0.68-5,3.25-5,6.32V16l-2,2v1h17v-1L18.04,16z M9,13.2l2.8-3.4H9V8h5v1.8l-2.8,3.4H14V15
	H9V13.2z"/>
<path fill="#546E7A" enable-background="new    " d="M11.541,22c0.141,0,0.27-0.01,0.4-0.04c0.649-0.13,1.189-0.58,1.439-1.18
	c0.1-0.24,0.16-0.5,0.16-0.78h-4C9.541,21.1,10.441,22,11.541,22z"/>
<polygon fill="#90A4AE" enable-background="new    " points="20.041,18 20.041,19 3.041,19 3.041,18 5.001,16.04 18.081,16.04 "/>
<path fill="#90A4AE" enable-background="new    " d="M13.731,4.39c-0.07-0.01-0.15-0.03-0.24-0.06c-1.601-0.5-2.931-0.28-3.45-0.16
	V3.5c0-0.83,0.67-1.5,1.5-1.5s1.5,0.67,1.5,1.5v0.68C13.281,4.24,13.511,4.3,13.731,4.39z"/>
<path fill="none" d="M0,0v24h24V0H0z M14,9.8l-2.8,3.4H14V15H9v-1.8l2.8-3.4H9V8h5V9.8z"/>
</svg>
