<?xml version="1.0" encoding="utf-8"?>
<!-- Generator: Adobe Illustrator 16.0.0, SVG Export Plug-In . SVG Version: 6.00 Build 0)  -->
<!DOCTYPE svg PUBLIC "-//W3C//DTD SVG 1.1//EN" "http://www.w3.org/Graphics/SVG/1.1/DTD/svg11.dtd">
<svg version="1.1" id="Capa_1" xmlns="http://www.w3.org/2000/svg" xmlns:xlink="http://www.w3.org/1999/xlink" x="0px" y="0px"
	 width="24px" height="24px" viewBox="0 0 24 24" enable-background="new 0 0 24 24" xml:space="preserve">
<g>
	<path fill="#DCE775" d="M20,18v1H3v-1l2-2v-5.5c0-3.07,2.13-5.64,5-6.32V3.5C10,2.67,10.67,2,11.5,2S13,2.67,13,3.5v0.68
		c0.24,0.06,0.47,0.12,0.69,0.21C16.21,5.29,18,7.68,18,10.5V16L20,18z"/>
	<path fill="#DCE775" d="M11.5,22c0.141,0,0.27-0.01,0.4-0.04c0.649-0.13,1.189-0.58,1.439-1.18c0.1-0.24,0.16-0.5,0.16-0.78h-4
		C9.5,21.1,10.4,22,11.5,22z"/>
	<polygon fill="#FDD835" points="20,18 20,19 3,19 3,18 4.96,16.04 18.04,16.04 	"/>
	<path fill="#FDD835" d="M13.69,4.39c-0.07-0.01-0.15-0.03-0.24-0.06C11.85,3.83,10.52,4.05,10,4.17V3.5C10,2.67,10.67,2,11.5,2
		S13,2.67,13,3.5v0.68C13.24,4.24,13.47,4.3,13.69,4.39z"/>
</g>
<path fill="none" d="M0,0h24v24H0V0z"/>
<path fill="none" d="M0,0h24v24H0V0z"/>
</svg>
