<?xml version="1.0" encoding="utf-8"?>
<!-- Generator: Adobe Illustrator 16.0.0, SVG Export Plug-In . SVG Version: 6.00 Build 0)  -->
<!DOCTYPE svg PUBLIC "-//W3C//DTD SVG 1.1//EN" "http://www.w3.org/Graphics/SVG/1.1/DTD/svg11.dtd">
<svg version="1.1" id="Capa_1" xmlns="http://www.w3.org/2000/svg" xmlns:xlink="http://www.w3.org/1999/xlink" x="0px" y="0px"
	 width="24px" height="24px" viewBox="0 0 24 24" enable-background="new 0 0 24 24" xml:space="preserve">
<path fill="none" d="M0,0h24v24H0V0z"/>
<path fill="#90A4AE" d="M19,4H5C3.89,4,3,4.9,3,6v12c0,1.1,0.89,2,2,2h14c1.1,0,2-0.9,2-2V6C21,4.9,20.11,4,19,4z M19,18H5V8h14V18z
	"/>
<path fill="#C5CAE9" d="M21,7.97V18c0,1.1-0.9,2-2,2H5c-1.11,0-2-0.9-2-2V7.97H21z"/>
<polygon fill="#42A5F5" points="12,10 8,14 11,14 11,20 13,20 13,14 16,14 "/>
</svg>
