<?xml version="1.0" encoding="utf-8"?>
<!-- Generator: Adobe Illustrator 16.0.0, SVG Export Plug-In . SVG Version: 6.00 Build 0)  -->
<!DOCTYPE svg PUBLIC "-//W3C//DTD SVG 1.1//EN" "http://www.w3.org/Graphics/SVG/1.1/DTD/svg11.dtd">
<svg version="1.1" id="Capa_1" xmlns="http://www.w3.org/2000/svg" xmlns:xlink="http://www.w3.org/1999/xlink" x="0px" y="0px"
	 width="24px" height="24px" viewBox="0 0 24 24" enable-background="new 0 0 24 24" xml:space="preserve">
<polygon fill="#455A64" points="10,9 14,9 14,6 17,6 12,1 7,6 10,6 "/>
<polygon fill="#90A4AE" points="9,10 6,10 6,7 1,12 6,17 6,14 9,14 "/>
<polygon fill="#90A4AE" points="23,12 18,7 18,10 15,10 15,14 18,14 18,17 "/>
<polygon fill="#455A64" points="14,15 10,15 10,18 7,18 12,23 17,18 14,18 "/>
<path fill="none" d="M0,0h24v24H0V0z"/>
</svg>
