<?xml version="1.0" encoding="utf-8"?>
<!-- Generator: Adobe Illustrator 16.0.0, SVG Export Plug-In . SVG Version: 6.00 Build 0)  -->
<!DOCTYPE svg PUBLIC "-//W3C//DTD SVG 1.1//EN" "http://www.w3.org/Graphics/SVG/1.1/DTD/svg11.dtd">
<svg version="1.1" id="Capa_1" xmlns="http://www.w3.org/2000/svg" xmlns:xlink="http://www.w3.org/1999/xlink" x="0px" y="0px"
	 width="24px" height="24px" viewBox="0 0 24 24" enable-background="new 0 0 24 24" xml:space="preserve">
<path opacity="0.6" fill="#F57C00" enable-background="new    " d="M2.979,19c0,1.1,0.89,2,2,2h14c1.1,0,2-0.9,2-2V5
	c0-1.1-0.9-2-2-2h-14c-1.11,0-2,0.9-2,2S2.979,17.167,2.979,19z M4.979,5h14v14h-14V5z"/>
<polygon fill="#FB8C00" points="13.979,3 13.979,5 17.568,5 7.739,14.83 9.149,16.24 18.979,6.41 18.979,10 20.979,10 20.979,3 "/>
<path fill="none" d="M0,0h24v24H0V0z"/>
</svg>
