<?xml version="1.0" encoding="utf-8"?>
<!-- Generator: Adobe Illustrator 16.0.0, SVG Export Plug-In . SVG Version: 6.00 Build 0)  -->
<!DOCTYPE svg PUBLIC "-//W3C//DTD SVG 1.1//EN" "http://www.w3.org/Graphics/SVG/1.1/DTD/svg11.dtd">
<svg version="1.1" id="Capa_1" xmlns="http://www.w3.org/2000/svg" xmlns:xlink="http://www.w3.org/1999/xlink" x="0px" y="0px"
	 width="24px" height="24px" viewBox="0 0 24 24" enable-background="new 0 0 24 24" xml:space="preserve">
<path fill="none" d="M0,0h24v24H0V0z"/>
<path fill="#7986CB" d="M11,8c-1.66,0-3,1.34-3,3s1.34,3,3,3s3-1.34,3-3S12.66,8,11,8z M19,3H5C3.9,3,3,3.9,3,5v14c0,1.1,0.9,2,2,2
	h14c1.1,0,2-0.9,2-2V5C21,3.9,20.1,3,19,3z M17.59,19l-3.83-3.83C12.96,15.69,12.02,16,11,16c-2.76,0-5-2.24-5-5s2.24-5,5-5
	s5,2.24,5,5c0,1.02-0.31,1.96-0.83,2.75L19,17.59L17.59,19z M11,8c-1.66,0-3,1.34-3,3s1.34,3,3,3s3-1.34,3-3S12.66,8,11,8z M11,8
	c-1.66,0-3,1.34-3,3s1.34,3,3,3s3-1.34,3-3S12.66,8,11,8z"/>
<path fill="#E0E0E0" d="M15.17,13.75C15.69,12.96,16,12.02,16,11c0-2.76-2.24-5-5-5s-5,2.24-5,5s2.24,5,5,5
	c1.02,0,1.96-0.31,2.76-0.83L17.59,19L19,17.59L15.17,13.75z M11,14c-1.66,0-3-1.34-3-3s1.34-3,3-3s3,1.34,3,3S12.66,14,11,14z"/>
</svg>
