<?xml version="1.0" encoding="utf-8"?>
<!-- Generator: Adobe Illustrator 16.0.0, SVG Export Plug-In . SVG Version: 6.00 Build 0)  -->
<!DOCTYPE svg PUBLIC "-//W3C//DTD SVG 1.1//EN" "http://www.w3.org/Graphics/SVG/1.1/DTD/svg11.dtd">
<svg version="1.1" id="Capa_1" xmlns="http://www.w3.org/2000/svg" xmlns:xlink="http://www.w3.org/1999/xlink" x="0px" y="0px"
	 width="24px" height="24px" viewBox="0 0 24 24" enable-background="new 0 0 24 24" xml:space="preserve">
<path fill="#CFD8DC" d="M3,5v6h5L7,7l4,1V3H5C3.9,3,3,3.9,3,5z"/>
<path opacity="0.8" fill="#B0BEC5" d="M8,13H3v6c0,1.1,0.9,2,2,2h6v-5l-4,1L8,13z"/>
<path fill="#CFD8DC" d="M17,17l-4-1v5h6c1.1,0,2-0.9,2-2v-6h-5L17,17z"/>
<path opacity="0.8" fill="#B0BEC5" d="M19,3h-6v5l4-1l-1,4h5V5C21,3.9,20.1,3,19,3z"/>
</svg>
