<?xml version="1.0" encoding="utf-8"?>
<!-- Generator: Adobe Illustrator 16.0.0, SVG Export Plug-In . SVG Version: 6.00 Build 0)  -->
<!DOCTYPE svg PUBLIC "-//W3C//DTD SVG 1.1//EN" "http://www.w3.org/Graphics/SVG/1.1/DTD/svg11.dtd">
<svg version="1.1" id="Capa_1" xmlns="http://www.w3.org/2000/svg" xmlns:xlink="http://www.w3.org/1999/xlink" x="0px" y="0px"
	 width="24px" height="24px" viewBox="0 0 24 24" enable-background="new 0 0 24 24" xml:space="preserve">
<path fill="#26A69A" d="M19.939,21.12c-1.1-2.94-1.64-6.03-1.64-9.12s0.55-6.18,1.64-9.12C19.98,2.77,20,2.66,20,2.57
	C20,2.23,19.77,2,19.37,2H4.63C4.23,2,4,2.23,4,2.57c0,0.1,0.02,0.2,0.06,0.31C5.16,5.82,5.71,8.91,5.71,12s-0.55,6.18-1.64,9.12
	C4.02,21.23,4,21.34,4,21.43C4,21.76,4.23,22,4.63,22h14.75c0.39,0,0.63-0.24,0.63-0.57C20,21.33,19.98,21.23,19.939,21.12z
	 M6.54,20c0.77-2.6,1.16-5.28,1.16-8S7.31,6.6,6.54,4h10.91c-0.771,2.6-1.16,5.28-1.16,8s0.39,5.4,1.16,8H6.54z"/>
<path fill="none" d="M0,0h24v24H0V0z"/>
</svg>
