<?xml version="1.0" encoding="utf-8"?>
<!-- Generator: Adobe Illustrator 16.0.0, SVG Export Plug-In . SVG Version: 6.00 Build 0)  -->
<!DOCTYPE svg PUBLIC "-//W3C//DTD SVG 1.1//EN" "http://www.w3.org/Graphics/SVG/1.1/DTD/svg11.dtd">
<svg version="1.1" id="Capa_1" xmlns="http://www.w3.org/2000/svg" xmlns:xlink="http://www.w3.org/1999/xlink" x="0px" y="0px"
	 width="24px" height="24px" viewBox="0 0 24 24" enable-background="new 0 0 24 24" xml:space="preserve">
<path fill="#26A69A" d="M20,6.54v10.91c-2.6-0.771-5.279-1.16-8-1.16c-2.72,0-5.4,0.39-8,1.16V6.54C6.6,7.31,9.28,7.7,12,7.7
	C14.721,7.71,17.4,7.32,20,6.54 M21.43,4c-0.1,0-0.199,0.02-0.31,0.06C18.18,5.16,15.09,5.7,12,5.7S5.82,5.15,2.88,4.06
	C2.77,4.02,2.66,4,2.57,4C2.23,4,2,4.23,2,4.63v14.75C2,19.77,2.23,20,2.57,20c0.1,0,0.2-0.02,0.31-0.061
	c2.94-1.1,6.03-1.64,9.12-1.64s6.18,0.55,9.12,1.64C21.23,19.98,21.33,20,21.43,20c0.33,0,0.57-0.23,0.57-0.63V4.63
	C22,4.23,21.76,4,21.43,4z"/>
<path fill="none" d="M0,0h24v24H0V0z"/>
</svg>
