<?xml version="1.0" encoding="utf-8"?>
<!-- Generator: Adobe Illustrator 16.0.0, SVG Export Plug-In . SVG Version: 6.00 Build 0)  -->
<!DOCTYPE svg PUBLIC "-//W3C//DTD SVG 1.1//EN" "http://www.w3.org/Graphics/SVG/1.1/DTD/svg11.dtd">
<svg version="1.1" id="Capa_1" xmlns="http://www.w3.org/2000/svg" xmlns:xlink="http://www.w3.org/1999/xlink" x="0px" y="0px"
	 width="24px" height="24px" viewBox="0 0 24 24" enable-background="new 0 0 24 24" xml:space="preserve">
<path fill="none" d="M0,0h24v24H0V0z"/>
<path fill="#26A69A" d="M12,6c2.45,0,4.71,0.2,7.29,0.64C19.76,8.42,20,10.22,20,12s-0.24,3.58-0.71,5.359
	C16.71,17.8,14.45,18,12,18s-4.71-0.2-7.29-0.641C4.24,15.58,4,13.78,4,12s0.24-3.58,0.71-5.36C7.29,6.2,9.55,6,12,6 M12,4
	C9.27,4,6.78,4.24,4.05,4.72L3.12,4.88l-0.25,0.9C2.29,7.85,2,9.93,2,12c0,2.07,0.29,4.15,0.87,6.22l0.25,0.89l0.93,0.16
	C6.78,19.76,9.27,20,12,20c2.73,0,5.221-0.24,7.95-0.72l0.93-0.16l0.25-0.89C21.71,16.15,22,14.07,22,12c0-2.07-0.29-4.15-0.87-6.22
	l-0.25-0.89l-0.93-0.16C17.221,4.24,14.73,4,12,4z"/>
</svg>
