<?xml version="1.0" encoding="utf-8"?>
<!-- Generator: Adobe Illustrator 16.0.0, SVG Export Plug-In . SVG Version: 6.00 Build 0)  -->
<!DOCTYPE svg PUBLIC "-//W3C//DTD SVG 1.1//EN" "http://www.w3.org/Graphics/SVG/1.1/DTD/svg11.dtd">
<svg version="1.1" id="Capa_1" xmlns="http://www.w3.org/2000/svg" xmlns:xlink="http://www.w3.org/1999/xlink" x="0px" y="0px"
	 width="24px" height="24px" viewBox="0 0 24 24" enable-background="new 0 0 24 24" xml:space="preserve">
<path fill="none" d="M0,0h24v24H0V0z"/>
<path fill="#90A4AE" d="M20,4h-3.17L15,2H9L7.17,4H4C2.9,4,2,4.9,2,6v12c0,1.1,0.9,2,2,2h16c1.1,0,2-0.9,2-2V6C22,4.9,21.1,4,20,4z"
	/>
<circle fill="#1A237E" cx="12.008" cy="11.977" r="4.961"/>
<path fill="#F06292" d="M12,7c1.63,0,3.061,0.79,3.98,2H12c-1.66,0-3,1.34-3,3c0,0.35,0.07,0.689,0.18,1H7.1
	C7.04,12.68,7,12.34,7,12C7,9.24,9.24,7,12,7z"/>
<path fill="#4FC3F7" d="M12,17c-1.63,0-3.06-0.79-3.98-2H12c1.66,0,3-1.34,3-3c0-0.35-0.07-0.69-0.18-1h2.08
	c0.07,0.32,0.1,0.66,0.1,1C17,14.76,14.76,17,12,17z"/>
</svg>
