<?xml version="1.0" encoding="utf-8"?>
<!-- Generator: Adobe Illustrator 16.0.0, SVG Export Plug-In . SVG Version: 6.00 Build 0)  -->
<!DOCTYPE svg PUBLIC "-//W3C//DTD SVG 1.1//EN" "http://www.w3.org/Graphics/SVG/1.1/DTD/svg11.dtd">
<svg version="1.1" id="Capa_1" xmlns="http://www.w3.org/2000/svg" xmlns:xlink="http://www.w3.org/1999/xlink" x="0px" y="0px"
	 width="24px" height="24px" viewBox="0 0 24 24" enable-background="new 0 0 24 24" xml:space="preserve">
<path fill="none" d="M0,0h24v24H0V0z"/>
<path fill="#29B6F6" d="M12,2h-0.08C6.44,2.04,2,6.51,2,12s4.44,9.96,9.92,10H12c5.52,0,10-4.48,10-10C22,6.48,17.52,2,12,2z M11,16
	H9V8h2V16z M15,16h-2V8h2V16z"/>
<path opacity="0.4" fill="#039BE5" d="M22,12c0,5.52-4.48,10-10,10h-0.08V2H12C17.52,2,22,6.48,22,12z"/>
<rect x="9" y="8" fill="#CFD8DC" width="2" height="8"/>
<rect x="13" y="8" fill="#CFD8DC" width="2" height="8"/>
</svg>
