<?xml version="1.0" encoding="utf-8"?>
<!-- Generator: Adobe Illustrator 16.0.0, SVG Export Plug-In . SVG Version: 6.00 Build 0)  -->
<!DOCTYPE svg PUBLIC "-//W3C//DTD SVG 1.1//EN" "http://www.w3.org/Graphics/SVG/1.1/DTD/svg11.dtd">
<svg version="1.1" id="Capa_1" xmlns="http://www.w3.org/2000/svg" xmlns:xlink="http://www.w3.org/1999/xlink" x="0px" y="0px"
	 width="24px" height="24px" viewBox="0 0 24 24" enable-background="new 0 0 24 24" xml:space="preserve">
<path fill="none" d="M0,0h24v24H0V0z"/>
<path fill="#78909C" d="M16,11c1.66,0,2.99-1.34,2.99-3S17.66,5,16,5s-3,1.34-3,3S14.34,11,16,11z"/>
<path fill="#78909C" d="M15.995,13.017c-2.33,0-7,1.17-7,3.5v2.5h14v-2.5C22.995,14.187,18.325,13.017,15.995,13.017z"/>
<path fill="#90A4AE" d="M8,11c1.66,0,2.99-1.34,2.99-3S9.66,5,8,5S5,6.34,5,8S6.34,11,8,11z"/>
<path fill="#90A4AE" d="M8,13.017c-2.33,0-7,1.17-7,3.5v2.5h14v-2.5C15,14.187,10.33,13.017,8,13.017z"/>
</svg>
