<?xml version="1.0" encoding="utf-8"?>
<!-- Generator: Adobe Illustrator 16.0.0, SVG Export Plug-In . SVG Version: 6.00 Build 0)  -->
<!DOCTYPE svg PUBLIC "-//W3C//DTD SVG 1.1//EN" "http://www.w3.org/Graphics/SVG/1.1/DTD/svg11.dtd">
<svg version="1.1" id="Capa_1" xmlns="http://www.w3.org/2000/svg" xmlns:xlink="http://www.w3.org/1999/xlink" x="0px" y="0px"
	 width="24px" height="24px" viewBox="0 0 24 24" enable-background="new 0 0 24 24" xml:space="preserve">
<path fill="none" d="M0,0h24v24H0V0z"/>
<path fill="#1976D2" d="M16.5,13c-1.2,0-3.07,0.34-4.5,1c-1.43-0.67-3.3-1-4.5-1C5.33,13,1,14.08,1,16.25V19h22v-2.75
	C23,14.08,18.67,13,16.5,13z M12.5,17.5h-10v-1.25c0-0.54,2.56-1.75,5-1.75s5,1.21,5,1.75V17.5z M21.5,17.5H14v-1.25
	c0-0.06,0-0.12-0.02-0.17c0.01-0.05,0-0.09-0.011-0.12c-0.01-0.05-0.04-0.14-0.08-0.26c-0.029-0.09-0.069-0.181-0.13-0.271
	c-0.029-0.05-0.06-0.1-0.09-0.149c-0.01-0.021-0.03-0.05-0.04-0.07c-0.05-0.06-0.1-0.12-0.149-0.18c0.88-0.3,1.96-0.53,3.02-0.53
	c2.44,0,5,1.21,5,1.75V17.5z"/>
<path fill="#1976D2" d="M7.5,5C5.57,5,4,6.57,4,8.5S5.57,12,7.5,12S11,10.43,11,8.5S9.43,5,7.5,5z M7.5,10.5c-1.1,0-2-0.9-2-2
	s0.9-2,2-2s2,0.9,2,2S8.6,10.5,7.5,10.5z"/>
<path d="M16.5,5C14.57,5,13,6.57,13,8.5s1.57,3.5,3.5,3.5S20,10.43,20,8.5S18.43,5,16.5,5z M16.5,10.5c-1.1,0-2-0.9-2-2s0.9-2,2-2
	s2,0.9,2,2S17.6,10.5,16.5,10.5z"/>
<path fill="#00BCD4" d="M16.5,5C14.57,5,13,6.57,13,8.5s1.57,3.5,3.5,3.5S20,10.43,20,8.5S18.43,5,16.5,5z M16.5,10.5
	c-1.1,0-2-0.9-2-2s0.9-2,2-2s2,0.9,2,2S17.6,10.5,16.5,10.5z"/>
<path fill="#00BCD4" d="M23,16.25V19h-9.03l0.011-2.92C14,16.13,14,16.19,14,16.25v1.25h7.5v-1.25c0-0.54-2.56-1.75-5-1.75
	c-1.06,0-2.14,0.23-3.02,0.53C13.19,14.68,12.72,14.29,12,14c1.43-0.66,3.3-1,4.5-1C18.67,13,23,14.08,23,16.25z"/>
</svg>
