<?xml version="1.0" encoding="utf-8"?>
<!-- Generator: Adobe Illustrator 16.0.0, SVG Export Plug-In . SVG Version: 6.00 Build 0)  -->
<!DOCTYPE svg PUBLIC "-//W3C//DTD SVG 1.1//EN" "http://www.w3.org/Graphics/SVG/1.1/DTD/svg11.dtd">
<svg version="1.1" id="Capa_1" xmlns="http://www.w3.org/2000/svg" xmlns:xlink="http://www.w3.org/1999/xlink" x="0px" y="0px"
	 width="24px" height="24px" viewBox="0 0 24 24" enable-background="new 0 0 24 24" xml:space="preserve">
<g>
	<path fill="#D7CCC8" d="M3.007,8.001l-0.008,11c0,1.101,0.892,2,2,2h14c1.101,0,2-0.899,2-2v-11H3.007z"/>
	<path fill="#C2185B" d="M20.999,5.001c0-1.1-0.899-2-2-2h-14c-1.108,0-1.99,0.9-1.99,2l-0.002,3h17.992V5.001z"/>
	<path fill="#A1887F" d="M7.999,5.001h-2v-4h2V5.001z M17.999,1.001h-2v4h2V1.001z"/>
</g>
<circle fill="#039BE5" cx="12.043" cy="11.188" r="2.438"/>
<path fill="#0288D1" d="M16.918,18.501h-9.75v-0.813c0-1.625,3.25-2.519,4.875-2.519s4.875,0.894,4.875,2.519V18.501z"/>
<path fill="none" d="M0,0h24v24H0V0z"/>
</svg>
