<?xml version="1.0" encoding="utf-8"?>
<!-- Generator: Adobe Illustrator 16.0.0, SVG Export Plug-In . SVG Version: 6.00 Build 0)  -->
<!DOCTYPE svg PUBLIC "-//W3C//DTD SVG 1.1//EN" "http://www.w3.org/Graphics/SVG/1.1/DTD/svg11.dtd">
<svg version="1.1" id="Capa_1" xmlns="http://www.w3.org/2000/svg" xmlns:xlink="http://www.w3.org/1999/xlink" x="0px" y="0px"
	 width="24px" height="24px" viewBox="0 0 24 24" enable-background="new 0 0 24 24" xml:space="preserve">
<path fill="#29B6F6" d="M24,7.25l-4.811,5.92l-1.569,1.92L12,22l-5.57-6.85l-1.52-1.87L0,7.23C3.15,4.85,6.95,3,12,3
	S20.85,4.87,24,7.25z"/>
<path fill="none" d="M0,0h24v24H0V0z"/>
<path opacity="0.2" fill="#81D4FA" enable-background="new    " d="M17.62,15.09L12,22l-5.57-6.85c0.73-2.4,2.96-4.15,5.6-4.15
	C14.65,11,16.87,12.72,17.62,15.09z"/>
<rect x="11" y="10" fill="#CFD8DC" width="2" height="6"/>
<rect x="11" y="6" fill="#CFD8DC" width="2" height="2"/>
</svg>
