<?xml version="1.0" encoding="utf-8"?>
<!-- Generator: Adobe Illustrator 16.0.0, SVG Export Plug-In . SVG Version: 6.00 Build 0)  -->
<!DOCTYPE svg PUBLIC "-//W3C//DTD SVG 1.1//EN" "http://www.w3.org/Graphics/SVG/1.1/DTD/svg11.dtd">
<svg version="1.1" id="Capa_1" xmlns="http://www.w3.org/2000/svg" xmlns:xlink="http://www.w3.org/1999/xlink" x="0px" y="0px"
	 width="24px" height="24px" viewBox="0 0 24 24" enable-background="new 0 0 24 24" xml:space="preserve">
<g>
	<g id="Capa_1_1_">
		<path fill="#78909C" d="M23.795,20.288c0.097,0.078,0.122,0.214,0.061,0.324l-1.006,1.741c-0.061,0.112-0.192,0.157-0.308,0.112
			l-1.253-0.504c-0.262,0.195-0.544,0.366-0.851,0.492l-0.192,1.335C20.231,23.909,20.125,24,20,24h-2.015
			c-0.125,0-0.23-0.091-0.246-0.211l-0.19-1.335c-0.308-0.126-0.59-0.292-0.852-0.492l-1.253,0.504c-0.11,0.04-0.248,0-0.308-0.112
			l-1.007-1.741c-0.061-0.11-0.034-0.246,0.061-0.324l1.063-0.828c-0.021-0.162-0.035-0.329-0.035-0.494
			c0-0.167,0.014-0.332,0.035-0.493l-1.063-0.831c-0.095-0.075-0.126-0.211-0.061-0.321l1.007-1.743
			c0.06-0.11,0.191-0.155,0.308-0.11l1.253,0.504c0.262-0.196,0.544-0.368,0.852-0.494l0.19-1.333
			c0.016-0.122,0.121-0.213,0.246-0.213H20c0.125,0,0.231,0.091,0.246,0.213l0.191,1.333c0.308,0.126,0.59,0.292,0.851,0.494
			l1.254-0.504c0.109-0.039,0.247,0,0.308,0.11l1.006,1.743c0.062,0.11,0.035,0.246-0.061,0.321l-1.062,0.831
			c0.021,0.161,0.034,0.322,0.034,0.493s-0.014,0.332-0.034,0.494L23.795,20.288z"/>
		<path fill="#90A4AE" d="M18.992,13.931V24h-1.007c-0.125,0-0.23-0.091-0.246-0.211l-0.19-1.335
			c-0.308-0.126-0.59-0.292-0.852-0.492l-1.253,0.504c-0.11,0.04-0.248,0-0.308-0.112l-1.007-1.741
			c-0.061-0.11-0.034-0.246,0.061-0.324l1.063-0.828c-0.021-0.162-0.035-0.329-0.035-0.494c0-0.167,0.014-0.332,0.035-0.493
			l-1.063-0.831c-0.095-0.075-0.126-0.211-0.061-0.321l1.007-1.743c0.06-0.11,0.191-0.155,0.308-0.11l1.253,0.504
			c0.262-0.196,0.544-0.368,0.852-0.494l0.19-1.333c0.016-0.122,0.121-0.213,0.246-0.213H18.992z"/>
		<circle fill="#546E7A" cx="18.984" cy="18.958" r="2.241"/>
		<path fill="#FFFFFF" d="M18.992,20.728c-0.971,0-1.76-0.79-1.76-1.762s0.789-1.763,1.76-1.763c0.973,0,1.763,0.791,1.763,1.763
			S19.965,20.728,18.992,20.728z"/>
	</g>
	<g id="Capa_2">
	</g>
</g>
<path fill="none" d="M0,0h24v24H0V0z"/>
<path fill="#90A4AE" d="M18.99,11.5c0.34,0,0.67,0.03,1,0.07L20,0L0,20h11.56c-0.04-0.33-0.07-0.66-0.07-1
	C11.49,14.859,14.85,11.5,18.99,11.5z"/>
</svg>
