<?xml version="1.0" encoding="utf-8"?>
<!-- Generator: Adobe Illustrator 16.0.0, SVG Export Plug-In . SVG Version: 6.00 Build 0)  -->
<!DOCTYPE svg PUBLIC "-//W3C//DTD SVG 1.1//EN" "http://www.w3.org/Graphics/SVG/1.1/DTD/svg11.dtd">
<svg version="1.1" id="Capa_1" xmlns="http://www.w3.org/2000/svg" xmlns:xlink="http://www.w3.org/1999/xlink" x="0px" y="0px"
	 width="24px" height="24px" viewBox="0 0 24 24" enable-background="new 0 0 24 24" xml:space="preserve">
<path fill="#1E88E5" d="M9.958,7.4c1.16,0,2.1,0.94,2.1,2.1s-0.939,2.1-2.1,2.1s-2.1-0.94-2.1-2.1S8.798,7.4,9.958,7.4"/>
<path fill="#1E88E5" d="M9.958,16.4c2.971,0,6.1,1.459,6.1,2.1v1.1h-12.2v-1.1C3.858,17.859,6.988,16.4,9.958,16.4"/>
<circle fill="#1E88E5" cx="9.958" cy="9.5" r="4"/>
<path fill="#1E88E5" d="M9.958,14.5c-2.67,0-8,1.34-8,4v3h16v-3C17.959,15.84,12.629,14.5,9.958,14.5z"/>
<path fill="none" d="M0,0h24v24H0V0z"/>
<path fill="#FFA726" d="M22.792,6.333v4c0,0.55-0.45,1-1,1h-5c-0.55,0-1-0.45-1-1v-4c0-0.55,0.45-1,1-1h5
	C22.342,5.333,22.792,5.783,22.792,6.333z"/>
<path fill="#FFCC80" d="M21.792,4.833v0.5h-0.8v-0.5c0-0.94-0.76-1.7-1.7-1.7s-1.7,0.76-1.7,1.7v0.5h-0.8v-0.5
	c0-1.38,1.12-2.5,2.5-2.5S21.792,3.453,21.792,4.833z"/>
</svg>
