<?xml version="1.0" encoding="utf-8"?>
<!-- Generator: Adobe Illustrator 16.0.0, SVG Export Plug-In . SVG Version: 6.00 Build 0)  -->
<!DOCTYPE svg PUBLIC "-//W3C//DTD SVG 1.1//EN" "http://www.w3.org/Graphics/SVG/1.1/DTD/svg11.dtd">
<svg version="1.1" xmlns="http://www.w3.org/2000/svg" xmlns:xlink="http://www.w3.org/1999/xlink" x="0px" y="0px" width="24px"
	 height="24px" viewBox="0 0 24 24" enable-background="new 0 0 24 24" xml:space="preserve">
<g id="Capa_2">
	<rect x="5.203" y="11.281" fill="#90A4AE" width="14.281" height="9.719"/>
</g>
<g id="Capa_1">
	<path fill="none" d="M0,0h24v24H0V0z"/>
	<path fill="#607D8B" d="M20,5h-3.17L15,3H9L7.17,5H4C2.9,5,2,5.9,2,7v12c0,1.1,0.9,2,2,2h7v-2.09C8.17,18.43,6,15.97,6,13h2
		c0,2.21,1.79,4,4,4s4-1.79,4-4h2c0,2.97-2.17,5.43-5,5.91V21h7c1.1,0,2-0.9,2-2V7C22,5.9,21.1,5,20,5z"/>
	<path fill="#1565C0" d="M14,13c0,1.1-0.9,2-2,2c-1.1,0-2-0.9-2-2V9c0-1.1,0.9-2,2-2c1.1,0,2,0.9,2,2V13z"/>
	<path fill="none" d="M17.708,2.416h24v24h-24V2.416z"/>
</g>
</svg>
