<?xml version="1.0" encoding="utf-8"?>
<!-- Generator: Adobe Illustrator 16.0.0, SVG Export Plug-In . SVG Version: 6.00 Build 0)  -->
<!DOCTYPE svg PUBLIC "-//W3C//DTD SVG 1.1//EN" "http://www.w3.org/Graphics/SVG/1.1/DTD/svg11.dtd">
<svg version="1.1" id="Capa_1" xmlns="http://www.w3.org/2000/svg" xmlns:xlink="http://www.w3.org/1999/xlink" x="0px" y="0px"
	 width="24px" height="24px" viewBox="0 0 24 24" enable-background="new 0 0 24 24" xml:space="preserve">
<g>
	<path fill="#78909C" d="M20.96,16.536v3.5c0,0.55-0.45,1-1,1c-9.391,0-17-7.609-17-17c0-0.55,0.45-1,1-1h3.5c0.55,0,1,0.45,1,1
		c0,1.25,0.2,2.45,0.57,3.57c0.109,0.35,0.029,0.74-0.25,1l-2.2,2.21c0.271,0.52,0.569,1.04,0.92,1.56
		c0.21,0.32,0.44,0.63,0.681,0.94c0.129,0.159,0.25,0.3,0.369,0.45c0.29,0.34,0.59,0.658,0.9,0.959
		c0.22,0.211,0.449,0.42,0.689,0.631c0.12,0.109,0.24,0.22,0.37,0.31c0.131,0.101,0.25,0.2,0.381,0.3
		c0.131,0.11,0.26,0.2,0.399,0.29c0.142,0.101,0.278,0.19,0.42,0.29c0.278,0.2,0.58,0.381,0.88,0.54
		c0.189,0.11,0.391,0.22,0.58,0.32l2.2-2.2c0.278-0.27,0.67-0.35,1.021-0.24c1.119,0.37,2.319,0.57,3.569,0.57
		C20.51,15.536,20.96,15.986,20.96,16.536z"/>
	<g id="Capa_2">
		<path fill="#455A64" d="M20.96,19.716v0.32c0,0.55-0.45,1-1,1c-9.391,0-17-7.609-17-17c0-0.55,0.45-1,1-1h0.689l0.011,0.06
			c0,0-0.13,3.77,1.92,7.72c0.271,0.52,0.569,1.04,0.92,1.56c0.21,0.32,0.44,0.63,0.681,0.94c0.129,0.159,0.25,0.3,0.369,0.45
			c0.29,0.34,0.59,0.658,0.9,0.959c0.22,0.211,0.449,0.42,0.689,0.631c0.12,0.1,0.24,0.199,0.37,0.31
			c0.131,0.101,0.25,0.2,0.381,0.3c0.131,0.103,0.271,0.19,0.399,0.29c0.142,0.101,0.278,0.19,0.42,0.29
			c0.278,0.182,0.58,0.37,0.88,0.54c0.189,0.11,0.391,0.22,0.58,0.32c2.05,1.069,4.602,1.87,7.762,2.21L20.96,19.716z"/>
	</g>
</g>
<path fill="none" d="M0,0h24v24H0V0z"/>
<polygon fill="#FFF176" points="12,3 12,13 15,10 21,10 21,3 "/>
</svg>
