<?xml version="1.0" encoding="utf-8"?>
<!-- Generator: Adobe Illustrator 16.0.0, SVG Export Plug-In . SVG Version: 6.00 Build 0)  -->
<!DOCTYPE svg PUBLIC "-//W3C//DTD SVG 1.1//EN" "http://www.w3.org/Graphics/SVG/1.1/DTD/svg11.dtd">
<svg version="1.1" id="Capa_1" xmlns="http://www.w3.org/2000/svg" xmlns:xlink="http://www.w3.org/1999/xlink" x="0px" y="0px"
	 width="24px" height="24px" viewBox="0 0 24 24" enable-background="new 0 0 24 24" xml:space="preserve">
<circle fill="#1976D2" cx="12" cy="8" r="4"/>
<path fill="#1565C0" d="M12,13c-2.67,0-8,1.34-8,4v3h16v-3C20,14.34,14.67,13,12,13z"/>
<path fill="#FFFFFF" d="M12,5.9c1.16,0,2.1,0.94,2.1,2.1s-0.938,2.1-2.1,2.1S9.9,9.16,9.9,8S10.84,5.9,12,5.9"/>
<path fill="#FFFFFF" d="M12,14.9c2.971,0,6.1,1.459,6.1,2.1v1.1H5.9V17C5.9,16.359,9.03,14.9,12,14.9"/>
<path fill="none" d="M0,0h24v24H0V0z"/>
</svg>
