<?xml version="1.0" encoding="utf-8"?>
<!-- Generator: Adobe Illustrator 16.0.0, SVG Export Plug-In . SVG Version: 6.00 Build 0)  -->
<!DOCTYPE svg PUBLIC "-//W3C//DTD SVG 1.1//EN" "http://www.w3.org/Graphics/SVG/1.1/DTD/svg11.dtd">
<svg version="1.1" id="Capa_1" xmlns="http://www.w3.org/2000/svg" xmlns:xlink="http://www.w3.org/1999/xlink" x="0px" y="0px"
	 width="24px" height="24px" viewBox="0 0 24 24" enable-background="new 0 0 24 24" xml:space="preserve">
<path fill="none" d="M0,0h24v24H0V0z"/>
<circle fill="#1976D2" cx="15" cy="8.13" r="4"/>
<polygon fill="#8BC34A" points="6,10 6,7 4,7 4,10 1,10 1,12 4,12 4,15 6,15 6,12 9,12 9,10 "/>
<path fill="#1565C0" d="M23,18v2H7v-2c0-2.66,5.33-4,8-4S23,15.34,23,18z"/>
<path fill="none" d="M15,12.13v-8c2.21,0,4,1.79,4,4S17.21,12.13,15,12.13z"/>
<path fill="none" d="M23,18v2h-8v-6C17.67,14,23,15.34,23,18z"/>
<polygon fill="none" points="39,-2 39,22 29.88,22 29.88,0.08 15,0.08 15,-2 "/>
</svg>
