<?xml version="1.0" encoding="utf-8"?>
<!-- Generator: Adobe Illustrator 16.0.0, SVG Export Plug-In . SVG Version: 6.00 Build 0)  -->
<!DOCTYPE svg PUBLIC "-//W3C//DTD SVG 1.1//EN" "http://www.w3.org/Graphics/SVG/1.1/DTD/svg11.dtd">
<svg version="1.1" xmlns="http://www.w3.org/2000/svg" xmlns:xlink="http://www.w3.org/1999/xlink" x="0px" y="0px" width="24px"
	 height="24px" viewBox="0 0 24 24" enable-background="new 0 0 24 24" xml:space="preserve">
<g id="Capa_1">
	<path fill="none" d="M0,0h24v24H0V0z"/>
	<rect x="15" y="3" fill="#455A64" width="2" height="7"/>
	<path fill="#78909C" d="M21,16.5V20c0,0.55-0.45,1-1,1C10.61,21,3,13.39,3,4c0-0.55,0.45-1,1-1h3.5c0.55,0,1,0.45,1,1
		c0,1.25,0.2,2.45,0.57,3.57c0.11,0.35,0.03,0.74-0.25,1l-2.2,2.21c0.27,0.52,0.57,1.04,0.92,1.56c0.21,0.32,0.44,0.63,0.68,0.94
		c0.13,0.16,0.25,0.3,0.37,0.45c0.29,0.34,0.59,0.659,0.9,0.96c0.22,0.21,0.45,0.42,0.69,0.63c0.12,0.109,0.24,0.22,0.37,0.31
		c0.13,0.101,0.25,0.2,0.38,0.3c0.13,0.11,0.26,0.2,0.4,0.29c0.14,0.101,0.28,0.19,0.42,0.29c0.28,0.2,0.58,0.38,0.88,0.54
		c0.19,0.11,0.39,0.22,0.58,0.32l2.2-2.2c0.28-0.27,0.67-0.35,1.02-0.24c1.12,0.37,2.32,0.57,3.57,0.57C20.55,15.5,21,15.95,21,16.5
		z"/>
	<rect x="19" y="3" fill="#455A64" width="2" height="7"/>
</g>
<g id="Capa_2">
	<path fill="#455A64" d="M21,19.68V20c0,0.55-0.45,1-1,1C10.61,21,3,13.39,3,4c0-0.55,0.45-1,1-1h0.69L4.7,3.06
		c0,0-0.13,3.77,1.92,7.72c0.27,0.52,0.57,1.04,0.92,1.56c0.21,0.32,0.44,0.63,0.68,0.94c0.13,0.16,0.25,0.3,0.37,0.45
		c0.29,0.34,0.59,0.659,0.9,0.96c0.22,0.21,0.45,0.42,0.69,0.63c0.12,0.1,0.24,0.199,0.37,0.31c0.13,0.101,0.25,0.2,0.38,0.3
		c0.13,0.101,0.27,0.19,0.4,0.29c0.14,0.101,0.28,0.19,0.42,0.29c0.28,0.181,0.58,0.37,0.88,0.54c0.19,0.11,0.39,0.22,0.58,0.32
		c2.05,1.07,4.6,1.87,7.76,2.21L21,19.68z"/>
</g>
</svg>
