<?xml version="1.0" encoding="utf-8"?>
<!-- Generator: Adobe Illustrator 16.0.0, SVG Export Plug-In . SVG Version: 6.00 Build 0)  -->
<!DOCTYPE svg PUBLIC "-//W3C//DTD SVG 1.1//EN" "http://www.w3.org/Graphics/SVG/1.1/DTD/svg11.dtd">
<svg version="1.1" id="Capa_1" xmlns="http://www.w3.org/2000/svg" xmlns:xlink="http://www.w3.org/1999/xlink" x="0px" y="0px"
	 width="24px" height="24px" viewBox="0 0 24 24" enable-background="new 0 0 24 24" xml:space="preserve">
<path fill="none" d="M0,0h24v24H0V0z"/>
<path fill="#26C6DA" d="M4,6h18V4H4C2.9,4,2,4.9,2,6v11H0v3h14v-3H4V6z"/>
<path fill="#78909C" d="M23,8h-6c-0.55,0-1,0.45-1,1v10c0,0.55,0.45,1,1,1h6c0.55,0,1-0.45,1-1V9C24,8.45,23.55,8,23,8z"/>
<rect x="18" y="10" fill="#BBDEFB" width="4" height="7"/>
</svg>
