<?xml version="1.0" encoding="utf-8"?>
<!-- Generator: Adobe Illustrator 16.0.0, SVG Export Plug-In . SVG Version: 6.00 Build 0)  -->
<!DOCTYPE svg PUBLIC "-//W3C//DTD SVG 1.1//EN" "http://www.w3.org/Graphics/SVG/1.1/DTD/svg11.dtd">
<svg version="1.1" id="Capa_1" xmlns="http://www.w3.org/2000/svg" xmlns:xlink="http://www.w3.org/1999/xlink" x="0px" y="0px"
	 width="24px" height="24px" viewBox="0 0 24 24" enable-background="new 0 0 24 24" xml:space="preserve">
<path fill="none" d="M0,0h24v24H0V0z"/>
<path fill="#FFA726" d="M20,15.5c-1.25,0-2.45-0.2-3.57-0.57c-0.35-0.109-0.739-0.029-1.02,0.24l-2.2,2.2
	c-2.83-1.44-5.15-3.75-6.59-6.59l2.2-2.21c0.28-0.26,0.36-0.65,0.25-1C8.7,6.45,8.5,5.25,8.5,4c0-0.55-0.45-1-1-1H4
	C3.45,3,3,3.45,3,4c0,9.39,7.61,17,17,17c0.55,0,1-0.45,1-1v-3.5C21,15.95,20.55,15.5,20,15.5z M20,4V3.5C20,2.12,18.88,1,17.5,1
	S15,2.12,15,3.5V4c-0.55,0-1,0.45-1,1v4c0,0.55,0.45,1,1,1h5c0.55,0,1-0.45,1-1V5C21,4.45,20.55,4,20,4z M19.2,4h-3.4V3.5
	c0-0.94,0.76-1.7,1.7-1.7s1.7,0.76,1.7,1.7V4z"/>
<g>
	<path fill="#78909C" d="M21.014,16.484v3.5c0,0.55-0.45,1-1,1c-9.391,0-17-7.609-17-17c0-0.55,0.45-1,1-1h3.5c0.55,0,1,0.45,1,1
		c0,1.25,0.2,2.45,0.57,3.57c0.109,0.35,0.029,0.74-0.25,1l-2.2,2.21c0.271,0.52,0.569,1.04,0.92,1.56
		c0.21,0.319,0.44,0.63,0.681,0.94c0.129,0.158,0.25,0.3,0.369,0.449c0.29,0.34,0.59,0.658,0.9,0.959
		c0.22,0.211,0.449,0.42,0.689,0.631c0.12,0.109,0.24,0.221,0.37,0.311c0.131,0.102,0.25,0.2,0.381,0.3
		c0.131,0.11,0.26,0.2,0.399,0.29c0.142,0.102,0.278,0.189,0.42,0.29c0.278,0.2,0.58,0.381,0.88,0.54
		c0.188,0.109,0.392,0.221,0.58,0.32l2.2-2.2c0.277-0.271,0.67-0.351,1.021-0.24c1.118,0.37,2.318,0.57,3.568,0.57
		C20.563,15.484,21.014,15.935,21.014,16.484z"/>
	<g id="Capa_2">
		<path fill="#455A64" d="M21.014,19.664v0.32c0,0.55-0.45,1-1,1c-9.391,0-17-7.609-17-17c0-0.55,0.45-1,1-1h0.689l0.011,0.06
			c0,0-0.13,3.77,1.92,7.72c0.271,0.52,0.569,1.04,0.92,1.56c0.21,0.319,0.44,0.63,0.681,0.94c0.129,0.158,0.25,0.3,0.369,0.449
			c0.29,0.34,0.59,0.658,0.9,0.959c0.22,0.211,0.449,0.42,0.689,0.631c0.12,0.101,0.24,0.199,0.37,0.311
			c0.131,0.102,0.25,0.2,0.381,0.3c0.131,0.103,0.271,0.19,0.399,0.29c0.142,0.102,0.278,0.189,0.42,0.29
			c0.278,0.183,0.58,0.37,0.88,0.54c0.188,0.109,0.392,0.221,0.58,0.32c2.05,1.068,4.603,1.869,7.763,2.21L21.014,19.664z"/>
	</g>
</g>
<path fill="#FFCC80" d="M20,3.5V4h-0.8V3.5c0-0.94-0.76-1.7-1.7-1.7s-1.7,0.76-1.7,1.7V4H15V3.5C15,2.12,16.12,1,17.5,1
	S20,2.12,20,3.5z"/>
</svg>
