<?xml version="1.0" encoding="utf-8"?>
<!-- Generator: Adobe Illustrator 16.0.0, SVG Export Plug-In . SVG Version: 6.00 Build 0)  -->
<!DOCTYPE svg PUBLIC "-//W3C//DTD SVG 1.1//EN" "http://www.w3.org/Graphics/SVG/1.1/DTD/svg11.dtd">
<svg version="1.1" xmlns="http://www.w3.org/2000/svg" xmlns:xlink="http://www.w3.org/1999/xlink" x="0px" y="0px" width="24px"
	 height="24px" viewBox="0 0 24 24" enable-background="new 0 0 24 24" xml:space="preserve">
<g id="Capa_1">
	<g>
		<path fill="#B0BEC5" d="M4,5.966h18v-2H4c-1.1,0-2,0.9-2,2v11H0v3h14v-3H4V5.966z"/>
		<path fill="#CFD8DC" d="M23,7.966h-6c-0.55,0-1,0.45-1,1v10c0,0.55,0.45,1,1,1h6c0.55,0,1-0.45,1-1v-10
			C24,8.416,23.55,7.966,23,7.966z"/>
		<rect x="18" y="9.966" fill="#B0BEC5" width="4" height="7"/>
	</g>
	<path fill="none" d="M0,0h24v24H0V0z M0,0h24v24H0V0z"/>
	<path d="M37.753,0.608l-1.27,1.27l1.82,1.82c-0.291,0.34-0.471,0.78-0.471,1.26v11h-2v3h17.73l2.35,2.35l1.27-1.27L39.724,2.578
		L37.753,0.608z"/>
</g>
<g id="Capa_2">
	<polygon fill="#9FA8DA" points="0.66,2.953 1.957,1.625 21.394,21.078 20.112,22.375 	"/>
</g>
</svg>
