<?xml version="1.0" encoding="utf-8"?>
<!-- Generator: Adobe Illustrator 16.0.0, SVG Export Plug-In . SVG Version: 6.00 Build 0)  -->
<!DOCTYPE svg PUBLIC "-//W3C//DTD SVG 1.1//EN" "http://www.w3.org/Graphics/SVG/1.1/DTD/svg11.dtd">
<svg version="1.1" id="Capa_1" xmlns="http://www.w3.org/2000/svg" xmlns:xlink="http://www.w3.org/1999/xlink" x="0px" y="0px"
	 width="24px" height="24px" viewBox="0 0 24 24" enable-background="new 0 0 24 24" xml:space="preserve">
<path fill="#4CAF50" d="M8.193,3.3C8.384,3.492,8.49,3.738,8.49,3.994c0.043,1.075,0.223,2.525,0.57,3.565
	C9.182,7.904,9.096,8.314,8.82,8.59l-2.582,2.58C4.843,8.45,4.908,5.541,5,3.003h2.486C7.742,3.003,7.996,3.104,8.193,3.3z"/>
<path fill="#4CAF50" d="M20.699,15.807c-0.191-0.189-0.438-0.297-0.693-0.297c-1.074-0.043-2.525-0.223-3.564-0.57
	c-0.346-0.119-0.756-0.033-1.031,0.24l-2.581,2.582c2.722,1.396,5.631,1.33,8.168,1.238v-2.486
	C20.996,16.258,20.896,16.004,20.699,15.807z"/>
<path fill="#388E3C" d="M19.938,19C11.701,19,5,12.299,5,4.063V3.003H3.997c-0.248-0.007-0.502,0.092-0.7,0.29
	C3.1,3.492,3,3.808,3,4.063C3,13.416,10.583,21,19.938,21c0.254,0,0.572-0.1,0.771-0.297s0.297-0.453,0.289-0.699V19H19.938z"/>
<path fill="none" d="M0,0h24v24H0V0z"/>
<polygon fill="#FB8C00" points="18,11 23,6 18,1 18,4 14,4 14,8 18,8 "/>
</svg>
