<?xml version="1.0" encoding="utf-8"?>
<!-- Generator: Adobe Illustrator 16.0.0, SVG Export Plug-In . SVG Version: 6.00 Build 0)  -->
<!DOCTYPE svg PUBLIC "-//W3C//DTD SVG 1.1//EN" "http://www.w3.org/Graphics/SVG/1.1/DTD/svg11.dtd">
<svg version="1.1" xmlns="http://www.w3.org/2000/svg" xmlns:xlink="http://www.w3.org/1999/xlink" x="0px" y="0px" width="24px"
	 height="24px" viewBox="0 0 24 24" enable-background="new 0 0 24 24" xml:space="preserve">
<g id="Capa_1">
	<path fill="none" d="M0,0h24v24H0V0z"/>
	<polygon fill="#F44336" points="19,4 12,11 6.5,5.5 6.5,9 5,9 5,3 11,3 11,4.5 7.5,4.5 12,9 18,3 	"/>
	<polygon fill="#E57373" points="19,4 12,11 11.97,10.97 11.97,8.97 12,9 18,3 	"/>
</g>
<g id="Capa_2">
	<g>
		<path fill="#EF5350" d="M24,17.784c0,0.28-0.109,0.53-0.29,0.71l-2.479,2.479c-0.181,0.181-0.431,0.29-0.71,0.29
			c-0.271,0-0.521-0.1-0.7-0.279c-0.8-0.73-1.69-1.36-2.67-1.851c-0.33-0.16-0.561-0.51-0.561-0.899v-3.101
			c-1.449-0.47-3-0.72-4.6-0.72s-3.15,0.25-4.6,0.73v3.1c0,0.399-0.23,0.74-0.561,0.899c-0.97,0.49-1.87,1.11-2.66,1.851
			c-0.18,0.17-0.43,0.28-0.699,0.28c-0.28,0-0.53-0.11-0.711-0.29l-2.34-2.341l-0.14-0.14c-0.18-0.18-0.29-0.43-0.29-0.71
			s0.11-0.53,0.29-0.71c3.05-2.891,7.17-4.67,11.71-4.67s8.66,1.779,11.71,4.67C23.88,17.264,24,17.504,24,17.784z"/>
		<path fill="#E53935" d="M24,17.784c0,0.28-0.109,0.53-0.29,0.71l-0.47,0.47c-2.24-1.96-4.48-3.149-6.65-3.8
			c-3.38-1.02-6.569-0.73-9.199,0.01c-3.98,1.12-6.7,3.26-6.971,3.47l-0.14-0.14c-0.18-0.18-0.29-0.43-0.29-0.71
			s0.11-0.53,0.29-0.71c3.05-2.891,7.17-4.67,11.71-4.67s8.66,1.779,11.71,4.67C23.88,17.264,24,17.504,24,17.784z"/>
	</g>
</g>
</svg>
