<?xml version="1.0" encoding="utf-8"?>
<!-- Generator: Adobe Illustrator 16.0.0, SVG Export Plug-In . SVG Version: 6.00 Build 0)  -->
<!DOCTYPE svg PUBLIC "-//W3C//DTD SVG 1.1//EN" "http://www.w3.org/Graphics/SVG/1.1/DTD/svg11.dtd">
<svg version="1.1" id="Capa_1" xmlns="http://www.w3.org/2000/svg" xmlns:xlink="http://www.w3.org/1999/xlink" x="0px" y="0px"
	 width="24px" height="24px" viewBox="0 0 24 24" enable-background="new 0 0 24 24" xml:space="preserve">
<g>
	<path fill="#78909C" d="M21.005,16.488v3.5c0,0.55-0.45,1-1,1c-9.392,0-17-7.609-17-17c0-0.55,0.45-1,1-1h3.5c0.55,0,1,0.45,1,1
		c0,1.25,0.2,2.45,0.569,3.57c0.109,0.35,0.029,0.74-0.25,1l-2.199,2.21c0.271,0.52,0.568,1.04,0.92,1.56
		c0.21,0.318,0.439,0.63,0.682,0.939c0.129,0.158,0.25,0.301,0.368,0.449c0.29,0.34,0.591,0.658,0.9,0.959
		c0.22,0.211,0.448,0.42,0.688,0.631c0.12,0.109,0.24,0.221,0.37,0.312c0.132,0.102,0.25,0.2,0.382,0.3
		c0.131,0.109,0.26,0.2,0.398,0.29c0.143,0.103,0.277,0.188,0.42,0.29c0.277,0.2,0.58,0.381,0.88,0.54
		c0.188,0.108,0.393,0.221,0.58,0.319l2.2-2.199c0.276-0.271,0.67-0.352,1.021-0.24c1.118,0.37,2.318,0.57,3.568,0.57
		C20.555,15.488,21.005,15.938,21.005,16.488z"/>
	<g id="Capa_2">
		<path fill="#455A64" d="M21.005,19.668v0.32c0,0.55-0.45,1-1,1c-9.392,0-17-7.609-17-17c0-0.55,0.45-1,1-1h0.688l0.012,0.06
			c0,0-0.131,3.77,1.92,7.72c0.271,0.52,0.568,1.04,0.92,1.56c0.21,0.318,0.439,0.63,0.682,0.939
			c0.129,0.158,0.25,0.301,0.368,0.449c0.29,0.34,0.591,0.658,0.9,0.959c0.22,0.211,0.448,0.42,0.688,0.631
			c0.12,0.102,0.24,0.199,0.37,0.312c0.132,0.102,0.25,0.2,0.382,0.3c0.131,0.104,0.271,0.189,0.398,0.29
			c0.143,0.103,0.277,0.188,0.42,0.29c0.277,0.184,0.58,0.37,0.88,0.54c0.188,0.108,0.393,0.221,0.58,0.319
			c2.051,1.068,4.604,1.869,7.764,2.211L21.005,19.668z"/>
	</g>
</g>
<path fill="none" d="M0,0h24v24H0V0z"/>
</svg>
