<?xml version="1.0" encoding="utf-8"?>
<!-- Generator: Adobe Illustrator 16.0.0, SVG Export Plug-In . SVG Version: 6.00 Build 0)  -->
<!DOCTYPE svg PUBLIC "-//W3C//DTD SVG 1.1//EN" "http://www.w3.org/Graphics/SVG/1.1/DTD/svg11.dtd">
<svg version="1.1" id="Capa_1" xmlns="http://www.w3.org/2000/svg" xmlns:xlink="http://www.w3.org/1999/xlink" x="0px" y="0px"
	 width="24px" height="24px" viewBox="0 0 24 24" enable-background="new 0 0 24 24" xml:space="preserve">
<g>
	<path fill="#D32F2F" d="M12.021,1.917c-3.306,0-5.978,2.673-5.978,5.977c0,4.484,5.978,11.1,5.978,11.1s5.977-6.616,5.977-11.1
		C17.998,4.59,15.325,1.917,12.021,1.917z M7.751,7.895c0-2.348,1.921-4.269,4.27-4.269c2.355,0,4.268,1.921,4.268,4.269
		c0,2.442-2.492,6.164-4.268,8.434C10.218,14.032,7.751,10.354,7.751,7.895z"/>
	<path fill="#F44336" d="M12.021,3.626c-2.349,0-4.27,1.921-4.27,4.269c0,2.459,2.467,6.138,4.27,8.434
		c1.775-2.27,4.268-5.992,4.268-8.434C16.289,5.547,14.377,3.626,12.021,3.626z M12.021,10.029c-1.179,0-2.136-0.957-2.136-2.135
		s0.957-2.135,2.136-2.135c1.178,0,2.134,0.957,2.134,2.135C14.155,9.073,13.199,10.029,12.021,10.029z"/>
	<circle fill="#FFFFFF" cx="12.021" cy="7.895" r="2.135"/>
</g>
<rect x="5" y="20" fill="#D32F2F" width="14" height="2"/>
<path fill="none" d="M0,0h24v24H0V0z"/>
</svg>
