<?xml version="1.0" encoding="utf-8"?>
<!-- Generator: Adobe Illustrator 16.0.0, SVG Export Plug-In . SVG Version: 6.00 Build 0)  -->
<!DOCTYPE svg PUBLIC "-//W3C//DTD SVG 1.1//EN" "http://www.w3.org/Graphics/SVG/1.1/DTD/svg11.dtd">
<svg version="1.1" id="Capa_1" xmlns="http://www.w3.org/2000/svg" xmlns:xlink="http://www.w3.org/1999/xlink" x="0px" y="0px"
	 width="24px" height="24px" viewBox="0 0 24 24" enable-background="new 0 0 24 24" xml:space="preserve">
<path fill="none" d="M0,0h24v24H0V0z"/>
<rect x="2" y="10" fill="#90A4AE" width="11.083" height="2"/>
<rect x="2" y="6" fill="#78909C" width="12" height="2"/>
<polygon fill="#42A5F5" points="22,14 22,16 18,16 18,20 16,20 16,16 12,16 12,14 16,14 16,10 18,10 18,14 "/>
<rect x="2" y="14" fill="#78909C" width="8" height="2"/>
<polygon fill="#1E88E5" points="22,14 22,16 18,16 18,20 16.94,20 16.94,10 18,10 18,14 "/>
</svg>
