<?xml version="1.0" encoding="utf-8"?>
<!-- Generator: Adobe Illustrator 16.0.0, SVG Export Plug-In . SVG Version: 6.00 Build 0)  -->
<!DOCTYPE svg PUBLIC "-//W3C//DTD SVG 1.1//EN" "http://www.w3.org/Graphics/SVG/1.1/DTD/svg11.dtd">
<svg version="1.1" id="Capa_1" xmlns="http://www.w3.org/2000/svg" xmlns:xlink="http://www.w3.org/1999/xlink" x="0px" y="0px"
	 width="24px" height="24px" viewBox="0 0 24 24" enable-background="new 0 0 24 24" xml:space="preserve">
<path fill="#B0BEC5" d="M20.299,6.072c-0.109-0.021-0.221-0.03-0.34-0.03h-4v-2l-1.98-1.98l-0.02-0.02h-4l-2,2v2h-4
	c-0.12,0-0.23,0.01-0.34,0.03c-0.939,0.16-1.65,0.97-1.65,1.97l-0.01,5.94v5.06c0,1.11,0.891,2,2,2h16c1.109,0,2-0.89,2-2v-11
	C21.959,7.042,21.238,6.232,20.299,6.072z M9.958,6.042v-2h4v2H9.958z"/>
<path opacity="0.2" fill="#90A4AE" enable-background="new    " d="M21.959,8.042v5.94h-20l0.01-5.94c0-1,0.711-1.81,1.65-1.97
	h16.68C21.238,6.232,21.959,7.042,21.959,8.042z"/>
<polygon fill="#B0BEC5" points="15.959,4.042 15.959,6.042 13.959,6.042 13.959,4.042 9.958,4.042 9.958,6.042 7.958,6.042 
	7.958,4.042 9.958,2.042 13.959,2.042 13.979,2.062 "/>
<polygon opacity="0.2" fill="#90A4AE" enable-background="new    " points="13.979,2.062 13.979,4.042 9.918,4.042 9.918,2.082 
	9.958,2.042 13.959,2.042 "/>
<path fill="none" d="M0,0h24v24H0V0z"/>
<polygon fill="#29B6F6" points="17.09,10.91 10.5,17.5 7,14 8.41,12.59 10.5,14.68 15.68,9.5 "/>
</svg>
