<?xml version="1.0" encoding="utf-8"?>
<!-- Generator: Adobe Illustrator 16.0.0, SVG Export Plug-In . SVG Version: 6.00 Build 0)  -->
<!DOCTYPE svg PUBLIC "-//W3C//DTD SVG 1.1//EN" "http://www.w3.org/Graphics/SVG/1.1/DTD/svg11.dtd">
<svg version="1.1" id="Capa_1" xmlns="http://www.w3.org/2000/svg" xmlns:xlink="http://www.w3.org/1999/xlink" x="0px" y="0px"
	 width="24px" height="24px" viewBox="0 0 24 24" enable-background="new 0 0 24 24" xml:space="preserve">
<g>
	<path fill="#B0BEC5" d="M12,2C6.48,2,2,6.48,2,12c0,5.52,4.48,10,10,10c5.52,0,10-4.48,10-10C22,6.48,17.52,2,12,2z M12,20
		c-4.41,0-8-3.59-8-8s3.59-8,8-8s8,3.59,8,8S16.41,20,12,20z"/>
	<polygon opacity="0.3" fill="#90A4AE" enable-background="new    " points="16,12 12,15 12,9 	"/>
	<path opacity="0.3" fill="#90A4AE" enable-background="new    " d="M22,12c0,5.52-4.48,10-10,10v-2c4.41,0,8-3.59,8-8s-3.59-8-8-8
		V2C17.52,2,22,6.48,22,12z"/>
	<polygon fill="#039BE5" points="16,12 10,16.5 10,7.5 	"/>
</g>
<path fill="none" d="M0,0h24v24H0V0z"/>
</svg>
