<?xml version="1.0" encoding="utf-8"?>
<!-- Generator: Adobe Illustrator 16.0.0, SVG Export Plug-In . SVG Version: 6.00 Build 0)  -->
<!DOCTYPE svg PUBLIC "-//W3C//DTD SVG 1.1//EN" "http://www.w3.org/Graphics/SVG/1.1/DTD/svg11.dtd">
<svg version="1.1" xmlns="http://www.w3.org/2000/svg" xmlns:xlink="http://www.w3.org/1999/xlink" x="0px" y="0px" width="24px"
	 height="24px" viewBox="0 0 24 24" enable-background="new 0 0 24 24" xml:space="preserve">
<g id="Capa_1">
	<path fill="#B0BEC5" d="M12,1.999c-5.52,0-10,4.48-10,10c0,3.7,2.01,6.92,4.99,8.65l1-1.73C5.609,17.529,4,14.959,4,11.999
		c0-4.42,3.58-8,8-8s8,3.58,8,8c0,2.96-1.609,5.53-4,6.92l1,1.73c2.99-1.73,5-4.95,5-8.65C22,6.479,17.52,1.999,12,1.999z M12,5.999
		c-3.311,0-6,2.69-6,6c0,2.22,1.21,4.15,3,5.189l1-1.739c-1.189-0.7-2-1.97-2-3.45c0-2.21,1.79-4,4-4s4,1.79,4,4
		c0,1.48-0.811,2.75-2,3.45l1,1.739c1.79-1.039,3-2.972,3-5.189C18,8.689,15.311,5.999,12,5.999z M12.089,9.999
		c-1.09,0-1.989,0.89-2,1.98c0,0.01,0,0.01,0,0.02c0,1.1,0.899,2,2,2s2-0.9,2-2c0-0.01,0-0.01,0-0.02
		C14.079,10.889,13.18,9.999,12.089,9.999z"/>
</g>
<g id="Capa_2">
	<path fill="#9FA8DA" d="M1.984,3.797L3.25,2.5c0,0,17.766,17.672,17.734,17.719c-0.027,0.041-1.266,1.25-1.266,1.25L1.984,3.797z"
		/>
</g>
</svg>
