<?xml version="1.0" encoding="utf-8"?>
<!-- Generator: Adobe Illustrator 16.0.0, SVG Export Plug-In . SVG Version: 6.00 Build 0)  -->
<!DOCTYPE svg PUBLIC "-//W3C//DTD SVG 1.1//EN" "http://www.w3.org/Graphics/SVG/1.1/DTD/svg11.dtd">
<svg version="1.1" id="Capa_1" xmlns="http://www.w3.org/2000/svg" xmlns:xlink="http://www.w3.org/1999/xlink" x="0px" y="0px"
	 width="24px" height="24px" viewBox="0 0 24 24" enable-background="new 0 0 24 24" xml:space="preserve">
<path fill="#37474F" d="M19,3H5C3.9,3,3,3.9,3,5v14c0,1.1,0.9,2,2,2h14c1.1,0,2-0.9,2-2V5C21,3.9,20.1,3,19,3z"/>
<rect x="5" y="5" fill="#BBDEFB" width="14" height="14"/>
<path fill="none" d="M0,0h24v24H0V0z"/>
<circle fill="#039BE5" cx="12" cy="10" r="2.25"/>
<path fill="#0288D1" d="M16.5,16.25c0-1.5-3-2.25-4.5-2.25s-4.5,0.75-4.5,2.25V17h9V16.25z"/>
</svg>
