<?xml version="1.0" encoding="utf-8"?>
<!-- Generator: Adobe Illustrator 16.0.0, SVG Export Plug-In . SVG Version: 6.00 Build 0)  -->
<!DOCTYPE svg PUBLIC "-//W3C//DTD SVG 1.1//EN" "http://www.w3.org/Graphics/SVG/1.1/DTD/svg11.dtd">
<svg version="1.1" id="Capa_1" xmlns="http://www.w3.org/2000/svg" xmlns:xlink="http://www.w3.org/1999/xlink" x="0px" y="0px"
	 width="24px" height="24px" viewBox="0 0 24 24" enable-background="new 0 0 24 24" xml:space="preserve">
<g id="Capa_1_1_">
	<path fill="none" d="M24,0v9.05c0-0.05-2.03-3.43-2.03-3.43L17.98,2.28c0,0-3.921-0.3-3.961-0.23c0.07,0.06,0.141,0.13,0.19,0.2
		C18.67,3.25,22,7.24,22,12c0,3.18-1.48,6.01-3.8,7.84c0,0.09,0,0.141,0,0.141l0.359,0.05c0,0,1.471-0.12,1.58-0.37
		c0.11-0.25,2.45-4.19,2.45-4.19S24,9.09,24,9.05V24H0V13.42c0.02,0,3.38,8.1,3.38,8.1l7.65,0.98l-0.01-0.55
		C5.96,21.46,2,17.19,2,12c0-1.15,0.19-2.25,0.56-3.28L2.47,8.64c0,0-0.19,0.2-0.2,0.25C2.25,8.94,0.03,13.42,0,13.42V0H24z"/>
	<path fill="#01579B" d="M22,12c0,3.18-1.48,6.01-3.8,7.84C16.5,21.19,14.34,22,12,22c-0.33,0-0.66-0.02-0.98-0.05
		C5.96,21.46,2,17.19,2,12c0-1.15,0.19-2.25,0.56-3.28C3.91,4.81,7.63,2,12,2c0.76,0,1.5,0.09,2.21,0.25C18.67,3.25,22,7.24,22,12z"
		/>
	<path fill="#03A9F4" d="M11,19.93c-3.95-0.49-7-3.85-7-7.93c0-0.62,0.08-1.21,0.21-1.79L9,15v1c0,1.1,0.9,2,2,2V19.93z"/>
	<path fill="#03A9F4" d="M17.9,17.391C17.641,16.58,16.9,16,16,16h-1v-3c0-0.55-0.45-1-1-1H8v-2h2c0.55,0,1-0.45,1-1V7h2
		c1.1,0,2-0.9,2-2V4.59c2.93,1.19,5,4.06,5,7.41C20,14.08,19.2,15.97,17.9,17.391z"/>
</g>
<path fill="#03A9F4" d="M22,12c0,3.18-1.48,6.01-3.8,7.84c-0.01-0.439-0.061-1.79-0.29-2.47c-0.01-0.03-0.021-0.061-0.03-0.09
	c-0.31-0.761-1.1-2.19-1.1-2.19L14.77,7.53l0.82-2.5l-0.5-0.4L15,4.56c0,0,0.11-1.32-0.79-2.31C18.67,3.25,22,7.24,22,12z"/>
<path fill="#03A9F4" d="M11.02,21.95C5.96,21.46,2,17.19,2,12c0-1.15,0.19-2.25,0.56-3.28l1.64,1.45l4.83,4.78
	c0,0-0.02,0.069-0.03,0.2c-0.04,0.26-0.07,0.729,0.03,1.21c0.06,0.26,0.16,0.529,0.32,0.77c0.07,0.101,0.15,0.2,0.24,0.28
	c0.08,0.09,0.16,0.149,0.25,0.22c0.03,0.021,0.07,0.04,0.1,0.061c0.07,0.04,0.14,0.079,0.21,0.109c0.23,0.101,0.5,0.17,0.82,0.2
	h0.01L11,19.8v0.13L11.02,21.95z"/>
</svg>
