<?xml version="1.0" encoding="utf-8"?>
<!-- Generator: Adobe Illustrator 16.0.0, SVG Export Plug-In . SVG Version: 6.00 Build 0)  -->
<!DOCTYPE svg PUBLIC "-//W3C//DTD SVG 1.1//EN" "http://www.w3.org/Graphics/SVG/1.1/DTD/svg11.dtd">
<svg version="1.1" id="Capa_1" xmlns="http://www.w3.org/2000/svg" xmlns:xlink="http://www.w3.org/1999/xlink" x="0px" y="0px"
	 width="24px" height="24px" viewBox="0 0 24 24" enable-background="new 0 0 24 24" xml:space="preserve">
<g id="Capa_1_1_">
	<path fill="none" d="M0,0h24v24H0V0z"/>
	<rect x="3" y="6" fill="#546E7A" width="12" height="2"/>
	<rect x="3" y="10" fill="#78909C" width="10.66" height="2"/>
	<rect x="3" y="14" fill="#546E7A" width="8" height="2"/>
	<path fill="#0277BD" d="M22,6v2h-3v9c0,1.311-0.83,2.42-2,2.82C16.689,19.939,16.35,20,16,20c-1.66,0-3-1.34-3-3s1.34-3,3-3
		c0.35,0,0.689,0.07,1,0.18V6H22z"/>
	<path fill="#01579B" d="M22,6v2h-3v9c0,1.311-0.83,2.42-2,2.82V6H22z"/>
</g>
</svg>
