<?xml version="1.0" encoding="utf-8"?>
<!-- Generator: Adobe Illustrator 16.0.0, SVG Export Plug-In . SVG Version: 6.00 Build 0)  -->
<!DOCTYPE svg PUBLIC "-//W3C//DTD SVG 1.1//EN" "http://www.w3.org/Graphics/SVG/1.1/DTD/svg11.dtd">
<svg version="1.1" id="Capa_1" xmlns="http://www.w3.org/2000/svg" xmlns:xlink="http://www.w3.org/1999/xlink" x="0px" y="0px"
	 width="24px" height="24px" viewBox="0 0 24 24" enable-background="new 0 0 24 24" xml:space="preserve">
<path fill="none" d="M0,0h24v24H0V0z"/>
<path fill="#546E7A" d="M22,3H2C0.9,3,0,3.9,0,5v14c0,1.1,0.9,2,2,2h20c1.1,0,1.99-0.9,1.99-2L24,5C24,3.9,23.1,3,22,3z"/>
<path fill="#C8E6C9" d="M8,6c1.66,0,3,1.34,3,3s-1.34,3-3,3s-3-1.34-3-3S6.34,6,8,6z"/>
<path fill="#C8E6C9" d="M14,18H2v-1c0-2,4-3.1,6-3.1s6,1.1,6,3.1V18z"/>
<path fill="#66BB6A" d="M17.85,14h1.641L21,16l-1.99,1.99c-1.31-0.98-2.279-2.381-2.73-3.99C16.1,13.359,16,12.689,16,12
	c0-0.69,0.1-1.36,0.279-2c0.451-1.62,1.421-3.01,2.73-3.99L21,8l-1.51,2H17.85c-0.22,0.63-0.35,1.3-0.35,2S17.63,13.37,17.85,14z"/>
</svg>
