<?xml version="1.0" encoding="utf-8"?>
<!-- Generator: Adobe Illustrator 16.0.0, SVG Export Plug-In . SVG Version: 6.00 Build 0)  -->
<!DOCTYPE svg PUBLIC "-//W3C//DTD SVG 1.1//EN" "http://www.w3.org/Graphics/SVG/1.1/DTD/svg11.dtd">
<svg version="1.1" id="Capa_1" xmlns="http://www.w3.org/2000/svg" xmlns:xlink="http://www.w3.org/1999/xlink" x="0px" y="0px"
	 width="24px" height="24px" viewBox="0 0 24 24" enable-background="new 0 0 24 24" xml:space="preserve">
<path fill="#43A047" d="M12.153,6.797c-2.76,0-5,2.24-5,5s2.24,5,5,5c2.76,0,5-2.238,5-5C17.152,9.036,14.913,6.797,12.153,6.797z
	 M12.153,1.797c-5.521,0-10,4.48-10,10c0,5.52,4.479,10,10,10s10-4.479,10-10C22.152,6.276,17.674,1.797,12.153,1.797z
	 M12.153,19.797c-4.42,0-8-3.58-8-8s3.58-8,8-8c4.42,0,8,3.58,8,8S16.573,19.797,12.153,19.797z M12.153,6.797c-2.76,0-5,2.24-5,5
	s2.24,5,5,5c2.76,0,5-2.238,5-5C17.152,9.036,14.913,6.797,12.153,6.797z M12.153,6.797c-2.76,0-5,2.24-5,5s2.24,5,5,5
	c2.76,0,5-2.238,5-5C17.152,9.036,14.913,6.797,12.153,6.797z"/>
<circle fill="none" cx="12.153" cy="11.797" r="5"/>
<path fill="none" d="M0.153-0.203v24h24v-24H0.153z M12.153,19.797c-4.42,0-8-3.58-8-8s3.58-8,8-8c4.42,0,8,3.58,8,8
	S16.573,19.797,12.153,19.797z"/>
<circle fill="#388E3C" cx="12.153" cy="11.797" r="5"/>
<circle fill="#388E3C" cx="12.153" cy="11.797" r="4.177"/>
</svg>
