<?xml version="1.0" encoding="utf-8"?>
<!-- Generator: Adobe Illustrator 16.0.0, SVG Export Plug-In . SVG Version: 6.00 Build 0)  -->
<!DOCTYPE svg PUBLIC "-//W3C//DTD SVG 1.1//EN" "http://www.w3.org/Graphics/SVG/1.1/DTD/svg11.dtd">
<svg version="1.1" id="Capa_1" xmlns="http://www.w3.org/2000/svg" xmlns:xlink="http://www.w3.org/1999/xlink" x="0px" y="0px"
	 width="24px" height="24px" viewBox="0 0 24 24" enable-background="new 0 0 24 24" xml:space="preserve">
<path fill="#455A64" d="M22,8v12c0,1.1-0.891,2-2,2H4c-1.11,0-2-0.9-2-2V8c0-0.83,0.51-1.57,1.24-1.85L3.61,6l0.05-0.02L15.88,1
	l0.681,1.66L8.35,5.98L8.3,6H20C21.109,6,22,6.89,22,8z"/>
<path fill="#546E7A" d="M11.96,6v16H4c-1.11,0-2-0.9-2-2V8c0-0.83,0.51-1.57,1.24-1.85L3.61,6H11.96z"/>
<path fill="#CFD8DC" d="M10,17c0,1.66-1.34,3-3,3c-0.01,0-0.01,0-0.02,0C5.33,19.99,4,18.65,4,17s1.33-2.99,2.98-3
	c0.01,0,0.01,0,0.02,0C8.66,14,10,15.34,10,17z"/>
<polygon fill="#CFD8DC" points="20,12 18,12 18,10 16,10 16,12 4,12 4,8 20,8 "/>
<path fill="none" d="M0,0v24h24V0H0z M11.96,22.96H1.08V6h2.53L3.24,6.15C2.51,6.43,2,7.17,2,8v12c0,1.1,0.89,2,2,2h7.96V22.96z"/>
<rect x="16" y="10" fill="#E53935" width="2" height="2"/>
<polygon fill="#90A4AE" points="16.561,2.66 8.35,5.98 3.66,5.98 15.88,1 "/>
</svg>
