<?xml version="1.0" encoding="utf-8"?>
<!-- Generator: Adobe Illustrator 16.0.0, SVG Export Plug-In . SVG Version: 6.00 Build 0)  -->
<!DOCTYPE svg PUBLIC "-//W3C//DTD SVG 1.1//EN" "http://www.w3.org/Graphics/SVG/1.1/DTD/svg11.dtd">
<svg version="1.1" id="Capa_1" xmlns="http://www.w3.org/2000/svg" xmlns:xlink="http://www.w3.org/1999/xlink" x="0px" y="0px"
	 width="24px" height="24px" viewBox="0 0 24 24" enable-background="new 0 0 24 24" xml:space="preserve">
<path fill="#3F51B5" d="M11.25,4.828c0.109,0.109,3.828,3.844,3.828,3.844l-5.953,5.703l-0.922-0.047l-2.828-3.109l5.797-6.406"/>
<path fill="none" d="M0,0h24v24H0V0z M15.35,6.41l-1.77-1.77c-0.2-0.2-0.51-0.2-0.71,0L6,11.53V14h2.47l6.879-6.88
	C15.55,6.93,15.55,6.61,15.35,6.41z"/>
<path fill="#E57373" d="M11.672,5.297l3.016,3c0,0,1.688-1.297,1.641-1.281s0.031-2.406,0.031-2.406s-3.141-1.156-3.188-1.141
	S11.672,5.297,11.672,5.297z"/>
<path fill="#C5CAE9" d="M11.813,5.406c0,0,2.734,2.719,2.781,2.719s-0.453,0.453-0.453,0.453l-2.781-2.766L11.813,5.406z"/>
<polygon fill="#C5CAE9" points="5.75,11.281 8.719,14.25 5.5,14.672 "/>
<path fill="#FFE082" d="M20,2H4C2.9,2,2.01,2.9,2.01,4v6.91L2,22l4-4h14c1.1,0,2-0.9,2-2V4C22,2.9,21.1,2,20,2z M8.47,14H6v-2.47
	l0.62-0.62l6.26-6.26c0.2-0.2,0.51-0.2,0.71,0l1.771,1.77c0.199,0.2,0.199,0.51,0,0.71l-3.791,3.78L8.47,14z"/>
<path opacity="0.5" fill="#FFECB3" d="M22,4v6.91H11.57l3.791-3.78c0.199-0.2,0.199-0.51,0-0.71L13.59,4.65
	c-0.2-0.2-0.51-0.2-0.71,0l-6.26,6.26H2.01V4C2.01,2.9,2.9,2,4,2h16C21.1,2,22,2.9,22,4z"/>
<polygon fill="#E57373" points="18,14 8.47,14 10.5,11.984 18,12 "/>
</svg>
