<?xml version="1.0" encoding="utf-8"?>
<!-- Generator: Adobe Illustrator 16.0.0, SVG Export Plug-In . SVG Version: 6.00 Build 0)  -->
<!DOCTYPE svg PUBLIC "-//W3C//DTD SVG 1.1//EN" "http://www.w3.org/Graphics/SVG/1.1/DTD/svg11.dtd">
<svg version="1.1" id="Capa_1" xmlns="http://www.w3.org/2000/svg" xmlns:xlink="http://www.w3.org/1999/xlink" x="0px" y="0px"
	 width="24px" height="24px" viewBox="0 0 24 24" enable-background="new 0 0 24 24" xml:space="preserve">
<path fill="none" d="M0,0h24v24H0V0z"/>
<rect x="21" y="5" fill="#C8E6C9" width="2" height="14"/>
<rect x="17" y="5" fill="#C8E6C9" width="2" height="14"/>
<path fill="#546E7A" d="M14,5H2C1.45,5,1,5.45,1,6v12c0,0.55,0.45,1,1,1h12c0.55,0,1-0.45,1-1V6C15,5.45,14.55,5,14,5z"/>
<circle fill="#C8E6C9" cx="8" cy="10" r="2.25"/>
<path fill="#C8E6C9" d="M12.5,17h-9v-0.75c0-1.5,3-2.25,4.5-2.25s4.5,0.75,4.5,2.25V17z"/>
</svg>
