<?xml version="1.0" encoding="utf-8"?>
<!-- Generator: Adobe Illustrator 16.0.0, SVG Export Plug-In . SVG Version: 6.00 Build 0)  -->
<!DOCTYPE svg PUBLIC "-//W3C//DTD SVG 1.1//EN" "http://www.w3.org/Graphics/SVG/1.1/DTD/svg11.dtd">
<svg version="1.1" id="Capa_1" xmlns="http://www.w3.org/2000/svg" xmlns:xlink="http://www.w3.org/1999/xlink" x="0px" y="0px"
	 width="24px" height="24px" viewBox="0 0 24 24" enable-background="new 0 0 24 24" xml:space="preserve">
<polygon fill="#FFE0B2" points="21,2 21,22 19.5,20.5 18,22 16.5,20.5 15,22 13.5,20.5 12,22 10.5,20.5 9,22 7.5,20.5 6,22 
	4.5,20.5 3,22 3,2 4.5,3.5 6,2 7.5,3.5 9,2 10.5,3.5 12,2 13.5,3.5 15,2 16.5,3.5 18,2 19.5,3.5 "/>
<rect x="6" y="15" fill="#78909C" width="12" height="2"/>
<rect x="6" y="11" fill="#546E7A" width="12" height="2"/>
<rect x="6" y="7" fill="#78909C" width="12" height="2"/>
<path fill="none" d="M0,0h24v24H0V0z"/>
<polygon opacity="0.5" fill="#FFCC80" points="21,2 21,4.38 3,4.38 3,2 4.5,3.5 6,2 7.5,3.5 9,2 10.5,3.5 12,2 13.5,3.5 15,2 
	16.5,3.5 18,2 19.5,3.5 "/>
<polygon opacity="0.5" fill="#FFCC80" points="21,19.62 21,22 19.5,20.5 18,22 16.5,20.5 15,22 13.5,20.5 12,22 10.5,20.5 9,22 
	7.5,20.5 6,22 4.5,20.5 3,22 3,19.62 "/>
</svg>
