<?xml version="1.0" encoding="utf-8"?>
<!-- Generator: Adobe Illustrator 16.0.0, SVG Export Plug-In . SVG Version: 6.00 Build 0)  -->
<!DOCTYPE svg PUBLIC "-//W3C//DTD SVG 1.1//EN" "http://www.w3.org/Graphics/SVG/1.1/DTD/svg11.dtd">
<svg version="1.1" id="Capa_1" xmlns="http://www.w3.org/2000/svg" xmlns:xlink="http://www.w3.org/1999/xlink" x="0px" y="0px"
	 width="24px" height="24px" viewBox="0 0 24 24" enable-background="new 0 0 24 24" xml:space="preserve">
<path fill="#CFD8DC" d="M20,6h-2.18C17.93,5.69,18,5.35,18,5c0-1.66-1.34-3-3-3c-1.05,0-1.96,0.54-2.5,1.35l-0.32,0.42l-0.06,0.09
	L12,4.02l-0.5-0.68c-0.47-0.69-1.22-1.19-2.09-1.32C9.29,2.01,9.17,2,9.04,2C8.83,2,8.62,2.02,8.43,2.06
	c-0.1,0.02-0.2,0.05-0.3,0.08C7.94,2.19,7.76,2.27,7.58,2.36c-0.26,0.14-0.5,0.31-0.7,0.52C6.34,3.42,6,4.17,6,5
	c0,0.35,0.07,0.69,0.18,1H4C2.89,6,2.01,6.89,2.01,8L2,19c0,1.11,0.89,2,2,2h16c1.11,0,2-0.89,2-2V8C22,6.89,21.11,6,20,6z M15,4
	c0.55,0,1,0.45,1,1s-0.45,1-1,1s-1-0.45-1-1S14.45,4,15,4z M9,4c0.55,0,1,0.45,1,1S9.55,6,9,6S8,5.55,8,5S8.45,4,9,4z"/>
<rect x="4" y="17" fill="#CFD8DC" width="16" height="2"/>
<polygon fill="#CFD8DC" points="20,14 4,14 4,8 9.08,8 7,10.83 8.62,12 11,8.76 12,7.4 13,8.76 15.38,12 17,10.83 14.92,8 20,8 "/>
<path fill="none" d="M0,0h24v24H0V0z"/>
<rect x="1.979" y="13.979" fill="#66BB6A" width="19.989" height="3"/>
<rect x="10.472" y="5.487" fill="#66BB6A" width="3" height="15.45"/>
<path fill="#43A047" d="M14.98,1.98c-1.25,0-2.32,0.74-2.8,1.79c0,0.02-0.01,0.03-0.02,0.05v0.01l-0.04,0.03l-0.14,0.11L11.8,3.73
	c-0.43-0.92-1.33-1.58-2.39-1.71C9.29,2.01,9.17,2,9.04,2C8.83,2,8.62,2.02,8.43,2.06c-0.1,0.02-0.2,0.05-0.3,0.08
	C7.94,2.19,7.76,2.27,7.58,2.36c-0.26,0.14-0.5,0.31-0.7,0.52C6.32,3.42,5.98,4.17,5.98,5c0,0.35,0.06,0.69,0.18,1
	c0.42,1.17,1.55,2,2.88,2h0.04L7,10.83L8.62,12L12,7.4l3.38,4.6L17,10.83L14.92,8l-0.03-0.03c0.03,0.01,0.061,0.01,0.091,0.01
	C16.3,7.98,17.42,7.16,17.84,6c0.13-0.32,0.19-0.66,0.19-1.02C18.03,3.33,16.66,1.98,14.98,1.98z M9,6C8.45,6,8,5.55,8,5s0.45-1,1-1
	s1,0.45,1,1S9.55,6,9,6z M15,6c-0.55,0-1-0.45-1-1s0.45-1,1-1s1,0.45,1,1S15.55,6,15,6z"/>
</svg>
