<?xml version="1.0" encoding="utf-8"?>
<!-- Generator: Adobe Illustrator 16.0.0, SVG Export Plug-In . SVG Version: 6.00 Build 0)  -->
<!DOCTYPE svg PUBLIC "-//W3C//DTD SVG 1.1//EN" "http://www.w3.org/Graphics/SVG/1.1/DTD/svg11.dtd">
<svg version="1.1" id="Capa_1" xmlns="http://www.w3.org/2000/svg" xmlns:xlink="http://www.w3.org/1999/xlink" x="0px" y="0px"
	 width="24px" height="24px" viewBox="0 0 24 24" enable-background="new 0 0 24 24" xml:space="preserve">
<g id="Capa_1_1_">
	<path fill="#78909C" d="M20,4v7h-7l3.221-3.22C15.141,6.69,13.66,6,12,6c-3.31,0-6,2.69-6,6c0,3.311,2.69,6,6,6
		c2.609,0,4.83-1.67,5.65-4h2.08c-0.892,3.45-4,6-7.73,6c-4.42,0-7.99-3.58-7.99-8S7.58,4,12,4c2.21,0,4.2,0.9,5.65,2.35L20,4z"/>
	<path fill="none" d="M0,0h24v24H0V0z"/>
</g>
</svg>
