<?xml version="1.0" encoding="utf-8"?>
<!-- Generator: Adobe Illustrator 16.0.0, SVG Export Plug-In . SVG Version: 6.00 Build 0)  -->
<!DOCTYPE svg PUBLIC "-//W3C//DTD SVG 1.1//EN" "http://www.w3.org/Graphics/SVG/1.1/DTD/svg11.dtd">
<svg version="1.1" id="Capa_1" xmlns="http://www.w3.org/2000/svg" xmlns:xlink="http://www.w3.org/1999/xlink" x="0px" y="0px"
	 width="24px" height="24px" viewBox="0 0 24 24" enable-background="new 0 0 24 24" xml:space="preserve">
<path fill="none" d="M0,0h24v24H0V0z"/>
<polygon fill="#78909C" points="7,7 17,7 17,10 21,6 17,2 17,5 5,5 5,11 7,11 "/>
<polygon fill="#78909C" points="17,17 7,17 7,14 3,18 7,22 7,19 19,19 19,13 17,13 "/>
<polygon fill="#039BE5" points="13,15 13,9 12,9 10,10 10,11 11.5,11 11.5,15 "/>
</svg>
