<?xml version="1.0" encoding="utf-8"?>
<!-- Generator: Adobe Illustrator 16.0.0, SVG Export Plug-In . SVG Version: 6.00 Build 0)  -->
<!DOCTYPE svg PUBLIC "-//W3C//DTD SVG 1.1//EN" "http://www.w3.org/Graphics/SVG/1.1/DTD/svg11.dtd">
<svg version="1.1" id="Capa_1" xmlns="http://www.w3.org/2000/svg" xmlns:xlink="http://www.w3.org/1999/xlink" x="0px" y="0px"
	 width="24px" height="24px" viewBox="0 0 24 24" enable-background="new 0 0 24 24" xml:space="preserve">
<g id="Capa_1_1_">
	<path fill="none" d="M12,5V1L7,6l5,5V7c3.311,0,6,2.69,6,6c0,3.311-2.689,6-6,6c-3.31,0-6-2.689-6-6H4c0,4.42,3.58,8,8,8
		s8-3.58,8-8S16.42,5,12,5z"/>
	<path fill="#90A4AE" d="M20,13c0,4.42-3.58,8-8,8s-8-3.58-8-8h2c0,3.311,2.69,6,6,6c3.311,0,6-2.689,6-6c0-3.31-2.689-6-6-6v4L7,6
		l5-5v4C16.42,5,20,8.58,20,13z"/>
</g>
</svg>
