<?xml version="1.0" encoding="utf-8"?>
<!-- Generator: Adobe Illustrator 16.0.0, SVG Export Plug-In . SVG Version: 6.00 Build 0)  -->
<!DOCTYPE svg PUBLIC "-//W3C//DTD SVG 1.1//EN" "http://www.w3.org/Graphics/SVG/1.1/DTD/svg11.dtd">
<svg version="1.1" id="Capa_1" xmlns="http://www.w3.org/2000/svg" xmlns:xlink="http://www.w3.org/1999/xlink" x="0px" y="0px"
	 width="24px" height="24px" viewBox="0 0 24 24" enable-background="new 0 0 24 24" xml:space="preserve">
<path opacity="0.9" fill="#90A4AE" enable-background="new    " d="M9.174,14.424l3.357-2.321L3.91,3.5c-1.56,1.56-1.56,4.09,0,5.66
	L9.174,14.424z"/>
<path fill="none" d="M0,0h24v24H0V0z"/>
<path fill="#8D6E63" d="M20.29,19.88l-1.41,1.41L12,14.41l-0.58,0.58l-6.31,6.29L3.7,19.87l9.76-9.76c0.24,0.46,0.67,1.06,1.41,1.43
	L13.41,13L20.29,19.88z"/>
<polygon fill="#6D4C41" points="20.29,19.88 18.88,21.29 12.3,14.72 12,14.41 11.98,14.391 13.38,12.98 13.41,13 "/>
<path fill="#B0BEC5" d="M20.15,10.15c-0.42,0.42-0.881,0.76-1.351,1.03c-0.31,0.17-0.62,0.31-0.939,0.42
	c-0.04,0.01-0.07,0.02-0.101,0.03c-0.14,0.04-0.279,0.08-0.42,0.11c-0.87,0.19-1.729,0.12-2.45-0.21h-0.01v0.01h-0.01
	c-0.74-0.37-1.17-0.97-1.41-1.43V10.1c-0.06-0.13-0.11-0.25-0.14-0.35c-0.4-1.22-0.12-2.74,0.79-4.05c0.21-0.3,0.46-0.59,0.729-0.86
	c1.92-1.91,4.66-2.27,6.12-0.81C22.43,5.5,22.06,8.24,20.15,10.15z"/>
<polygon fill="#B0BEC5" points="14.88,11.53 14.89,11.53 14.88,11.54 "/>
<path fill="#B0BEC5" d="M17.86,11.6c0.319-0.11,0.63-0.25,0.939-0.42C18.5,11.36,18.18,11.5,17.86,11.6z"/>
<path fill="#B0BEC5" d="M20.19,10.14c-0.431,0.43-0.9,0.78-1.391,1.04c0.47-0.27,0.931-0.61,1.351-1.03
	c1.909-1.91,2.279-4.65,0.81-6.12c-1.46-1.46-4.2-1.1-6.12,0.81C14.57,5.11,14.32,5.4,14.11,5.7c0.21-0.31,0.46-0.61,0.739-0.89
	C16.78,2.89,19.53,2.52,21,3.99C22.47,5.47,22.1,8.22,20.19,10.14z"/>
</svg>
