<?xml version="1.0" encoding="utf-8"?>
<!-- Generator: Adobe Illustrator 16.0.0, SVG Export Plug-In . SVG Version: 6.00 Build 0)  -->
<!DOCTYPE svg PUBLIC "-//W3C//DTD SVG 1.1//EN" "http://www.w3.org/Graphics/SVG/1.1/DTD/svg11.dtd">
<svg version="1.1" id="Capa_1" xmlns="http://www.w3.org/2000/svg" xmlns:xlink="http://www.w3.org/1999/xlink" x="0px" y="0px"
	 width="24px" height="24px" viewBox="0 0 24 24" enable-background="new 0 0 24 24" xml:space="preserve">
<g id="Capa_1_1_">
	<path fill="none" d="M0,0h24v24H0V0z"/>
	<path fill="#43A047" d="M24,17.37c0,0.28-0.109,0.53-0.29,0.71l-2.479,2.48c-0.182,0.181-0.432,0.289-0.711,0.289
		c-0.271,0-0.521-0.1-0.699-0.279c-0.791-0.729-1.682-1.359-2.66-1.851c-0.33-0.159-0.561-0.51-0.561-0.899V14.72
		c-0.91-0.29-1.851-0.5-2.82-0.62c-0.348-0.045-0.691-0.057-1.037-0.076C12.496,14.011,12.249,14,12,14
		c-1.4,0-2.76,0.189-4.05,0.561c-0.17,0.051-0.33,0.101-0.49,0.149C7.44,14.72,7.42,14.73,7.4,14.73v3.1c0,0.4-0.23,0.74-0.56,0.9
		c-0.97,0.488-1.87,1.108-2.66,1.85c-0.18,0.17-0.43,0.279-0.7,0.279c-0.28,0-0.53-0.109-0.71-0.289l-1.54-1.54l-0.94-0.94
		C0.11,17.91,0,17.66,0,17.38s0.11-0.53,0.29-0.71C3.34,13.78,7.46,12,12,12s8.66,1.78,11.71,4.67C23.891,16.85,24,17.1,24,17.37z"
		/>
	<path fill="#039BE5" d="M21.16,6.26l-1.41-1.41L16.189,8.4l1.41,1.41C17.6,9.81,21.05,6.29,21.16,6.26z"/>
	<rect x="11" y="2" fill="#039BE5" width="2" height="5"/>
	<path fill="#039BE5" d="M6.4,9.81L7.81,8.4L4.26,4.84L2.84,6.26C2.95,6.29,6.4,9.81,6.4,9.81z"/>
</g>
<g id="Capa_2">
	<path fill="#388E3C" d="M24,17.37c0,0.28-0.109,0.53-0.29,0.71l-0.56,0.561c-3.23-2.979-6.381-4.199-9.371-4.541
		c-0.539-0.068-1.079-0.108-1.609-0.119c-1.58-0.021-2.98,0.211-4.22,0.58c-0.17,0.051-0.33,0.101-0.49,0.149
		C7.44,14.72,7.42,14.73,7.4,14.73c-3.49,1.209-5.54,3.51-6.17,4.3l-0.94-0.94C0.11,17.91,0,17.66,0,17.38s0.11-0.53,0.29-0.71
		C3.34,13.78,7.46,12,12,12s8.66,1.78,11.71,4.67C23.891,16.85,24,17.1,24,17.37z"/>
</g>
</svg>
