<?xml version="1.0" encoding="utf-8"?>
<!-- Generator: Adobe Illustrator 16.0.0, SVG Export Plug-In . SVG Version: 6.00 Build 0)  -->
<!DOCTYPE svg PUBLIC "-//W3C//DTD SVG 1.1//EN" "http://www.w3.org/Graphics/SVG/1.1/DTD/svg11.dtd">
<svg version="1.1" id="Capa_1" xmlns="http://www.w3.org/2000/svg" xmlns:xlink="http://www.w3.org/1999/xlink" x="0px" y="0px"
	 width="24px" height="24px" viewBox="0 0 24 24" enable-background="new 0 0 24 24" xml:space="preserve">
<g id="Capa_1_1_">
	<path fill="none" d="M0,0h24v24H0V0z"/>
	<path fill="#78909C" d="M7.11,8.53C6.58,9.28,6.23,10.13,6.09,11H4.07C4.24,9.61,4.8,8.27,5.7,7.11l0.6,0.6L7.11,8.53z"/>
	<path fill="#78909C" d="M7.1,15.47l-0.48,0.48l-0.93,0.94c-0.9-1.16-1.45-2.5-1.62-3.891h2.02C6.23,13.88,6.58,14.72,7.1,15.47z"/>
	<path fill="#78909C" d="M11,17.9v2.029c-1.39-0.171-2.74-0.711-3.9-1.609l0.79-0.801l0.65-0.649C9.29,17.41,10.13,17.75,11,17.9z"
		/>
	<path fill="#78909C" d="M20,12c0,4.08-3.05,7.439-7,7.93v-2.02c2.84-0.48,5-2.94,5-5.91s-2.16-5.43-5-5.91V10L8.45,5.55l0.04-0.03
		L13,1v3.07C16.95,4.56,20,7.92,20,12z"/>
</g>
</svg>
