<?xml version="1.0" encoding="utf-8"?>
<!-- Generator: Adobe Illustrator 16.0.0, SVG Export Plug-In . SVG Version: 6.00 Build 0)  -->
<!DOCTYPE svg PUBLIC "-//W3C//DTD SVG 1.1//EN" "http://www.w3.org/Graphics/SVG/1.1/DTD/svg11.dtd">
<svg version="1.1" id="Capa_1" xmlns="http://www.w3.org/2000/svg" xmlns:xlink="http://www.w3.org/1999/xlink" x="0px" y="0px"
	 width="24px" height="24px" viewBox="0 0 24 24" enable-background="new 0 0 24 24" xml:space="preserve">
<g id="Capa_1_1_">
	<path fill="none" d="M0,0h24v24H0V0z"/>
	<path fill="#78909C" d="M16.961,8.53c0.529,0.75,0.879,1.6,1.02,2.47H20c-0.17-1.39-0.729-2.73-1.63-3.89l-0.601,0.6L16.961,8.53z"
		/>
	<path fill="#78909C" d="M16.971,15.47l0.479,0.48l0.931,0.938C19.279,15.73,19.83,14.391,20,13h-2.02
		C17.84,13.88,17.49,14.72,16.971,15.47z"/>
	<path fill="#78909C" d="M13.07,17.9v2.029c1.391-0.171,2.74-0.711,3.9-1.609L16.18,17.52l-0.65-0.649
		C14.779,17.41,13.939,17.75,13.07,17.9z"/>
	<path fill="#78909C" d="M4.07,12c0,4.08,3.05,7.439,7,7.93v-2.02c-2.84-0.48-5-2.94-5-5.91s2.16-5.43,5-5.91V10l4.55-4.45
		l-0.04-0.03L11.07,1v3.07C7.12,4.56,4.07,7.92,4.07,12z"/>
</g>
</svg>
