<?xml version="1.0" encoding="utf-8"?>
<!-- Generator: Adobe Illustrator 16.0.0, SVG Export Plug-In . SVG Version: 6.00 Build 0)  -->
<!DOCTYPE svg PUBLIC "-//W3C//DTD SVG 1.1//EN" "http://www.w3.org/Graphics/SVG/1.1/DTD/svg11.dtd">
<svg version="1.1" id="Capa_1" xmlns="http://www.w3.org/2000/svg" xmlns:xlink="http://www.w3.org/1999/xlink" x="0px" y="0px"
	 width="24px" height="24px" viewBox="0 0 24 24" enable-background="new 0 0 24 24" xml:space="preserve">
<polygon fill="#BBDEFB" points="15.344,2.984 5,2.984 3.766,3.891 2.969,5.063 2.969,13.938 15.344,13.938 "/>
<path fill="none" d="M0,0h24v24H0V0z"/>
<path fill="#BBDEFB" d="M19,3h-7.51c0.24,0.62,0.39,1.29,0.42,1.99H12c0,0.75-0.12,1.47-0.33,2.14c-0.9,2.79-3.49,4.82-6.56,4.86
	C5.08,12,5.05,12,5.03,12H5v-0.01c-0.7-0.021-1.37-0.15-2-0.39V19c0,1.1,0.9,2,2,2h14c1.1,0,2-0.9,2-2V5C21,3.9,20.1,3,19,3z M5,18
	l3.5-4.5l2.5,3.01L14.5,12l4.5,6H5z"/>
<polygon fill="#43A047" points="19,18 5,18 8.5,13.5 11,16.51 14.5,12 "/>
<path fill="#29B6F6" d="M5,8V4.99h3C8,6.65,6.66,8,5,8z"/>
<path fill="#29B6F6" d="M11.92,5.33c0,0.63-0.09,1.23-0.25,1.8C10.89,9.94,8.31,12,5.25,12c-0.05,0-0.09,0-0.14-0.01
	C5.08,12,5.05,12,5.03,12C5.02,12,5.01,12,5,11.99V10c2.76,0,5-2.25,5-5.01h1.91C11.92,5.1,11.92,5.22,11.92,5.33z"/>
<path fill="#29B6F6" d="M8.35,4.18c0,2.3-1.87,4.17-4.17,4.17C3.77,8.35,3.37,8.29,3,8.18V5c0-1.1,0.9-2,2-2h3.18
	C8.29,3.37,8.35,3.77,8.35,4.18z"/>
<path fill="#29B6F6" d="M9.984,5.438c0,0,0.109-1.047-0.25-2.469l1.813,0.016c0,0,0.438,1.156,0.359,2.406L9.984,5.438z"/>
<path fill="#29B6F6" d="M5.156,10c0,0-1.391,0.094-2.203-0.422C2.922,9.625,3,11.375,3,11.375S3.778,12.031,5.03,12L5.156,10z"/>
<polygon fill="#66BB6A" points="5,18 8.5,13.5 12.234,18 "/>
</svg>
