<?xml version="1.0" encoding="utf-8"?>
<!-- Generator: Adobe Illustrator 16.0.0, SVG Export Plug-In . SVG Version: 6.00 Build 0)  -->
<!DOCTYPE svg PUBLIC "-//W3C//DTD SVG 1.1//EN" "http://www.w3.org/Graphics/SVG/1.1/DTD/svg11.dtd">
<svg version="1.1" id="Capa_1" xmlns="http://www.w3.org/2000/svg" xmlns:xlink="http://www.w3.org/1999/xlink" x="0px" y="0px"
	 width="24px" height="24px" viewBox="0 0 24 24" enable-background="new 0 0 24 24" xml:space="preserve">
<g id="Capa_1_1_">
	<path fill="none" d="M0,0h24v24H0V0z"/>
	<path fill="#37474F" d="M21,7v12c0,1.1-0.9,2-2,2H5c-1.11,0-2-0.9-2-2V5c0-1.1,0.89-2,2-2h12L21,7z"/>
	<path opacity="0.5" fill="#455A64" d="M11.96,3v18H5c-1.11,0-2-0.9-2-2V5c0-1.1,0.89-2,2-2H11.96z"/>
	<path fill="#B0BEC5" d="M15,16c0,1.66-1.34,3-3,3h-0.05C10.31,18.97,9,17.641,9,16s1.31-2.97,2.95-3H12C13.66,13,15,14.34,15,16z"
		/>
	<rect x="5" y="5" fill="#B0BEC5" width="10" height="4"/>
	<path fill="#90A4AE" d="M15,16c0,1.66-1.34,3-3,3h-0.05v-6H12C13.66,13,15,14.34,15,16z"/>
</g>
</svg>
