<?xml version="1.0" encoding="utf-8"?>
<!-- Generator: Adobe Illustrator 16.0.0, SVG Export Plug-In . SVG Version: 6.00 Build 0)  -->
<!DOCTYPE svg PUBLIC "-//W3C//DTD SVG 1.1//EN" "http://www.w3.org/Graphics/SVG/1.1/DTD/svg11.dtd">
<svg version="1.1" xmlns="http://www.w3.org/2000/svg" xmlns:xlink="http://www.w3.org/1999/xlink" x="0px" y="0px" width="24px"
	 height="24px" viewBox="0 0 24 24" enable-background="new 0 0 24 24" xml:space="preserve">
<g id="Capa_1">
	<polygon fill="none" points="21,17 21,10.09 20.94,10.12 20.05,13.17 20.8,17.42 24,17.28 24,24 0,24 0,0 24,0 24,12.12 23,9.07 
		23,17 	"/>
	<polygon fill="#0277BD" points="19,13.18 19,17.18 12,21 5,17.18 5,13.18 12,17 	"/>
	<polygon fill="#0288D1" points="23,9 23,17 21,17 21,10.09 20.94,10.12 12,15 1,9 12,3 22.97,8.98 	"/>
</g>
<g id="Capa_2">
	<polygon fill="#0277BD" points="23,9.07 23,17 21,17 21,10.09 20.94,10.12 20.95,10.08 22.97,8.98 	"/>
	<polygon opacity="0.4" fill="#0277BD" points="12,3 12,15 1,9 	"/>
	<polygon opacity="0.4" fill="#01579B" points="5,13.18 12,17 12,21 5,17.18 	"/>
</g>
</svg>
