<?xml version="1.0" encoding="utf-8"?>
<!-- Generator: Adobe Illustrator 16.0.0, SVG Export Plug-In . SVG Version: 6.00 Build 0)  -->
<!DOCTYPE svg PUBLIC "-//W3C//DTD SVG 1.1//EN" "http://www.w3.org/Graphics/SVG/1.1/DTD/svg11.dtd">
<svg version="1.1" id="Capa_1" xmlns="http://www.w3.org/2000/svg" xmlns:xlink="http://www.w3.org/1999/xlink" x="0px" y="0px"
	 width="24px" height="24px" viewBox="0 0 24 24" enable-background="new 0 0 24 24" xml:space="preserve">
<rect x="8.998" y="2.995" transform="matrix(0.7071 -0.7071 0.7071 0.7071 -3.9706 12.4142)" fill="#B2EBF2" width="8.005" height="16.009"/>
<path fill="#78909C" d="M23.25,12.77L13.68,3.2l-2.45-2.45c-0.59-0.59-1.54-0.59-2.12,0L2.75,7.11c-0.59,0.59-0.59,1.54,0,2.12
	l12.02,12.02c0.591,0.59,1.54,0.59,2.12,0l6.36-6.36C23.84,14.3,23.84,13.35,23.25,12.77z M15.83,19.49L4.51,8.17l5.66-5.66
	l11.32,11.32L15.83,19.49z"/>
<path fill="#9575CD" d="M8.47,20.48C5.2,18.939,2.86,15.76,2.5,12H1c0.51,6.16,5.66,11,11.95,11l0.659-0.03L9.8,19.15L8.47,20.48z"
	/>
<path fill="none" d="M0,0h24v24H0V0z"/>
<path fill="#FFA726" d="M21,3V2.5C21,1.12,19.88,0,18.5,0S16,1.12,16,2.5V3c-0.55,0-1,0.45-1,1v4c0,0.55,0.45,1,1,1h5
	c0.55,0,1-0.45,1-1V4C22,3.45,21.55,3,21,3z M16.8,3V2.5c0-0.94,0.76-1.7,1.7-1.7s1.7,0.76,1.7,1.7V3H16.8z"/>
<path fill="#FFCC80" d="M21,2.5V3h-0.8V2.5c0-0.94-0.76-1.7-1.7-1.7s-1.7,0.76-1.7,1.7V3H16V2.5C16,1.12,17.12,0,18.5,0
	S21,1.12,21,2.5z"/>
</svg>
