<?xml version="1.0" encoding="utf-8"?>
<!-- Generator: Adobe Illustrator 16.0.0, SVG Export Plug-In . SVG Version: 6.00 Build 0)  -->
<!DOCTYPE svg PUBLIC "-//W3C//DTD SVG 1.1//EN" "http://www.w3.org/Graphics/SVG/1.1/DTD/svg11.dtd">
<svg version="1.1" id="Capa_1" xmlns="http://www.w3.org/2000/svg" xmlns:xlink="http://www.w3.org/1999/xlink" x="0px" y="0px"
	 width="24px" height="24px" viewBox="0 0 24 24" enable-background="new 0 0 24 24" xml:space="preserve">
<path fill="none" d="M0,0h24v24H0V0z"/>
<path fill="#9575CD" d="M16.53,2.52C19.8,4.07,22.14,7.24,22.5,11H24C23.489,4.84,18.34,0,12.05,0l-0.66,0.03L15.2,3.84L16.53,2.52z
	"/>
<path fill="#78909C" d="M10.28,1.75c-0.59-0.59-1.54-0.59-2.12,0L1.8,8.11c-0.59,0.59-0.59,1.54,0,2.12l12.02,12.02
	c0.59,0.59,1.541,0.59,2.121,0l6.359-6.359c0.59-0.591,0.59-1.541,0-2.121L10.28,1.75z"/>
<rect x="3.551" y="7.503" transform="matrix(0.7071 0.7071 -0.7071 0.7071 12.0141 -5.0059)" fill="#B2EBF2" width="16.999" height="8.994"/>
<path fill="#9575CD" d="M7.57,21.48C4.3,19.939,1.96,16.76,1.6,13H0.1c0.51,6.16,5.66,11,11.95,11l0.66-0.03L8.9,20.16L7.57,21.48z"
	/>
</svg>
