<?xml version="1.0" encoding="utf-8"?>
<!-- Generator: Adobe Illustrator 16.0.0, SVG Export Plug-In . SVG Version: 6.00 Build 0)  -->
<!DOCTYPE svg PUBLIC "-//W3C//DTD SVG 1.1//EN" "http://www.w3.org/Graphics/SVG/1.1/DTD/svg11.dtd">
<svg version="1.1" id="Capa_1" xmlns="http://www.w3.org/2000/svg" xmlns:xlink="http://www.w3.org/1999/xlink" x="0px" y="0px"
	 width="24px" height="24px" viewBox="0 0 24 24" enable-background="new 0 0 24 24" xml:space="preserve">
<g id="Capa_1_1_">
	<path fill="none" d="M0,0h24v24H0V0z"/>
	<path fill="#37474F" d="M20,4v16c0,1.1-0.9,2-2,2H6c-1.1,0-2-0.9-2-2L4.02,8L10,2h8C19.1,2,20,2.9,20,4z"/>
	<path opacity="0.4" fill="#455A64" d="M12,2v20H6c-1.1,0-2-0.9-2-2L4.02,8L10,2H12z"/>
	<rect x="10" y="3.99" fill="#FDD835" width="2" height="4"/>
	<rect x="13" y="3.99" fill="#FDD835" width="2" height="4"/>
	<rect x="16" y="3.99" fill="#FDD835" width="2" height="4"/>
</g>
<g id="Capa_2">
</g>
</svg>
