<?xml version="1.0" encoding="utf-8"?>
<!-- Generator: Adobe Illustrator 16.0.0, SVG Export Plug-In . SVG Version: 6.00 Build 0)  -->
<!DOCTYPE svg PUBLIC "-//W3C//DTD SVG 1.1//EN" "http://www.w3.org/Graphics/SVG/1.1/DTD/svg11.dtd">
<svg version="1.1" id="Capa_1" xmlns="http://www.w3.org/2000/svg" xmlns:xlink="http://www.w3.org/1999/xlink" x="0px" y="0px"
	 width="24px" height="24px" viewBox="0 0 24 24" enable-background="new 0 0 24 24" xml:space="preserve">
<path d="M20.49,19l-0.771,0.77L19,20.49l-0.45-0.45l-0.189-0.19l-0.28-0.27l-0.18-0.19L14,15.5v-0.79l-0.01-0.01l-0.101-0.11
	L13.74,14.44l-0.01-0.011c-0.07,0.061-0.11,0.09-0.11,0.09C12.5,15.45,11.06,16,9.5,16C5.91,16,3,13.09,3,9.5
	c0-1.82,0.75-3.47,1.96-4.65C6.13,3.71,7.73,3,9.5,3C13.09,3,16,5.91,16,9.5c0,1.5-0.51,2.89-1.38,3.99
	c-0.03,0.04-0.061,0.08-0.09,0.12c-0.03,0.04-0.07,0.08-0.101,0.12l0.011,0.01L14.71,14h0.79l3.91,3.92L19.6,18.1l0.271,0.28
	l0.189,0.19L20.49,19z"/>
<path fill="#455A64" d="M16,9.5c0,1.5-0.51,2.89-1.38,3.99c-0.03,0.04-0.061,0.08-0.09,0.12c-0.03,0.04-0.07,0.08-0.101,0.12
	l0.011,0.01c-0.101,0.13-0.21,0.25-0.32,0.35c-0.101,0.101-0.19,0.18-0.271,0.25c-0.02,0.021-0.04,0.03-0.06,0.05
	c-0.01,0.021-0.03,0.04-0.05,0.051l-0.01-0.011c-0.07,0.061-0.11,0.09-0.11,0.09C12.5,15.45,11.06,16,9.5,16C5.91,16,3,13.09,3,9.5
	c0-1.82,0.75-3.47,1.96-4.65C6.13,3.71,7.73,3,9.5,3C13.09,3,16,5.91,16,9.5z"/>
<path fill="#546E7A" d="M14.25,14.23l-0.36,0.359L13.74,14.44l-0.01-0.011c-0.07,0.061-0.11,0.09-0.11,0.09
	C12.5,15.45,11.06,16,9.5,16C5.91,16,3,13.09,3,9.5c0-1.82,0.75-3.47,1.96-4.65l9.16,9.24L14.25,14.23z"/>
<path fill="#81D4FA" d="M14,9.5c0,1.23-0.49,2.35-1.3,3.16C11.89,13.49,10.75,14,9.5,14C7.01,14,5,11.99,5,9.5
	c0-1.27,0.53-2.42,1.38-3.23C7.18,5.48,8.29,5,9.5,5C11.99,5,14,7.01,14,9.5z"/>
<path fill="none" d="M0,0h24v24H0V0z"/>
<polygon fill="#E53935" points="20.49,19 19.72,19.77 19,20.49 18.55,20.04 18.36,19.85 18.08,19.58 17.9,19.39 14,15.5 14,14.71 
	14.71,14 15.5,14 19.41,17.92 19.6,18.1 19.87,18.38 20.06,18.57 "/>
<path fill="#455A64" d="M14.62,13.49c-0.03,0.04-0.061,0.08-0.09,0.12c0.029-0.04,0.06-0.091,0.08-0.13L14.62,13.49z"/>
<polygon fill="#EF5350" points="19.77,19.69 19.72,19.77 19,20.49 18.55,20.04 18.36,19.85 18.08,19.58 17.9,19.39 14,15.5 
	14,14.71 13.99,14.7 14.31,14.38 14.32,14.39 "/>
<path fill="#37474F" d="M14.76,14l-0.62,0.57L13.99,14.7l-0.25-0.26l-0.01-0.011c0.02-0.01,0.039-0.029,0.06-0.04
	c0.02-0.02,0.04-0.029,0.06-0.05c0.17-0.149,0.4-0.359,0.591-0.6L14.71,14H14.76z"/>
<polygon fill="#E57373" points="20.06,18.57 18.55,20.04 18.36,19.85 19.87,18.38 "/>
<polygon fill="#E57373" points="19.6,18.1 18.08,19.58 17.9,19.39 19.41,17.92 "/>
<path fill="#263238" d="M14.12,14.09l0.255,0.27L13.99,14.7l-0.25-0.26C13.74,14.44,14.053,14.18,14.12,14.09z"/>
<path fill="#B2DFDB" d="M12.7,12.66C11.89,13.49,10.75,14,9.5,14C7.01,14,5,11.99,5,9.5c0-1.27,0.53-2.42,1.38-3.23L12.7,12.66z"/>
</svg>
