<?xml version="1.0" encoding="utf-8"?>
<!-- Generator: Adobe Illustrator 16.0.0, SVG Export Plug-In . SVG Version: 6.00 Build 0)  -->
<!DOCTYPE svg PUBLIC "-//W3C//DTD SVG 1.1//EN" "http://www.w3.org/Graphics/SVG/1.1/DTD/svg11.dtd">
<svg version="1.1" xmlns="http://www.w3.org/2000/svg" xmlns:xlink="http://www.w3.org/1999/xlink" x="0px" y="0px" width="24px"
	 height="24px" viewBox="0 0 24 24" enable-background="new 0 0 24 24" xml:space="preserve">
<g id="Capa_1">
	<path fill="none" d="M0,0h24v24H0V0z"/>
	<path fill="#00897B" d="M3,5h2V3C3.9,3,3,3.9,3,5z"/>
	<rect x="3" y="11" fill="#00897B" width="2" height="2"/>
	<rect x="7" y="19" fill="#00897B" width="2" height="2"/>
	<rect x="3" y="7" fill="#00897B" width="2" height="2"/>
	<rect x="11" y="3" fill="#00897B" width="2" height="2"/>
	<path fill="#00897B" d="M19,3v2h2C21,3.9,20.1,3,19,3z"/>
	<path fill="#00897B" d="M5,21v-2H3C3,20.1,3.9,21,5,21z"/>
	<rect x="3" y="15" fill="#00897B" width="2" height="2"/>
	<rect x="7" y="3" fill="#00897B" width="2" height="2"/>
	<rect x="11" y="19" fill="#00897B" width="2" height="2"/>
	<rect x="19" y="11" fill="#00897B" width="2" height="2"/>
	<path fill="#00897B" d="M19,21c1.1,0,2-0.9,2-2h-2V21z"/>
	<rect x="19" y="7" fill="#00897B" width="2" height="2"/>
	<rect x="19" y="15" fill="#00897B" width="2" height="2"/>
	<rect x="15" y="19" fill="#00897B" width="2" height="2"/>
	<rect x="15" y="3" fill="#00897B" width="2" height="2"/>
	<path fill="#00796B" d="M7,7v10h10V7H7z M15,15H9V9h6V15z"/>
</g>
<g id="Capa_2">
</g>
</svg>
