<?xml version="1.0" encoding="utf-8"?>
<!-- Generator: Adobe Illustrator 16.0.0, SVG Export Plug-In . SVG Version: 6.00 Build 0)  -->
<!DOCTYPE svg PUBLIC "-//W3C//DTD SVG 1.1//EN" "http://www.w3.org/Graphics/SVG/1.1/DTD/svg11.dtd">
<svg version="1.1" id="Capa_1" xmlns="http://www.w3.org/2000/svg" xmlns:xlink="http://www.w3.org/1999/xlink" x="0px" y="0px"
	 width="24px" height="24px" viewBox="0 0 24 24" enable-background="new 0 0 24 24" xml:space="preserve">
<path fill="#9575CD" d="M21,3H3C1.9,3,1,3.9,1,5v14c0,1.1,0.9,2,2,2h18c1.1,0,2-0.9,2-2V5C23,3.9,22.1,3,21,3z"/>
<path fill="none" d="M0,0h24v24H0V0z"/>
<rect x="3" y="4.99" fill="#E1BEE7" width="18" height="14.02"/>
<path fill="#9575CD" d="M9,16h6.5c1.38,0,2.5-1.12,2.5-2.5S16.88,11,15.5,11h-0.05C15.21,9.31,13.76,8,12,8
	c-1.4,0-2.6,0.83-3.16,2.02H8.68C7.17,10.18,6,11.45,6,13C6,14.66,7.34,16,9,16z"/>
</svg>
