<?xml version="1.0" encoding="utf-8"?>
<!-- Generator: Adobe Illustrator 16.0.0, SVG Export Plug-In . SVG Version: 6.00 Build 0)  -->
<!DOCTYPE svg PUBLIC "-//W3C//DTD SVG 1.1//EN" "http://www.w3.org/Graphics/SVG/1.1/DTD/svg11.dtd">
<svg version="1.1" id="Capa_1" xmlns="http://www.w3.org/2000/svg" xmlns:xlink="http://www.w3.org/1999/xlink" x="0px" y="0px"
	 width="24px" height="24px" viewBox="0 0 24 24" enable-background="new 0 0 24 24" xml:space="preserve">
<path fill="#78909C" d="M16,10v12c0,0.55-0.45,1-1,1H9c-0.55,0-1-0.45-1-1V10c0-0.55,0.45-1,1-1h6C15.55,9,16,9.45,16,10z"/>
<path opacity="0.2" fill="#546E7A" enable-background="new    " d="M16,10v12c0,0.55-0.45,1-1,1h-2.97V9H15C15.55,9,16,9.45,16,10z"
	/>
<path fill="#E53935" d="M12,15c-1.1,0-2-0.9-2-2c0-1.1,0.9-2,2-2c1.1,0,2,0.9,2,2C14,14.1,13.1,15,12,15z"/>
<path fill="#1E88E5" d="M7.05,6.05l1.41,1.41C9.37,6.56,10.62,6,12,6s2.63,0.56,3.54,1.46l1.41-1.41C15.68,4.78,13.93,4,12,4
	C10.07,4,8.32,4.78,7.05,6.05z"/>
<path fill="#42A5F5" d="M12,0C8.96,0,6.21,1.23,4.22,3.22l1.41,1.41C7.26,3.01,9.51,2,12,2s4.74,1.01,6.359,2.64l1.41-1.41
	C17.79,1.23,15.04,0,12,0z"/>
</svg>
