<?xml version="1.0" encoding="utf-8"?>
<!-- Generator: Adobe Illustrator 16.0.0, SVG Export Plug-In . SVG Version: 6.00 Build 0)  -->
<!DOCTYPE svg PUBLIC "-//W3C//DTD SVG 1.1//EN" "http://www.w3.org/Graphics/SVG/1.1/DTD/svg11.dtd">
<svg version="1.1" id="Capa_1" xmlns="http://www.w3.org/2000/svg" xmlns:xlink="http://www.w3.org/1999/xlink" x="0px" y="0px"
	 width="24px" height="24px" viewBox="0 0 24 24" enable-background="new 0 0 24 24" xml:space="preserve">
<path fill="#FFEE58" d="M7,6v6H1V6h2V2c0-0.55,0.45-1,1-1s1,0.45,1,1v4H7z"/>
<path fill="#455A64" d="M15,14v2c0,1.3-0.83,2.4-1.98,2.81C13.01,18.82,13.01,18.82,13,18.82V23h-2v-4.18
	c-0.01,0-0.01-0.011-0.02-0.011C9.83,18.39,9,17.29,9,16v-2H15z"/>
<path fill="#455A64" d="M7,14v2c0,1.29-0.83,2.39-1.98,2.81c-0.01,0-0.01,0.011-0.02,0.011V23H3v-4.18
	c-0.01,0-0.01-0.011-0.02-0.011C1.83,18.39,1,17.29,1,16v-2H7z"/>
<path fill="#B0BEC5" d="M23,6v6h-6V6h2V2c0-0.55,0.45-1,1-1s1,0.45,1,1v4H23z"/>
<path fill="#E53935" d="M15,6v6H9V6h2V2c0-0.55,0.45-1,1-1s1,0.45,1,1v4H15z"/>
<path fill="#455A64" d="M23,14v2c0,1.3-0.83,2.4-1.98,2.81C21.01,18.82,21.01,18.82,21,18.82V23h-2v-4.18
	c-0.01,0-0.01-0.011-0.02-0.011C17.83,18.39,17,17.29,17,16v-2H23z"/>
<path fill="#90A4AE" d="M5,2.009v3.988H3V2.009C3,1.455,3.45,1,4,1S5,1.455,5,2.009z"/>
<path fill="#90A4AE" d="M13,2.009v3.988h-2V2.009C11,1.455,11.45,1,12,1S13,1.455,13,2.009z"/>
<path fill="#90A4AE" d="M21,2.009v3.988h-2V2.009C19,1.455,19.45,1,20,1S21,1.455,21,2.009z"/>
<path fill="#FDD835" d="M1,14h6v2c0,1.29-0.83,2.39-1.98,2.81H2.98C1.83,18.39,1,17.29,1,16V14z"/>
<path fill="#C62828" d="M9,14h6v2c0,1.3-0.83,2.4-1.98,2.81h-2.04C9.83,18.39,9,17.29,9,16V14z"/>
<path fill="#90A4AE" d="M23,14v2c0,1.3-0.83,2.4-1.98,2.81H18.98C17.83,18.39,17,17.29,17,16v-2H23z"/>
</svg>
