<?xml version="1.0" encoding="utf-8"?>
<!-- Generator: Adobe Illustrator 16.0.0, SVG Export Plug-In . SVG Version: 6.00 Build 0)  -->
<!DOCTYPE svg PUBLIC "-//W3C//DTD SVG 1.1//EN" "http://www.w3.org/Graphics/SVG/1.1/DTD/svg11.dtd">
<svg version="1.1" id="Capa_1" xmlns="http://www.w3.org/2000/svg" xmlns:xlink="http://www.w3.org/1999/xlink" x="0px" y="0px"
	 width="24px" height="24px" viewBox="0 0 24 24" enable-background="new 0 0 24 24" xml:space="preserve">
<path fill="none" d="M0,0h24v24H0V0z"/>
<path fill="#1976D2" d="M17.702,5.71L11.991,0h-1v7.59L6.401,3l-1.41,1.41l5.59,5.59l-5.59,5.59L6.401,17l4.59-4.59V20h1l5.711-5.71
	L13.401,10L17.702,5.71z M12.991,3.83l1.881,1.88l-1.881,1.88V3.83z M14.872,14.29l-1.881,1.88v-3.76L14.872,14.29z"/>
<rect x="11.118" y="22" fill="#546E7A" width="2" height="2"/>
<rect x="7" y="22" fill="#455A64" width="2" height="2"/>
<rect x="15" y="22" fill="#455A64" width="2" height="2"/>
</svg>
