<?xml version="1.0" encoding="utf-8"?>
<!-- Generator: Adobe Illustrator 16.0.0, SVG Export Plug-In . SVG Version: 6.00 Build 0)  -->
<!DOCTYPE svg PUBLIC "-//W3C//DTD SVG 1.1//EN" "http://www.w3.org/Graphics/SVG/1.1/DTD/svg11.dtd">
<svg version="1.1" xmlns="http://www.w3.org/2000/svg" xmlns:xlink="http://www.w3.org/1999/xlink" x="0px" y="0px" width="24px"
	 height="24px" viewBox="0 0 24 24" enable-background="new 0 0 24 24" xml:space="preserve">
<g id="Capa_1">
	<path fill="#78909C" d="M21.54,14.63c0.19,0.15,0.24,0.42,0.12,0.64l-2,3.461c-0.12,0.22-0.38,0.31-0.61,0.22l-2.49-1
		c-0.52,0.39-1.079,0.729-1.689,0.979l-0.38,2.65C14.46,21.82,14.25,22,14,22h-4c-0.25,0-0.46-0.18-0.49-0.42l-0.38-2.65
		c-0.61-0.25-1.17-0.58-1.69-0.979l-2.49,1c-0.22,0.08-0.49,0-0.61-0.22l-2-3.461c-0.12-0.22-0.07-0.489,0.12-0.64l2.11-1.649
		C4.53,12.66,4.5,12.33,4.5,12s0.03-0.66,0.07-0.98L2.46,9.37C2.27,9.22,2.21,8.95,2.34,8.73l2-3.46c0.12-0.22,0.38-0.31,0.61-0.22
		l2.49,1c0.52-0.39,1.08-0.73,1.69-0.98l0.38-2.65C9.54,2.18,9.75,2,10,2h4c0.25,0,0.46,0.18,0.49,0.42l0.38,2.65
		c0.61,0.25,1.17,0.58,1.689,0.98l2.49-1c0.22-0.08,0.49,0,0.61,0.22l2,3.46c0.12,0.22,0.07,0.49-0.12,0.64l-2.11,1.65
		c0.04,0.32,0.07,0.64,0.07,0.98s-0.03,0.66-0.07,0.98L21.54,14.63z"/>
	<path fill="#90A4AE" d="M12,2v20h-2c-0.25,0-0.46-0.18-0.49-0.42l-0.38-2.65c-0.61-0.25-1.17-0.58-1.69-0.979l-2.49,1
		c-0.22,0.08-0.49,0-0.61-0.22l-2-3.461c-0.12-0.22-0.07-0.489,0.12-0.64l2.11-1.649C4.53,12.66,4.5,12.33,4.5,12
		s0.03-0.66,0.07-0.98L2.46,9.37C2.27,9.22,2.21,8.95,2.34,8.73l2-3.46c0.12-0.22,0.38-0.31,0.61-0.22l2.49,1
		c0.52-0.39,1.08-0.73,1.69-0.98l0.38-2.65C9.54,2.18,9.75,2,10,2H12z"/>
	<circle fill="#546E7A" cx="11.984" cy="11.984" r="4.453"/>
	<path fill="#FFFFFF" d="M12,15.5c-1.93,0-3.5-1.57-3.5-3.5c0-1.93,1.57-3.5,3.5-3.5c1.93,0,3.5,1.57,3.5,3.5
		C15.5,13.93,13.93,15.5,12,15.5z"/>
</g>
<g id="Capa_2">
</g>
</svg>
