<?xml version="1.0" encoding="utf-8"?>
<!-- Generator: Adobe Illustrator 16.0.0, SVG Export Plug-In . SVG Version: 6.00 Build 0)  -->
<!DOCTYPE svg PUBLIC "-//W3C//DTD SVG 1.1//EN" "http://www.w3.org/Graphics/SVG/1.1/DTD/svg11.dtd">
<svg version="1.1" id="Capa_1" xmlns="http://www.w3.org/2000/svg" xmlns:xlink="http://www.w3.org/1999/xlink" x="0px" y="0px"
	 width="24px" height="24px" viewBox="0 0 24 24" enable-background="new 0 0 24 24" xml:space="preserve">
<g>
	<path fill="#43A047" d="M6.999,5.999v6h-6v-6h2v-4c0-0.55,0.45-1,1-1s1,0.45,1,1v4H6.999z"/>
	<path fill="#455A64" d="M14.999,13.999v2c0,1.3-0.83,2.4-1.98,2.811c-0.01,0.01-0.01,0.01-0.02,0.01v4.18h-2v-4.18
		c-0.01,0-0.01-0.012-0.02-0.012c-1.15-0.418-1.98-1.519-1.98-2.809v-2H14.999z"/>
	<path fill="#455A64" d="M6.999,13.999v2c0,1.29-0.83,2.391-1.98,2.811c-0.01,0-0.01,0.01-0.02,0.01v4.18h-2v-4.18
		c-0.01,0-0.01-0.012-0.02-0.012c-1.15-0.418-1.98-1.519-1.98-2.809v-2H6.999z"/>
	<path fill="#E53935" d="M22.999,5.999v6h-6v-6h2v-4c0-0.55,0.45-1,1-1s1,0.45,1,1v4H22.999z"/>
	<path fill="#039BE5" d="M14.999,5.999v6h-6v-6h2v-4c0-0.55,0.45-1,1-1s1,0.45,1,1v4H14.999z"/>
	<path fill="#455A64" d="M22.999,13.999v2c0,1.3-0.83,2.4-1.98,2.811c-0.01,0.01-0.01,0.01-0.02,0.01v4.18h-2v-4.18
		c-0.01,0-0.01-0.012-0.02-0.012c-1.15-0.418-1.98-1.519-1.98-2.809v-2H22.999z"/>
	<path fill="#90A4AE" d="M4.999,2.008v3.988h-2V2.008c0-0.554,0.45-1.009,1-1.009S4.999,1.454,4.999,2.008z"/>
	<path fill="#90A4AE" d="M12.999,2.008v3.988h-2V2.008c0-0.554,0.45-1.009,1-1.009S12.999,1.454,12.999,2.008z"/>
	<path fill="#90A4AE" d="M20.999,2.008v3.988h-2V2.008c0-0.554,0.45-1.009,1-1.009S20.999,1.454,20.999,2.008z"/>
	<path fill="#388E3C" d="M0.999,13.999h6v2c0,1.29-0.83,2.391-1.98,2.811H2.979c-1.15-0.42-1.98-1.521-1.98-2.811V13.999z"/>
	<path fill="#0288D1" d="M8.999,13.999h6v2c0,1.3-0.83,2.4-1.98,2.811h-2.039c-1.15-0.42-1.98-1.521-1.98-2.811V13.999z"/>
	<path fill="#C62828" d="M22.999,13.999v2c0,1.3-0.83,2.4-1.98,2.811h-2.039c-1.15-0.42-1.98-1.521-1.98-2.811v-2H22.999z"/>
</g>
<path fill="none" d="M0,0h24v24H0V0z"/>
</svg>
