<?xml version="1.0" encoding="utf-8"?>
<!-- Generator: Adobe Illustrator 16.0.0, SVG Export Plug-In . SVG Version: 6.00 Build 0)  -->
<!DOCTYPE svg PUBLIC "-//W3C//DTD SVG 1.1//EN" "http://www.w3.org/Graphics/SVG/1.1/DTD/svg11.dtd">
<svg version="1.1" id="Capa_1" xmlns="http://www.w3.org/2000/svg" xmlns:xlink="http://www.w3.org/1999/xlink" x="0px" y="0px"
	 width="24px" height="24px" viewBox="0 0 24 24" enable-background="new 0 0 24 24" xml:space="preserve">
<path fill="#455A64" d="M21,3H3C1.9,3,1,3.9,1,5v14c0,1.1,0.9,2,2,2h18c1.1,0,2-0.9,2-2V5C23,3.9,22.1,3,21,3z"/>
<rect x="3" y="4.99" fill="#C5CAE9" width="18" height="14.02"/>
<path fill="none" d="M0,0h24v24H0V0z"/>
<polygon fill="#37474F" points="12.01,5.5 10,8 14,8 "/>
<polygon fill="#546E7A" points="18,10 18,14 20.5,12.01 "/>
<polygon fill="#546E7A" points="6,10 3.5,12.01 6,14 "/>
<polygon fill="#37474F" points="14,16 10,16 12.01,18.5 "/>
</svg>
