<?xml version="1.0" encoding="utf-8"?>
<!-- Generator: Adobe Illustrator 16.0.0, SVG Export Plug-In . SVG Version: 6.00 Build 0)  -->
<!DOCTYPE svg PUBLIC "-//W3C//DTD SVG 1.1//EN" "http://www.w3.org/Graphics/SVG/1.1/DTD/svg11.dtd">
<svg version="1.1" xmlns="http://www.w3.org/2000/svg" xmlns:xlink="http://www.w3.org/1999/xlink" x="0px" y="0px" width="24px"
	 height="24px" viewBox="0 0 24 24" enable-background="new 0 0 24 24" xml:space="preserve">
<g id="Capa_1">
	<path fill="none" d="M12,0v3H3C1.9,3,1,3.9,1,5v14c0,1.1,0.9,2,2,2h9v3h12V0H12z M3,19.01V4.99h9V6.5L10.5,8H8v2.5L6.5,12L8,13.5
		V16h2.5l1.5,1.5v1.51H3z"/>
	<path fill="#455A64" d="M21,3H3C1.9,3,1,3.9,1,5v14c0,1.1,0.9,2,2,2h18c1.1,0,2-0.9,2-2V5C23,3.9,22.1,3,21,3z M3,19.01V4.99h9V6.5
		L10.5,8H8v2.5L6.5,12L8,13.5V16h2.5l1.5,1.5v1.51H3z"/>
	<polygon fill="#FFFFFF" points="21,4.99 21,19.01 12,19.01 12,17.5 10.5,16 8,16 8,13.5 6.5,12 8,10.5 8,8 10.5,8 12,6.5 12,4.99 	
		"/>
	<polygon fill="#455A64" points="17.5,12 16,13.5 16,16 13.5,16 12,17.5 10.5,16 8,16 8,13.5 6.5,12 8,10.5 8,8 10.5,8 12,6.5 
		13.5,8 16,8 16,10.5 	"/>
	<path fill="#FFFFFF" d="M12,9c1.66,0,3,1.34,3,3s-1.34,3-3,3V9z"/>
</g>
<g id="Capa_2">
	<path fill="#546E7A" d="M3,4.99v14.02h9V21H3c-1.1,0-2-0.9-2-2V5c0-1.1,0.9-2,2-2h9v1.99H3z"/>
	<polygon fill="#546E7A" points="10.5,8 12,6.5 12,17.5 10.5,16 8,16 8,13.5 6.5,12 8,10.5 8,8 	"/>
</g>
</svg>
