<?xml version="1.0" encoding="utf-8"?>
<!-- Generator: Adobe Illustrator 16.0.0, SVG Export Plug-In . SVG Version: 6.00 Build 0)  -->
<!DOCTYPE svg PUBLIC "-//W3C//DTD SVG 1.1//EN" "http://www.w3.org/Graphics/SVG/1.1/DTD/svg11.dtd">
<svg version="1.1" id="Capa_1" xmlns="http://www.w3.org/2000/svg" xmlns:xlink="http://www.w3.org/1999/xlink" x="0px" y="0px"
	 width="24px" height="24px" viewBox="0 0 24 24" enable-background="new 0 0 24 24" xml:space="preserve">
<path fill="#90A4AE" d="M12,1C5.93,1,1,5.93,1,12c0,6.07,4.93,11,11,11c6.07,0,11-4.93,11-11C23,5.93,18.07,1,12,1z"/>
<path fill="#90A4AE" d="M12,21c-4.96,0-9-4.04-9-9s4.04-9,9-9s9,4.04,9,9S16.96,21,12,21z"/>
<path fill="none" d="M0,0h24v24H0V0z"/>
<circle fill="#37474F" cx="6.5" cy="11.5" r="1.5"/>
<path fill="#37474F" d="M15,6.5C15,5.67,14.33,5,13.5,5h-3C9.67,5,9,5.67,9,6.5S9.67,8,10.5,8h3C14.33,8,15,7.33,15,6.5z"/>
<circle fill="#37474F" cx="8.5" cy="16.5" r="1.5"/>
<circle fill="#37474F" cx="17.5" cy="11.5" r="1.5"/>
<circle fill="#37474F" cx="15.5" cy="16.5" r="1.5"/>
</svg>
