<?xml version="1.0" encoding="utf-8"?>
<!-- Generator: Adobe Illustrator 16.0.0, SVG Export Plug-In . SVG Version: 6.00 Build 0)  -->
<!DOCTYPE svg PUBLIC "-//W3C//DTD SVG 1.1//EN" "http://www.w3.org/Graphics/SVG/1.1/DTD/svg11.dtd">
<svg version="1.1" id="Capa_1" xmlns="http://www.w3.org/2000/svg" xmlns:xlink="http://www.w3.org/1999/xlink" x="0px" y="0px"
	 width="24px" height="24px" viewBox="0 0 24 24" enable-background="new 0 0 24 24" xml:space="preserve">
<path fill="none" d="M0,0h24v24H0V0z"/>
<rect x="7" y="22" fill="#455A64" width="2" height="2"/>
<rect x="11" y="22" fill="#546E7A" width="2" height="2"/>
<rect x="11" y="2" fill="#64B5F6" width="2" height="10"/>
<path fill="#42A5F5" d="M16.561,4.44l-1.451,1.45C16.84,6.94,18,8.83,18,11c0,3.311-2.689,6-6,6c-3.31,0-6-2.689-6-6
	c0-2.17,1.16-4.06,2.88-5.12L7.44,4.44C5.36,5.88,4,8.28,4,11c0,4.42,3.58,8,8,8s8-3.58,8-8C20,8.28,18.641,5.88,16.561,4.44z"/>
<rect x="15" y="22" fill="#455A64" width="2" height="2"/>
</svg>
