<?xml version="1.0" encoding="utf-8"?>
<!-- Generator: Adobe Illustrator 16.0.0, SVG Export Plug-In . SVG Version: 6.00 Build 0)  -->
<!DOCTYPE svg PUBLIC "-//W3C//DTD SVG 1.1//EN" "http://www.w3.org/Graphics/SVG/1.1/DTD/svg11.dtd">
<svg version="1.1" id="Capa_1" xmlns="http://www.w3.org/2000/svg" xmlns:xlink="http://www.w3.org/1999/xlink" x="0px" y="0px"
	 width="24px" height="24px" viewBox="0 0 24 24" enable-background="new 0 0 24 24" xml:space="preserve">
<path fill="none" d="M0,0h24v24H0V0z"/>
<path fill="#90A4AE" d="M19,3H5C3.89,3,3,3.9,3,5v14c0,1.1,0.89,2,2,2h14c1.11,0,2-0.9,2-2V5C21,3.9,20.11,3,19,3z M17.25,12
	c0,0.23-0.02,0.46-0.05,0.68l1.479,1.16c0.13,0.11,0.17,0.3,0.08,0.45l-1.399,2.42c-0.091,0.15-0.271,0.21-0.431,0.15l-1.739-0.7
	c-0.36,0.28-0.761,0.51-1.181,0.689L13.75,18.7c-0.03,0.17-0.18,0.3-0.35,0.3h-2.8c-0.17,0-0.32-0.13-0.35-0.29l-0.26-1.85
	c-0.43-0.181-0.82-0.41-1.18-0.69l-1.74,0.7c-0.16,0.06-0.34,0-0.43-0.15l-1.4-2.42c-0.09-0.149-0.05-0.34,0.08-0.45L6.8,12.69
	C6.77,12.46,6.75,12.23,6.75,12s0.02-0.46,0.05-0.68l-1.48-1.16c-0.13-0.11-0.17-0.3-0.08-0.45l1.4-2.42
	c0.09-0.15,0.27-0.21,0.43-0.15l1.74,0.7c0.36-0.28,0.76-0.51,1.18-0.69l0.26-1.85C10.28,5.13,10.43,5,10.6,5h2.8
	c0.17,0,0.319,0.13,0.35,0.29l0.26,1.85c0.431,0.18,0.82,0.41,1.181,0.69l1.739-0.7c0.16-0.06,0.34,0,0.431,0.15L18.76,9.7
	c0.09,0.15,0.05,0.34-0.08,0.45L17.2,11.31C17.23,11.54,17.25,11.77,17.25,12z"/>
<path fill="#CFD8DC" d="M18.68,13.84c0.13,0.11,0.17,0.3,0.08,0.45l-1.399,2.42c-0.091,0.15-0.271,0.21-0.431,0.15l-1.739-0.7
	c-0.36,0.28-0.761,0.51-1.181,0.689L13.75,18.7c-0.03,0.17-0.18,0.3-0.35,0.3h-2.8c-0.17,0-0.32-0.13-0.35-0.29l-0.26-1.85
	c-0.43-0.181-0.82-0.41-1.18-0.69l-1.74,0.7c-0.16,0.06-0.34,0-0.43-0.15l-1.4-2.42c-0.09-0.149-0.05-0.34,0.08-0.45L6.8,12.69
	C6.77,12.46,6.75,12.23,6.75,12s0.02-0.46,0.05-0.68l-1.48-1.16c-0.13-0.11-0.17-0.3-0.08-0.45l1.4-2.42
	c0.09-0.15,0.27-0.21,0.43-0.15l1.74,0.7c0.36-0.28,0.76-0.51,1.18-0.69l0.26-1.85C10.28,5.13,10.43,5,10.6,5h2.8
	c0.17,0,0.319,0.13,0.35,0.29l0.26,1.85c0.431,0.18,0.82,0.41,1.181,0.69l1.739-0.7c0.16-0.06,0.34,0,0.431,0.15L18.76,9.7
	c0.09,0.15,0.05,0.34-0.08,0.45L17.2,11.31c0.03,0.23,0.05,0.46,0.05,0.69s-0.02,0.46-0.05,0.68L18.68,13.84z"/>
<path fill="#78909C" d="M21,5v14c0,1.1-0.89,2-2,2h-7.06v-2h1.46c0.17,0,0.319-0.13,0.35-0.3l0.26-1.851
	c0.42-0.18,0.82-0.409,1.181-0.689l1.739,0.7c0.16,0.06,0.34,0,0.431-0.15l1.399-2.42c0.09-0.15,0.05-0.34-0.08-0.45L17.2,12.68
	c0.03-0.22,0.05-0.45,0.05-0.68s-0.02-0.46-0.05-0.69l1.479-1.16c0.13-0.11,0.17-0.3,0.08-0.45L17.36,7.28
	C17.27,7.13,17.09,7.07,16.93,7.13l-1.739,0.7c-0.36-0.28-0.75-0.51-1.181-0.69l-0.26-1.85C13.72,5.13,13.57,5,13.4,5h-1.46V3H19
	C20.11,3,21,3.9,21,5z"/>
<path fill="#78909C" d="M12,10c-1.1,0-2,0.9-2,2c0,1.1,0.9,2,2,2c1.1,0,2-0.9,2-2C14,10.9,13.1,10,12,10z"/>
<g id="Capa_2">
</g>
</svg>
