<?xml version="1.0" encoding="utf-8"?>
<!-- Generator: Adobe Illustrator 16.0.0, SVG Export Plug-In . SVG Version: 6.00 Build 0)  -->
<!DOCTYPE svg PUBLIC "-//W3C//DTD SVG 1.1//EN" "http://www.w3.org/Graphics/SVG/1.1/DTD/svg11.dtd">
<svg version="1.1" id="Capa_1" xmlns="http://www.w3.org/2000/svg" xmlns:xlink="http://www.w3.org/1999/xlink" x="0px" y="0px"
	 width="24px" height="24px" viewBox="0 0 24 24" enable-background="new 0 0 24 24" xml:space="preserve">
<path fill="#B0BEC5" d="M21.246,4.765c-0.097-0.018-0.194-0.026-0.301-0.026h-3.534V2.972l-1.75-1.75l-0.019-0.018h-3.534
	l-1.768,1.768v1.768H6.807c-0.105,0-0.203,0.008-0.3,0.026C5.677,4.907,5.049,5.623,5.049,6.506L5.04,11.754v4.471
	c0,0.982,0.787,1.769,1.767,1.769h14.138c0.98,0,1.769-0.786,1.769-1.769V6.506C22.714,5.623,22.076,4.907,21.246,4.765z
	 M12.109,4.739V2.972h3.534v1.768H12.109z"/>
<path opacity="0.2" fill="#90A4AE" enable-background="new    " d="M22.714,6.506v5.248H5.04l0.009-5.248
	c0-0.884,0.628-1.6,1.458-1.741h14.739C22.076,4.907,22.714,5.623,22.714,6.506z"/>
<polygon fill="#B0BEC5" points="17.411,2.972 17.411,4.739 15.643,4.739 15.643,2.972 12.109,2.972 12.109,4.739 10.341,4.739 
	10.341,2.972 12.109,1.204 15.643,1.204 15.661,1.222 "/>
<polygon opacity="0.2" fill="#90A4AE" enable-background="new    " points="15.661,1.222 15.661,2.972 12.074,2.972 12.074,1.24 
	12.109,1.204 15.643,1.204 "/>
<polygon fill="#7986CB" points="17.976,10.826 11.286,15.287 11.286,7.258 "/>
<path opacity="0.7" fill="#90A4AE" enable-background="new    " d="M3,9H1v11c0,1.109,0.89,2,2,2h14c1.109,0,2-0.891,2-2H3V9z"/>
<path fill="none" d="M0,0h24v24H0V0z"/>
</svg>
