<?xml version="1.0" encoding="utf-8"?>
<!-- Generator: Adobe Illustrator 16.0.0, SVG Export Plug-In . SVG Version: 6.00 Build 0)  -->
<!DOCTYPE svg PUBLIC "-//W3C//DTD SVG 1.1//EN" "http://www.w3.org/Graphics/SVG/1.1/DTD/svg11.dtd">
<svg version="1.1" id="Capa_1" xmlns="http://www.w3.org/2000/svg" xmlns:xlink="http://www.w3.org/1999/xlink" x="0px" y="0px"
	 width="24px" height="24px" viewBox="0 0 24 24" enable-background="new 0 0 24 24" xml:space="preserve">
<path fill="#B0BEC5" d="M20.295,6.065c-0.109-0.02-0.219-0.03-0.34-0.03h-4v-2l-1.98-1.98l-0.02-0.02h-4l-2,2v2h-4
	c-0.12,0-0.23,0.01-0.34,0.03c-0.94,0.16-1.65,0.97-1.65,1.97l-0.01,5.939v5.061c0,1.109,0.891,2,2,2h15.999c1.109,0,2-0.891,2-2
	v-11C21.955,7.035,21.234,6.225,20.295,6.065z M9.956,6.035v-2h4v2H9.956z"/>
<path opacity="0.2" fill="#90A4AE" enable-background="new    " d="M21.955,8.035v5.939H1.956l0.01-5.939c0-1,0.71-1.81,1.65-1.97
	h16.679C21.234,6.225,21.955,7.035,21.955,8.035z"/>
<path fill="none" d="M0,0h24v24H0V0z"/>
<polygon fill="#7986CB" points="16.5,13 9,18 9,9 "/>
</svg>
