<?xml version="1.0" encoding="utf-8"?>
<!-- Generator: Adobe Illustrator 16.0.0, SVG Export Plug-In . SVG Version: 6.00 Build 0)  -->
<!DOCTYPE svg PUBLIC "-//W3C//DTD SVG 1.1//EN" "http://www.w3.org/Graphics/SVG/1.1/DTD/svg11.dtd">
<svg version="1.1" id="Capa_1" xmlns="http://www.w3.org/2000/svg" xmlns:xlink="http://www.w3.org/1999/xlink" x="0px" y="0px"
	 width="26px" height="24px" viewBox="0 0 26 24" enable-background="new 0 0 26 24" xml:space="preserve">
<path fill="none" d="M0,0h26v24H0V0z"/>
<path fill-opacity="0.3" d="M21,8.5c0.85,0,1.641,0.23,2.34,0.62l2.24-2.79C25.1,5.96,20.26,2,13,2S0.9,5.96,0.42,6.32L12.99,21.98
	L13,22l0.01-0.01l4.211-5.24C16.46,15.88,16,14.75,16,13.5C16,10.74,18.24,8.5,21,8.5z"/>
<path fill="#D32F2F" d="M21,10c-1.93,0-3.5,1.57-3.5,3.5h1.75c0-0.97,0.779-1.75,1.75-1.75s1.75,0.78,1.75,1.75
	c0,0.48-0.2,0.92-0.51,1.24l-1.09,1.1c-0.631,0.63-1.021,1.51-1.021,2.471v0.439h1.75c0-1.311,0.39-1.84,1.03-2.47l0.779-0.8
	c0.5-0.5,0.82-1.2,0.82-1.971C24.5,11.57,22.93,10,21,10z M20.05,21.95h1.9v-1.9h-1.9V21.95z"/>
</svg>
