<?xml version="1.0" encoding="utf-8"?>
<!-- Generator: Adobe Illustrator 16.0.0, SVG Export Plug-In . SVG Version: 6.00 Build 0)  -->
<!DOCTYPE svg PUBLIC "-//W3C//DTD SVG 1.1//EN" "http://www.w3.org/Graphics/SVG/1.1/DTD/svg11.dtd">
<svg version="1.1" id="Capa_1" xmlns="http://www.w3.org/2000/svg" xmlns:xlink="http://www.w3.org/1999/xlink" x="0px" y="0px"
	 width="24px" height="24px" viewBox="0 0 24 24" enable-background="new 0 0 24 24" xml:space="preserve">
<path fill="#66BB6A" fill-opacity="0.3" d="M23.641,7l-6.301,7.859h-0.01l-2.12,2.649l-3.2,3.98L12,21.5l-0.01-0.01l-3.25-4.051
	v-0.01l-2.07-2.57L0.36,7C0.81,6.66,5.28,3,12,3C18.71,3,23.189,6.66,23.641,7z"/>
<path fill="none" d="M0,0h24v24H0V0z"/>
<path fill="#81C784" d="M17.34,14.859l-2.13,2.649l-3.2,3.98L12,21.5v-0.01l-3.26-4.051v-0.01l-2.07-2.57C6.94,14.65,8.97,13,12,13
	c3,0,5.02,1.62,5.33,1.859H17.34z"/>
</svg>
