<?xml version="1.0" encoding="utf-8"?>
<!-- Generator: Adobe Illustrator 16.0.0, SVG Export Plug-In . SVG Version: 6.00 Build 0)  -->
<!DOCTYPE svg PUBLIC "-//W3C//DTD SVG 1.1//EN" "http://www.w3.org/Graphics/SVG/1.1/DTD/svg11.dtd">
<svg version="1.1" id="Capa_1" xmlns="http://www.w3.org/2000/svg" xmlns:xlink="http://www.w3.org/1999/xlink" x="0px" y="0px"
	 width="24px" height="24px" viewBox="0 0 24 24" enable-background="new 0 0 24 24" xml:space="preserve">
<g>
	<path fill="#CFD8DC" d="M18.995,4.722v14.357c0,0.988-0.789,1.795-1.754,1.795H6.729c-0.964,0-1.752-0.807-1.752-1.795L5,7.859
		l5-4.953l7.241,0.021C18.206,2.927,18.995,3.734,18.995,4.722z"/>
	<path opacity="0.2" fill="#B0BEC5" enable-background="new    " d="M18.995,4.722v14.357c0,0.988-0.789,1.795-1.754,1.795h-5.255
		V2.927h5.255C18.206,2.927,18.995,3.734,18.995,4.722z"/>
</g>
<path fill="none" d="M-618-2872H782V728H-618V-2872z M-1,0h26v24H-1V0z M0,0h24v24H0V0z"/>
<path fill="none" d="M0.01,0h24v24h-24V0z"/>
<rect x="10.852" y="0.897" transform="matrix(-0.7071 0.7071 -0.7071 -0.7071 29.4275 14.3102)" fill="#9FA8DA" width="1.796" height="24.706"/>
</svg>
