<?xml version="1.0" encoding="utf-8"?>
<!-- Generator: Adobe Illustrator 16.0.0, SVG Export Plug-In . SVG Version: 6.00 Build 0)  -->
<!DOCTYPE svg PUBLIC "-//W3C//DTD SVG 1.1//EN" "http://www.w3.org/Graphics/SVG/1.1/DTD/svg11.dtd">
<svg version="1.1" id="Capa_1" xmlns="http://www.w3.org/2000/svg" xmlns:xlink="http://www.w3.org/1999/xlink" x="0px" y="0px"
	 width="26px" height="24px" viewBox="0 0 26 24" enable-background="new 0 0 26 24" xml:space="preserve">
<path fill="#43A047" fill-opacity="0.3" d="M13.01,21.99L25.58,6.32C25.1,5.96,20.26,2,13,2S0.9,5.96,0.42,6.32L12.99,21.98L13,22
	L13.01,21.99z"/>
<path fill="#43A047" d="M13.01,21.99l9.43-11.75C22.07,9.97,18.439,7,13,7c-5.44,0-9.07,2.97-9.44,3.24l9.43,11.75H13.01z"/>
<path fill="#FFFFFF" d="M20,16.27V8l6-0.029"/>
<path fill="#D32F2F" d="M22,22h2v-2h-2V22z M22,10v8h2v-8H22z"/>
<path fill="none" d="M0,0h26v24H0V0z"/>
<path fill="#43A047" fill-opacity="0.3" d="M40.522,20.282l0.01,0.01l0.01-0.01"/>
<path fill="#43A047" d="M40.522,20.282l0.01,0.01l0.01-0.01"/>
</svg>
