<?xml version="1.0" encoding="utf-8"?>
<!-- Generator: Adobe Illustrator 16.0.0, SVG Export Plug-In . SVG Version: 6.00 Build 0)  -->
<!DOCTYPE svg PUBLIC "-//W3C//DTD SVG 1.1//EN" "http://www.w3.org/Graphics/SVG/1.1/DTD/svg11.dtd">
<svg version="1.1" id="Capa_1" xmlns="http://www.w3.org/2000/svg" xmlns:xlink="http://www.w3.org/1999/xlink" x="0px" y="0px"
	 width="24px" height="24px" viewBox="0 0 24 24" enable-background="new 0 0 24 24" xml:space="preserve">
<path fill="#66BB6A" fill-opacity="0.3" d="M23.641,7l-4.431,5.51l-2.819,3.521l-4.381,5.46L12,21.5h-0.01l-4.1-5.12l-3.1-3.86
	L0.36,7C0.81,6.66,5.28,3,12,3C18.71,3,23.189,6.66,23.641,7z"/>
<path fill="none" d="M0,0h24v24H0V0z"/>
<path fill="#66BB6A" d="M19.21,12.51l-2.819,3.521l-4.381,5.46L12,21.5h-0.01l-4.1-5.12l-3.1-3.86C5.15,12.24,7.9,10,12,10
	C16.1,10,18.85,12.24,19.21,12.51z"/>
</svg>
