<?xml version="1.0" encoding="utf-8"?>
<!-- Generator: Adobe Illustrator 16.0.0, SVG Export Plug-In . SVG Version: 6.00 Build 0)  -->
<!DOCTYPE svg PUBLIC "-//W3C//DTD SVG 1.1//EN" "http://www.w3.org/Graphics/SVG/1.1/DTD/svg11.dtd">
<svg version="1.1" id="Capa_1" xmlns="http://www.w3.org/2000/svg" xmlns:xlink="http://www.w3.org/1999/xlink" x="0px" y="0px"
	 width="24px" height="24px" viewBox="0 0 24 24" enable-background="new 0 0 24 24" xml:space="preserve">
<path fill="none" d="M0,0h24v24H0V0z"/>
<path opacity="0.6" fill="#90A4AE" enable-background="new    " d="M23.641,7C23.189,6.66,18.709,2.924,12,3
	C7.859,3.047,6.953,3.609,5.828,4.016l9.984,12.703L23.641,7z"/>
<path opacity="0.6" fill="#90A4AE" enable-background="new    " d="M17.04,15.22L3.27,1.44L2,2.72L4.05,4.78
	C1.91,5.76,0.59,6.82,0.36,7l11.63,14.49L12,21.5l0.01-0.01l3.9-4.86l3.32,3.32l1.27-1.271L17.04,15.22z"/>
<g id="Capa_2">
	<polygon fill="#9FA8DA" points="2,2.719 3.25,1.438 20.484,18.688 19.234,19.922 	"/>
	<path fill="#9FA8DA" d="M1.453,1.234"/>
</g>
</svg>
