<?xml version="1.0" encoding="utf-8"?>
<!-- Generator: Adobe Illustrator 16.0.0, SVG Export Plug-In . SVG Version: 6.00 Build 0)  -->
<!DOCTYPE svg PUBLIC "-//W3C//DTD SVG 1.1//EN" "http://www.w3.org/Graphics/SVG/1.1/DTD/svg11.dtd">
<svg version="1.1" id="Capa_1" xmlns="http://www.w3.org/2000/svg" xmlns:xlink="http://www.w3.org/1999/xlink" x="0px" y="0px"
	 width="24px" height="24px" viewBox="0 0 24 24" enable-background="new 0 0 24 24" xml:space="preserve">
<g>
	<g id="Capa_1_1_">
		<polygon fill="#B71C1C" fill-opacity="0.3" points="22,2 22,8 18,8 18,22 2,22 		"/>
		<polygon fill="#EF5350" points="12,12 12,22 2,22 		"/>
		<path fill="none" d="M0,0v24h24V0H0z M22.59,22.81h-4.62V22H18V8h4V7.97h0.59V22.81z"/>
	</g>
	<g id="Capa_2">
		<polygon fill="#E53935" points="7.021,17 7.021,22 2.021,22 		"/>
	</g>
</g>
<path fill="none" d="M0,0h24v24H0V0z"/>
<rect x="20" y="10" fill="#D32F2F" width="2" height="8"/>
<rect x="20" y="20" fill="#D32F2F" width="2" height="2"/>
<polygon fill="#FFFFFF" points="22,7.97 22,8 18,8 18,22 17.97,22 17.97,7.97 "/>
</svg>
