<?xml version="1.0" encoding="utf-8"?>
<!-- Generator: Adobe Illustrator 16.0.0, SVG Export Plug-In . SVG Version: 6.00 Build 0)  -->
<!DOCTYPE svg PUBLIC "-//W3C//DTD SVG 1.1//EN" "http://www.w3.org/Graphics/SVG/1.1/DTD/svg11.dtd">
<svg version="1.1" id="Capa_1" xmlns="http://www.w3.org/2000/svg" xmlns:xlink="http://www.w3.org/1999/xlink" x="0px" y="0px"
	 width="26px" height="24px" viewBox="0 0 26 24" enable-background="new 0 0 26 24" xml:space="preserve">
<path fill="none" d="M0,0h26v24H0V0z"/>
<path fill="#66BB6A" fill-opacity="0.3" d="M24.24,8l1.35-1.68C25.1,5.96,20.26,2,13,2S0.9,5.96,0.42,6.32L12.99,21.98L13,22
	l0.01-0.01L20,13.28V8H24.24z"/>
<path fill="#66BB6A" d="M5.45,12.59l7.54,9.4L13,22l0.01-0.01L20,13.28v-1.09C18.93,11.46,16.41,10,13,10
	C8.64,10,5.74,12.38,5.45,12.59z"/>
<rect x="22" y="10" fill="#D32F2F" width="2" height="8"/>
<rect x="22" y="20" fill="#D32F2F" width="2" height="2"/>
<path fill="none" d="M27.584-0.125h24v24h-24V-0.125z"/>
</svg>
