<?xml version="1.0" encoding="utf-8"?>
<!-- Generator: Adobe Illustrator 16.0.0, SVG Export Plug-In . SVG Version: 6.00 Build 0)  -->
<!DOCTYPE svg PUBLIC "-//W3C//DTD SVG 1.1//EN" "http://www.w3.org/Graphics/SVG/1.1/DTD/svg11.dtd">
<svg version="1.1" id="Capa_1" xmlns="http://www.w3.org/2000/svg" xmlns:xlink="http://www.w3.org/1999/xlink" x="0px" y="0px"
	 width="24px" height="24px" viewBox="0 0 24 24" enable-background="new 0 0 24 24" xml:space="preserve">
<path fill="none" d="M0,0h24v24H0V0z"/>
<g>
	<path fill="#4DB6AC" d="M19.956,3.974v16c0,1.1-0.899,2-2,2h-12c-1.1,0-2-0.9-2-2l0.02-12l5.98-6h8
		C19.057,1.974,19.956,2.874,19.956,3.974z"/>
	<path opacity="0.5" fill="#26A69A" enable-background="new    " d="M19.956,3.974v16c0,1.1-0.899,2-2,2h-6v-20h6
		C19.057,1.974,19.956,2.874,19.956,3.974z"/>
</g>
<rect x="11" y="15" fill="#FFFFFF" width="2" height="2"/>
<rect x="11" y="8" fill="#FFFFFF" width="2" height="5"/>
</svg>
