<?xml version="1.0" encoding="utf-8"?>
<!-- Generator: Adobe Illustrator 16.0.0, SVG Export Plug-In . SVG Version: 6.00 Build 0)  -->
<!DOCTYPE svg PUBLIC "-//W3C//DTD SVG 1.1//EN" "http://www.w3.org/Graphics/SVG/1.1/DTD/svg11.dtd">
<svg version="1.1" id="Capa_1" xmlns="http://www.w3.org/2000/svg" xmlns:xlink="http://www.w3.org/1999/xlink" x="0px" y="0px"
	 width="24px" height="24px" viewBox="0 0 24 24" enable-background="new 0 0 24 24" xml:space="preserve">
<path fill="none" d="M0,0h24v24H0V0z"/>
<path fill="#37474F" d="M17,2H7C5.9,2,5,2.9,5,4v16c0,1.1,0.9,1.99,2,1.99L17,22c1.1,0,2-0.9,2-2V4C19,2.9,18.1,2,17,2z"/>
<path fill="#B0BEC5" d="M12,4c1.1,0,2,0.9,2,2s-0.9,2-2,2c-1.11,0-2-0.9-2-2S10.89,4,12,4z"/>
<circle fill="#B0BEC5" cx="12" cy="15" r="5"/>
<path fill="#78909C" d="M12,12c-1.66,0-3,1.34-3,3s1.34,3,3,3s3-1.34,3-3S13.66,12,12,12z"/>
</svg>
