<?xml version="1.0" encoding="utf-8"?>
<!-- Generator: Adobe Illustrator 16.0.0, SVG Export Plug-In . SVG Version: 6.00 Build 0)  -->
<!DOCTYPE svg PUBLIC "-//W3C//DTD SVG 1.1//EN" "http://www.w3.org/Graphics/SVG/1.1/DTD/svg11.dtd">
<svg version="1.1" id="Capa_1" xmlns="http://www.w3.org/2000/svg" xmlns:xlink="http://www.w3.org/1999/xlink" x="0px" y="0px"
	 width="24px" height="24px" viewBox="0 0 24 24" enable-background="new 0 0 24 24" xml:space="preserve">
<path fill="#66BB6A" d="M21.974,11.998c0,5.5-4.451,9.969-9.96,10h-0.05c-5.52,0-9.99-4.48-9.99-10s4.471-10,9.99-10h0.05
	C17.522,2.028,21.974,6.498,21.974,11.998z"/>
<path opacity="0.3" fill="#43A047" enable-background="new    " d="M21.974,11.998c0,5.5-4.451,9.969-9.96,10v-20
	C17.522,2.028,21.974,6.498,21.974,11.998z"/>
<polygon fill="#CFD8DC" points="16.204,17.998 11.973,15.447 7.743,17.998 8.864,13.188 5.133,9.958 10.053,9.538 11.973,4.998 
	13.894,9.528 18.813,9.948 15.083,13.178 "/>
<path fill="none" d="M0,0h24v24H0V0z"/>
</svg>
