<?xml version="1.0" encoding="utf-8"?>
<!-- Generator: Adobe Illustrator 16.0.0, SVG Export Plug-In . SVG Version: 6.00 Build 0)  -->
<!DOCTYPE svg PUBLIC "-//W3C//DTD SVG 1.1//EN" "http://www.w3.org/Graphics/SVG/1.1/DTD/svg11.dtd">
<svg version="1.1" id="Capa_1" xmlns="http://www.w3.org/2000/svg" xmlns:xlink="http://www.w3.org/1999/xlink" x="0px" y="0px"
	 width="24px" height="24px" viewBox="0 0 24 24" enable-background="new 0 0 24 24" xml:space="preserve">
<polygon fill="#FBC02D" points="16.55,14.47 18.18,21.5 12,17.77 11.92,17.82 5.82,21.5 7.46,14.47 2,9.74 9.19,9.13 11.92,2.69 
	12,2.5 14.81,9.12 22,9.74 "/>
<polygon fill="#FFFFFF" points="11.938,15.822 11.938,6.522 13.647,10.562 18.027,10.942 14.707,13.822 15.707,18.102 "/>
<path fill="none" d="M0,0h24v24H0V0z"/>
<polygon fill="#FDD835" points="11.92,2.69 11.92,17.82 5.82,21.5 7.46,14.47 2,9.74 9.19,9.13 "/>
<polygon fill="#FFF176" points="8.164,18.133 9.164,13.854 5.844,10.973 10.224,10.593 11.934,6.553 11.934,15.854 "/>
</svg>
