<?xml version="1.0" encoding="utf-8"?>
<!-- Generator: Adobe Illustrator 16.0.0, SVG Export Plug-In . SVG Version: 6.00 Build 0)  -->
<!DOCTYPE svg PUBLIC "-//W3C//DTD SVG 1.1//EN" "http://www.w3.org/Graphics/SVG/1.1/DTD/svg11.dtd">
<svg version="1.1" id="Capa_1" xmlns="http://www.w3.org/2000/svg" xmlns:xlink="http://www.w3.org/1999/xlink" x="0px" y="0px"
	 width="24px" height="24px" viewBox="0 0 24 24" enable-background="new 0 0 24 24" xml:space="preserve">
<rect x="4" y="13.9" fill="#B0BEC5" width="10" height="6.1"/>
<rect x="6" y="14" fill="#BBDEFB" width="6" height="4"/>
<path fill="none" d="M0,0h24v24H0V0z"/>
<rect x="4" y="4" fill="#E53935" width="16" height="2"/>
<polygon fill="#D1C4E9" points="6.01,7 6.01,13.99 3,13.99 3,12 4,7 "/>
<rect x="5.97" y="7" fill="#E53935" width="3.04" height="6.99"/>
<rect x="8.96" y="7" fill="#D1C4E9" width="3.05" height="6.99"/>
<rect x="11.96" y="7" fill="#E53935" width="3.04" height="6.99"/>
<rect x="14.96" y="7" fill="#D1C4E9" width="3.04" height="6.99"/>
<polygon fill="#E53935" points="21,12 21,13.99 17.96,13.99 17.96,7 20,7 "/>
<rect x="18" y="14" fill="#B0BEC5" width="2" height="6"/>
</svg>
