<?xml version="1.0" encoding="utf-8"?>
<!-- Generator: Adobe Illustrator 16.0.0, SVG Export Plug-In . SVG Version: 6.00 Build 0)  -->
<!DOCTYPE svg PUBLIC "-//W3C//DTD SVG 1.1//EN" "http://www.w3.org/Graphics/SVG/1.1/DTD/svg11.dtd">
<svg version="1.1" id="Capa_1" xmlns="http://www.w3.org/2000/svg" xmlns:xlink="http://www.w3.org/1999/xlink" x="0px" y="0px"
	 width="24px" height="24px" viewBox="0 0 24 24" enable-background="new 0 0 24 24" xml:space="preserve">
<g id="Capa_1_1_">
	<path fill="none" d="M0,0h24v24H0V0z"/>
	<path fill="#4DB6AC" d="M20,7H4l-1,5v2h1v6h10v-6h4v6h2v-6h1v-2L20,7z M12,18H6v-4h6V18z M4,4v2h16V4H4z"/>
</g>
<g id="Capa_2">
	<polygon fill="#EF5350" points="21,12 21,14 3,14 3,12 4,7 20,7 20.98,11.9 	"/>
	<polygon fill="#4DB6AC" points="14,14 14,20 4,20 4,14 6,14 6,18 12,18 12,14 	"/>
	<rect x="18" y="14" fill="#4DB6AC" width="2" height="6"/>
</g>
<polygon fill="#E53935" points="21,12 21,14 20,14 20,14.02 4,14.02 4,14 3,14 3,12 3.02,11.9 20.98,11.9 "/>
</svg>
