<?xml version="1.0" encoding="utf-8"?>
<!-- Generator: Adobe Illustrator 16.0.0, SVG Export Plug-In . SVG Version: 6.00 Build 0)  -->
<!DOCTYPE svg PUBLIC "-//W3C//DTD SVG 1.1//EN" "http://www.w3.org/Graphics/SVG/1.1/DTD/svg11.dtd">
<svg version="1.1" id="Capa_1" xmlns="http://www.w3.org/2000/svg" xmlns:xlink="http://www.w3.org/1999/xlink" x="0px" y="0px"
	 width="24px" height="24px" viewBox="0 0 24 24" enable-background="new 0 0 24 24" xml:space="preserve">
<path fill="#DCE775" d="M12.461,21.679l5.067-11.925c0.317-0.747,0.135-1.59-0.392-2.153c-0.182-0.186-0.398-0.35-0.659-0.458
	l-7.34-3.122C8.39,3.702,7.554,3.879,6.991,4.404c-0.2,0.182-0.356,0.407-0.465,0.667L1.459,16.997
	c-0.325,0.754-0.134,1.604,0.405,2.168c0.183,0.186,0.399,0.336,0.646,0.444l7.332,3.113C10.857,23.156,12.036,22.687,12.461,21.679
	z"/>
<path fill="#43A047" d="M17.95,19.665L17.806,6.709c-0.009-0.812-0.515-1.511-1.222-1.815c-0.241-0.097-0.506-0.16-0.788-0.155
	L7.819,4.825C7.008,4.833,6.313,5.33,6.007,6.037c-0.11,0.247-0.164,0.516-0.159,0.798l0.146,12.956
	c0.005,0.821,0.52,1.523,1.241,1.823c0.241,0.097,0.501,0.147,0.771,0.147l7.965-0.09C17.074,21.662,17.965,20.759,17.95,19.665z"/>
<path fill="#EF5350" d="M22.029,15.95L17.07,3.98c-0.311-0.75-1.041-1.21-1.811-1.23c-0.26,0-0.529,0.04-0.789,0.15L7.1,5.95
	c-0.75,0.31-1.21,1.03-1.23,1.8c-0.01,0.27,0.04,0.54,0.15,0.8l4.96,11.97c0.31,0.761,1.05,1.221,1.831,1.23
	c0.26,0,0.52-0.05,0.77-0.15l7.359-3.05C21.96,18.13,22.45,16.96,22.029,15.95z"/>
<circle fill="#FFFFFF" cx="7.88" cy="7.75" r="1"/>
<path fill="none" d="M0,0h24v24H0V0z"/>
</svg>
