<?xml version="1.0" encoding="utf-8"?>
<!-- Generator: Adobe Illustrator 16.0.0, SVG Export Plug-In . SVG Version: 6.00 Build 0)  -->
<!DOCTYPE svg PUBLIC "-//W3C//DTD SVG 1.1//EN" "http://www.w3.org/Graphics/SVG/1.1/DTD/svg11.dtd">
<svg version="1.1" id="Capa_1" xmlns="http://www.w3.org/2000/svg" xmlns:xlink="http://www.w3.org/1999/xlink" x="0px" y="0px"
	 width="24px" height="24px" viewBox="0 0 24 24" enable-background="new 0 0 24 24" xml:space="preserve">
<path fill="#4DD0E1" d="M11.917,2c-5.52,0-10,4.48-10,10c0,5.52,4.48,10,10,10c5.52,0,10-4.48,10-10C21.917,6.48,17.437,2,11.917,2z
	"/>
<circle fill="#006064" cx="12" cy="6.75" r="2.25"/>
<path fill="#006064" d="M17,15.061v2.5c-0.45,0.409-0.96,0.77-1.5,1.049v-0.68c0-0.34-0.17-0.649-0.46-0.92
	c-0.649-0.619-1.89-1.02-3.04-1.02c-0.96,0-1.96,0.279-2.65,0.729l-0.17,0.12l-0.21,0.17c0.78,0.471,1.63,0.721,2.54,0.82l1.33,0.15
	c0.37,0.039,0.66,0.359,0.66,0.75c0,0.289-0.16,0.529-0.4,0.66c-0.279,0.149-0.64,0.09-0.95,0.09c-0.35,0-0.69-0.011-1.03-0.051
	c-0.5-0.06-0.99-0.17-1.46-0.33c-0.49-0.16-0.97-0.38-1.42-0.64c-0.22-0.13-0.44-0.271-0.65-0.43l-0.31-0.24
	C7.24,17.77,7,17.609,7,17.561v-4.28c0-1.58,2.63-2.78,5-2.78s5,1.2,5,2.78V15.061z"/>
<path fill="none" d="M0,0h24v24H0V0z"/>
<circle fill="#4DD0E1" cx="12" cy="13.49" r="1.5"/>
</svg>
