<?xml version="1.0" encoding="utf-8"?>
<!-- Generator: Adobe Illustrator 16.0.0, SVG Export Plug-In . SVG Version: 6.00 Build 0)  -->
<!DOCTYPE svg PUBLIC "-//W3C//DTD SVG 1.1//EN" "http://www.w3.org/Graphics/SVG/1.1/DTD/svg11.dtd">
<svg version="1.1" id="Capa_1" xmlns="http://www.w3.org/2000/svg" xmlns:xlink="http://www.w3.org/1999/xlink" x="0px" y="0px"
	 width="24px" height="24px" viewBox="0 0 24 24" enable-background="new 0 0 24 24" xml:space="preserve">
<path fill="none" d="M0,0h24v24H0V0z"/>
<path fill="#37474F" d="M20,4H4C2.9,4,2,4.9,2,6v12c0,1.1,0.9,2,2,2h16c1.1,0,2-0.9,2-2V6C22,4.9,21.1,4,20,4z"/>
<path fill="#B0BEC5" d="M7.76,16.24l-1.41,1.41C4.78,16.1,4,14.05,4,12s0.78-4.1,2.34-5.66l1.41,1.41C6.59,8.93,6,10.46,6,12
	S6.59,15.07,7.76,16.24z"/>
<circle fill="#B0BEC5" cx="12" cy="12" r="4"/>
<path fill="#B0BEC5" d="M17.66,17.66l-1.41-1.41C17.41,15.07,18,13.54,18,12s-0.59-3.07-1.76-4.24l1.41-1.41
	C19.221,7.9,20,9.95,20,12S19.221,16.1,17.66,17.66z"/>
<path fill="#78909C" d="M12,10c-1.1,0-2,0.9-2,2c0,1.1,0.9,2,2,2c1.1,0,2-0.9,2-2C14,10.9,13.1,10,12,10z"/>
</svg>
