<?xml version="1.0" encoding="utf-8"?>
<!-- Generator: Adobe Illustrator 16.0.0, SVG Export Plug-In . SVG Version: 6.00 Build 0)  -->
<!DOCTYPE svg PUBLIC "-//W3C//DTD SVG 1.1//EN" "http://www.w3.org/Graphics/SVG/1.1/DTD/svg11.dtd">
<svg version="1.1" id="Capa_1" xmlns="http://www.w3.org/2000/svg" xmlns:xlink="http://www.w3.org/1999/xlink" x="0px" y="0px"
	 width="24px" height="24px" viewBox="0 0 24 24" enable-background="new 0 0 24 24" xml:space="preserve">
<path fill="#43A047" d="M22,8h-3v7c0,2.21-1.79,4-4,4s-4-1.79-4-4V8c0-1.1-0.9-2-2-2S7,6.9,7,8v7h3l-4,4l-4-4h3V8c0-2.21,1.79-4,4-4
	s4,1.79,4,4v7c0,1.1,0.9,2,2,2s2-0.9,2-2V8h-3l4-4L22,8z"/>
<path fill="none" d="M0,0h24v24H0V0z"/>
<path fill="#00ACC1" d="M13,8v3.46h-2V8c0-1.1-0.9-2-2-2S7,6.9,7,8v7h3l-4,4l-4-4h3V8c0-2.21,1.79-4,4-4S13,5.79,13,8z"/>
</svg>
