<?xml version="1.0" encoding="utf-8"?>
<!-- Generator: Adobe Illustrator 16.0.0, SVG Export Plug-In . SVG Version: 6.00 Build 0)  -->
<!DOCTYPE svg PUBLIC "-//W3C//DTD SVG 1.1//EN" "http://www.w3.org/Graphics/SVG/1.1/DTD/svg11.dtd">
<svg version="1.1" id="Capa_1" xmlns="http://www.w3.org/2000/svg" xmlns:xlink="http://www.w3.org/1999/xlink" x="0px" y="0px"
	 width="24px" height="24px" viewBox="0 0 24 24" enable-background="new 0 0 24 24" xml:space="preserve">
<g>
	<path fill="#37474F" d="M21.959,5.593v12.824L18,14.5l-0.031,3.359C17.938,19.078,17.024,19,16.415,19H3.109
		C2.499,19,2,18.476,2,17.835V6.176C2,5.535,2.499,5.01,3.109,5.01h13.306c0.609,0,1.108,0.525,1.108,1.166v4.08l0.021-0.023
		L21.959,5.593z"/>
	<g id="Capa_2">
		<polygon fill="#263238" points="21.959,5.593 21.959,18.417 18,14.5 17.984,10.256 18.004,10.233 		"/>
	</g>
	<g id="Capa_3">
		<path fill="#455A64" d="M17.984,10.25v1.688L2,11.97V6.176C2,5.535,2.499,5.01,3.109,5.01h13.306
			c1.351,0.005,1.507,0.333,1.569,1.146V10.25L17.984,10.25z"/>
		<polygon fill="#37474F" points="21.959,5.593 21.959,11.923 17.984,11.938 17.984,10.25 18,9.5 		"/>
	</g>
</g>
<path fill="none" d="M0,0h24v24H0V0z"/>
<polygon fill="#CFD8DC" points="13,15.5 13,13 7,13 7,15.5 3.5,12 7,8.5 7,11 13,11 13,8.5 16.5,12 "/>
</svg>
