<?xml version="1.0" encoding="utf-8"?>
<!-- Generator: Adobe Illustrator 16.0.0, SVG Export Plug-In . SVG Version: 6.00 Build 0)  -->
<!DOCTYPE svg PUBLIC "-//W3C//DTD SVG 1.1//EN" "http://www.w3.org/Graphics/SVG/1.1/DTD/svg11.dtd">
<svg version="1.1" id="Capa_1" xmlns="http://www.w3.org/2000/svg" xmlns:xlink="http://www.w3.org/1999/xlink" x="0px" y="0px"
	 width="24px" height="24px" viewBox="0 0 24 24" enable-background="new 0 0 24 24" xml:space="preserve">
<g id="Capa_1_1_" display="none">
	<path display="inline" fill="none" d="M17.65,17.67l-0.801-0.811l-0.609-0.601L7.77,7.77L7.12,7.13L6.36,6.36L4.14,4.14L2.86,5.41
		l2.36,2.36C5.14,7.9,5.06,8.03,5,8.16C4.78,8.54,4.6,8.94,4.46,9.35C4.16,10.18,4,11.07,4,12c0,0.73,0.1,1.43,0.29,2.1
		c0.06,0.23,0.13,0.44,0.21,0.66c0.41,1.09,1.05,2.07,1.86,2.881L4,20h0.02l-0.01,0.01h6v-6L10,14.02V14l-2.24,2.24
		c-0.67-0.682-1.19-1.51-1.48-2.45c-0.17-0.56-0.27-1.16-0.27-1.78c0-1,0.25-1.94,0.68-2.77l8.062,8.062
		c-0.126,0.063-0.24,0.144-0.372,0.198c-0.12,0.05-0.26,0.1-0.39,0.15v2.09c0.01,0,0.01,0,0.02-0.01v0.02
		c0.801-0.21,1.54-0.53,2.221-0.96l2.352,2.351l1.271-1.271L17.65,17.67z M9.23,6.68C9.48,6.56,9.73,6.44,10,6.35V5.2
		c0-0.01,0.01-0.01,0.01-0.01V4.27H10V4.26c-0.21,0.06-0.42,0.12-0.63,0.2C9.09,4.56,8.81,4.68,8.54,4.8
		C8.28,4.92,8.02,5.06,7.77,5.22L9.23,6.68z M19.51,9.25c-0.398-1.09-1.05-2.07-1.859-2.88l2.359-2.36h-0.02L20,4h-6v6l0.01-0.01
		v0.02l2.24-2.24c0.41,0.41,0.75,0.87,1.029,1.38c0.181,0.34,0.341,0.69,0.451,1.07C17.9,10.78,18,11.38,18,12
		c0,0.38-0.04,0.74-0.1,1.1c-0.11,0.592-0.313,1.15-0.58,1.67l0.01,0.013l1.449,1.448c0.479-0.761,0.841-1.608,1.041-2.528
		c0.039-0.183,0.068-0.37,0.1-0.552c0.061-0.368,0.09-0.75,0.09-1.141c0-0.729-0.1-1.44-0.289-2.1C19.66,9.68,19.59,9.46,19.51,9.25
		z M17.65,17.67l-0.801-0.811l-0.609-0.601L7.77,7.77L7.12,7.13L6.36,6.36L4.14,4.14L2.86,5.41l2.36,2.36C5.14,7.9,5.06,8.03,5,8.16
		C4.78,8.54,4.6,8.94,4.46,9.35C4.16,10.18,4,11.07,4,12c0,0.73,0.1,1.43,0.29,2.1c0.06,0.23,0.13,0.44,0.21,0.66
		c0.41,1.09,1.05,2.07,1.86,2.881L4,20h0.02l-0.01,0.01h6v-6L10,14.02V14l-2.24,2.24c-0.67-0.682-1.19-1.51-1.48-2.45
		c-0.17-0.56-0.27-1.16-0.27-1.78c0-1,0.25-1.94,0.68-2.77l8.062,8.062c-0.126,0.063-0.24,0.144-0.372,0.198
		c-0.12,0.05-0.26,0.1-0.39,0.15v2.09c0.01,0,0.01,0,0.02-0.01v0.02c0.801-0.21,1.54-0.53,2.221-0.96l2.352,2.351l1.271-1.271
		L17.65,17.67z M9.23,6.68C9.48,6.56,9.73,6.44,10,6.35V5.2c0-0.01,0.01-0.01,0.01-0.01V4.27H10V4.26c-0.21,0.06-0.42,0.12-0.63,0.2
		C9.09,4.56,8.81,4.68,8.54,4.8C8.28,4.92,8.02,5.06,7.77,5.22L9.23,6.68z M19.51,9.25c-0.398-1.09-1.05-2.07-1.859-2.88l2.359-2.36
		h-0.02L20,4h-6v6l0.01-0.01v0.02l2.24-2.24c0.41,0.41,0.75,0.87,1.029,1.38c0.181,0.34,0.341,0.69,0.451,1.07
		C17.9,10.78,18,11.38,18,12c0,0.38-0.04,0.74-0.1,1.1c-0.11,0.592-0.313,1.15-0.58,1.67l0.01,0.013l1.449,1.448
		c0.479-0.761,0.841-1.608,1.041-2.528c0.039-0.183,0.068-0.37,0.1-0.552c0.061-0.368,0.09-0.75,0.09-1.141
		c0-0.729-0.1-1.44-0.289-2.1C19.66,9.68,19.59,9.46,19.51,9.25z"/>
	<path display="inline" d="M9.37,4.46C9.09,4.56,8.81,4.68,8.54,4.8C8.28,4.92,8.02,5.06,7.77,5.22l1.46,1.46
		C9.48,6.56,9.73,6.44,10,6.35V4.26C9.79,4.32,9.58,4.38,9.37,4.46z M17.65,17.67l-0.801-0.811l-0.609-0.601L7.77,7.77L7.12,7.13
		L6.36,6.36L4.14,4.14L2.86,5.41l2.36,2.36C5.14,7.9,5.06,8.03,5,8.16C4.78,8.54,4.6,8.94,4.46,9.35C4.16,10.18,4,11.07,4,12
		c0,0.73,0.1,1.43,0.29,2.1c0.06,0.23,0.13,0.44,0.21,0.66c0.41,1.09,1.05,2.07,1.86,2.881L4,20h6v-6l-2.24,2.24
		c-0.67-0.682-1.19-1.51-1.48-2.45C6.1,13.23,6,12.63,6,12c0-1,0.25-1.94,0.68-2.77l0.01,0.01l8.062,8.062
		c-0.126,0.063-0.24,0.144-0.372,0.198c-0.12,0.05-0.26,0.1-0.39,0.15v2.09c0.01,0,0.01,0,0.02-0.01
		c0.79-0.211,1.54-0.53,2.211-0.95l0.01,0.01l2.352,2.351l1.271-1.271L17.65,17.67z M19.51,9.25c-0.398-1.09-1.05-2.07-1.859-2.88
		l-0.01-0.01l2.352-2.35L20,4h-6v6l2.24-2.24l0.01,0.01c0.41,0.41,0.75,0.87,1.029,1.38c0.181,0.34,0.341,0.69,0.451,1.07
		C17.9,10.78,18,11.38,18,12c0,0.38-0.04,0.74-0.1,1.1c-0.11,0.592-0.313,1.15-0.58,1.67l0.01,0.013l1.449,1.448
		c0.479-0.761,0.841-1.608,1.041-2.528c0.039-0.183,0.068-0.37,0.1-0.552C19.971,12.77,20,12.39,20,12c0-0.72-0.1-1.42-0.279-2.09
		C19.66,9.68,19.59,9.46,19.51,9.25z"/>
</g>
<g id="Capa_2">
	<path opacity="0.6" fill="#90A4AE" enable-background="new    " d="M10,14.02l0.01-0.01v6h-6L4.02,20l2.35-2.35l-0.01-0.01
		C5.55,16.83,4.91,15.85,4.5,14.76c-0.08-0.22-0.15-0.43-0.21-0.66c-0.18-0.658-0.28-1.357-0.28-2.09c0-0.93,0.16-1.83,0.45-2.66
		C4.61,8.94,4.79,8.54,5,8.16c0.37-0.67,0.82-1.27,1.36-1.8l0.76,0.77l0.65,0.64C7.34,8.2,6.97,8.7,6.69,9.24
		c-0.43,0.83-0.68,1.77-0.68,2.77c0,0.62,0.1,1.221,0.27,1.78c0.29,0.94,0.81,1.771,1.48,2.45l0.01,0.01L10,14.02z"/>
	<path opacity="0.6" fill="#90A4AE" enable-background="new    " d="M10.01,4.27v0.92c0,0-0.01,0-0.01,0.01v1.15
		C9.73,6.44,9.48,6.56,9.23,6.68L7.78,5.23c0.25-0.15,0.5-0.29,0.76-0.43c0.27-0.12,0.55-0.24,0.83-0.34
		C9.58,4.39,9.79,4.33,10,4.27H10.01z"/>
	<path fill="#90A4AE" d="M16.85,16.859l0.801,0.811c-0.42,0.43-0.898,0.811-1.42,1.12c-0.681,0.43-1.42,0.75-2.221,0.96v-2.09
		c0.852-0.301,1.61-0.78,2.23-1.4L16.85,16.859z"/>
	<path fill="#90A4AE" d="M19.51,9.25c0.32,0.86,0.5,1.78,0.5,2.76c0,0.39-0.029,0.771-0.09,1.141
		c-0.029,0.182-0.061,0.369-0.1,0.552c-0.2,0.92-0.563,1.771-1.041,2.528l-1.449-1.448C17.6,14.26,17.8,13.7,17.9,13.1
		c0.08-0.35,0.107-0.72,0.107-1.09c0-0.63-0.1-1.229-0.277-1.79c-0.11-0.38-0.271-0.729-0.451-1.07C17,8.64,16.66,8.18,16.25,7.77
		l-2.24,2.24v-6h6L17.65,6.37C18.46,7.18,19.109,8.16,19.51,9.25z"/>
</g>
<path fill="#90A4AE" d="M17.33,14.782c0,0-0.533,1.702-2.924,2.702c0.031,0.078,0.391,0.875,0.531,0.891s1.293,0.415,1.293,0.415
	s1.516-1.032,2.549-2.56l-0.342-1.34L17.33,14.782z"/>
<path opacity="0.6" fill="#90A4AE" enable-background="new    " d="M9.23,6.68c0,0-1.48,0.367-2.542,2.523L5.234,7.797
	c0,0,0.528-1.368,2.545-2.567"/>
<g id="Capa_3">
	<polygon fill="#9FA8DA" points="2.859,5.422 4.125,4.125 19.828,19.844 18.594,21.156 	"/>
</g>
</svg>
