<?xml version="1.0" encoding="utf-8"?>
<!-- Generator: Adobe Illustrator 16.0.0, SVG Export Plug-In . SVG Version: 6.00 Build 0)  -->
<!DOCTYPE svg PUBLIC "-//W3C//DTD SVG 1.1//EN" "http://www.w3.org/Graphics/SVG/1.1/DTD/svg11.dtd">
<svg version="1.1" id="Capa_1" xmlns="http://www.w3.org/2000/svg" xmlns:xlink="http://www.w3.org/1999/xlink" x="0px" y="0px"
	 width="24px" height="24px" viewBox="0 0 24 24" enable-background="new 0 0 24 24" xml:space="preserve">
<rect x="2.208" y="4.583" fill="#C5CAE9" width="19.458" height="15.875"/>
<path fill="none" d="M0,0.5h24v24H0V0.5z"/>
<path fill="#C5CAE9" d="M21,3.5H3c-1.1,0-2,0.9-2,2v14c0,1.1,0.9,2,2,2h18c1.1,0,2-0.9,2-2v-14C23,4.4,22.1,3.5,21,3.5z M21,19.52H3
	V5.49h6V5.48h6v0.01h6V19.52z"/>
<polygon fill="#42A5F5" points="12,16.5 16,12.5 13,12.5 13,3.5 11,3.5 11,12.5 8,12.5 "/>
</svg>
