<?xml version="1.0" encoding="utf-8"?>
<!-- Generator: Adobe Illustrator 16.0.0, SVG Export Plug-In . SVG Version: 6.00 Build 0)  -->
<!DOCTYPE svg PUBLIC "-//W3C//DTD SVG 1.1//EN" "http://www.w3.org/Graphics/SVG/1.1/DTD/svg11.dtd">
<svg version="1.1" id="Capa_1" xmlns="http://www.w3.org/2000/svg" xmlns:xlink="http://www.w3.org/1999/xlink" x="0px" y="0px"
	 width="24px" height="24px" viewBox="0 0 24 24" enable-background="new 0 0 24 24" xml:space="preserve">
<path fill="#CFD8DC" d="M22,4v12c0,1.1-0.9,2-2,2H6l-4,4v-0.02l0.01-11.94V4C2.01,2.9,2.9,2,4,2h16C21.1,2,22,2.9,22,4z"/>
<path fill="none" d="M24,0v24H0V10.04h2.01V4C2.01,2.9,2.9,2,4,2h16c1.1,0,2,0.9,2,2v6.04h1.31V0H24z"/>
<path opacity="0.15" fill="#FFFFFF" d="M22,4v6.04H2.01V4C2.01,2.9,2.9,2,4,2h16C21.1,2,22,2.9,22,4z"/>
<rect x="7" y="9" fill="#546E7A" width="2" height="2"/>
<rect x="11" y="9" fill="#546E7A" width="2" height="2"/>
<rect x="15" y="9" fill="#546E7A" width="2" height="2"/>
</svg>
