<?xml version="1.0" encoding="utf-8"?>
<!-- Generator: Adobe Illustrator 16.0.0, SVG Export Plug-In . SVG Version: 6.00 Build 0)  -->
<!DOCTYPE svg PUBLIC "-//W3C//DTD SVG 1.1//EN" "http://www.w3.org/Graphics/SVG/1.1/DTD/svg11.dtd">
<svg version="1.1" id="Capa_1" xmlns="http://www.w3.org/2000/svg" xmlns:xlink="http://www.w3.org/1999/xlink" x="0px" y="0px"
	 width="24px" height="24px" viewBox="0 0 24 24" enable-background="new 0 0 24 24" xml:space="preserve">
<rect x="4" y="3" fill="#D1C4E9" width="16" height="18"/>
<polygon fill="#455A64" points="20,3 20,21 18,21 18,19 16,19 16,21 8,21 8,19 6,19 6,21 4,21 4,3 6,3 6,5 8,5 8,3 16,3 16,5 18,5 
	18,3 "/>
<rect x="6" y="15" fill="#D1C4E9" width="2" height="2"/>
<rect x="6" y="11" fill="#D1C4E9" width="2" height="2"/>
<rect x="6" y="7" fill="#D1C4E9" width="2" height="2"/>
<rect x="16" y="15" fill="#D1C4E9" width="2" height="2"/>
<rect x="16" y="11" fill="#D1C4E9" width="2" height="2"/>
<rect x="16" y="7" fill="#D1C4E9" width="2" height="2"/>
<path fill="none" d="M0,0h24v24H0V0z"/>
<rect x="8.58" y="3" fill="#D1C4E9" width="6.75" height="18"/>
</svg>
