<?xml version="1.0" encoding="utf-8"?>
<!-- Generator: Adobe Illustrator 16.0.0, SVG Export Plug-In . SVG Version: 6.00 Build 0)  -->
<!DOCTYPE svg PUBLIC "-//W3C//DTD SVG 1.1//EN" "http://www.w3.org/Graphics/SVG/1.1/DTD/svg11.dtd">
<svg version="1.1" id="Capa_1" xmlns="http://www.w3.org/2000/svg" xmlns:xlink="http://www.w3.org/1999/xlink" x="0px" y="0px"
	 width="24px" height="24px" viewBox="0 0 24 24" enable-background="new 0 0 24 24" xml:space="preserve">
<g id="Capa_1_1_">
	<rect x="1" y="9" fill="#2E7D32" width="4" height="12"/>
	<path fill="#43A047" d="M22.99,10.08L23,10.09V12c0,0.26-0.05,0.5-0.141,0.73l-3.021,7.05C19.54,20.5,18.83,21,18,21H9
		c-1.1,0-2-0.9-2-2V9c0-0.55,0.22-1.05,0.59-1.41L14.17,1l1.021,1.01l0.039,0.04C15.5,2.32,15.67,2.7,15.67,3.11l-0.029,0.32
		L14.689,8H21c1.01,0,1.859,0.76,1.98,1.75C22.99,9.83,23,9.91,23,10L22.99,10.08z"/>
</g>
</svg>
