<?xml version="1.0" encoding="utf-8"?>
<!-- Generator: Adobe Illustrator 16.0.0, SVG Export Plug-In . SVG Version: 6.00 Build 0)  -->
<!DOCTYPE svg PUBLIC "-//W3C//DTD SVG 1.1//EN" "http://www.w3.org/Graphics/SVG/1.1/DTD/svg11.dtd">
<svg version="1.1" id="Capa_1" xmlns="http://www.w3.org/2000/svg" xmlns:xlink="http://www.w3.org/1999/xlink" x="0px" y="0px"
	 width="24px" height="24px" viewBox="0 0 24 24" enable-background="new 0 0 24 24" xml:space="preserve">
<path fill="#43A047" d="M12,6c0-0.55-0.45-1-1-1H5.82l0.66-3.18L6.5,1.59c0-0.31-0.13-0.59-0.33-0.8L5.38,0L0.44,4.94
	C0.17,5.21,0,5.59,0,6v6.5C0,13.33,0.67,14,1.5,14h6.75c0.62,0,1.15-0.38,1.38-0.91l2.26-5.29C11.96,7.63,12,7.44,12,7.25V6z"/>
<path fill="#D32F2F" d="M22.5,10h-6.75c-0.62,0-1.15,0.38-1.38,0.91l-2.26,5.29c-0.07,0.17-0.11,0.36-0.11,0.55V18
	c0,0.55,0.45,1,1,1h5.18l-0.66,3.18l-0.02,0.24c0,0.311,0.13,0.59,0.33,0.8L18.62,24l4.94-4.939C23.83,18.79,24,18.41,24,18v-6.5
	C24,10.67,23.33,10,22.5,10z"/>
<path fill="none" d="M0,0h24v24H0V0z"/>
</svg>
