<?xml version="1.0" encoding="utf-8"?>
<!-- Generator: Adobe Illustrator 16.0.0, SVG Export Plug-In . SVG Version: 6.00 Build 0)  -->
<!DOCTYPE svg PUBLIC "-//W3C//DTD SVG 1.1//EN" "http://www.w3.org/Graphics/SVG/1.1/DTD/svg11.dtd">
<svg version="1.1" id="Capa_1" xmlns="http://www.w3.org/2000/svg" xmlns:xlink="http://www.w3.org/1999/xlink" x="0px" y="0px"
	 width="24px" height="24px" viewBox="0 0 24 24" enable-background="new 0 0 24 24" xml:space="preserve">
<path fill="none" d="M0,0h24v24H0V0z M0,0h24v24H0V0z"/>
<path fill="#AB47BC" d="M20.87,14.37c-0.14-0.28-0.351-0.53-0.63-0.74c-0.28-0.21-0.61-0.39-1.01-0.53
	c-0.4-0.14-0.852-0.27-1.352-0.38c-0.352-0.069-0.641-0.149-0.87-0.229c-0.229-0.08-0.409-0.16-0.55-0.25
	c-0.141-0.09-0.229-0.19-0.279-0.3s-0.08-0.24-0.08-0.39c0-0.15,0.029-0.28,0.09-0.41c0.061-0.13,0.149-0.25,0.271-0.34
	c0.12-0.1,0.271-0.18,0.45-0.24c0.179-0.06,0.4-0.09,0.64-0.09c0.25,0,0.47,0.04,0.66,0.11c0.19,0.07,0.351,0.17,0.479,0.29
	c0.131,0.12,0.221,0.26,0.291,0.42c0.06,0.16,0.1,0.32,0.1,0.49h1.949c0-0.39-0.079-0.75-0.239-1.09c-0.16-0.34-0.39-0.63-0.69-0.88
	c-0.3-0.25-0.66-0.44-1.09-0.59C18.58,9.07,18.09,9,17.55,9c-0.51,0-0.979,0.07-1.39,0.21c-0.411,0.14-0.77,0.33-1.061,0.57
	c-0.289,0.24-0.511,0.52-0.67,0.84c-0.16,0.32-0.229,0.65-0.229,1.01c0,0.36,0.079,0.68,0.229,0.96
	c0.149,0.28,0.369,0.52,0.641,0.73c0.27,0.21,0.6,0.38,0.979,0.529c0.381,0.141,0.811,0.26,1.271,0.359
	c0.39,0.08,0.709,0.17,0.949,0.26c0.239,0.092,0.431,0.19,0.569,0.29c0.132,0.101,0.222,0.222,0.271,0.341
	c0.051,0.119,0.07,0.25,0.07,0.391c0,0.32-0.131,0.57-0.4,0.77c-0.271,0.2-0.659,0.29-1.17,0.29c-0.219,0-0.43-0.02-0.639-0.08
	c-0.212-0.05-0.4-0.13-0.562-0.239c-0.171-0.109-0.302-0.261-0.41-0.439c-0.108-0.182-0.17-0.41-0.181-0.67H13.93
	c0,0.359,0.08,0.71,0.24,1.05s0.391,0.649,0.7,0.931c0.31,0.271,0.69,0.489,1.149,0.659c0.461,0.171,0.979,0.25,1.58,0.25
	c0.529,0,1.01-0.06,1.439-0.188c0.432-0.131,0.8-0.312,1.109-0.54c0.311-0.23,0.539-0.511,0.709-0.83c0.17-0.32,0.25-0.67,0.25-1.06
	C21.09,14.99,21.02,14.65,20.87,14.37z"/>
<g>
	<g>
		<g>
			<path fill="#B39DDB" d="M4.146,14.682l2.24-0.271c0.071,0.57,0.264,1.007,0.576,1.309c0.313,0.303,0.692,0.453,1.137,0.453
				c0.478,0,0.879-0.181,1.206-0.543c0.327-0.363,0.49-0.852,0.49-1.466c0-0.582-0.157-1.043-0.469-1.384
				c-0.313-0.34-0.695-0.511-1.145-0.511c-0.296,0-0.65,0.058-1.062,0.173l0.255-1.886C8,10.572,8.478,10.437,8.807,10.148
				C9.137,9.86,9.301,9.477,9.301,9c0-0.406-0.121-0.73-0.362-0.972S8.376,7.666,7.976,7.666c-0.396,0-0.733,0.137-1.013,0.412
				c-0.28,0.274-0.45,0.675-0.51,1.202L4.319,8.917c0.148-0.73,0.372-1.313,0.671-1.75C5.29,6.731,5.707,6.388,6.242,6.138
				c0.535-0.25,1.135-0.375,1.799-0.375c1.136,0,2.047,0.362,2.734,1.087c0.565,0.593,0.848,1.263,0.848,2.009
				c0,1.06-0.579,1.905-1.738,2.536c0.692,0.148,1.245,0.48,1.66,0.997c0.414,0.516,0.622,1.139,0.622,1.87
				c0,1.06-0.387,1.963-1.161,2.709c-0.774,0.747-1.737,1.12-2.891,1.12c-1.092,0-1.998-0.314-2.717-0.943
				C4.679,16.52,4.262,15.697,4.146,14.682z"/>
		</g>
	</g>
</g>
</svg>
