<?xml version="1.0" encoding="utf-8"?>
<!-- Generator: Adobe Illustrator 16.0.0, SVG Export Plug-In . SVG Version: 6.00 Build 0)  -->
<!DOCTYPE svg PUBLIC "-//W3C//DTD SVG 1.1//EN" "http://www.w3.org/Graphics/SVG/1.1/DTD/svg11.dtd">
<svg version="1.1" id="Capa_1" xmlns="http://www.w3.org/2000/svg" xmlns:xlink="http://www.w3.org/1999/xlink" x="0px" y="0px"
	 width="24px" height="24px" viewBox="0 0 24 24" enable-background="new 0 0 24 24" xml:space="preserve">
<path fill="#1976D2" d="M12,2C6.48,2,2,6.48,2,12c0,5.52,4.48,10,10,10c5.52,0,10-4.48,10-10C22,6.48,17.52,2,12,2z"/>
<circle fill="#BBDEFB" cx="12" cy="12" r="8"/>
<path fill="none" d="M0,0h24v24H0V0z"/>
<path fill="#81C784" d="M12,6v6c0,0,5.516-2.297,5.516-2.344C17.516,9.609,16.172,6.094,12,6z"/>
<path fill="#DCE775" d="M17.516,9.656l-5.542,2.375c0,0,4.032,4.439,4.077,4.425C16.096,16.439,19.25,13.578,17.516,9.656z"/>
<path fill="#FFB74D" d="M16.051,16.456l-4.041-4.487c0,0-4.261,4.221-4.244,4.266C7.784,16.275,11.422,20.047,16.051,16.456z"/>
</svg>
