<?xml version="1.0" encoding="utf-8"?>
<!-- Generator: Adobe Illustrator 16.0.0, SVG Export Plug-In . SVG Version: 6.00 Build 0)  -->
<!DOCTYPE svg PUBLIC "-//W3C//DTD SVG 1.1//EN" "http://www.w3.org/Graphics/SVG/1.1/DTD/svg11.dtd">
<svg version="1.1" id="Capa_1" xmlns="http://www.w3.org/2000/svg" xmlns:xlink="http://www.w3.org/1999/xlink" x="0px" y="0px"
	 width="24px" height="24px" viewBox="0 0 24 24" enable-background="new 0 0 24 24" xml:space="preserve">
<g id="Capa_2">
	<path fill="#CFD8DC" d="M6.108,7.281l11.625,11.521c0,0,4.619-3.859-0.809-11.877c0,0-8.165-3.921-10.904,0.377"/>
</g>
<g id="Capa_1_1_">
	<path fill="none" d="M0,0h24v24H0V0z M0,0h24v24H0V0z M0,0h24v24H0V0z M0,0h24v24H0V0z M0,0h24v24H0V0z"/>
	<path fill="#78909C" d="M19.04,4.55l-1.42,1.42C16.07,4.74,14.12,4,12,4c-1.83,0-3.53,0.55-4.95,1.48l1.46,1.46
		C9.53,6.35,10.73,6,12,6c3.87,0,7,3.13,7,7c0,1.27-0.35,2.47-0.939,3.49l1.449,1.449C20.45,16.53,21,14.83,21,13
		c0-2.12-0.74-4.07-1.971-5.61l1.421-1.42L19.04,4.55z"/>
	<rect x="9" y="1" fill="#CFD8DC" width="6" height="2"/>
	<polygon fill="#78909C" points="11,9.44 13,11.44 13,8 11,8 	"/>
	<path fill="#78909C" d="M3.02,4L1.75,5.27L4.5,8.03C3.55,9.45,3,11.16,3,13c0,4.97,4.02,9,9,9c1.84,0,3.55-0.55,4.98-1.5l2.5,2.5
		l1.27-1.27l-7.71-7.711L3.02,4z"/>
	<path fill="#CFD8DC" d="M12,20c-3.87,0-7-3.13-7-7c0-1.28,0.35-2.48,0.95-3.52l9.56,9.56C14.48,19.65,13.279,20,12,20z"/>
	<polygon fill="#78909C" points="11,11.439 13,11.439 13,8 11,9.313 	"/>
</g>
<path fill="#78909C" d="M18.061,16.49c0,0-1.076,1.963-2.701,2.619c0,0,1.664,1.469,1.621,1.391s1.556-0.98,2.529-2.561
	c-0.01-0.033-0.354-1.189-0.322-1.205C19.221,16.718,18.061,16.49,18.061,16.49z"/>
<path fill="#78909C" d="M8.51,6.94c0,0-1.963,1.294-2.713,2.763l-1.578-1.25c0,0,1.375-2.297,3.438-3.344L8.51,6.94z"/>
<g id="Capa_3">
	<polygon fill="#9FA8DA" points="1.734,5.281 3,4 20.734,21.719 19.484,22.969 	"/>
</g>
</svg>
