<?xml version="1.0" encoding="utf-8"?>
<!-- Generator: Adobe Illustrator 16.0.0, SVG Export Plug-In . SVG Version: 6.00 Build 0)  -->
<!DOCTYPE svg PUBLIC "-//W3C//DTD SVG 1.1//EN" "http://www.w3.org/Graphics/SVG/1.1/DTD/svg11.dtd">
<svg version="1.1" id="Capa_1" xmlns="http://www.w3.org/2000/svg" xmlns:xlink="http://www.w3.org/1999/xlink" x="0px" y="0px"
	 width="24px" height="24px" viewBox="0 0 24 24" enable-background="new 0 0 24 24" xml:space="preserve">
<path fill="#1E88E5" d="M19.029,7.39l1.421-1.42c-0.431-0.51-0.9-0.99-1.41-1.41l-1.42,1.42C16.07,4.74,14.12,4,12,4
	c-4.97,0-9,4.03-9,9s4.02,9,9,9c4.98,0,9-4.03,9-9C21,10.88,20.26,8.93,19.029,7.39z"/>
<path fill="#B3E5FC" d="M12,20c-3.87,0-7-3.13-7-7s3.13-7,7-7s7,3.13,7,7S15.87,20,12,20z"/>
<path fill="none" d="M0,0h24v24H0V0z"/>
<rect x="9" y="1" fill="#1565C0" width="6" height="2"/>
<rect x="11" y="8" fill="#1565C0" width="2" height="6"/>
</svg>
