<?xml version="1.0" encoding="utf-8"?>
<!-- Generator: Adobe Illustrator 16.0.0, SVG Export Plug-In . SVG Version: 6.00 Build 0)  -->
<!DOCTYPE svg PUBLIC "-//W3C//DTD SVG 1.1//EN" "http://www.w3.org/Graphics/SVG/1.1/DTD/svg11.dtd">
<svg version="1.1" id="Capa_1" xmlns="http://www.w3.org/2000/svg" xmlns:xlink="http://www.w3.org/1999/xlink" x="0px" y="0px"
	 width="24px" height="24px" viewBox="0 0 24 24" enable-background="new 0 0 24 24" xml:space="preserve">
<path fill="none" d="M0,0h24v24H0V0z M0,0h24v24H0V0z"/>
<polygon fill="#B39DDB" points="0,7.72 0,9.4 3,8.4 3,18 5,18 5,6 4.75,6 "/>
<path fill="#5C6BC0" d="M23.779,14.37c-0.139-0.28-0.35-0.53-0.629-0.74c-0.28-0.21-0.61-0.39-1.01-0.53
	c-0.4-0.14-0.851-0.27-1.351-0.38c-0.351-0.069-0.64-0.149-0.87-0.229s-0.41-0.16-0.55-0.25c-0.14-0.09-0.229-0.19-0.28-0.3
	c-0.05-0.11-0.08-0.24-0.08-0.39c0-0.14,0.03-0.28,0.09-0.41c0.061-0.13,0.15-0.25,0.271-0.34c0.12-0.1,0.271-0.18,0.45-0.24
	s0.4-0.09,0.64-0.09c0.25,0,0.47,0.04,0.66,0.11c0.19,0.07,0.351,0.17,0.479,0.29c0.131,0.12,0.221,0.26,0.291,0.42
	c0.06,0.16,0.1,0.32,0.1,0.49h1.949c0-0.39-0.08-0.75-0.239-1.09c-0.16-0.34-0.39-0.63-0.69-0.88c-0.3-0.25-0.66-0.44-1.09-0.59
	C21.49,9.07,21,9,20.46,9c-0.51,0-0.979,0.07-1.39,0.21S18.3,9.54,18.01,9.78c-0.289,0.24-0.51,0.52-0.67,0.84
	c-0.16,0.32-0.23,0.65-0.23,1.01c0,0.36,0.08,0.69,0.23,0.96c0.15,0.28,0.36,0.52,0.641,0.73c0.27,0.21,0.6,0.38,0.979,0.529
	c0.38,0.141,0.81,0.26,1.271,0.36c0.39,0.08,0.709,0.17,0.949,0.26c0.24,0.091,0.43,0.19,0.57,0.29c0.13,0.1,0.221,0.221,0.27,0.34
	c0.051,0.12,0.07,0.25,0.07,0.391c0,0.32-0.13,0.57-0.4,0.77c-0.27,0.2-0.66,0.29-1.17,0.29c-0.22,0-0.43-0.02-0.64-0.08
	c-0.21-0.05-0.399-0.13-0.56-0.239c-0.17-0.11-0.301-0.261-0.41-0.44c-0.11-0.181-0.17-0.41-0.18-0.67H16.84
	c0,0.36,0.08,0.71,0.24,1.05s0.391,0.65,0.699,0.93c0.311,0.271,0.691,0.49,1.15,0.66c0.461,0.17,0.98,0.25,1.58,0.25
	c0.53,0,1.01-0.06,1.44-0.189c0.43-0.131,0.8-0.311,1.11-0.54c0.31-0.23,0.539-0.511,0.709-0.83c0.17-0.32,0.25-0.67,0.25-1.06
	C24,14.99,23.93,14.65,23.779,14.37z"/>
<path fill="#B39DDB" d="M14.6,8.64c-0.18-0.66-0.439-1.19-0.779-1.59c-0.34-0.4-0.75-0.7-1.23-0.88C12.12,5.99,11.58,5.9,11,5.9
	S9.89,5.99,9.41,6.17C8.93,6.35,8.52,6.64,8.18,7.05c-0.34,0.41-0.6,0.93-0.79,1.59c-0.18,0.65-0.28,1.45-0.28,2.39v1.92
	c0,0.939,0.09,1.74,0.28,2.39c0.19,0.66,0.45,1.19,0.8,1.601c0.34,0.409,0.75,0.71,1.23,0.89s1.01,0.28,1.59,0.28
	c0.59,0,1.12-0.091,1.59-0.28c0.48-0.18,0.881-0.48,1.221-0.89c0.34-0.41,0.6-0.94,0.779-1.601c0.181-0.649,0.28-1.45,0.28-2.39
	v-1.92C14.88,10.09,14.79,9.29,14.6,8.64z M12.91,13.22H12.9c0,0.601-0.04,1.11-0.12,1.53s-0.2,0.76-0.36,1.02
	c-0.16,0.261-0.36,0.45-0.59,0.57s-0.51,0.18-0.82,0.18c-0.3,0-0.58-0.06-0.82-0.18c-0.24-0.12-0.44-0.31-0.6-0.57
	c-0.16-0.26-0.29-0.6-0.38-1.02s-0.13-0.93-0.13-1.53v-2.5c0-0.6,0.04-1.11,0.13-1.52c0.09-0.41,0.21-0.74,0.38-1
	c0.16-0.25,0.36-0.43,0.6-0.55C10.43,7.54,10.7,7.48,11,7.48c0.31,0,0.58,0.06,0.81,0.17c0.24,0.11,0.44,0.29,0.6,0.55
	c0.16,0.25,0.29,0.58,0.37,0.99s0.13,0.92,0.13,1.52V13.22z"/>
</svg>
