<?xml version="1.0" encoding="utf-8"?>
<!-- Generator: Adobe Illustrator 16.0.0, SVG Export Plug-In . SVG Version: 6.00 Build 0)  -->
<!DOCTYPE svg PUBLIC "-//W3C//DTD SVG 1.1//EN" "http://www.w3.org/Graphics/SVG/1.1/DTD/svg11.dtd">
<svg version="1.1" id="Capa_1" xmlns="http://www.w3.org/2000/svg" xmlns:xlink="http://www.w3.org/1999/xlink" x="0px" y="0px"
	 width="24px" height="24px" viewBox="0 0 24 24" enable-background="new 0 0 24 24" xml:space="preserve">
<path opacity="0.6" fill="#B0BEC5" d="M12.98,2.05v19.9C12.66,21.98,12.33,22,12,22C6.48,22,2,17.52,2,12C2,6.48,6.48,2,12,2
	c0.33,0,0.65,0.02,0.97,0.05H12.98z"/>
<path fill="none" d="M0,0h24v24H0V0z"/>
<path d="M13,4.07C14.029,4.2,15,4.52,15.87,5H13V4.07z"/>
<path d="M13,7h5.24c0.25,0.31,0.48,0.65,0.68,1H13V7z"/>
<path d="M13,10h6.74c0.08,0.33,0.15,0.66,0.189,1H13V10z"/>
<path d="M13,19.93V19h2.87C15,19.48,14.029,19.8,13,19.93z"/>
<path d="M18.24,17H13v-1h5.92C18.721,16.35,18.49,16.689,18.24,17z"/>
<path d="M19.74,14H13v-1h6.93C19.891,13.34,19.82,13.67,19.74,14z"/>
<path fill="#E57373" d="M20.66,7h-7.69V2.05C16.26,2.36,19.08,4.28,20.66,7z"/>
<path fill="#BA68C8" d="M21.79,10.011H13V7h7.66C21.19,7.92,21.57,8.93,21.79,10.011z"/>
<path fill="#4FC3F7" d="M22,12c0,0.34-0.02,0.67-0.05,1H13v-3h8.79C21.93,10.64,22,11.32,22,12z"/>
<path fill="#81C784" d="M21.95,12.98c0,0.01,0,0.01,0,0.02c-0.101,1.05-0.37,2.06-0.79,3H13v-3.02H21.95z"/>
<path fill="#FFF176" d="M21.16,16c-0.49,1.12-1.18,2.14-2.03,3H13v-3H21.16z"/>
<path fill="#FFB74D" d="M19.16,18.97C19.15,18.98,19.14,18.99,19.13,19c-1.59,1.63-3.75,2.72-6.149,2.95v-2.98H19.16z"/>
</svg>
