<?xml version="1.0" encoding="utf-8"?>
<!-- Generator: Adobe Illustrator 16.0.0, SVG Export Plug-In . SVG Version: 6.00 Build 0)  -->
<!DOCTYPE svg PUBLIC "-//W3C//DTD SVG 1.1//EN" "http://www.w3.org/Graphics/SVG/1.1/DTD/svg11.dtd">
<svg version="1.1" id="Capa_1" xmlns="http://www.w3.org/2000/svg" xmlns:xlink="http://www.w3.org/1999/xlink" x="0px" y="0px"
	 width="24px" height="24px" viewBox="0 0 24 24" enable-background="new 0 0 24 24" xml:space="preserve">
<path fill="none" d="M0,0h24v24H0V0z"/>
<path fill="#0288D1" d="M22,12c0,5.52-4.48,10-10,10C6.48,22,2,17.52,2,12c0-5.18,3.95-9.45,9-9.95C11.33,2.02,11.66,2,12,2h1v8.28
	c0.06,0.03,0.11,0.07,0.17,0.11C13.67,10.74,14,11.33,14,12c0,1.1-0.9,2-2,2c-1.1,0-2-0.9-2-2c0-0.74,0.4-1.37,1-1.72V8.14
	c-1.72,0.45-3,2-3,3.86c0,2.21,1.79,4,4,4s4-1.79,4-4c0-1.1-0.45-2.1-1.17-2.83l1.41-1.41C17.33,8.84,18,10.34,18,12
	c0,3.31-2.69,6-6,6c-3.31,0-6-2.69-6-6c0-2.97,2.16-5.43,5-5.91V4.07C7.05,4.56,4,7.92,4,12c0,4.42,3.58,8,8,8s8-3.58,8-8
	c0-2.21-0.9-4.21-2.34-5.66l1.41-1.41C20.88,6.74,22,9.24,22,12z"/>
<path fill="#01579B" d="M14,12c0,1.1-0.9,2-2,2c-1.1,0-2-0.9-2-2c0-0.74,0.4-1.37,1-1.72V9.23c0.29-0.12,0.61-0.18,0.94-0.18
	c0.38,0,0.74,0.08,1.06,0.22v1.01c0.06,0.03,0.11,0.07,0.17,0.11C13.67,10.74,14,11.33,14,12z"/>
<path fill="#01579B" d="M13.17,10.39H11V2.05C11.33,2.02,11.66,2,12,2h1v8.28C13.06,10.31,13.11,10.35,13.17,10.39z"/>
</svg>
