<?xml version="1.0" encoding="utf-8"?>
<!-- Generator: Adobe Illustrator 16.0.0, SVG Export Plug-In . SVG Version: 6.00 Build 0)  -->
<!DOCTYPE svg PUBLIC "-//W3C//DTD SVG 1.1//EN" "http://www.w3.org/Graphics/SVG/1.1/DTD/svg11.dtd">
<svg version="1.1" id="Capa_1" xmlns="http://www.w3.org/2000/svg" xmlns:xlink="http://www.w3.org/1999/xlink" x="0px" y="0px"
	 width="24px" height="24px" viewBox="0 0 24 24" enable-background="new 0 0 24 24" xml:space="preserve">
<path fill="#37474F" d="M17,13.86V15h3c0,1.86-1.28,3.41-3,3.86V20c0,0.55-0.45,1-1,1H8c-0.55,0-1-0.45-1-1v-1.14
	c-0.01,0-0.02-0.011-0.03-0.011C5.27,18.39,4,16.85,4,15h3v-1.14c-0.01,0-0.02-0.011-0.03-0.011C5.27,13.39,4,11.85,4,10h3V8.86
	c-0.01,0-0.02-0.01-0.03-0.01C5.27,8.39,4,6.85,4,5h3V4c0-0.55,0.45-1,1-1h8c0.55,0,1,0.45,1,1v1h3c0,1.86-1.28,3.41-3,3.86V10h3
	C20,11.86,18.72,13.41,17,13.86z"/>
<path fill="#546E7A" d="M17,4v16c0,0.55-0.45,1-1,1H8c-0.55,0-1-0.45-1-1v-1.14c-0.01,0-0.02-0.011-0.03-0.011V5H7V4
	c0-0.55,0.45-1,1-1h8C16.55,3,17,3.45,17,4z"/>
<path fill="#43A047" d="M12,19c-1.11,0-2-0.9-2-2s0.89-2,2-2c1.1,0,2,0.9,2,2S13.109,19,12,19z"/>
<path fill="#D4E157" d="M12,14c-1.11,0-2-0.9-2-2c0-1.1,0.89-2,2-2c1.1,0,2,0.9,2,2C14,13.1,13.109,14,12,14z"/>
<path fill="#EF5350" d="M12,9c-1.11,0-2-0.9-2-2c0-1.11,0.89-2,2-2c1.1,0,2,0.89,2,2C14,8.1,13.109,9,12,9z"/>
<path fill="none" d="M0,0h24v24H0V0z"/>
</svg>
