<?xml version="1.0" encoding="utf-8"?>
<!-- Generator: Adobe Illustrator 16.0.0, SVG Export Plug-In . SVG Version: 6.00 Build 0)  -->
<!DOCTYPE svg PUBLIC "-//W3C//DTD SVG 1.1//EN" "http://www.w3.org/Graphics/SVG/1.1/DTD/svg11.dtd">
<svg version="1.1" id="Capa_1" xmlns="http://www.w3.org/2000/svg" xmlns:xlink="http://www.w3.org/1999/xlink" x="0px" y="0px"
	 width="24px" height="24px" viewBox="0 0 24 24" enable-background="new 0 0 24 24" xml:space="preserve">
<g id="Capa_1_1_">
	<path fill="none" d="M0,0h24v24H0V0z"/>
	<path fill="#43A047" d="M17,4v2h-2.93c-0.73,2.36-1.97,4.59-3.71,6.53l-0.03,0.028l2.54,2.512l-0.76,2.039L9,14l-5,5l-1.42-1.42
		l5.09-5.021C6.42,11.17,5.42,9.63,4.69,8h2C7.3,9.19,8.07,10.32,9,11.35c1.44-1.6,2.5-3.43,3.17-5.36H1V4h7V2h2v2H17z"/>
	<polygon fill="#37474F" points="18.5,10 16.5,10 12,22 14,22 15.12,19 19.87,19 21,22 23,22 	"/>
	<polygon fill="#FFFFFF" points="15.88,17 17.5,12.67 19.12,17 	"/>
</g>
<g id="Capa_2">
	<polygon fill="#43A047" points="1,4 1,5.99 17,6 17,4 	"/>
	<rect x="8" y="2" fill="#43A047" width="2" height="2"/>
</g>
</svg>
