<?xml version="1.0" encoding="utf-8"?>
<!-- Generator: Adobe Illustrator 16.0.0, SVG Export Plug-In . SVG Version: 6.00 Build 0)  -->
<!DOCTYPE svg PUBLIC "-//W3C//DTD SVG 1.1//EN" "http://www.w3.org/Graphics/SVG/1.1/DTD/svg11.dtd">
<svg version="1.1" id="Capa_1" xmlns="http://www.w3.org/2000/svg" xmlns:xlink="http://www.w3.org/1999/xlink" x="0px" y="0px"
	 width="24px" height="24px" viewBox="0 0 24 24" enable-background="new 0 0 24 24" xml:space="preserve">
<path fill="none" d="M0,0h24v24H0V0z"/>
<path fill="#0097A7" d="M18,18v2h2l-3,3l-3-3h2v-2H8c-1.1,0-2-0.9-2-2V8H2V6h4V4H4l3-3l3,3H8v12h14v2H18z"/>
<path fill="#0097A7" d="M7.922,8H16l0.031,8.125l1.953,0.016L18,8c0-1.1-0.9-2-2-2L7.938,6.016L7.922,8z"/>
<path fill="#43A047" d="M22.12,16v2H8c-1.1,0-2-0.9-2-2h0.01V4.44H6V4H4l3-3l3,3H8v12H22.12z"/>
</svg>
