<?xml version="1.0" encoding="utf-8"?>
<!-- Generator: Adobe Illustrator 16.0.0, SVG Export Plug-In . SVG Version: 6.00 Build 0)  -->
<!DOCTYPE svg PUBLIC "-//W3C//DTD SVG 1.1//EN" "http://www.w3.org/Graphics/SVG/1.1/DTD/svg11.dtd">
<svg version="1.1" id="Capa_1" xmlns="http://www.w3.org/2000/svg" xmlns:xlink="http://www.w3.org/1999/xlink" x="0px" y="0px"
	 width="24px" height="24px" viewBox="0 0 24 24" enable-background="new 0 0 24 24" xml:space="preserve">
<path fill="none" d="M0,0h24v24H0V0z"/>
<rect x="3" y="17" fill="#78909C" width="6" height="2"/>
<rect x="3" y="5" fill="#78909C" width="10" height="2"/>
<polygon fill="#455A64" points="13,21 13,19 21,19 21,17 13,17 13,15 11,15 11,21 "/>
<polygon fill="#455A64" points="7,9 7,11 3,11 3,13 7,13 7,15 9,15 9,9 "/>
<rect x="11" y="11" fill="#78909C" width="10" height="2"/>
<polygon fill="#455A64" points="15,9 17,9 17,7 21,7 21,5 17,5 17,3 15,3 "/>
</svg>
