<?xml version="1.0" encoding="utf-8"?>
<!-- Generator: Adobe Illustrator 16.0.0, SVG Export Plug-In . SVG Version: 6.00 Build 0)  -->
<!DOCTYPE svg PUBLIC "-//W3C//DTD SVG 1.1//EN" "http://www.w3.org/Graphics/SVG/1.1/DTD/svg11.dtd">
<svg version="1.1" id="Capa_1" xmlns="http://www.w3.org/2000/svg" xmlns:xlink="http://www.w3.org/1999/xlink" x="0px" y="0px"
	 width="24px" height="24px" viewBox="0 0 24 24" enable-background="new 0 0 24 24" xml:space="preserve">
<g>
	<path fill="#4FC3F7" d="M17.02,2.99h-10c-0.14,0-0.29,0.02-0.42,0.05C6.47,3.06,6.34,3.1,6.22,3.16C6.05,3.23,5.89,3.33,5.75,3.45
		C5.7,3.49,5.66,3.53,5.61,3.58C5.56,3.62,5.52,3.67,5.48,3.72C5.2,4.07,5.03,4.51,5.03,4.99l-0.01,16L12,18l0.02-0.01L19,20.98
		l0.02,0.01v-16C19.02,3.89,18.12,2.99,17.02,2.99z M17,18l-4.98-2.17L12,15.82L7,18V5h10V18z"/>
	<path fill="#66BB6A" d="M19.02,4.99v16L19,20.98l-6.98-2.99v-2.16L17,18V5h-4.98V2.99h5C18.12,2.99,19.02,3.89,19.02,4.99z"/>
</g>
<path fill="none" d="M0,0h24v24H0V0z"/>
</svg>
