<?xml version="1.0" encoding="utf-8"?>
<!-- Generator: Adobe Illustrator 16.0.0, SVG Export Plug-In . SVG Version: 6.00 Build 0)  -->
<!DOCTYPE svg PUBLIC "-//W3C//DTD SVG 1.1//EN" "http://www.w3.org/Graphics/SVG/1.1/DTD/svg11.dtd">
<svg version="1.1" id="Capa_1" xmlns="http://www.w3.org/2000/svg" xmlns:xlink="http://www.w3.org/1999/xlink" x="0px" y="0px"
	 width="24px" height="24px" viewBox="0 0 24 24" enable-background="new 0 0 24 24" xml:space="preserve">
<g id="Capa_2_1_">
	<rect x="2.313" y="4.281" fill="#B3E5FC" width="19.438" height="13.031"/>
</g>
<g id="Capa_1_2_">
	<g id="Capa_1_1_">
		<path fill="none" d="M0,0h24v24H0V0z"/>
		<path fill="#37474F" d="M21,3H3C1.9,3,1,3.9,1,5v12c0,1.1,0.9,2,2,2h5v2h8v-2h5c1.1,0,1.99-0.9,1.99-2L23,5C23,3.9,22.1,3,21,3z
			 M21,17H3V5h18V17z"/>
	</g>
	<g id="Capa_2">
		<path fill="#455A64" d="M21,3H3C1.9,3,1,3.9,1,5v12c0,1.1,0.9,2,2,2h18c1.1,0,1.99-0.9,1.99-2L23,5C23,3.9,22.1,3,21,3z M21,17H3
			V5h18V17z"/>
	</g>
</g>
</svg>
