<?xml version="1.0" encoding="utf-8"?>
<!-- Generator: Adobe Illustrator 16.0.0, SVG Export Plug-In . SVG Version: 6.00 Build 0)  -->
<!DOCTYPE svg PUBLIC "-//W3C//DTD SVG 1.1//EN" "http://www.w3.org/Graphics/SVG/1.1/DTD/svg11.dtd">
<svg version="1.1" id="Capa_1" xmlns="http://www.w3.org/2000/svg" xmlns:xlink="http://www.w3.org/1999/xlink" x="0px" y="0px"
	 width="24px" height="24px" viewBox="0 0 24 24" enable-background="new 0 0 24 24" xml:space="preserve">
<path fill="none" d="M0,0h24v24H0V0z"/>
<path fill="#78909C" d="M22.471,15.22l-1.201,0.4L20.1,16c-1.05-3.189-4.06-5.5-7.6-5.5c-1.96,0-3.73,0.72-5.12,1.88L11,16H2V7
	l3.6,3.6C7.45,8.99,9.85,8,12.5,8C17.15,8,21.08,11.03,22.471,15.22z"/>
<path fill="#78909C" d="M22.471,15.22l-1.201,0.4l-0.02-0.03c0,0-2.13-6.2-8.641-6.25C6.09,9.3,2,16,2,16V7l3.6,3.6
	C7.45,8.99,9.85,8,12.5,8C17.15,8,21.08,11.03,22.471,15.22z"/>
<polygon fill="#78909C" points="2,7 11,16 2,16 "/>
</svg>
