<?xml version="1.0" encoding="utf-8"?>
<!-- Generator: Adobe Illustrator 16.0.0, SVG Export Plug-In . SVG Version: 6.00 Build 0)  -->
<!DOCTYPE svg PUBLIC "-//W3C//DTD SVG 1.1//EN" "http://www.w3.org/Graphics/SVG/1.1/DTD/svg11.dtd">
<svg version="1.1" id="Capa_1" xmlns="http://www.w3.org/2000/svg" xmlns:xlink="http://www.w3.org/1999/xlink" x="0px" y="0px"
	 width="24px" height="24px" viewBox="0 0 24 24" enable-background="new 0 0 24 24" xml:space="preserve">
<path fill="none" d="M0,0h24v24H0V0z"/>
<path fill="#78909C" d="M15.17,15L12,18.17l-0.03-0.03L8.83,15l-1.41,1.41l4.55,4.56L12,21l4.59-4.59L15.17,15z M12,3L7.41,7.59
	L8.83,9L12,5.83L15.17,9l1.41-1.41L12,3z M15.17,15L12,18.17l-0.03-0.03L8.83,15l-1.41,1.41l4.55,4.56L12,21l4.59-4.59L15.17,15z"/>
<polygon fill="#455A64" points="16.59,16.41 12,21 11.97,20.97 7.42,16.41 8.83,15 11.97,18.14 12,18.17 15.17,15 "/>
</svg>
