<?xml version="1.0" encoding="utf-8"?>
<!-- Generator: Adobe Illustrator 16.0.0, SVG Export Plug-In . SVG Version: 6.00 Build 0)  -->
<!DOCTYPE svg PUBLIC "-//W3C//DTD SVG 1.1//EN" "http://www.w3.org/Graphics/SVG/1.1/DTD/svg11.dtd">
<svg version="1.1" id="Capa_1" xmlns="http://www.w3.org/2000/svg" xmlns:xlink="http://www.w3.org/1999/xlink" x="0px" y="0px"
	 width="24px" height="24px" viewBox="0 0 24 24" enable-background="new 0 0 24 24" xml:space="preserve">
<path fill="none" d="M0,0h24v24H0V0z"/>
<path fill="#64B5F6" d="M19,7v4h-1v2c0,0.74-0.39,1.38-0.98,1.72C16.73,14.9,16.38,15,16,15h-3v3.05c0.71,0.37,1.2,1.101,1.2,1.95
	c0,1.17-0.91,2.12-2.05,2.19C12.1,22.2,12.05,22.2,12,22.2c-1.21,0-2.2-0.98-2.2-2.2c0-0.85,0.49-1.58,1.2-1.95V15H8
	c-1.11,0-2-0.89-2-2v-2.07C5.3,10.56,4.8,9.85,4.8,9c0-1.2,0.98-2.19,2.18-2.2c0.01,0,0.01,0,0.02,0c1.21,0,2.2,0.99,2.2,2.2
	c0,0.85-0.5,1.56-1.2,1.93V13h3V5H9l2.99-3.99L12,1l2.98,3.97L15,5h-2v8h3v-2h-1V7H19z"/>
<polygon fill="#1E88E5" points="14.98,4.97 14.98,5 13,5 13,13.02 11.99,13.02 11.99,1.01 12,1 "/>
<path fill="#1E88E5" d="M14.2,20c0,1.17-0.91,2.12-2.05,2.19V14.97H13v3.08C13.71,18.42,14.2,19.15,14.2,20z"/>
<path fill="#1E88E5" d="M9.2,9c0,0.85-0.5,1.56-1.2,1.93V13H6.98V6.8c0.01,0,0.01,0,0.02,0C8.21,6.8,9.2,7.79,9.2,9z"/>
<path fill="#1E88E5" d="M19,7v4h-1v2c0,0.74-0.39,1.38-0.98,1.72V7H19z"/>
</svg>
