<?xml version="1.0" encoding="utf-8"?>
<!-- Generator: Adobe Illustrator 16.0.0, SVG Export Plug-In . SVG Version: 6.00 Build 0)  -->
<!DOCTYPE svg PUBLIC "-//W3C//DTD SVG 1.1//EN" "http://www.w3.org/Graphics/SVG/1.1/DTD/svg11.dtd">
<svg version="1.1" id="Capa_1" xmlns="http://www.w3.org/2000/svg" xmlns:xlink="http://www.w3.org/1999/xlink" x="0px" y="0px"
	 width="24px" height="24px" viewBox="0 0 24 24" enable-background="new 0 0 24 24" xml:space="preserve">
<path fill="none" d="M0,0h24v24H0V0z"/>
<path fill="#81C784" d="M12,1l-0.04,0.02L3,5v6c0,5.54,3.82,10.71,8.96,11.99c0.01,0,0.03,0.01,0.04,0.01c5.16-1.26,9-6.45,9-12V5
	L12,1z M10,17l-4-4l1.41-1.41L10,14.17l6.59-6.59L18,9L10,17z"/>
<path fill="#66BB6A" d="M21,5v6c0,5.55-3.84,10.74-9,12c-0.01,0-0.03-0.01-0.04-0.01v-7.95L18,9l-1.41-1.42l-4.63,4.63V1.02L12,1
	L21,5z"/>
</svg>
