<?xml version="1.0" encoding="utf-8"?>
<!-- Generator: Adobe Illustrator 16.0.0, SVG Export Plug-In . SVG Version: 6.00 Build 0)  -->
<!DOCTYPE svg PUBLIC "-//W3C//DTD SVG 1.1//EN" "http://www.w3.org/Graphics/SVG/1.1/DTD/svg11.dtd">
<svg version="1.1" id="Capa_1" xmlns="http://www.w3.org/2000/svg" xmlns:xlink="http://www.w3.org/1999/xlink" x="0px" y="0px"
	 width="24px" height="24px" viewBox="0 0 24 24" enable-background="new 0 0 24 24" xml:space="preserve">
<rect x="4" y="11" fill="#546E7A" width="16" height="2"/>
<polygon fill="#78909C" points="13,5 13,1 11,1 11,5 8,5 12,9 16,5 "/>
<polygon fill="#78909C" points="12,15 11.97,15.03 8,19 11,19 11,23 13,23 13,19 16,19 "/>
<path fill="none" d="M0,0h24v24H0V0z"/>
<polygon fill="#78909C" points="11.97,1 11.97,8.97 8,5 11,5 11,1 "/>
<polygon fill="#78909C" points="11.97,15.03 11.97,23 11,23 11,19 8,19 "/>
<rect x="4" y="11" fill="#546E7A" width="16" height="1.01"/>
</svg>
