<?xml version="1.0" encoding="utf-8"?>
<!-- Generator: Adobe Illustrator 16.0.0, SVG Export Plug-In . SVG Version: 6.00 Build 0)  -->
<!DOCTYPE svg PUBLIC "-//W3C//DTD SVG 1.1//EN" "http://www.w3.org/Graphics/SVG/1.1/DTD/svg11.dtd">
<svg version="1.1" xmlns="http://www.w3.org/2000/svg" xmlns:xlink="http://www.w3.org/1999/xlink" x="0px" y="0px" width="24px"
	 height="24px" viewBox="0 0 24 24" enable-background="new 0 0 24 24" xml:space="preserve">
<g id="Capa_1">
	<path fill="none" d="M0,0h24v24H0V0z M0,0h24v24H0V0z"/>
	<g>
		<g id="Capa_1_1_">
			<path fill="none" d="M0,0h24v24H0V0z"/>
			<path fill="#90A4AE" d="M21,6.5v11l-4-4V17c0,0.55-0.45,1-1,1H4c-0.55,0-1-0.45-1-1V7c0-0.55,0.45-1,1-1h12c0.55,0,1,0.45,1,1
				v3.5l0.02-0.02L21,6.5z"/>
		</g>
		<g id="Capa_2">
			<polygon fill="#90A4AE" points="21,6.5 21,17.5 17,13.5 17,10.5 17.02,10.48 			"/>
		</g>
		<g id="Capa_3">
			<path fill="#B0BEC5" d="M17.02,10.48v1.49H3V7c0-0.55,0.45-1,1-1h12c0.55,0,1,0.45,1,1v3.5L17.02,10.48z"/>
			<polygon fill="#B0BEC5" points="21,6.5 21,11.984 17.02,11.97 17,10.5 17.02,10.48 			"/>
		</g>
	</g>
</g>
<g id="Capa_2_1_">
	<polygon fill="#9FA8DA" points="1.969,3.266 3.266,1.984 20.984,19.719 19.719,21 	"/>
</g>
</svg>
