<?xml version="1.0" encoding="utf-8"?>
<!-- Generator: Adobe Illustrator 16.0.0, SVG Export Plug-In . SVG Version: 6.00 Build 0)  -->
<!DOCTYPE svg PUBLIC "-//W3C//DTD SVG 1.1//EN" "http://www.w3.org/Graphics/SVG/1.1/DTD/svg11.dtd">
<svg version="1.1" id="Capa_1" xmlns="http://www.w3.org/2000/svg" xmlns:xlink="http://www.w3.org/1999/xlink" x="0px" y="0px"
	 width="24px" height="24px" viewBox="0 0 24 24" enable-background="new 0 0 24 24" xml:space="preserve">
<path fill="none" d="M0,0v24h24V0H0z M11.46,22.54H1.12V0.78h10.34V3H2v3h9.46v2H3C2.45,8,2,8.45,2,9v6c0,0.55,0.45,1,1,1h8.46v2H2
	v3h9.46V22.54z"/>
<rect x="2" y="18" fill="#9CCC65" width="19" height="3"/>
<path fill="#26A69A" d="M21,9v6c0,0.55-0.45,1-1,1H3c-0.55,0-1-0.45-1-1V9c0-0.55,0.45-1,1-1h17C20.55,8,21,8.45,21,9z"/>
<rect x="2" y="3" fill="#29B6F6" width="19" height="3"/>
<rect x="2" y="3" fill="#4FC3F7" width="9.46" height="3"/>
<path fill="#4DB6AC" d="M3,8h8.46v8H3c-0.55,0-1-0.45-1-1V9C2,8.45,2.45,8,3,8z"/>
<rect x="2" y="18" fill="#81C784" width="9.46" height="3"/>
</svg>
