<?xml version="1.0" encoding="utf-8"?>
<!-- Generator: Adobe Illustrator 16.0.0, SVG Export Plug-In . SVG Version: 6.00 Build 0)  -->
<!DOCTYPE svg PUBLIC "-//W3C//DTD SVG 1.1//EN" "http://www.w3.org/Graphics/SVG/1.1/DTD/svg11.dtd">
<svg version="1.1" id="Capa_1" xmlns="http://www.w3.org/2000/svg" xmlns:xlink="http://www.w3.org/1999/xlink" x="0px" y="0px"
	 width="24px" height="24px" viewBox="0 0 24 24" enable-background="new 0 0 24 24" xml:space="preserve">
<g id="Capa_1_1_">
	<path fill="#FFD54F" d="M7,6v12c0,0.55-0.45,1-1,1H3c-0.55,0-1-0.45-1-1V6c0-0.55,0.45-1,1-1h3C6.55,5,7,5.45,7,6z"/>
	<path fill="#FFD54F" d="M21,6v12c0,0.55-0.45,1-1,1h-3c-0.55,0-1-0.45-1-1V6c0-0.55,0.45-1,1-1h3C20.55,5,21,5.45,21,6z"/>
	<path fill="#FFD54F" d="M14,6v12c0,0.55-0.45,1-1,1h-3c-0.55,0-1-0.45-1-1V6c0-0.55,0.45-1,1-1h3C13.55,5,14,5.45,14,6z"/>
	<path fill="#FFF59D" d="M7,6v3.04H2V6c0-0.55,0.45-1,1-1h3C6.55,5,7,5.45,7,6z"/>
	<path fill="#FFF59D" d="M14,6v3.04H9V6c0-0.55,0.45-1,1-1h3C13.55,5,14,5.45,14,6z"/>
	<path fill="#FFF59D" d="M21,6v3.04h-5V6c0-0.55,0.45-1,1-1h3C20.55,5,21,5.45,21,6z"/>
</g>
<g id="Capa_2">
</g>
</svg>
