<?xml version="1.0" encoding="utf-8"?>
<!-- Generator: Adobe Illustrator 16.0.0, SVG Export Plug-In . SVG Version: 6.00 Build 0)  -->
<!DOCTYPE svg PUBLIC "-//W3C//DTD SVG 1.1//EN" "http://www.w3.org/Graphics/SVG/1.1/DTD/svg11.dtd">
<svg version="1.1" id="Capa_1" xmlns="http://www.w3.org/2000/svg" xmlns:xlink="http://www.w3.org/1999/xlink" x="0px" y="0px"
	 width="24px" height="24px" viewBox="0 0 24 24" enable-background="new 0 0 24 24" xml:space="preserve">
<path fill="none" d="M24,0v24H0v-2.38h11.5V21H3c-0.55,0-1-0.45-1-1v-6c0-0.55,0.45-1,1-1h8.5v-2H3c-0.55,0-1-0.45-1-1V4
	c0-0.55,0.45-1,1-1h8.5V0.49H0V0H24z"/>
<path fill="#9CCC65" d="M21,14v6c0,0.55-0.45,1-1,1H3c-0.55,0-1-0.45-1-1v-6c0-0.55,0.45-1,1-1h17C20.55,13,21,13.45,21,14z"/>
<path fill="#26C6DA" d="M21,4v6c0,0.55-0.45,1-1,1H3c-0.55,0-1-0.45-1-1V4c0-0.55,0.45-1,1-1h17C20.55,3,21,3.45,21,4z"/>
<path fill="#4DD0E1" d="M11.5,3v8H3c-0.55,0-1-0.45-1-1V4c0-0.55,0.45-1,1-1H11.5z"/>
<path fill="#AED581" d="M3,13h8.5v8H3c-0.55,0-1-0.45-1-1v-6C2,13.45,2.45,13,3,13z"/>
</svg>
