<?xml version="1.0" encoding="utf-8"?>
<!-- Generator: Adobe Illustrator 16.0.0, SVG Export Plug-In . SVG Version: 6.00 Build 0)  -->
<!DOCTYPE svg PUBLIC "-//W3C//DTD SVG 1.1//EN" "http://www.w3.org/Graphics/SVG/1.1/DTD/svg11.dtd">
<svg version="1.1" xmlns="http://www.w3.org/2000/svg" xmlns:xlink="http://www.w3.org/1999/xlink" x="0px" y="0px" width="24px"
	 height="24px" viewBox="0 0 24 24" enable-background="new 0 0 24 24" xml:space="preserve">
<g id="Capa_1">
	<path fill="none" d="M0,0h24v24H0V0z"/>
	<path fill="#43A047" d="M12,9c-1.66,0-3,1.34-3,3s1.34,3,3,3s3-1.34,3-3S13.66,9,12,9z M12,9c-1.66,0-3,1.34-3,3s1.34,3,3,3
		s3-1.34,3-3S13.66,9,12,9z M12,9c-1.66,0-3,1.34-3,3s1.34,3,3,3s3-1.34,3-3S13.66,9,12,9z M12,9c-1.66,0-3,1.34-3,3s1.34,3,3,3
		s3-1.34,3-3S13.66,9,12,9z M19.14,6.91C17.16,5.4,14.68,4.5,12,4.5c-2.68,0-5.16,0.9-7.14,2.41C3.14,8.21,1.8,9.96,1,12
		c0.82,2.09,2.21,3.88,3.98,5.18c0,0,0,0.011,0.01,0.021c1.96,1.439,4.39,2.3,7.01,2.3s5.05-0.86,7.01-2.3
		c0.01-0.01,0.01-0.021,0.01-0.021c1.771-1.3,3.16-3.09,3.98-5.18C22.2,9.96,20.86,8.21,19.14,6.91z M12,17c-2.76,0-5-2.24-5-5
		s2.24-5,5-5s5,2.24,5,5S14.76,17,12,17z M12,9c-1.66,0-3,1.34-3,3s1.34,3,3,3s3-1.34,3-3S13.66,9,12,9z M12,9c-1.66,0-3,1.34-3,3
		s1.34,3,3,3s3-1.34,3-3S13.66,9,12,9z M12,9c-1.66,0-3,1.34-3,3s1.34,3,3,3s3-1.34,3-3S13.66,9,12,9z M12,9c-1.66,0-3,1.34-3,3
		s1.34,3,3,3s3-1.34,3-3S13.66,9,12,9z M12,9c-1.66,0-3,1.34-3,3s1.34,3,3,3s3-1.34,3-3S13.66,9,12,9z"/>
</g>
<g id="Capa_2">
	<path fill="#66BB6A" d="M15,12c0,1.66-1.34,3-3,3s-3-1.34-3-3s1.34-3,3-3S15,10.34,15,12z"/>
	<path fill="#43A047" d="M15,12c0,1.66-1.34,3-3,3s-3-1.34-3-3s1.34-3,3-3S15,10.34,15,12z"/>
	<path fill="#81C784" d="M19.14,6.91C17.16,5.4,14.68,4.5,12,4.5c-2.68,0-5.16,0.9-7.14,2.41c-1.02,1.43-1.61,3.17-1.61,5.05
		c0,1.96,0.64,3.76,1.73,5.22c0,0,0,0.011,0.01,0.021c1.96,1.439,4.39,2.3,7.01,2.3s5.05-0.86,7.01-2.3
		c0.01-0.01,0.01-0.021,0.01-0.021c1.091-1.46,1.73-3.26,1.73-5.22C20.75,10.08,20.16,8.34,19.14,6.91z M12,17c-2.76,0-5-2.24-5-5
		s2.24-5,5-5s5,2.24,5,5S14.76,17,12,17z"/>
</g>
</svg>
