<?xml version="1.0" encoding="utf-8"?>
<!-- Generator: Adobe Illustrator 16.0.0, SVG Export Plug-In . SVG Version: 6.00 Build 0)  -->
<!DOCTYPE svg PUBLIC "-//W3C//DTD SVG 1.1//EN" "http://www.w3.org/Graphics/SVG/1.1/DTD/svg11.dtd">
<svg version="1.1" id="Capa_1" xmlns="http://www.w3.org/2000/svg" xmlns:xlink="http://www.w3.org/1999/xlink" x="0px" y="0px"
	 width="24px" height="24px" viewBox="0 0 24 24" enable-background="new 0 0 24 24" xml:space="preserve">
<g id="Capa_1_2_">
	<circle fill="#90A4AE" cx="12" cy="11.984" r="3.016"/>
	<path fill="#90A4AE" d="M19.561,16.751c0,0-0.981,0.812-1.545,1.015l0.844-1.483C18.859,16.281,19.684,16.174,19.561,16.751z"/>
	<g id="Capa_1_1_" display="none">
		<path display="inline" fill="none" d="M0,0h24v24H0V0z M0,0h24v24H0V0z M0,0h24v24H0V0z M0,0h24v24H0V0z"/>
		<path display="inline" d="M15,11.92c-0.01-0.32-0.07-0.63-0.17-0.91c-0.01-0.04-0.021-0.07-0.03-0.1
			c-0.01-0.03-0.021-0.06-0.04-0.08c-0.05-0.14-0.119-0.27-0.199-0.4c-0.051-0.08-0.101-0.15-0.148-0.22
			c-0.17-0.23-0.37-0.43-0.592-0.59c-0.09-0.07-0.188-0.14-0.288-0.2c-0.11-0.06-0.222-0.12-0.341-0.17
			c-0.012-0.01-0.021-0.01-0.029-0.01c-0.092-0.04-0.182-0.08-0.271-0.1c-0.021-0.01-0.041-0.02-0.07-0.02
			c-0.061-0.02-0.119-0.03-0.18-0.05c-0.011,0-0.011,0-0.021,0c-0.03,0-0.07-0.01-0.11-0.02c-0.03,0-0.06-0.01-0.09-0.01
			c-0.13-0.02-0.27-0.03-0.41-0.03l-0.17,0.01l3.15,3.15l0.02-0.16C15.01,11.98,15,11.95,15,11.92z M18.08,17.811l-2.41-2.41
			l-1.42-1.42l-4.23-4.229L3.27,3L2,4.27l2.28,2.28l0.46,0.46c-0.25,0.18-0.48,0.38-0.71,0.6C3.87,7.75,3.72,7.9,3.56,8.06
			C3.38,8.24,3.2,8.44,3.03,8.63C2.7,9.01,2.4,9.41,2.12,9.84c-0.16,0.23-0.3,0.48-0.44,0.73C1.42,11.03,1.2,11.5,1,12
			c0.24,0.6,0.52,1.18,0.85,1.72c0.11,0.21,0.24,0.41,0.38,0.601c0.15,0.222,0.3,0.439,0.46,0.649c0.17,0.2,0.33,0.4,0.51,0.591
			C3.31,15.68,3.42,15.8,3.54,15.92c0.26,0.28,0.54,0.54,0.83,0.78c0.2,0.17,0.4,0.33,0.61,0.479c0,0,0,0.01,0.01,0.021
			c0.04,0.03,0.07,0.05,0.11,0.069c0.16,0.131,0.34,0.238,0.51,0.34c0.08,0.07,0.16,0.108,0.24,0.16
			c0.1,0.068,0.22,0.141,0.33,0.188c0.2,0.12,0.39,0.229,0.6,0.319c0.24,0.119,0.49,0.238,0.74,0.33
			c0.09,0.051,0.19,0.08,0.29,0.108C8,18.811,8.2,18.88,8.41,18.939c0,0,0,0,0.01,0c0.24,0.08,0.48,0.148,0.73,0.211
			c0.3,0.08,0.61,0.14,0.93,0.188c0.09,0.021,0.19,0.03,0.29,0.04c0.22,0.04,0.44,0.062,0.66,0.08h0.04
			c0.31,0.03,0.62,0.04,0.93,0.04c0.16,0,0.33,0,0.49-0.01c0.1,0,0.21-0.012,0.31-0.021c0.24-0.01,0.47-0.04,0.7-0.068
			c0.141-0.01,0.279-0.039,0.42-0.062c0.68-0.108,1.33-0.271,1.95-0.489c0.17-0.061,0.34-0.119,0.51-0.188l0.42,0.42L19.73,22
			L21,20.73L18.08,17.811z M12.58,16.96C12.39,16.99,12.2,17,12,17c-2.76,0-5-2.24-5-5c0-0.2,0.01-0.39,0.04-0.58
			c0.02-0.15,0.04-0.3,0.07-0.45c0.09-0.41,0.24-0.8,0.42-1.17l1.55,1.55c-0.02,0.09-0.04,0.18-0.05,0.27C9.01,11.75,9,11.87,9,12
			c0,1.66,1.34,3,3,3c0.13,0,0.25-0.01,0.38-0.03c0.09-0.01,0.181-0.028,0.271-0.05l1.552,1.55c-0.37,0.181-0.761,0.33-1.17,0.421
			C12.88,16.92,12.73,16.939,12.58,16.96z M21.76,9.68c-0.33-0.49-0.689-0.94-1.08-1.37c-0.199-0.21-0.4-0.42-0.609-0.61
			c-0.182-0.17-0.359-0.33-0.541-0.47c-0.118-0.11-0.25-0.21-0.379-0.31c-0.012,0-0.012-0.01-0.012-0.01
			c-0.05-0.04-0.1-0.07-0.147-0.11c-0.142-0.1-0.28-0.2-0.421-0.3s-0.301-0.2-0.449-0.28c-0.102-0.07-0.2-0.13-0.313-0.18
			c-0.18-0.11-0.357-0.21-0.539-0.29C17.23,5.73,17.2,5.71,17.16,5.7c-0.24-0.13-0.48-0.24-0.73-0.33
			c-0.029-0.02-0.06-0.03-0.1-0.04c-0.25-0.1-0.5-0.19-0.75-0.27c-0.57-0.18-1.15-0.32-1.75-0.42c-0.301-0.04-0.6-0.08-0.91-0.1
			C12.62,4.51,12.31,4.5,12,4.5c-0.21,0-0.43,0.01-0.64,0.02c-0.14,0-0.27,0.01-0.41,0.03c-0.34,0.03-0.68,0.07-1.01,0.13
			c-0.17,0.03-0.33,0.06-0.49,0.1C9.28,4.82,9.12,4.86,8.96,4.9S8.64,4.99,8.48,5.04S8.16,5.14,8.01,5.2l2.15,2.15l0.01,0.01
			c0.29-0.12,0.58-0.2,0.89-0.27c0.14-0.03,0.28-0.05,0.43-0.06C11.66,7.01,11.83,7,12,7c2.76,0,5,2.24,5,5
			c0,0.17-0.01,0.34-0.029,0.51c-0.011,0.15-0.029,0.29-0.061,0.432c-0.07,0.311-0.15,0.601-0.271,0.891l0.012,0.01l2.771,2.771
			l0.142,0.141c0.188-0.16,0.369-0.32,0.551-0.49c0.18-0.17,0.35-0.34,0.52-0.52c0.17-0.182,0.33-0.37,0.49-0.561
			c0.148-0.189,0.3-0.382,0.449-0.58c0.141-0.199,0.279-0.399,0.41-0.609s0.261-0.42,0.381-0.641
			c0.238-0.432,0.449-0.892,0.63-1.352C22.66,11.18,22.25,10.4,21.76,9.68z"/>
	</g>
	<g id="Capa_2">
		<path fill="none" d="M0,0h24v24H0V0z"/>
		<path fill="#90A4AE" d="M14.83,11.01c-0.01-0.04-0.021-0.07-0.03-0.1c-0.01-0.03-0.021-0.06-0.04-0.08
			c-0.05-0.14-0.119-0.27-0.199-0.4c-0.051-0.08-0.101-0.15-0.148-0.22c-0.17-0.23-0.37-0.43-0.592-0.59
			c-0.09-0.07-0.188-0.14-0.288-0.2c-0.11-0.06-0.222-0.12-0.341-0.17c-0.012-0.01-0.021-0.01-0.029-0.01
			c-0.092-0.04-0.182-0.08-0.271-0.1c-0.021-0.01-0.041-0.02-0.07-0.02c-0.061-0.02-0.119-0.03-0.18-0.05c-0.011,0-0.011,0-0.021,0
			c0,0-0.011,0-0.011-0.01c-0.039-0.01-0.069-0.01-0.102-0.01c-0.02-0.01-0.03-0.01-0.04-0.01c-0.01,0-0.03-0.01-0.05-0.01v0.01
			c-0.13-0.02-0.27-0.03-0.41-0.03l-0.17,0.01l3.148,3.15C15,12.11,15,12.06,15,12v-0.08C14.99,11.6,14.93,11.29,14.83,11.01z
			 M9.89,9.88c-0.04,0.03-0.07,0.07-0.1,0.11c-0.07,0.06-0.12,0.12-0.17,0.19C9.61,10.19,9.6,10.2,9.6,10.21
			c-0.06,0.06-0.1,0.13-0.14,0.2c-0.18,0.28-0.31,0.6-0.39,0.93c-0.02,0.09-0.03,0.19-0.04,0.28C9.01,11.75,9,11.87,9,12
			c0,1.66,1.34,3,3,3c0.13,0,0.25-0.01,0.38-0.03c0.09-0.01,0.19-0.02,0.28-0.04c0.33-0.08,0.648-0.21,0.93-0.39
			c0.07-0.04,0.141-0.08,0.2-0.14c0.17-0.12,0.33-0.262,0.46-0.42l-4.23-4.23C9.97,9.79,9.93,9.83,9.89,9.88z M14.83,11.01
			c-0.01-0.04-0.021-0.07-0.03-0.1c-0.01-0.03-0.021-0.06-0.04-0.08c-0.05-0.14-0.119-0.27-0.199-0.4
			c-0.051-0.08-0.101-0.15-0.148-0.22c-0.17-0.23-0.37-0.43-0.592-0.59c-0.09-0.07-0.188-0.14-0.288-0.2
			c-0.11-0.06-0.222-0.12-0.341-0.17c-0.012-0.01-0.021-0.01-0.029-0.01c-0.092-0.04-0.182-0.08-0.271-0.1
			c-0.021-0.01-0.041-0.02-0.07-0.02c-0.061-0.02-0.119-0.03-0.18-0.05c-0.011,0-0.011,0-0.021,0c0,0-0.011,0-0.011-0.01
			c-0.039-0.01-0.069-0.01-0.102-0.01c-0.02-0.01-0.03-0.01-0.04-0.01c-0.01,0-0.03-0.01-0.05-0.01v0.01
			c-0.13-0.02-0.27-0.03-0.41-0.03l-0.17,0.01l3.148,3.15C15,12.11,15,12.06,15,12v-0.08C14.99,11.6,14.93,11.29,14.83,11.01z
			 M9.89,9.88c-0.04,0.03-0.07,0.07-0.1,0.11c-0.07,0.06-0.12,0.12-0.17,0.19C9.61,10.19,9.6,10.2,9.6,10.21
			c-0.06,0.06-0.1,0.13-0.14,0.2c-0.18,0.28-0.31,0.6-0.39,0.93c-0.02,0.09-0.03,0.19-0.04,0.28C9.01,11.75,9,11.87,9,12
			c0,1.66,1.34,3,3,3c0.13,0,0.25-0.01,0.38-0.03c0.09-0.01,0.19-0.02,0.28-0.04c0.33-0.08,0.648-0.21,0.93-0.39
			c0.07-0.04,0.141-0.08,0.2-0.14c0.17-0.12,0.33-0.262,0.46-0.42l-4.23-4.23C9.97,9.79,9.93,9.83,9.89,9.88z M14.83,11.01
			c-0.01-0.04-0.021-0.07-0.03-0.1c-0.01-0.03-0.021-0.06-0.04-0.08c-0.05-0.14-0.119-0.27-0.199-0.4
			c-0.051-0.08-0.101-0.15-0.148-0.22c-0.17-0.23-0.37-0.43-0.592-0.59c-0.09-0.07-0.188-0.14-0.288-0.2
			c-0.11-0.06-0.222-0.12-0.341-0.17c-0.012-0.01-0.021-0.01-0.029-0.01c-0.092-0.04-0.182-0.08-0.271-0.1
			c-0.021-0.01-0.041-0.02-0.07-0.02c-0.061-0.02-0.119-0.03-0.18-0.05c-0.011,0-0.011,0-0.021,0c0,0-0.011,0-0.011-0.01
			c-0.039-0.01-0.069-0.01-0.102-0.01c-0.02-0.01-0.03-0.01-0.04-0.01c-0.01,0-0.03-0.01-0.05-0.01v0.01
			c-0.13-0.02-0.27-0.03-0.41-0.03l-0.17,0.01l3.148,3.15C15,12.11,15,12.06,15,12v-0.08C14.99,11.6,14.93,11.29,14.83,11.01z
			 M9.89,9.88c-0.04,0.03-0.07,0.07-0.1,0.11c-0.07,0.06-0.12,0.12-0.17,0.19C9.61,10.19,9.6,10.2,9.6,10.21
			c-0.06,0.06-0.1,0.13-0.14,0.2c-0.18,0.28-0.31,0.6-0.39,0.93c-0.02,0.09-0.03,0.19-0.04,0.28C9.01,11.75,9,11.87,9,12
			c0,1.66,1.34,3,3,3c0.13,0,0.25-0.01,0.38-0.03c0.09-0.01,0.19-0.02,0.28-0.04c0.33-0.08,0.648-0.21,0.93-0.39
			c0.07-0.04,0.141-0.08,0.2-0.14c0.17-0.12,0.33-0.262,0.46-0.42l-4.23-4.23C9.97,9.79,9.93,9.83,9.89,9.88z M14.83,11.01
			c-0.01-0.04-0.021-0.07-0.03-0.1c-0.01-0.03-0.021-0.06-0.04-0.08c-0.05-0.14-0.119-0.27-0.199-0.4
			c-0.051-0.08-0.101-0.15-0.148-0.22c-0.17-0.23-0.37-0.43-0.592-0.59c-0.09-0.07-0.188-0.14-0.288-0.2
			c-0.11-0.06-0.222-0.12-0.341-0.17c-0.012-0.01-0.021-0.01-0.029-0.01c-0.092-0.04-0.182-0.08-0.271-0.1
			c-0.021-0.01-0.041-0.02-0.07-0.02c-0.061-0.02-0.119-0.03-0.18-0.05c-0.011,0-0.011,0-0.021,0c0,0-0.011,0-0.011-0.01
			c-0.039-0.01-0.069-0.01-0.102-0.01c-0.02-0.01-0.03-0.01-0.04-0.01c-0.01,0-0.03-0.01-0.05-0.01v0.01
			c-0.13-0.02-0.27-0.03-0.41-0.03l-0.17,0.01l3.148,3.15C15,12.11,15,12.06,15,12v-0.08C14.99,11.6,14.93,11.29,14.83,11.01z
			 M9.89,9.88c-0.04,0.03-0.07,0.07-0.1,0.11c-0.07,0.06-0.12,0.12-0.17,0.19C9.61,10.19,9.6,10.2,9.6,10.21
			c-0.06,0.06-0.1,0.13-0.14,0.2c-0.18,0.28-0.31,0.6-0.39,0.93c-0.02,0.09-0.03,0.19-0.04,0.28C9.01,11.75,9,11.87,9,12
			c0,1.66,1.34,3,3,3c0.13,0,0.25-0.01,0.38-0.03c0.09-0.01,0.19-0.02,0.28-0.04c0.33-0.08,0.648-0.21,0.93-0.39
			c0.07-0.04,0.141-0.08,0.2-0.14c0.17-0.12,0.33-0.262,0.46-0.42l-4.23-4.23C9.97,9.79,9.93,9.83,9.89,9.88z M14.83,11.01
			c-0.01-0.04-0.021-0.07-0.03-0.1c-0.01-0.03-0.021-0.06-0.04-0.08c-0.05-0.14-0.119-0.27-0.199-0.4
			c-0.051-0.08-0.101-0.15-0.148-0.22c-0.17-0.23-0.37-0.43-0.592-0.59c-0.09-0.07-0.188-0.14-0.288-0.2
			c-0.11-0.06-0.222-0.12-0.341-0.17c-0.012-0.01-0.021-0.01-0.029-0.01c-0.092-0.04-0.182-0.08-0.271-0.1
			c-0.021-0.01-0.041-0.02-0.07-0.02c-0.061-0.02-0.119-0.03-0.18-0.05c-0.011,0-0.011,0-0.021,0c0,0-0.011,0-0.011-0.01
			c-0.039-0.01-0.069-0.01-0.102-0.01c-0.02-0.01-0.03-0.01-0.04-0.01c-0.01,0-0.03-0.01-0.05-0.01v0.01
			c-0.13-0.02-0.27-0.03-0.41-0.03l-0.17,0.01l3.148,3.15C15,12.11,15,12.06,15,12v-0.08C14.99,11.6,14.93,11.29,14.83,11.01z
			 M9.89,9.88c-0.04,0.03-0.07,0.07-0.1,0.11c-0.07,0.06-0.12,0.12-0.17,0.19C9.61,10.19,9.6,10.2,9.6,10.21
			c-0.06,0.06-0.1,0.13-0.14,0.2c-0.18,0.28-0.31,0.6-0.39,0.93c-0.02,0.09-0.03,0.19-0.04,0.28C9.01,11.75,9,11.87,9,12
			c0,1.66,1.34,3,3,3c0.13,0,0.25-0.01,0.38-0.03c0.09-0.01,0.19-0.02,0.28-0.04c0.33-0.08,0.648-0.21,0.93-0.39
			c0.07-0.04,0.141-0.08,0.2-0.14c0.17-0.12,0.33-0.262,0.46-0.42l-4.23-4.23C9.97,9.79,9.93,9.83,9.89,9.88z M14.83,11.01
			c-0.01-0.04-0.021-0.07-0.03-0.1c-0.01-0.03-0.021-0.06-0.04-0.08c-0.05-0.14-0.119-0.27-0.199-0.4
			c-0.051-0.08-0.101-0.15-0.148-0.22c-0.17-0.23-0.37-0.43-0.592-0.59c-0.09-0.07-0.188-0.14-0.288-0.2
			c-0.11-0.06-0.222-0.12-0.341-0.17c-0.012-0.01-0.021-0.01-0.029-0.01c-0.092-0.04-0.182-0.08-0.271-0.1
			c-0.021-0.01-0.041-0.02-0.07-0.02c-0.061-0.02-0.119-0.03-0.18-0.05c-0.011,0-0.011,0-0.021,0c0,0-0.011,0-0.011-0.01
			c-0.039-0.01-0.069-0.01-0.102-0.01c-0.02-0.01-0.03-0.01-0.04-0.01c-0.01,0-0.03-0.01-0.05-0.01v0.01
			c-0.13-0.02-0.27-0.03-0.41-0.03l-0.17,0.01l3.148,3.15C15,12.11,15,12.06,15,12v-0.08C14.99,11.6,14.93,11.29,14.83,11.01z
			 M9.89,9.88c-0.04,0.03-0.07,0.07-0.1,0.11c-0.07,0.06-0.12,0.12-0.17,0.19C9.61,10.19,9.6,10.2,9.6,10.21
			c-0.06,0.06-0.1,0.13-0.14,0.2c-0.18,0.28-0.31,0.6-0.39,0.93c-0.02,0.09-0.03,0.19-0.04,0.28C9.01,11.75,9,11.87,9,12
			c0,1.66,1.34,3,3,3c0.13,0,0.25-0.01,0.38-0.03c0.09-0.01,0.19-0.02,0.28-0.04c0.33-0.08,0.648-0.21,0.93-0.39
			c0.07-0.04,0.141-0.08,0.2-0.14c0.17-0.12,0.33-0.262,0.46-0.42l-4.23-4.23C9.97,9.79,9.93,9.83,9.89,9.88z M21.76,9.68
			c-0.31-0.49-0.68-0.94-1.08-1.37c-0.199-0.21-0.4-0.42-0.609-0.61c-0.182-0.17-0.359-0.33-0.541-0.47
			c-0.118-0.11-0.25-0.21-0.379-0.31c-0.012,0-0.012-0.01-0.012-0.01c-0.05-0.04-0.1-0.07-0.147-0.11c-0.142-0.1-0.28-0.2-0.421-0.3
			s-0.301-0.2-0.449-0.28c-0.102-0.07-0.2-0.13-0.313-0.18c-0.18-0.11-0.357-0.21-0.539-0.29C17.23,5.73,17.2,5.71,17.16,5.7
			c-0.24-0.13-0.48-0.24-0.73-0.33c-0.029-0.02-0.06-0.03-0.1-0.04c-0.25-0.1-0.5-0.19-0.75-0.27c-0.57-0.19-1.15-0.33-1.75-0.42
			c-0.301-0.04-0.6-0.08-0.91-0.1C12.62,4.51,12.31,4.5,12,4.5c-0.21,0-0.43,0.01-0.64,0.02c-0.14,0-0.27,0.01-0.41,0.03
			c-0.34,0.03-0.68,0.07-1.01,0.13c-0.17,0.03-0.33,0.06-0.49,0.1C9.28,4.82,9.12,4.86,8.96,4.9S8.64,4.99,8.48,5.04
			S8.16,5.14,8.01,5.2l2.15,2.15c0.29-0.12,0.59-0.2,0.9-0.26c0.14-0.03,0.28-0.05,0.43-0.06C11.66,7.01,11.83,7,12,7
			c2.76,0,5,2.24,5,5c0,0.17-0.01,0.34-0.029,0.51c-0.011,0.15-0.029,0.29-0.061,0.432c-0.061,0.311-0.141,0.608-0.26,0.898
			l2.77,2.771l0.141,0.14c0.189-0.16,0.369-0.319,0.551-0.49c0.181-0.17,0.351-0.34,0.521-0.52c0.17-0.181,0.33-0.37,0.49-0.562
			c0.147-0.188,0.3-0.381,0.448-0.58c0.142-0.199,0.279-0.398,0.41-0.608s0.262-0.421,0.381-0.642C22.609,12.92,22.82,12.47,23,12
			C22.68,11.18,22.27,10.4,21.76,9.68z M13.029,16.891c-0.149,0.029-0.299,0.051-0.449,0.069C12.39,16.99,12.2,17,12,17
			c-2.76,0-5-2.24-5-5c0-0.2,0.01-0.39,0.04-0.58c0.02-0.15,0.04-0.3,0.07-0.45C7.32,9.94,7.86,9.02,8.6,8.33L6.27,6
			C5.78,6.26,5.31,6.57,4.86,6.91c-0.04,0.03-0.08,0.06-0.12,0.1c-0.25,0.18-0.48,0.38-0.71,0.6C3.87,7.75,3.72,7.9,3.56,8.06
			C3.38,8.24,3.2,8.44,3.03,8.63C2.7,9.01,2.4,9.41,2.12,9.84c-0.16,0.23-0.3,0.48-0.44,0.73C1.42,11.03,1.19,11.5,1,12
			c0.24,0.6,0.52,1.18,0.85,1.72c0.11,0.21,0.24,0.41,0.38,0.601c0.15,0.222,0.3,0.439,0.46,0.649c0.17,0.2,0.33,0.4,0.51,0.591
			C3.31,15.68,3.42,15.8,3.54,15.92c0.26,0.28,0.54,0.54,0.83,0.78c0.2,0.17,0.4,0.33,0.61,0.479c0,0,0,0.01,0.01,0.021
			c0.04,0.03,0.07,0.05,0.11,0.069c0.16,0.131,0.34,0.238,0.51,0.34c0.08,0.07,0.16,0.108,0.24,0.16
			c0.1,0.068,0.22,0.141,0.33,0.188c0.2,0.12,0.39,0.229,0.6,0.319c0.24,0.119,0.49,0.238,0.74,0.33
			c0.09,0.051,0.19,0.08,0.29,0.108C8,18.811,8.2,18.88,8.41,18.939c0,0,0,0,0.01,0c0.24,0.08,0.48,0.148,0.73,0.211
			c0.3,0.08,0.61,0.14,0.93,0.188c0.09,0.021,0.19,0.03,0.29,0.04c0.22,0.04,0.44,0.062,0.66,0.08h0.04
			c0.31,0.03,0.62,0.04,0.93,0.04c0.16,0,0.33,0,0.49-0.01c0.1,0,0.21-0.012,0.31-0.021c0.24-0.01,0.47-0.04,0.7-0.068
			c0.141-0.01,0.279-0.039,0.42-0.062c0.68-0.108,1.33-0.271,1.95-0.489c0.17-0.061,0.34-0.119,0.51-0.188
			c0.591-0.24,1.16-0.521,1.7-0.851L15.67,15.4C14.98,16.141,14.061,16.68,13.029,16.891z M14.83,11.01
			c-0.01-0.04-0.021-0.07-0.03-0.1c-0.01-0.03-0.021-0.06-0.04-0.08c-0.05-0.14-0.119-0.27-0.199-0.4
			c-0.051-0.08-0.101-0.15-0.148-0.22c-0.17-0.23-0.37-0.43-0.592-0.59c-0.09-0.07-0.188-0.14-0.288-0.2
			c-0.11-0.06-0.222-0.12-0.341-0.17c-0.012-0.01-0.021-0.01-0.029-0.01c-0.092-0.04-0.182-0.08-0.271-0.1
			c-0.021-0.01-0.041-0.02-0.07-0.02c-0.061-0.02-0.119-0.03-0.18-0.05c-0.011,0-0.011,0-0.021,0c0,0-0.011,0-0.011-0.01
			c-0.039-0.01-0.069-0.01-0.102-0.01c-0.02-0.01-0.03-0.01-0.04-0.01c-0.01,0-0.03-0.01-0.05-0.01v0.01
			c-0.13-0.02-0.27-0.03-0.41-0.03l-0.17,0.01l3.148,3.15C15,12.11,15,12.06,15,12v-0.08C14.99,11.6,14.93,11.29,14.83,11.01z
			 M9.89,9.88c-0.04,0.03-0.07,0.07-0.1,0.11c-0.07,0.06-0.12,0.12-0.17,0.19C9.61,10.19,9.6,10.2,9.6,10.21
			c-0.06,0.06-0.1,0.13-0.14,0.2c-0.18,0.28-0.31,0.6-0.39,0.93c-0.02,0.09-0.03,0.19-0.04,0.28C9.01,11.75,9,11.87,9,12
			c0,1.66,1.34,3,3,3c0.13,0,0.25-0.01,0.38-0.03c0.09-0.01,0.19-0.02,0.28-0.04c0.33-0.08,0.648-0.21,0.93-0.39
			c0.07-0.04,0.141-0.08,0.2-0.14c0.17-0.12,0.33-0.262,0.46-0.42l-4.23-4.23C9.97,9.79,9.93,9.83,9.89,9.88z M14.83,11.01
			c-0.01-0.04-0.021-0.07-0.03-0.1c-0.01-0.03-0.021-0.06-0.04-0.08c-0.05-0.14-0.119-0.27-0.199-0.4
			c-0.051-0.08-0.101-0.15-0.148-0.22c-0.17-0.23-0.37-0.43-0.592-0.59c-0.09-0.07-0.188-0.14-0.288-0.2
			c-0.11-0.06-0.222-0.12-0.341-0.17c-0.012-0.01-0.021-0.01-0.029-0.01c-0.092-0.04-0.182-0.08-0.271-0.1
			c-0.021-0.01-0.041-0.02-0.07-0.02c-0.061-0.02-0.119-0.03-0.18-0.05c-0.011,0-0.011,0-0.021,0c0,0-0.011,0-0.011-0.01
			c-0.039-0.01-0.069-0.01-0.102-0.01c-0.02-0.01-0.03-0.01-0.04-0.01c-0.01,0-0.03-0.01-0.05-0.01v0.01
			c-0.13-0.02-0.27-0.03-0.41-0.03l-0.17,0.01l3.148,3.15C15,12.11,15,12.06,15,12v-0.08C14.99,11.6,14.93,11.29,14.83,11.01z
			 M9.89,9.88c-0.04,0.03-0.07,0.07-0.1,0.11c-0.07,0.06-0.12,0.12-0.17,0.19C9.61,10.19,9.6,10.2,9.6,10.21
			c-0.06,0.06-0.1,0.13-0.14,0.2c-0.18,0.28-0.31,0.6-0.39,0.93c-0.02,0.09-0.03,0.19-0.04,0.28C9.01,11.75,9,11.87,9,12
			c0,1.66,1.34,3,3,3c0.13,0,0.25-0.01,0.38-0.03c0.09-0.01,0.19-0.02,0.28-0.04c0.33-0.08,0.648-0.21,0.93-0.39
			c0.07-0.04,0.141-0.08,0.2-0.14c0.17-0.12,0.33-0.262,0.46-0.42l-4.23-4.23C9.97,9.79,9.93,9.83,9.89,9.88z M14.83,11.01
			c-0.01-0.04-0.021-0.07-0.03-0.1c-0.01-0.03-0.021-0.06-0.04-0.08c-0.05-0.14-0.119-0.27-0.199-0.4
			c-0.051-0.08-0.101-0.15-0.148-0.22c-0.17-0.23-0.37-0.43-0.592-0.59c-0.09-0.07-0.188-0.14-0.288-0.2
			c-0.11-0.06-0.222-0.12-0.341-0.17c-0.012-0.01-0.021-0.01-0.029-0.01c-0.092-0.04-0.182-0.08-0.271-0.1
			c-0.021-0.01-0.041-0.02-0.07-0.02c-0.061-0.02-0.119-0.03-0.18-0.05c-0.011,0-0.011,0-0.021,0c0,0-0.011,0-0.011-0.01
			c-0.039-0.01-0.069-0.01-0.102-0.01c-0.02-0.01-0.03-0.01-0.04-0.01c-0.01,0-0.03-0.01-0.05-0.01v0.01
			c-0.13-0.02-0.27-0.03-0.41-0.03l-0.17,0.01l3.148,3.15C15,12.11,15,12.06,15,12v-0.08C14.99,11.6,14.93,11.29,14.83,11.01z
			 M9.89,9.88c-0.04,0.03-0.07,0.07-0.1,0.11c-0.07,0.06-0.12,0.12-0.17,0.19C9.61,10.19,9.6,10.2,9.6,10.21
			c-0.06,0.06-0.1,0.13-0.14,0.2c-0.18,0.28-0.31,0.6-0.39,0.93c-0.02,0.09-0.03,0.19-0.04,0.28C9.01,11.75,9,11.87,9,12
			c0,1.66,1.34,3,3,3c0.13,0,0.25-0.01,0.38-0.03c0.09-0.01,0.19-0.02,0.28-0.04c0.33-0.08,0.648-0.21,0.93-0.39
			c0.07-0.04,0.141-0.08,0.2-0.14c0.17-0.12,0.33-0.262,0.46-0.42l-4.23-4.23C9.97,9.79,9.93,9.83,9.89,9.88z M14.83,11.01
			c-0.01-0.04-0.021-0.07-0.03-0.1c-0.01-0.03-0.021-0.06-0.04-0.08c-0.05-0.14-0.119-0.27-0.199-0.4
			c-0.051-0.08-0.101-0.15-0.148-0.22c-0.17-0.23-0.37-0.43-0.592-0.59c-0.09-0.07-0.188-0.14-0.288-0.2
			c-0.11-0.06-0.222-0.12-0.341-0.17c-0.012-0.01-0.021-0.01-0.029-0.01c-0.092-0.04-0.182-0.08-0.271-0.1
			c-0.021-0.01-0.041-0.02-0.07-0.02c-0.061-0.02-0.119-0.03-0.18-0.05c-0.011,0-0.011,0-0.021,0c0,0-0.011,0-0.011-0.01
			c-0.039-0.01-0.069-0.01-0.102-0.01c-0.02-0.01-0.03-0.01-0.04-0.01c-0.01,0-0.03-0.01-0.05-0.01v0.01
			c-0.13-0.02-0.27-0.03-0.41-0.03l-0.17,0.01l3.148,3.15C15,12.11,15,12.06,15,12v-0.08C14.99,11.6,14.93,11.29,14.83,11.01z
			 M9.89,9.88c-0.04,0.03-0.07,0.07-0.1,0.11c-0.07,0.06-0.12,0.12-0.17,0.19C9.61,10.19,9.6,10.2,9.6,10.21
			c-0.06,0.06-0.1,0.13-0.14,0.2c-0.18,0.28-0.31,0.6-0.39,0.93c-0.02,0.09-0.03,0.19-0.04,0.28C9.01,11.75,9,11.87,9,12
			c0,1.66,1.34,3,3,3c0.13,0,0.25-0.01,0.38-0.03c0.09-0.01,0.19-0.02,0.28-0.04c0.33-0.08,0.648-0.21,0.93-0.39
			c0.07-0.04,0.141-0.08,0.2-0.14c0.17-0.12,0.33-0.262,0.46-0.42l-4.23-4.23C9.97,9.79,9.93,9.83,9.89,9.88z M14.83,11.01
			c-0.01-0.04-0.021-0.07-0.03-0.1c-0.01-0.03-0.021-0.06-0.04-0.08c-0.05-0.14-0.119-0.27-0.199-0.4
			c-0.051-0.08-0.101-0.15-0.148-0.22c-0.17-0.23-0.37-0.43-0.592-0.59c-0.09-0.07-0.188-0.14-0.288-0.2
			c-0.11-0.06-0.222-0.12-0.341-0.17c-0.012-0.01-0.021-0.01-0.029-0.01c-0.092-0.04-0.182-0.08-0.271-0.1
			c-0.021-0.01-0.041-0.02-0.07-0.02c-0.061-0.02-0.119-0.03-0.18-0.05c-0.011,0-0.011,0-0.021,0c0,0-0.011,0-0.011-0.01
			c-0.039-0.01-0.069-0.01-0.102-0.01c-0.02-0.01-0.03-0.01-0.04-0.01c-0.01,0-0.03-0.01-0.05-0.01v0.01
			c-0.13-0.02-0.27-0.03-0.41-0.03l-0.17,0.01l3.148,3.15C15,12.11,15,12.06,15,12v-0.08C14.99,11.6,14.93,11.29,14.83,11.01z
			 M9.89,9.88c-0.04,0.03-0.07,0.07-0.1,0.11c-0.07,0.06-0.12,0.12-0.17,0.19C9.61,10.19,9.6,10.2,9.6,10.21
			c-0.06,0.06-0.1,0.13-0.14,0.2c-0.18,0.28-0.31,0.6-0.39,0.93c-0.02,0.09-0.03,0.19-0.04,0.28C9.01,11.75,9,11.87,9,12
			c0,1.66,1.34,3,3,3c0.13,0,0.25-0.01,0.38-0.03c0.09-0.01,0.19-0.02,0.28-0.04c0.33-0.08,0.648-0.21,0.93-0.39
			c0.07-0.04,0.141-0.08,0.2-0.14c0.17-0.12,0.33-0.262,0.46-0.42l-4.23-4.23C9.97,9.79,9.93,9.83,9.89,9.88z"/>
		<path fill="#66BB6A" d="M10.02,9.75l4.23,4.23c-0.13,0.158-0.29,0.3-0.46,0.42c-0.06,0.06-0.13,0.1-0.2,0.14
			c-0.279,0.18-0.6,0.31-0.93,0.39c-0.09,0.021-0.19,0.03-0.28,0.04C12.25,14.99,12.13,15,12,15c-1.66,0-3-1.34-3-3
			c0-0.13,0.01-0.25,0.03-0.38c0.01-0.09,0.02-0.19,0.04-0.28c0.08-0.33,0.21-0.65,0.39-0.93c0.04-0.07,0.08-0.14,0.14-0.2
			c0-0.01,0.01-0.02,0.02-0.03c0.05-0.07,0.1-0.13,0.17-0.19c0.03-0.04,0.06-0.08,0.1-0.11C9.93,9.83,9.97,9.79,10.02,9.75z"/>
		<path fill="#66BB6A" d="M15,11.92V12c0,0.06,0,0.11-0.01,0.17l-3.15-3.15l0.17-0.01c0.14,0,0.28,0.01,0.41,0.03
			c0.01-0.01,0.03-0.01,0.05,0c0.01,0,0.02,0,0.04,0.01c0.03,0,0.061,0,0.102,0.01c0.011,0,0.021,0.01,0.029,0.01
			c0.061,0.02,0.119,0.03,0.18,0.05c0.029,0,0.051,0.01,0.068,0.02c0.092,0.02,0.182,0.06,0.271,0.1c0.01,0,0.02,0,0.029,0.01
			c0.119,0.05,0.229,0.11,0.34,0.17c0.101,0.06,0.201,0.13,0.291,0.2c0.22,0.16,0.42,0.36,0.59,0.59c0.05,0.07,0.1,0.14,0.148,0.22
			c0.08,0.13,0.149,0.26,0.199,0.4c0.03,0.06,0.051,0.12,0.07,0.18C14.93,11.29,14.99,11.6,15,11.92z"/>
		<path fill="#90A4AE" d="M10.02,9.75l4.23,4.23c-0.13,0.158-0.29,0.3-0.46,0.42c-0.06,0.06-0.13,0.1-0.2,0.14
			c-0.279,0.18-0.6,0.31-0.93,0.39c-0.09,0.021-0.19,0.03-0.28,0.04C12.25,14.99,12.13,15,12,15c-1.66,0-3-1.34-3-3
			c0-0.13,0.01-0.25,0.03-0.38c0.01-0.09,0.02-0.19,0.04-0.28c0.08-0.33,0.21-0.65,0.39-0.93c0.04-0.07,0.08-0.14,0.14-0.2
			c0-0.01,0.01-0.02,0.02-0.03c0.05-0.07,0.1-0.13,0.17-0.19c0.03-0.04,0.06-0.08,0.1-0.11C9.93,9.83,9.97,9.79,10.02,9.75z"/>
		<path fill="#90A4AE" d="M15,11.92V12c0,0.06,0,0.11-0.01,0.17l-3.15-3.15l0.17-0.01c0.14,0,0.28,0.01,0.41,0.03
			c0.01-0.01,0.03-0.01,0.05,0c0.01,0,0.02,0,0.04,0.01c0.03,0,0.061,0,0.102,0.01c0.011,0,0.021,0.01,0.029,0.01
			c0.061,0.02,0.119,0.03,0.18,0.05c0.029,0,0.051,0.01,0.068,0.02c0.092,0.02,0.182,0.06,0.271,0.1c0.01,0,0.02,0,0.029,0.01
			c0.119,0.05,0.229,0.11,0.34,0.17c0.101,0.06,0.201,0.13,0.291,0.2c0.22,0.16,0.42,0.36,0.59,0.59c0.05,0.07,0.1,0.14,0.148,0.22
			c0.08,0.13,0.149,0.26,0.199,0.4c0.03,0.06,0.051,0.12,0.07,0.18C14.93,11.29,14.99,11.6,15,11.92z"/>
		<path fill="#B0BEC5" d="M19.15,6.92c-0.012,0-0.012-0.01-0.012-0.01c-0.051-0.04-0.101-0.07-0.148-0.11
			c-0.141-0.1-0.28-0.2-0.42-0.3c-0.141-0.1-0.301-0.2-0.45-0.28c-0.101-0.07-0.2-0.13-0.312-0.18
			c-0.181-0.11-0.358-0.21-0.539-0.29C17.23,5.73,17.2,5.71,17.16,5.7c-0.24-0.13-0.48-0.24-0.73-0.33
			c-0.029-0.02-0.06-0.03-0.1-0.04c-0.25-0.1-0.5-0.19-0.75-0.27c-0.57-0.19-1.15-0.33-1.75-0.42c-0.301-0.04-0.6-0.08-0.91-0.1
			C12.62,4.51,12.31,4.5,12,4.5c-0.21,0-0.43,0.01-0.64,0.02c-0.14,0-0.27,0.01-0.41,0.03c-0.34,0.03-0.68,0.07-1.01,0.13
			c-0.17,0.03-0.33,0.06-0.49,0.1C9.28,4.82,9.12,4.86,8.96,4.9S8.64,4.99,8.48,5.04S8.16,5.14,8.01,5.2l2.15,2.15
			c0.29-0.12,0.59-0.2,0.9-0.26c0.14-0.03,0.28-0.05,0.43-0.06C11.66,7.01,11.83,7,12,7c2.76,0,5,2.24,5,5
			c0,0.17-0.01,0.34-0.029,0.51c-0.011,0.15-0.029,0.29-0.061,0.432c-0.061,0.311-0.141,0.608-0.26,0.898l2.77,2.771
			c0.84-1.353,1.33-2.94,1.33-4.65C20.75,10.08,20.16,8.35,19.15,6.92z M13.029,16.891c-0.149,0.029-0.299,0.051-0.449,0.069
			C12.39,16.99,12.2,17,12,17c-2.76,0-5-2.24-5-5c0-0.2,0.01-0.39,0.04-0.58c0.02-0.15,0.04-0.3,0.07-0.45
			C7.32,9.94,7.86,9.02,8.6,8.33L6.27,6C5.78,6.26,5.31,6.57,4.86,6.91c-1.02,1.43-1.61,3.17-1.61,5.05c0,1.96,0.64,3.76,1.73,5.22
			c0,0,0,0.012,0.01,0.021c0.04,0.029,0.07,0.05,0.11,0.068c0.16,0.131,0.34,0.239,0.51,0.342c0.08,0.068,0.16,0.107,0.24,0.158
			c0.1,0.069,0.22,0.142,0.33,0.189c0.2,0.12,0.39,0.229,0.6,0.32c0.24,0.119,0.49,0.238,0.74,0.328
			c0.09,0.052,0.19,0.08,0.29,0.109C8,18.811,8.2,18.88,8.41,18.939c0,0,0,0,0.01,0c0.24,0.08,0.48,0.148,0.73,0.211
			c0.3,0.08,0.61,0.14,0.93,0.188c0.09,0.021,0.19,0.03,0.29,0.04c0.22,0.04,0.44,0.062,0.66,0.08h0.04
			c0.31,0.03,0.62,0.04,0.93,0.04c0.16,0,0.33,0,0.49-0.01c0.1,0,0.21-0.012,0.31-0.021c0.24-0.01,0.47-0.04,0.7-0.068
			c0.141-0.01,0.279-0.039,0.42-0.062c0.68-0.108,1.33-0.271,1.95-0.489c0.17-0.061,0.34-0.119,0.51-0.188
			c0.591-0.24,1.16-0.521,1.7-0.851L15.67,15.4C14.98,16.141,14.061,16.68,13.029,16.891z"/>
	</g>
	<path fill="#B0BEC5" d="M7.344,10.094c0,0,0.406-2.063,3.266-2.891L8.48,5.04c0,0-2.808,0.788-4.074,2.569
		C3.14,9.39,7.344,10.094,7.344,10.094z"/>
	<path fill="#B0BEC5" d="M16.65,13.84c0,0-0.588,1.723-2.433,2.645l2.161,2.176c0,0,2.262-0.878,3.229-2.348L16.65,13.84z"/>
	<g id="Capa_3">
		<polygon fill="#9FA8DA" points="2,4.281 3.266,2.969 21,20.703 19.734,21.984 		"/>
	</g>
</g>
<g id="Capa_2_1_">
</g>
<path fill="none" d="M25.583,0.667h24v24h-24V0.667z"/>
<path opacity="0.6" fill="#90A4AE" enable-background="new    " d="M47.583,6.387l-4.6-3.86l-1.291,1.53l4.601,3.86L47.583,6.387z
	 M33.603,3.947l-1.419-1.42l-4.73,3.97l1.42,1.42L33.603,3.947z"/>
<path fill="#90A4AE" d="M37.583,4.667c-4.97,0-9,4.03-9,9s4.021,9,9,9c4.971,0,9-4.03,9-9S42.554,4.667,37.583,4.667z"/>
<path fill="#E0E0E0" d="M37.583,20.667c-3.87,0-7-3.13-7-7s3.13-7,7-7s7,3.13,7,7S41.453,20.667,37.583,20.667z"/>
<polygon fill="#9FA8DA" points="45.673,22.667 27.232,4.237 28.503,2.957 46.942,21.397 "/>
</svg>
