<?xml version="1.0" encoding="utf-8"?>
<!-- Generator: Adobe Illustrator 16.0.0, SVG Export Plug-In . SVG Version: 6.00 Build 0)  -->
<!DOCTYPE svg PUBLIC "-//W3C//DTD SVG 1.1//EN" "http://www.w3.org/Graphics/SVG/1.1/DTD/svg11.dtd">
<svg version="1.1" id="Capa_1" xmlns="http://www.w3.org/2000/svg" xmlns:xlink="http://www.w3.org/1999/xlink" x="0px" y="0px"
	 width="24px" height="24px" viewBox="0 0 24 24" enable-background="new 0 0 24 24" xml:space="preserve">
<path fill="none" d="M24,9.79V24H0V9.79h2.01V4C2.01,2.9,2.9,2,4,2h16c1.1,0,2,0.9,2,2v5.79H24z"/>
<path fill="#FFAB91" d="M22,4v12c0,1.1-0.9,2-2,2H6l-4,4L2.01,9.79V4C2.01,2.9,2.9,2,4,2h16C21.1,2,22,2.9,22,4z"/>
<path opacity="0.3" fill="#FF8A65" enable-background="new    " d="M22,4v5.79H2.01V4C2.01,2.9,2.9,2,4,2h16C21.1,2,22,2.9,22,4z"/>
<polygon fill="#455A64" points="18,14 14,10.8 14,14 6,14 6,6 14,6 14,9.2 18,6 "/>
</svg>
