<?xml version="1.0" encoding="utf-8"?>
<!-- Generator: Adobe Illustrator 16.0.0, SVG Export Plug-In . SVG Version: 6.00 Build 0)  -->
<!DOCTYPE svg PUBLIC "-//W3C//DTD SVG 1.1//EN" "http://www.w3.org/Graphics/SVG/1.1/DTD/svg11.dtd">
<svg version="1.1" id="Capa_1" xmlns="http://www.w3.org/2000/svg" xmlns:xlink="http://www.w3.org/1999/xlink" x="0px" y="0px"
	 width="24px" height="24px" viewBox="0 0 24 24" enable-background="new 0 0 24 24" xml:space="preserve">
<g id="Capa_1_1_">
	<path fill="none" d="M0,0v1.56h12.01V15H9.74c0.79-0.95,1.26-2.17,1.26-3.5C11,8.46,8.54,6,5.5,6S0,8.46,0,11.5S2.46,17,5.5,17
		h6.51v2.58H0V24h24V0H0z M5.5,15C3.57,15,2,13.43,2,11.5C2,9.57,3.57,8,5.5,8S9,9.57,9,11.5C9,13.43,7.43,15,5.5,15z"/>
	<path fill="#7E57C2" d="M18.5,6C15.46,6,13,8.46,13,11.5c0,1.33,0.471,2.55,1.26,3.5H9.74c0.79-0.95,1.26-2.17,1.26-3.5
		C11,8.46,8.54,6,5.5,6S0,8.46,0,11.5S2.46,17,5.5,17h13c3.04,0,5.5-2.46,5.5-5.5S21.54,6,18.5,6z M5.5,15C3.57,15,2,13.43,2,11.5
		C2,9.57,3.57,8,5.5,8S9,9.57,9,11.5C9,13.43,7.43,15,5.5,15z M18.5,15c-1.93,0-3.5-1.57-3.5-3.5C15,9.57,16.57,8,18.5,8
		S22,9.57,22,11.5C22,13.43,20.43,15,18.5,15z"/>
</g>
<path fill="#9575CD" d="M9.74,15c0.79-0.95,1.26-2.17,1.26-3.5C11,8.46,8.54,6,5.5,6S0,8.46,0,11.5S2.46,17,5.5,17h6.51v-2H9.74z
	 M5.5,15C3.57,15,2,13.43,2,11.5C2,9.57,3.57,8,5.5,8S9,9.57,9,11.5C9,13.43,7.43,15,5.5,15z"/>
</svg>
