<?xml version="1.0" encoding="utf-8"?>
<!-- Generator: Adobe Illustrator 16.0.0, SVG Export Plug-In . SVG Version: 6.00 Build 0)  -->
<!DOCTYPE svg PUBLIC "-//W3C//DTD SVG 1.1//EN" "http://www.w3.org/Graphics/SVG/1.1/DTD/svg11.dtd">
<svg version="1.1" id="Capa_1" xmlns="http://www.w3.org/2000/svg" xmlns:xlink="http://www.w3.org/1999/xlink" x="0px" y="0px"
	 width="24px" height="24px" viewBox="0 0 24 24" enable-background="new 0 0 24 24" xml:space="preserve">
<path d="M7,9v6h4l5,5V4l-5,5H7z"/>
<path fill="none" d="M0,0h24v24H0V0z"/>
<path fill="#64B5F6" d="M11,9H7v6h4l5,5V4L11,9z"/>
<path fill="none" d="M4,0h24v24H4V0z"/>
<polygon fill="#90A4AE" points="16,4 16,20 11,15 11,9 "/>
<rect x="7" y="9" fill="#78909C" width="4" height="6"/>
<path fill="#039BE5" d="M20.525,11.975c0-1.771-1.021-3.291-2.5-4.031v8.05C19.507,15.264,20.525,13.744,20.525,11.975z"/>
</svg>
