<?xml version="1.0" encoding="utf-8"?>
<!-- Generator: Adobe Illustrator 16.0.0, SVG Export Plug-In . SVG Version: 6.00 Build 0)  -->
<!DOCTYPE svg PUBLIC "-//W3C//DTD SVG 1.1//EN" "http://www.w3.org/Graphics/SVG/1.1/DTD/svg11.dtd">
<svg version="1.1" id="Capa_1" xmlns="http://www.w3.org/2000/svg" xmlns:xlink="http://www.w3.org/1999/xlink" x="0px" y="0px"
	 width="24px" height="24px" viewBox="0 0 24 24" enable-background="new 0 0 24 24" xml:space="preserve">
<path fill="#CFD8DC" d="M14,3.46c0,0-0.729,9.353,4.92,8.54c0,0,0.914,1.854,0.914,1.938s-2.751,4.521-2.751,4.521l-1.125,0.875
	l-1.916-1.125c0,0-3.958-2.834-3.979-2.896s-2.542-1.271-2.542-1.271s-1.438-1.5-1.438-1.563S6.021,8.708,6.021,8.708
	S10,6.063,10.063,6.021s2.688-1.917,2.792-1.979S14,3.46,14,3.46z"/>
<path fill="#FFA726" d="M22,4V3.5C22,2.12,20.88,1,19.5,1S17,2.12,17,3.5V4c-0.55,0-1,0.45-1,1v4c0,0.55,0.45,1,1,1h5
	c0.55,0,1-0.45,1-1V5C23,4.45,22.55,4,22,4z M17.8,4V3.5c0-0.94,0.76-1.7,1.7-1.7s1.7,0.76,1.7,1.7V4H17.8z"/>
<path fill="#546E7A" d="M18.92,12c0.04,0.33,0.08,0.66,0.08,1c0,2.08-0.8,3.97-2.1,5.391C16.641,17.58,15.9,17,15,17h-1v-3
	c0-0.55-0.45-1-1-1H7v-2h2c0.55,0,1-0.45,1-1V8h2c1.1,0,2-0.9,2-2V3.46C13.05,3.16,12.05,3,11,3C5.48,3,1,7.48,1,13
	c0,5.52,4.48,10,10,10c5.52,0,10-4.48,10-10c0-0.34-0.02-0.67-0.05-1H18.92z"/>
<path fill="#CFD8DC" d="M10,20.93c-3.95-0.49-7-3.85-7-7.93c0-0.62,0.08-1.21,0.21-1.79L8,16v1c0,1.1,0.9,2,2,2V20.93z"/>
<path fill="#FFCC80" d="M22,3.5V4h-0.8V3.5c0-0.94-0.76-1.7-1.7-1.7s-1.7,0.76-1.7,1.7V4H17V3.5C17,2.12,18.12,1,19.5,1
	S22,2.12,22,3.5z"/>
</svg>
