<?xml version="1.0" encoding="utf-8"?>
<!-- Generator: Adobe Illustrator 16.0.0, SVG Export Plug-In . SVG Version: 6.00 Build 0)  -->
<!DOCTYPE svg PUBLIC "-//W3C//DTD SVG 1.1//EN" "http://www.w3.org/Graphics/SVG/1.1/DTD/svg11.dtd">
<svg version="1.1" xmlns="http://www.w3.org/2000/svg" xmlns:xlink="http://www.w3.org/1999/xlink" x="0px" y="0px" width="24px"
	 height="24px" viewBox="0 0 24 24" enable-background="new 0 0 24 24" xml:space="preserve">
<g id="Capa_1">
	<path fill="none" d="M0,0h24v24H0V0z"/>
	<path fill="#FFD54F" d="M12.65,10C11.83,7.67,9.61,6,7,6c-3.31,0-6,2.69-6,6v0.04C1.02,15.33,3.7,18,7,18c2.61,0,4.83-1.67,5.65-4
		H17v4h4v-4h2v-4H12.65z M7,14c-1.09,0-1.98-0.88-2-1.96V12c0-1.1,0.9-2,2-2s2,0.9,2,2v0.04C8.98,13.12,8.09,14,7,14z"/>
</g>
<g id="Capa_2">
	<path fill="#FFB300" d="M23,10v2.04H9V12c0-1.1-0.9-2-2-2s-2,0.9-2,2v0.04H1V12c0-3.31,2.69-6,6-6c2.61,0,4.83,1.67,5.65,4H23z"/>
</g>
</svg>
