<?xml version="1.0" encoding="utf-8"?>
<!-- Generator: Adobe Illustrator 16.0.0, SVG Export Plug-In . SVG Version: 6.00 Build 0)  -->
<!DOCTYPE svg PUBLIC "-//W3C//DTD SVG 1.1//EN" "http://www.w3.org/Graphics/SVG/1.1/DTD/svg11.dtd">
<svg version="1.1" id="Capa_1" xmlns="http://www.w3.org/2000/svg" xmlns:xlink="http://www.w3.org/1999/xlink" x="0px" y="0px"
	 width="24px" height="24px" viewBox="0 0 24 24" enable-background="new 0 0 24 24" xml:space="preserve">
<path fill="#6D4C41" d="M22,4v11c0,1.109-0.891,2-2,2h-4v5l-4-2l-0.02,0.01L8,22v-5H4c-1.11,0-2-0.891-2-2V4c0-1.11,0.89-2,2-2h16
	C21.109,2,22,2.89,22,4z"/>
<rect x="4" y="13" fill="#6D4C41" width="16" height="2"/>
<rect x="4" y="4" fill="#6D4C41" width="16" height="6"/>
<rect x="1.953" y="9.969" fill="#B39DDB" width="20.009" height="3.031"/>
<polygon fill="#FFEE58" points="16,17 16,22 12,20 11.98,20.01 8,22 8,17 "/>
<polygon opacity="0.6" fill="#FFCA28" enable-background="new    " points="16,16.98 16,22 12,20 11.98,20.01 11.98,16.98 "/>
</svg>
