<?xml version="1.0" encoding="utf-8"?>
<!-- Generator: Adobe Illustrator 16.0.0, SVG Export Plug-In . SVG Version: 6.00 Build 0)  -->
<!DOCTYPE svg PUBLIC "-//W3C//DTD SVG 1.1//EN" "http://www.w3.org/Graphics/SVG/1.1/DTD/svg11.dtd">
<svg version="1.1" xmlns="http://www.w3.org/2000/svg" xmlns:xlink="http://www.w3.org/1999/xlink" x="0px" y="0px" width="24px"
	 height="24px" viewBox="0 0 24 24" enable-background="new 0 0 24 24" xml:space="preserve">
<g id="Capa_2_1_">
	<rect x="3.162" y="7.269" fill="#FFEE58" width="17.531" height="12.229"/>
</g>
<g id="Capa_1">
	<path fill="#FFEE58" d="M12,14v3h4.13v-3H12z M12,14v3h4.13v-3H12z M20,6h-2.18C17.93,5.69,18,5.35,18,5c0-1.66-1.34-3-3-3
		c-1.05,0-1.96,0.54-2.5,1.35L12,4.02l-0.04-0.05L11.5,3.34C10.96,2.54,10.05,2,9,2C7.34,2,6,3.34,6,5c0,0.35,0.07,0.69,0.18,1H4
		C2.89,6,2.01,6.89,2.01,8L2,14v5c0,1.11,0.89,2,2,2h16c1.11,0,2-0.89,2-2V8C22,6.89,21.11,6,20,6z M20,14H4V8h5.08L7.64,9.96
		L7,10.83l0.64,0.46L8.62,12l1.77-2.41L11,8.76l0.96-1.31L12,7.4l1,1.36l0.38,0.52l2,2.72l0.75-0.54L17,10.83l-0.87-1.18L14.92,8H20
		V14z M20,19H4v-2h16V19z M15,4c0.55,0,1,0.45,1,1s-0.45,1-1,1s-1-0.45-1-1S14.45,4,15,4z M9,4c0.55,0,1,0.45,1,1S9.55,6,9,6
		S8,5.55,8,5S8.45,4,9,4z M12,14v3h4.13v-3H12z M12,14v3h4.13v-3H12z"/>
	<path fill="none" d="M20,6h-2.18C17.93,5.69,18,5.35,18,5c0-1.66-1.34-3-3-3c-1.05,0-1.96,0.54-2.5,1.35L12,4.02l-0.04-0.05
		L11.5,3.34C10.96,2.54,10.05,2,9,2C7.34,2,6,3.34,6,5c0,0.35,0.07,0.69,0.18,1H4C2.89,6,2.01,6.89,2.01,8L2,14v5c0,1.11,0.89,2,2,2
		h16c1.11,0,2-0.89,2-2V8C22,6.89,21.11,6,20,6z M4,19v-2h7.96v2H4z M4,8h5.08L7.64,9.96L7,10.83l0.64,0.46L8.62,12l1.77-2.41
		L11,8.76l0.96-1.31V14H4V8z M9,4c0.55,0,1,0.45,1,1S9.55,6,9,6S8,5.55,8,5S8.45,4,9,4z"/>
	<rect x="2" y="14" fill="#E53935" width="20" height="3"/>
	<path fill="#E53935" d="M15,2c-1.05,0-1.96,0.54-2.5,1.35L12,4.02l-0.04-0.05L11.5,3.34C10.96,2.54,10.05,2,9,2C7.34,2,6,3.34,6,5
		c0,0.35,0.07,0.69,0.18,1c0,0,0.01,0.02,0.02,0.05c0.07,0.17,0.32,0.74,0.86,1.22c0.16,0.14,0.36,0.28,0.58,0.4
		C8.02,7.87,8.5,8,9.08,8L7.64,9.96L7,10.83l0.64,0.46L8.62,12l1.77-2.41L11,8.76l0.96-1.31L12,7.4l1,1.36l0.38,0.52l2,2.72
		l0.75-0.54L17,10.83l-0.87-1.18L14.92,8c0,0,0.17,0.02,0.42,0c0.22-0.02,0.49-0.06,0.79-0.18c0.3-0.1,0.62-0.27,0.92-0.55
		s0.57-0.68,0.75-1.22C17.81,6.03,17.81,6.02,17.82,6C17.93,5.69,18,5.35,18,5C18,3.34,16.66,2,15,2z M15,4c0.55,0,1,0.45,1,1
		s-0.45,1-1,1s-1-0.45-1-1S14.45,4,15,4z M9,4c0.55,0,1,0.45,1,1S9.55,6,9,6S8,5.55,8,5S8.45,4,9,4z"/>
	<rect x="4.635" y="6.052" fill="#E53935" width="3" height="14.922"/>
	<rect x="10.385" y="6.115" fill="#E53935" width="3" height="14.875"/>
	<rect x="16.135" y="6.052" fill="#E53935" width="3" height="14.875"/>
	<path opacity="0.15" fill="#BDBDBD" enable-background="new    " d="M11.944,3.97l-0.46-0.63c-0.54-0.8-1.45-1.34-2.5-1.34
		c-1.66,0-3,1.34-3,3c0,0.35,0.07,0.69,0.18,1h-2.18c-1.11,0-1.99,0.89-1.99,2l-0.01,6v5c0,1.11,0.89,2,2,2h8V4.02L11.944,3.97z
		 M8.984,4c0.55,0,1,0.45,1,1s-0.45,1-1,1s-1-0.45-1-1S8.435,4,8.984,4z"/>
</g>
</svg>
