<?xml version="1.0" encoding="utf-8"?>
<!-- Generator: Adobe Illustrator 16.0.0, SVG Export Plug-In . SVG Version: 6.00 Build 0)  -->
<!DOCTYPE svg PUBLIC "-//W3C//DTD SVG 1.1//EN" "http://www.w3.org/Graphics/SVG/1.1/DTD/svg11.dtd">
<svg version="1.1" id="Capa_1" xmlns="http://www.w3.org/2000/svg" xmlns:xlink="http://www.w3.org/1999/xlink" x="0px" y="0px"
	 width="24px" height="24px" viewBox="0 0 24 24" enable-background="new 0 0 24 24" xml:space="preserve">
<path fill="none" d="M0,0h24v24H0V0z"/>
<path fill="#546E7A" d="M20,12c0-2.54-1.189-4.81-3.04-6.27L16,0H8L7.05,5.73C5.19,7.19,4,9.45,4,12s1.19,4.811,3.05,6.27L8,24h8
	l0.96-5.73C18.811,16.811,20,14.54,20,12z"/>
<circle fill="#FF7043" cx="12.01" cy="11.969" r="8.011"/>
<path fill="#CFD8DC" d="M6,12c0-3.31,2.69-6,6-6c3.311,0,6,2.69,6,6c0,3.311-2.689,6-6,6C8.69,18,6,15.311,6,12z"/>
</svg>
