<?xml version="1.0" encoding="utf-8"?>
<!-- Generator: Adobe Illustrator 16.0.0, SVG Export Plug-In . SVG Version: 6.00 Build 0)  -->
<!DOCTYPE svg PUBLIC "-//W3C//DTD SVG 1.1//EN" "http://www.w3.org/Graphics/SVG/1.1/DTD/svg11.dtd">
<svg version="1.1" id="Capa_1" xmlns="http://www.w3.org/2000/svg" xmlns:xlink="http://www.w3.org/1999/xlink" x="0px" y="0px"
	 width="24px" height="24px" viewBox="0 0 24 24" enable-background="new 0 0 24 24" xml:space="preserve">
<path fill="#5C6BC0" d="M23.8,7l-2.05,9H20l-1.5-6.1L17,16h-1.75l-0.1-0.43C13.84,18.189,11.13,20,8,20c-4.42,0-8-3.58-8-8
	s3.58-8,8-8c2.53,0,4.77,1.17,6.24,3H15l1.21,6.29L17.7,7h1.6l1.5,6.29L22,7H23.8z"/>
<polygon fill="#90CAF9" points="10.3,16 9.6,14 6.4,14 5.7,16 3.8,16 7,7 9,7 12.2,16 "/>
<path fill="none" d="M0,0h24v24H0V0z"/>
<polygon fill="#5C6BC0" points="6.85,12.65 9.15,12.65 8,9 "/>
<polygon fill="#9FA8DA" points="23.8,7 21.75,16 20,16 18.5,9.9 17,16 15.25,16 13.453,7.063 15,7 16.21,13.29 17.7,7 19.3,7 
	20.8,13.29 22,7 "/>
</svg>
