<?xml version="1.0" encoding="utf-8"?>
<!-- Generator: Adobe Illustrator 16.0.0, SVG Export Plug-In . SVG Version: 6.00 Build 0)  -->
<!DOCTYPE svg PUBLIC "-//W3C//DTD SVG 1.1//EN" "http://www.w3.org/Graphics/SVG/1.1/DTD/svg11.dtd">
<svg version="1.1" id="Capa_1" xmlns="http://www.w3.org/2000/svg" xmlns:xlink="http://www.w3.org/1999/xlink" x="0px" y="0px"
	 width="24px" height="24px" viewBox="0 0 24 24" enable-background="new 0 0 24 24" xml:space="preserve">
<path fill="none" d="M12,3.06V4c3.641,0,6.67,2.59,7.359,6.04C21.95,10.22,24,12.36,24,15c0,2.76-2.24,5-5,5h-7v3.061h12V24H0V0h24
	v3.06H12z"/>
<path fill="#5C6BC0" d="M24,15c0,2.76-2.24,5-5,5H6c-3.31,0-6-2.689-6-6c0-3.09,2.34-5.64,5.35-5.96C6.6,5.64,9.11,4,12,4
	c3.641,0,6.67,2.59,7.359,6.04C21.95,10.22,24,12.36,24,15z"/>
<path opacity="0.1" fill="#9FA8DA" enable-background="new    " d="M24,15c0,2.76-2.24,5-5,5h-7V4c3.641,0,6.67,2.59,7.359,6.04
	C21.95,10.22,24,12.36,24,15z"/>
</svg>
