<?xml version="1.0" encoding="utf-8"?>
<!-- Generator: Adobe Illustrator 16.0.0, SVG Export Plug-In . SVG Version: 6.00 Build 0)  -->
<!DOCTYPE svg PUBLIC "-//W3C//DTD SVG 1.1//EN" "http://www.w3.org/Graphics/SVG/1.1/DTD/svg11.dtd">
<svg version="1.1" id="Capa_1" xmlns="http://www.w3.org/2000/svg" xmlns:xlink="http://www.w3.org/1999/xlink" x="0px" y="0px"
	 width="24px" height="24px" viewBox="0 0 24 24" enable-background="new 0 0 24 24" xml:space="preserve">
<path fill="none" d="M0,0h24v24H0V0z"/>
<polygon fill="#FFF176" points="3.55,18.54 4.96,19.95 6.75,18.15 5.34,16.74 "/>
<rect x="11" y="19.5" fill="#FFF176" width="2" height="2.95"/>
<rect x="1" y="10.5" fill="#FFF176" width="3" height="2"/>
<path fill="#455A64" d="M18,11.5c0,3.31-2.69,6-6,6c-3.31,0-6-2.69-6-6c0-2.22,1.21-4.15,3-5.19V1.5h6v4.81
	C16.79,7.35,18,9.28,18,11.5z"/>
<rect x="20" y="10.5" fill="#FFF176" width="3" height="2"/>
<polygon fill="#FFF176" points="17.24,18.16 19.029,19.96 20.439,18.55 18.641,16.76 "/>
<path fill="#FFEE58" d="M18,11.5c0,3.31-2.69,6-6,6c-3.31,0-6-2.69-6-6c0-2.22,1.21-4.15,3-5.19V6.26c0.88-0.49,1.9-0.77,2.97-0.77
	c1.1,0,2.14,0.29,3.03,0.81v0.01C16.79,7.35,18,9.28,18,11.5z"/>
</svg>
