<?xml version="1.0" encoding="utf-8"?>
<!-- Generator: Adobe Illustrator 16.0.0, SVG Export Plug-In . SVG Version: 6.00 Build 0)  -->
<!DOCTYPE svg PUBLIC "-//W3C//DTD SVG 1.1//EN" "http://www.w3.org/Graphics/SVG/1.1/DTD/svg11.dtd">
<svg version="1.1" id="Capa_1" xmlns="http://www.w3.org/2000/svg" xmlns:xlink="http://www.w3.org/1999/xlink" x="0px" y="0px"
	 width="24px" height="24px" viewBox="0 0 24 24" enable-background="new 0 0 24 24" xml:space="preserve">
<path fill="none" d="M0,0h24v24H0V0z"/>
<polygon fill="#FFEE58" points="6.76,4.84 4.96,3.05 3.55,4.46 5.34,6.25 "/>
<rect x="1" y="10.5" fill="#FFEE58" width="3" height="2"/>
<rect x="11" y="0.55" fill="#FFEE58" width="2" height="2.95"/>
<rect x="17.853" y="3.384" transform="matrix(0.7071 0.7071 -0.7071 0.7071 8.809 -11.9671)" fill="#FFEE58" width="1.994" height="2.531"/>
<polygon fill="#FFEE58" points="17.24,18.16 19.029,19.96 20.439,18.55 18.641,16.76 "/>
<rect x="20" y="10.5" fill="#FFEE58" width="3" height="2"/>
<path fill="#FDD835" d="M12,5.5c-3.31,0-6,2.69-6,6c0,3.311,2.69,6,6,6c3.311,0,6-2.689,6-6C18,8.19,15.311,5.5,12,5.5z"/>
<rect x="11" y="19.5" fill="#FFEE58" width="2" height="2.95"/>
<polygon fill="#FFEE58" points="3.55,18.54 4.96,19.95 6.75,18.15 5.34,16.74 "/>
</svg>
