<?xml version="1.0" encoding="utf-8"?>
<!-- Generator: Adobe Illustrator 16.0.0, SVG Export Plug-In . SVG Version: 6.00 Build 0)  -->
<!DOCTYPE svg PUBLIC "-//W3C//DTD SVG 1.1//EN" "http://www.w3.org/Graphics/SVG/1.1/DTD/svg11.dtd">
<svg version="1.1" xmlns="http://www.w3.org/2000/svg" xmlns:xlink="http://www.w3.org/1999/xlink" x="0px" y="0px" width="24px"
	 height="24px" viewBox="0 0 24 24" enable-background="new 0 0 24 24" xml:space="preserve">
<g id="Capa_1">
	<path fill="#FFB74D" d="M13.51,0.68L13.5,0.67c0,0,0.74,2.65,0.74,4.8c0,2.06-1.351,3.73-3.41,3.73C8.76,9.2,7.2,7.53,7.2,5.47
		l0.03-0.36C5.21,7.51,4,10.62,4,14c0,2.41,1.06,4.57,2.75,6.03C8.15,21.26,9.99,22,12,22c4.42,0,8-3.58,8-8
		C20,8.61,17.41,3.81,13.51,0.68z M11.71,19c-0.9,0-1.7-0.35-2.29-0.93c-0.57-0.561-0.93-1.34-0.93-2.21
		c0-1.62,1.05-2.761,2.81-3.12c1.771-0.36,3.601-1.21,4.62-2.58c0.39,1.29,0.59,2.649,0.59,4.04C16.51,16.85,14.36,19,11.71,19z"/>
	<path fill="none" d="M0,0h24v24H0V0z"/>
	<path fill="#E53935" d="M20,14c0,4.42-3.58,8-8,8c-2.01,0-3.881-0.786-5.281-2.016L6.75,20.02c0,0,1.328-0.301,2.67-1.949
		c0.59,0.58,1.39,0.93,2.29,0.93c2.65,0,4.8-2.15,4.8-4.8c0-1.391-0.2-2.75-0.59-4.04c0.85-4.3-2.24-9.21-2.41-9.48
		C17.41,3.81,20,8.61,20,14z"/>
</g>
<g id="Capa_3">
</g>
<g id="Capa_2">
</g>
</svg>
