<?xml version="1.0" encoding="utf-8"?>
<!-- Generator: Adobe Illustrator 16.0.0, SVG Export Plug-In . SVG Version: 6.00 Build 0)  -->
<!DOCTYPE svg PUBLIC "-//W3C//DTD SVG 1.1//EN" "http://www.w3.org/Graphics/SVG/1.1/DTD/svg11.dtd">
<svg version="1.1" id="Capa_1" xmlns="http://www.w3.org/2000/svg" xmlns:xlink="http://www.w3.org/1999/xlink" x="0px" y="0px"
	 width="24px" height="24px" viewBox="0 0 24 24" enable-background="new 0 0 24 24" xml:space="preserve">
<g id="Capa_1_1_">
	<path fill="none" d="M0,0h24v24H0V0z"/>
	<path fill="#00ACC1" d="M12,3C6.48,3,2,7.48,2,13c0,3.7,2.01,6.92,4.99,8.65l1-1.73C5.61,18.53,4,15.96,4,13c0-4.42,3.58-8,8-8
		s8,3.58,8,8c0,2.96-1.609,5.53-4,6.92l1,1.73c2.99-1.73,5-4.95,5-8.65C22,7.48,17.52,3,12,3z M12,7c-3.31,0-6,2.69-6,6
		c0,2.22,1.21,4.15,3,5.189l1-1.739c-1.19-0.7-2-1.97-2-3.45c0-2.21,1.79-4,4-4s4,1.79,4,4c0,1.48-0.811,2.75-2,3.45l1,1.739
		c1.79-1.039,3-2.971,3-5.189C18,9.69,15.311,7,12,7z M12.089,11c-1.09,0-1.99,0.89-2,1.98c0,0.01,0,0.01,0,0.02c0,1.1,0.9,2,2,2
		c1.1,0,2-0.9,2-2c0-0.01,0-0.01,0-0.02C14.079,11.89,13.179,11,12.089,11z"/>
</g>
</svg>
