<?xml version="1.0" encoding="utf-8"?>
<!-- Generator: Adobe Illustrator 16.0.0, SVG Export Plug-In . SVG Version: 6.00 Build 0)  -->
<!DOCTYPE svg PUBLIC "-//W3C//DTD SVG 1.1//EN" "http://www.w3.org/Graphics/SVG/1.1/DTD/svg11.dtd">
<svg version="1.1" id="Capa_1" xmlns="http://www.w3.org/2000/svg" xmlns:xlink="http://www.w3.org/1999/xlink" x="0px" y="0px"
	 width="24px" height="24px" viewBox="0 0 24 24" enable-background="new 0 0 24 24" xml:space="preserve">
<path fill="none" d="M24,11.31V0H0v24h24v-8h-1v-1.5c0-1.38-1.12-2.5-2.5-2.5S18,13.12,18,14.5V16h-0.52v-4.69H24z M19,14.5
	c0-0.83,0.67-1.5,1.5-1.5s1.5,0.67,1.5,1.5V16h-3V14.5z"/>
<path fill="#B0BEC5" d="M20.5,9.5c0.279,0,0.55,0.04,0.811,0.08L24,6c-3.34-2.51-7.5-4-12-4S3.34,3.49,0,6l12,16l3.5-4.67V14.5
	C15.5,11.74,17.74,9.5,20.5,9.5z"/>
<path fill="#FFA726" d="M23,16v-1.5c0-1.38-1.12-2.5-2.5-2.5S18,13.12,18,14.5V16c-0.55,0-1,0.45-1,1v4c0,0.55,0.45,1,1,1h5
	c0.55,0,1-0.45,1-1v-4C24,16.45,23.55,16,23,16z M19,16v-1.5c0-0.83,0.67-1.5,1.5-1.5s1.5,0.67,1.5,1.5V16H19z"/>
<path fill="#FFCC80" d="M23,14.5V16h-1v-1.5c0-0.83-0.67-1.5-1.5-1.5S19,13.67,19,14.5V16h-1v-1.5c0-1.38,1.12-2.5,2.5-2.5
	S23,13.12,23,14.5z"/>
</svg>
