<?xml version="1.0" encoding="utf-8"?>
<!-- Generator: Adobe Illustrator 16.0.0, SVG Export Plug-In . SVG Version: 6.00 Build 0)  -->
<!DOCTYPE svg PUBLIC "-//W3C//DTD SVG 1.1//EN" "http://www.w3.org/Graphics/SVG/1.1/DTD/svg11.dtd">
<svg version="1.1" id="Capa_1" xmlns="http://www.w3.org/2000/svg" xmlns:xlink="http://www.w3.org/1999/xlink" x="0px" y="0px"
	 width="24px" height="24px" viewBox="0 0 24 24" enable-background="new 0 0 24 24" xml:space="preserve">
<g id="Capa_1_1_">
	<path fill="#DB4437" d="M24,0v24H0V0H24 M25-1H-1v26h26V-1z"/>
	<path fill="#6D4C41" d="M20,6h-4V4c0-1.11-0.89-2-2-2h-4C8.89,2,8,2.89,8,4v2H4C2.89,6,2.01,6.89,2.01,8v5.5L2,19
		c0,1.11,0.89,2,2,2h16c1.11,0,2-0.89,2-2V8C22,6.89,21.11,6,20,6z M14,6h-4V4h4V6z"/>
	<path fill="#795548" d="M10,4v2h2v15H4c-1.11,0-2-0.89-2-2l0.01-5.5V8c0-1.11,0.88-2,1.99-2h4V4c0-1.11,0.89-2,2-2h2v2H10z"/>
</g>
<g id="Capa_2">
</g>
</svg>
