<?xml version="1.0" encoding="UTF-8" standalone="no"?>
<!-- Created with Inkscape (http://www.inkscape.org/) -->

<svg
   xmlns:dc="http://purl.org/dc/elements/1.1/"
   xmlns:cc="http://creativecommons.org/ns#"
   xmlns:rdf="http://www.w3.org/1999/02/22-rdf-syntax-ns#"
   xmlns:svg="http://www.w3.org/2000/svg"
   xmlns="http://www.w3.org/2000/svg"
   xmlns:sodipodi="http://sodipodi.sourceforge.net/DTD/sodipodi-0.dtd"
   xmlns:inkscape="http://www.inkscape.org/namespaces/inkscape"
   width="500"
   height="500"
   viewBox="0 0 132.29166 132.29167"
   version="1.1"
   id="svg8"
   inkscape:version="0.92.0 r15299"
   sodipodi:docname="public.svg">
  <defs
     id="defs2" />
  <sodipodi:namedview
     id="base"
     pagecolor="#ffffff"
     bordercolor="#666666"
     borderopacity="1.0"
     inkscape:pageopacity="0.0"
     inkscape:pageshadow="2"
     inkscape:zoom="1.4"
     inkscape:cx="34.587214"
     inkscape:cy="300.12823"
     inkscape:document-units="mm"
     inkscape:current-layer="g5620"
     showgrid="true"
     units="px"
     inkscape:window-width="1600"
     inkscape:window-height="873"
     inkscape:window-x="0"
     inkscape:window-y="27"
     inkscape:window-maximized="1"
     showguides="false">
    <inkscape:grid
       type="xygrid"
       id="grid4552" />
  </sodipodi:namedview>
  <metadata
     id="metadata5">
    <rdf:RDF>
      <cc:Work
         rdf:about="">
        <dc:format>image/svg+xml</dc:format>
        <dc:type
           rdf:resource="http://purl.org/dc/dcmitype/StillImage" />
        <dc:title />
      </cc:Work>
    </rdf:RDF>
  </metadata>
  <g
     inkscape:label="Calque 1"
     inkscape:groupmode="layer"
     id="layer1"
     transform="translate(0,-164.70832)">
    <circle
       style="opacity:0.1;fill:#000000;fill-opacity:1;stroke:none;stroke-width:2;stroke-linecap:square;stroke-miterlimit:4;stroke-dasharray:none;stroke-opacity:1"
       id="path4562"
       cx="66.212654"
       cy="230.92097"
       r="55.5625" />
    <ellipse
       style="opacity:1;fill:#e9e0af;fill-opacity:1;stroke:none;stroke-width:2.20274806;stroke-linecap:round;stroke-miterlimit:4;stroke-dasharray:none;stroke-opacity:1"
       id="path4872"
       cx="53.434139"
       cy="218.59454"
       rx="47.250641"
       ry="45.022625" />
    <g
       id="g5620"
       transform="matrix(1.061621,0,0,1.061621,-12.999726,-26.006456)">
      <path
         inkscape:connector-curvature="0"
         id="path5613"
         d="m 94.489678,261.88939 6.042582,6.04257"
         style="fill:#333333;fill-rule:evenodd;stroke:#5c5c5c;stroke-width:3.42571712;stroke-linecap:butt;stroke-linejoin:miter;stroke-miterlimit:4;stroke-dasharray:none;stroke-opacity:1" />
      <path
         style="fill:#0088aa;fill-opacity:1;stroke:none;stroke-width:0.43721429"
         d="m 56.576169,230.16688 c 0,0 -8.52568,3.35953 -14.428072,5.32698 -5.902393,1.96748 -10.493142,7.86988 -10.493142,12.38019 l 0.06295,13.89298 c 10.373471,5.96101 20.022051,13.13622 34.151082,12.80666 7.869849,0 15.425939,-2.35382 15.425939,-10.22369 l 0.202445,-16.47595 c 0,-4.51031 -4.590748,-10.41271 -10.493126,-12.38019 -5.902396,-1.96745 -14.428079,-5.32698 -14.428079,-5.32698 z"
         id="path3816-5"
         inkscape:connector-curvature="0"
         sodipodi:nodetypes="czccccczc" />
      <circle
         r="43.808735"
         cy="230.16582"
         cx="62.766113"
         id="path5611"
         style="opacity:1;fill:none;fill-opacity:1;stroke:#999999;stroke-width:5.37812328;stroke-linecap:round;stroke-miterlimit:4;stroke-dasharray:none;stroke-opacity:1" />
      <rect
         transform="rotate(-135)"
         ry="3.0213003"
         y="-122.64222"
         x="-287.7352"
         height="9.0638762"
         width="27.191629"
         id="rect5615"
         style="opacity:1;fill:#c46530;fill-opacity:1;stroke:#8a5a3d;stroke-width:2.82586724;stroke-linecap:round;stroke-miterlimit:4;stroke-dasharray:none;stroke-opacity:1" />
      <path
         style="fill:#cccccc;fill-opacity:1;stroke:none;stroke-width:0.43721429"
         d="m 48.706312,230.16688 v 3.14092 c 0.734632,6.37449 3.916592,12.60362 7.869857,12.67921 5.089114,0.11842 10.260763,-11.7282 7.869859,-12.67921 v -3.14092 z"
         id="path3818-2"
         inkscape:connector-curvature="0"
         sodipodi:nodetypes="cccccc" />
      <path
         style="fill:#f9f9f9;fill-opacity:1;stroke:none;stroke-width:0.43721429"
         d="m 56.576169,184.9152 c 11.804784,0 19.674633,8.77489 19.674633,19.67464 v 7.86985 c 0,10.89975 -9.83732,19.67466 -19.674633,19.67466 -9.837322,0 -19.674642,-8.77491 -19.674642,-19.67466 v -7.86985 c 0,-10.89975 7.869857,-19.67464 19.674642,-19.67464 z"
         id="rect2987-8"
         inkscape:connector-curvature="0"
         sodipodi:nodetypes="zsszssz" />
      <ellipse
         ry="3.9349287"
         rx="1.9674643"
         cy="210.49225"
         cx="48.70631"
         style="fill:#374845;fill-opacity:1;stroke:none;stroke-width:0.32791072"
         id="path3764-4" />
      <ellipse
         ry="3.9349287"
         rx="1.9674643"
         cy="210.49225"
         cx="64.446014"
         style="fill:#374845;fill-opacity:1;stroke:none;stroke-width:0.32791072"
         id="path3766-6" />
      <path
         style="fill:#000000;fill-opacity:1;fill-rule:evenodd;stroke:none;stroke-width:0.28459236px;stroke-linecap:butt;stroke-linejoin:miter;stroke-opacity:1"
         d="m 57.331219,183.50413 c -28.459235,0 -24.190349,38.06631 -21.344426,42.33519 2.845924,4.26889 6.640482,5.21753 9.960732,7.11481 -4.831794,-9.44756 -4.368542,-24.50913 -3.271982,-32.37446 h 14.655676 14.655677 c 1.09656,7.86533 1.559812,22.9269 -3.271982,32.37446 3.32025,-1.89728 7.114808,-2.84592 9.960732,-7.11481 2.845923,-4.26888 7.114809,-42.33519 -21.344427,-42.33519 z"
         id="path4521"
         inkscape:connector-curvature="0"
         sodipodi:nodetypes="sscccccss" />
    </g>
    <g
       id="g4562"
       transform="translate(-33.498851,35.127133)" />
  </g>
</svg>
