<?xml version="1.0" encoding="UTF-8"?>
<svg version="1.1" viewBox="0 0 240 240" xmlns="http://www.w3.org/2000/svg" xmlns:cc="http://creativecommons.org/ns#" xmlns:dc="http://purl.org/dc/elements/1.1/" xmlns:rdf="http://www.w3.org/1999/02/22-rdf-syntax-ns#" xmlns:xlink="http://www.w3.org/1999/xlink">
 <metadata>
  <rdf:RDF>
   <cc:Work rdf:about="">
    <dc:format>image/svg+xml</dc:format>
    <dc:type rdf:resource="http://purl.org/dc/dcmitype/StillImage"/>
    <dc:title/>
   </cc:Work>
  </rdf:RDF>
 </metadata>
 <defs>
  <filter id="c" x="-.142" y="-.244" width="1.285" height="1.489">
   <feGaussianBlur stdDeviation="10.686"/>
  </filter>
  <linearGradient id="linearGradient1023" x1=".0018084" x2="241.24" y1="-1.7605" y2="240.81" gradientUnits="userSpaceOnUse">
   <stop stop-color="#345cca" offset="0"/>
   <stop stop-color="#5d47c6" offset="1"/>
  </linearGradient>
 </defs>
 <rect x=".0018084" y="-1.7605" width="241.24" height="242.57" ry=".0011874" fill="url(#linearGradient1023)" style="paint-order:stroke fill markers"/>
 <path transform="scale(.91667)" d="m112.92 82.039c-20.51 0-37.137 16.627-37.137 37.137 0 1.594 0.10688 3.1707 0.30171 4.7118-0.29375-9e-3 -0.58624-0.0232-0.88201-0.0232-17.434-7e-5 -31.567 14.133-31.567 31.567s14.133 31.567 31.567 31.567h122.44c14.357 0 25.996-11.639 25.996-25.996s-11.639-25.996-25.996-25.996c-0.0468 0-0.093-2.5e-4 -0.13928 0 0.0334-0.64832 0.0696-1.293 0.0696-1.9497 0-20.51-16.627-37.137-37.137-37.137-5.7242 0-11.15 1.3077-15.992 3.6209-6.5596-10.507-18.221-17.501-31.52-17.501z" fill="#332949" filter="url(#c)" opacity=".45896"/>
 <path d="m101.59 73.35c-18.232 0-33.011 14.78-33.011 33.011 0 1.4169 0.095 2.8184 0.26819 4.1883-0.26111-8e-3 -0.5211-0.0206-0.78401-0.0206-15.497-9e-5 -28.059 12.562-28.059 28.059s12.563 28.059 28.059 28.059h108.83c12.762 0 23.108-10.346 23.108-23.108s-10.346-23.108-23.108-23.108c-0.0416 0-0.0827-2.2e-4 -0.1238 0 0.0297-0.57629 0.0619-1.1493 0.0619-1.7331 0-18.231-14.78-33.011-33.011-33.011-5.0882 0-9.9111 1.1624-14.215 3.2186-5.8308-9.3396-16.197-15.556-28.018-15.556z" fill="#fff"/>
</svg>
