<?xml version="1.0" encoding="UTF-8" standalone="no"?>
<!-- Created with Inkscape (http://www.inkscape.org/) -->

<svg
   width="66.145828mm"
   height="66.145836mm"
   viewBox="0 0 66.145828 66.145836"
   version="1.1"
   id="svg5"
   xml:space="preserve"
   sodipodi:docname="avatar_mask_xa.svg"
   inkscape:version="1.2.2 (b0a8486541, 2022-12-01)"
   xmlns:inkscape="http://www.inkscape.org/namespaces/inkscape"
   xmlns:sodipodi="http://sodipodi.sourceforge.net/DTD/sodipodi-0.dtd"
   xmlns="http://www.w3.org/2000/svg"
   xmlns:svg="http://www.w3.org/2000/svg"><sodipodi:namedview
     id="namedview7"
     pagecolor="#505050"
     bordercolor="#eeeeee"
     borderopacity="1"
     inkscape:showpageshadow="0"
     inkscape:pageopacity="0"
     inkscape:pagecheckerboard="0"
     inkscape:deskcolor="#505050"
     inkscape:document-units="mm"
     showgrid="true"
     showguides="true"
     inkscape:zoom="5.04"
     inkscape:cx="150.99206"
     inkscape:cy="210.11905"
     inkscape:window-width="1920"
     inkscape:window-height="1029"
     inkscape:window-x="0"
     inkscape:window-y="0"
     inkscape:window-maximized="1"
     inkscape:current-layer="layer1"><sodipodi:guide
       position="39.557093,302.33726"
       orientation="0,-1"
       id="guide1636"
       inkscape:locked="false" /><sodipodi:guide
       position="-15.651867,306.08787"
       orientation="1,0"
       id="guide1638"
       inkscape:locked="false" /><inkscape:grid
       type="xygrid"
       id="grid3018"
       spacingx="0.26458333"
       spacingy="0.26458333"
       originx="-132.29167"
       originy="-26.458332" /></sodipodi:namedview><defs
     id="defs2" /><g
     inkscape:label="Calque 1"
     inkscape:groupmode="layer"
     id="layer1"
     transform="translate(-132.29167,-26.458333)"><path
       id="path3089"
       style="fill:#000000;fill-opacity:1;stroke-width:0.360892;stroke-linejoin:round;paint-order:stroke fill markers"
       d="m 165.36458,26.458333 c -18.26566,4e-6 -33.07291,14.807252 -33.07291,33.072917 0,18.265665 14.80725,33.072913 33.07291,33.072917 4.3358,-0.0058 8.62816,-0.864031 12.63282,-2.525944 -2.99205,-2.754838 -4.69469,-6.636102 -4.69532,-10.703223 -1e-5,-8.036899 6.51519,-14.552092 14.55209,-14.552083 3.43672,3.15e-4 6.76243,1.216953 9.38805,3.434415 0.78568,-2.842396 1.18767,-5.777107 1.19528,-8.726082 0,-18.265669 -14.80725,-33.072918 -33.07292,-33.072917 z"
       sodipodi:nodetypes="ssccccccs" /><path
       id="path3197"
       style="fill:#000000;fill-opacity:1;stroke-width:0.577428;stroke-linejoin:round;paint-order:stroke fill markers"
       d="M 187.85417 68.791666 C 182.00917 68.791668 177.27084 73.529993 177.27084 79.375 C 177.27084 85.220007 182.00917 89.958331 187.85417 89.958333 C 193.69917 89.958331 198.4375 85.220007 198.4375 79.375 C 198.4375 73.529993 193.69917 68.791668 187.85417 68.791666 z M 187.85417 74.744791 A 4.6302075 4.6302075 0 0 1 192.48438 79.375 A 4.6302075 4.6302075 0 0 1 187.85417 84.005208 A 4.6302075 4.6302075 0 0 1 183.22396 79.375 A 4.6302075 4.6302075 0 0 1 187.85417 74.744791 z " /></g></svg>
