<?xml version="1.0" encoding="UTF-8" standalone="no"?>
<!-- Created with Inkscape (http://www.inkscape.org/) -->

<svg
   width="300"
   height="300"
   viewBox="0 0 79.375 79.375"
   version="1.1"
   id="svg5"
   xml:space="preserve"
   sodipodi:docname="avatar_mask_away_stories.svg"
   inkscape:version="1.4 (e7c3feb100, 2024-10-09)"
   xmlns:inkscape="http://www.inkscape.org/namespaces/inkscape"
   xmlns:sodipodi="http://sodipodi.sourceforge.net/DTD/sodipodi-0.dtd"
   xmlns="http://www.w3.org/2000/svg"
   xmlns:svg="http://www.w3.org/2000/svg"><sodipodi:namedview
     id="namedview7"
     pagecolor="#505050"
     bordercolor="#eeeeee"
     borderopacity="1"
     inkscape:showpageshadow="0"
     inkscape:pageopacity="0"
     inkscape:pagecheckerboard="0"
     inkscape:deskcolor="#505050"
     inkscape:document-units="mm"
     showgrid="true"
     showguides="true"
     inkscape:zoom="1.81"
     inkscape:cx="-3.5911602"
     inkscape:cy="152.48619"
     inkscape:window-width="1920"
     inkscape:window-height="1131"
     inkscape:window-x="0"
     inkscape:window-y="0"
     inkscape:window-maximized="1"
     inkscape:current-layer="g1"><sodipodi:guide
       position="39.557094,302.33727"
       orientation="0,-1"
       id="guide1636"
       inkscape:locked="false" /><inkscape:grid
       id="grid1"
       units="px"
       originx="0"
       originy="0"
       spacingx="0.66145831"
       spacingy="0.66145831"
       empcolor="#0099e5"
       empopacity="0.30196078"
       color="#0099e5"
       opacity="0.14901961"
       empspacing="5"
       enabled="true"
       visible="true" /></sodipodi:namedview><defs
     id="defs2" /><g
     inkscape:label="Calque 1"
     inkscape:groupmode="layer"
     id="layer1"
     transform="translate(-132.29167,-26.458333)"><g
       id="g1"
       transform="translate(6.6145826,6.614583)"><path
         id="path3089"
         style="fill:#000000;fill-opacity:1;stroke-width:0.360892;stroke-linejoin:round;paint-order:stroke fill markers"
         d="m 165.36458,26.458333 c -18.26566,4e-6 -33.07291,14.807252 -33.07291,33.072917 0,18.265665 14.80725,33.072913 33.07291,33.072917 4.3358,-0.0058 8.62816,-0.864031 12.63282,-2.525944 -2.99205,-2.754838 -4.69469,-6.636102 -4.69532,-10.703223 -1e-5,-8.036899 6.51519,-14.552092 14.55209,-14.552083 3.43672,3.15e-4 6.76243,1.216953 9.38805,3.434415 0.78568,-2.842396 1.18767,-5.777107 1.19528,-8.726082 0,-18.265669 -14.80725,-33.072918 -33.07292,-33.072917 z"
         sodipodi:nodetypes="ssccccccs" /><path
         id="path3197"
         style="fill:#000000;fill-opacity:1;stroke-width:0.577428;stroke-linejoin:round;paint-order:stroke fill markers"
         d="m 187.85417,68.791664 a 10.583333,10.583335 0 0 0 -10.58333,10.583334 10.583333,10.583335 0 0 0 10.58333,10.583333 10.583333,10.583335 0 0 0 10.58333,-10.583333 10.583333,10.583335 0 0 0 -0.16381,-1.850533 6.2838531,6.2838531 0 0 1 -5.45858,3.173449 6.2838531,6.2838531 0 0 1 -6.28386,-6.283854 6.2838531,6.2838531 0 0 1 3.17345,-5.458581 10.583333,10.583335 0 0 0 -1.85053,-0.163815 z" /><path
         id="path5"
         style="fill:#000000;fill-opacity:1;stroke:none;stroke-width:3.96875;stroke-dasharray:none;stroke-opacity:1"
         d="m 165.36459,19.84375 c -21.9188,0 -39.6875,17.768699 -39.6875,39.6875 0,21.918801 17.7687,39.6875 39.6875,39.6875 7.05005,-0.02913 13.9651,-1.935726 20.03392,-5.523694 -1.99524,-0.345975 -3.8786,-1.125691 -5.5578,-2.24224 A 35.057293,35.057293 0 0 1 165.36459,94.588542 35.057293,35.057293 0 0 1 130.3073,59.53125 35.057293,35.057293 0 0 1 165.36459,24.473958 35.057293,35.057293 0 0 1 200.42188,59.53125 35.057293,35.057293 0 0 1 198.84006,69.842249 c 1.34146,1.545362 2.34864,3.356862 2.94349,5.323706 2.13782,-4.936204 3.24985,-10.255482 3.26854,-15.634705 0,-21.918801 -17.7687,-39.6875 -39.6875,-39.6875 z" /></g></g></svg>
