<?xml version="1.0" encoding="UTF-8" standalone="no"?>
<!-- Created with Inkscape (http://www.inkscape.org/) -->

<svg
   width="300"
   height="300"
   viewBox="0 0 79.375 79.375"
   version="1.1"
   id="svg5"
   xml:space="preserve"
   sodipodi:docname="avatar_mask_stories.svg"
   inkscape:version="1.4 (e7c3feb100, 2024-10-09)"
   xmlns:inkscape="http://www.inkscape.org/namespaces/inkscape"
   xmlns:sodipodi="http://sodipodi.sourceforge.net/DTD/sodipodi-0.dtd"
   xmlns="http://www.w3.org/2000/svg"
   xmlns:svg="http://www.w3.org/2000/svg"><sodipodi:namedview
     id="namedview7"
     pagecolor="#505050"
     bordercolor="#eeeeee"
     borderopacity="1"
     inkscape:showpageshadow="0"
     inkscape:pageopacity="0"
     inkscape:pagecheckerboard="0"
     inkscape:deskcolor="#505050"
     inkscape:document-units="mm"
     showgrid="true"
     showguides="true"
     inkscape:zoom="1.81"
     inkscape:cx="192.54144"
     inkscape:cy="98.342541"
     inkscape:window-width="1920"
     inkscape:window-height="1131"
     inkscape:window-x="0"
     inkscape:window-y="0"
     inkscape:window-maximized="1"
     inkscape:current-layer="g1"><sodipodi:guide
       position="39.557094,302.33727"
       orientation="0,-1"
       id="guide1636"
       inkscape:locked="false" /><inkscape:grid
       id="grid1"
       units="px"
       originx="0"
       originy="0"
       spacingx="0.66145831"
       spacingy="0.66145831"
       empcolor="#0099e5"
       empopacity="0.30196078"
       color="#0099e5"
       opacity="0.14901961"
       empspacing="5"
       enabled="true"
       visible="true" /><sodipodi:guide
       position="39.687499,74.744792"
       orientation="0,-1"
       id="guide4"
       inkscape:locked="false" /><sodipodi:guide
       position="4.6302082,39.967006"
       orientation="1,0"
       id="guide5"
       inkscape:locked="false" /><sodipodi:guide
       position="39.687499,4.6302106"
       orientation="0,-1"
       id="guide6"
       inkscape:locked="false" /><sodipodi:guide
       position="74.744789,39.370443"
       orientation="1,0"
       id="guide7"
       inkscape:locked="false" /></sodipodi:namedview><defs
     id="defs2" /><g
     inkscape:label="Calque 1"
     inkscape:groupmode="layer"
     id="layer1"
     transform="translate(-132.29167,-26.458333)"><g
       id="g1"
       transform="translate(6.6145826,6.614583)"><path
         id="path3089"
         style="fill:#000000;fill-opacity:1;stroke-width:0.360892;stroke-linejoin:round;paint-order:stroke fill markers"
         d="m 165.36458,26.458333 c -18.26566,4e-6 -33.07291,14.807252 -33.07291,33.072917 0,18.265665 14.80725,33.072913 33.07291,33.072917 4.3358,-0.0058 8.62816,-0.864031 12.63282,-2.525944 -2.99205,-2.754838 -4.69469,-6.636102 -4.69532,-10.703223 -1e-5,-8.036899 6.51519,-14.552092 14.55209,-14.552083 3.43672,3.15e-4 6.76243,1.216953 9.38805,3.434415 0.78568,-2.842396 1.18767,-5.777107 1.19528,-8.726082 0,-18.265669 -14.80725,-33.072918 -33.07292,-33.072917 z"
         sodipodi:nodetypes="ssccccccs" /><ellipse
         style="fill:#000000;fill-opacity:1;stroke-width:0.577428;stroke-linejoin:round;paint-order:stroke fill markers"
         id="path3197"
         cx="187.85417"
         cy="79.375"
         rx="10.583333"
         ry="10.583335" /><path
         id="path5"
         style="fill:#000000;fill-opacity:1;stroke:none;stroke-width:3.96875;stroke-dasharray:none;stroke-opacity:1"
         d="M 165.36459 19.84375 C 143.44579 19.84375 125.67709 37.612449 125.67709 59.53125 C 125.67709 81.450051 143.44579 99.21875 165.36459 99.21875 C 172.41464 99.18962 179.32969 97.283024 185.39851 93.695056 C 183.40327 93.349081 181.51991 92.569365 179.84071 91.452816 A 35.057293 35.057293 0 0 1 165.36459 94.588542 A 35.057293 35.057293 0 0 1 130.3073 59.53125 A 35.057293 35.057293 0 0 1 165.36459 24.473958 A 35.057293 35.057293 0 0 1 200.42188 59.53125 A 35.057293 35.057293 0 0 1 198.84006 69.842249 C 200.18152 71.387611 201.1887 73.199111 201.78355 75.165955 C 203.92137 70.229751 205.0334 64.910473 205.05209 59.53125 C 205.05209 37.612449 187.28339 19.84375 165.36459 19.84375 z " /></g></g></svg>
