<?xml version="1.0" encoding="UTF-8" standalone="no"?>
<!-- Created with Inkscape (http://www.inkscape.org/) -->

<svg
   width="300"
   height="300"
   viewBox="0 0 79.375 79.375"
   version="1.1"
   id="svg5"
   xml:space="preserve"
   sodipodi:docname="avatar_mask_notifs_stories.svg"
   inkscape:version="1.4 (e7c3feb100, 2024-10-09)"
   xmlns:inkscape="http://www.inkscape.org/namespaces/inkscape"
   xmlns:sodipodi="http://sodipodi.sourceforge.net/DTD/sodipodi-0.dtd"
   xmlns="http://www.w3.org/2000/svg"
   xmlns:svg="http://www.w3.org/2000/svg"><sodipodi:namedview
     id="namedview7"
     pagecolor="#505050"
     bordercolor="#eeeeee"
     borderopacity="1"
     inkscape:showpageshadow="0"
     inkscape:pageopacity="0"
     inkscape:pagecheckerboard="0"
     inkscape:deskcolor="#505050"
     inkscape:document-units="mm"
     showgrid="true"
     showguides="true"
     inkscape:zoom="5.88"
     inkscape:cx="192.60204"
     inkscape:cy="281.46259"
     inkscape:window-width="1920"
     inkscape:window-height="1131"
     inkscape:window-x="0"
     inkscape:window-y="0"
     inkscape:window-maximized="1"
     inkscape:current-layer="g1"><sodipodi:guide
       position="39.557094,302.33727"
       orientation="0,-1"
       id="guide1636"
       inkscape:locked="false" /><inkscape:grid
       id="grid1"
       units="px"
       originx="0"
       originy="0"
       spacingx="0.66145831"
       spacingy="0.66145831"
       empcolor="#0099e5"
       empopacity="0.30196078"
       color="#0099e5"
       opacity="0.14901961"
       empspacing="5"
       enabled="true"
       visible="true" /><sodipodi:guide
       position="39.687499,74.744792"
       orientation="0,-1"
       id="guide4"
       inkscape:locked="false" /><sodipodi:guide
       position="4.6302082,39.967006"
       orientation="1,0"
       id="guide5"
       inkscape:locked="false" /><sodipodi:guide
       position="39.687499,4.6302106"
       orientation="0,-1"
       id="guide6"
       inkscape:locked="false" /><sodipodi:guide
       position="74.744789,39.370443"
       orientation="1,0"
       id="guide7"
       inkscape:locked="false" /></sodipodi:namedview><defs
     id="defs2" /><g
     inkscape:label="Calque 1"
     inkscape:groupmode="layer"
     id="layer1"
     transform="translate(-132.29167,-26.458333)"><g
       id="g1"
       transform="translate(6.6145826,6.614583)"><path
         id="path3089"
         style="fill:#000000;fill-opacity:1;stroke-width:0.360892;stroke-linejoin:round;paint-order:stroke fill markers"
         d="m 165.36458,26.458333 c -18.26566,4e-6 -33.07291,14.807252 -33.07291,33.072917 0,18.265665 14.80725,33.072913 33.07291,33.072917 4.3358,-0.0058 8.62816,-0.864031 12.63282,-2.525944 -2.99205,-2.754838 -4.69469,-6.636102 -4.69532,-10.703223 -1e-5,-8.036899 6.51519,-14.552092 14.55209,-14.552083 3.43672,3.15e-4 6.76243,1.216953 9.38805,3.434415 0.78568,-2.842396 1.18767,-5.777107 1.19528,-8.726082 0,-18.265669 -14.80725,-33.072918 -33.07292,-33.072917 z"
         sodipodi:nodetypes="ssccccccs" /><path
         id="path5"
         style="fill:#000000;fill-opacity:1;stroke:none;stroke-width:3.96875;stroke-dasharray:none;stroke-opacity:1"
         d="m 165.36459,19.84375 c -21.9188,0 -39.6875,17.768699 -39.6875,39.6875 0,21.918801 17.7687,39.6875 39.6875,39.6875 7.05005,-0.02913 13.9651,-1.935726 20.03392,-5.523694 5.76295,-3.736725 -3.8786,-1.125691 -5.5578,-2.24224 -4.54697,2.064317 -9.48249,3.133417 -14.47612,3.135726 -19.36161,-2e-6 -35.05729,-15.695685 -35.05729,-35.057292 0,-19.361607 15.69568,-35.05729 35.05729,-35.057292 19.36161,2e-6 35.05729,15.695685 35.05729,35.057292 -0.0101,3.496653 -0.54328,6.972119 -1.58182,10.310999 1.34146,1.545362 2.34864,3.356862 2.94349,5.323706 2.13782,-4.936204 3.24985,-10.255482 3.26854,-15.634705 0,-21.918801 -17.7687,-39.6875 -39.6875,-39.6875 z"
         sodipodi:nodetypes="ssccccssccccs" /><rect
         style="fill:#000000;stroke-width:3.96875"
         id="rect1"
         width="38.161049"
         height="27.908445"
         x="163.58374"
         y="64.695709"
         ry="7.8821001" /></g></g></svg>
