<?xml version="1.0" encoding="UTF-8" standalone="no"?>
<svg
   height="128"
   viewBox="0 -960 2560 2560"
   width="128"
   version="1.1"
   id="svg4"
   sodipodi:docname="broken_image_filled.svg"
   inkscape:version="1.2.2 (b0a8486541, 2022-12-01)"
   xmlns:inkscape="http://www.inkscape.org/namespaces/inkscape"
   xmlns:sodipodi="http://sodipodi.sourceforge.net/DTD/sodipodi-0.dtd"
   xmlns="http://www.w3.org/2000/svg"
   xmlns:svg="http://www.w3.org/2000/svg">
  <defs
     id="defs8" />
  <sodipodi:namedview
     id="namedview6"
     pagecolor="#333333"
     bordercolor="#eeeeee"
     borderopacity="1"
     inkscape:showpageshadow="0"
     inkscape:pageopacity="0"
     inkscape:pagecheckerboard="0"
     inkscape:deskcolor="#cccccc"
     showgrid="false"
     inkscape:zoom="4.609418"
     inkscape:cx="3.1457334"
     inkscape:cy="86.778852"
     inkscape:window-width="1920"
     inkscape:window-height="1029"
     inkscape:window-x="0"
     inkscape:window-y="0"
     inkscape:window-maximized="1"
     inkscape:current-layer="svg4" />
  <rect
     style="fill:#333333;fill-opacity:1;stroke-width:201.575;stroke-linecap:round;stroke-linejoin:round;paint-order:stroke fill markers"
     id="rect363"
     width="2560"
     height="2560"
     x="0"
     y="-960" />
  <path
     d="m 1016.4798,636.22428 q -21.08164,0 -36.89286,-15.81123 -15.81121,-15.81124 -15.81121,-36.89285 V 56.479761 q 0,-21.08161 15.81121,-36.89281 15.81122,-15.8112305 36.89286,-15.8112305 h 527.0404 q 21.0816,0 36.8928,15.8112305 15.8113,15.81122 15.8113,36.89283 V 583.52022 q 0,21.08161 -15.8113,36.89285 -15.8112,15.81121 -36.8928,15.81121 z m 37.7712,-275.81785 151.0849,-151.08494 149.3281,149.32812 150.2066,-150.20653 38.6496,38.64964 V 56.479761 H 1016.4798 V 322.63518 Z m -37.7712,223.11377 h 527.0404 V 321.75677 L 1504.8706,283.10716 1354.664,433.31369 1205.3359,283.98556 1054.251,435.0705 1016.4797,397.29927 Z m 0,0 V 321.75677 374.46083 56.479761 Z"
     id="path2"
     style="opacity:0.4;fill:#ffffff;stroke-width:0.8784" />
</svg>
