<?xml version="1.0" encoding="UTF-8" standalone="no"?>
<!-- Created with Inkscape (http://www.inkscape.org/) -->

<svg
   xmlns:dc="http://purl.org/dc/elements/1.1/"
   xmlns:cc="http://creativecommons.org/ns#"
   xmlns:rdf="http://www.w3.org/1999/02/22-rdf-syntax-ns#"
   xmlns:svg="http://www.w3.org/2000/svg"
   xmlns="http://www.w3.org/2000/svg"
   xmlns:sodipodi="http://sodipodi.sourceforge.net/DTD/sodipodi-0.dtd"
   xmlns:inkscape="http://www.inkscape.org/namespaces/inkscape"
   version="1.1"
   width="720.02863"
   height="239.72249"
   id="svg3120"
   inkscape:version="0.48.3.1 r9886"
   sodipodi:docname="logo.svg"
   inkscape:export-filename="/var/www/movim-moxl/system/Widget/widgets/Login/img/logo.png"
   inkscape:export-xdpi="36.591881"
   inkscape:export-ydpi="36.591881">
  <sodipodi:namedview
     pagecolor="#ffffff"
     bordercolor="#666666"
     borderopacity="1"
     objecttolerance="10"
     gridtolerance="10"
     guidetolerance="10"
     inkscape:pageopacity="0"
     inkscape:pageshadow="2"
     inkscape:window-width="1920"
     inkscape:window-height="1014"
     id="namedview125"
     showgrid="true"
     inkscape:zoom="0.82"
     inkscape:cx="324.57775"
     inkscape:cy="93.049946"
     inkscape:window-x="0"
     inkscape:window-y="24"
     inkscape:window-maximized="1"
     inkscape:current-layer="svg3120"
     fit-margin-top="10"
     fit-margin-left="10"
     fit-margin-right="10"
     fit-margin-bottom="10">
    <inkscape:grid
       type="xygrid"
       id="grid3136"
       empspacing="5"
       visible="true"
       enabled="true"
       snapvisiblegridlinesonly="true"
       originx="10px"
       originy="-17.777509px" />
  </sodipodi:namedview>
  <defs
     id="defs3122">
    <filter
       x="-0.0078858454"
       y="-0.1095808"
       width="1.0157717"
       height="1.2191616"
       color-interpolation-filters="sRGB"
       id="filter4356">
      <feGaussianBlur
         id="feGaussianBlur4358"
         stdDeviation="2.2993777" />
    </filter>
    <filter
       color-interpolation-filters="sRGB"
       id="filter4652">
      <feGaussianBlur
         id="feGaussianBlur4654"
         stdDeviation="2.7592533" />
    </filter>
    <filter
       color-interpolation-filters="sRGB"
       id="filter4656">
      <feGaussianBlur
         id="feGaussianBlur4658"
         stdDeviation="2.7592533" />
    </filter>
    <filter
       color-interpolation-filters="sRGB"
       id="filter4660">
      <feGaussianBlur
         id="feGaussianBlur4662"
         stdDeviation="2.7592533" />
    </filter>
    <filter
       x="-0.23967367"
       y="-0.13329828"
       width="1.4793473"
       height="1.2665966"
       color-interpolation-filters="sRGB"
       id="filter4664">
      <feGaussianBlur
         id="feGaussianBlur4666"
         stdDeviation="2.7592533" />
    </filter>
    <filter
       x="-0.4383243"
       y="-0.18749084"
       width="1.8766485"
       height="1.3749816"
       color-interpolation-filters="sRGB"
       id="filter4668">
      <feGaussianBlur
         id="feGaussianBlur4670"
         stdDeviation="2.7592533" />
    </filter>
    <filter
       x="-0.19697919"
       y="-0.18120626"
       width="1.3939584"
       height="1.3624125"
       color-interpolation-filters="sRGB"
       id="filter4672">
      <feGaussianBlur
         id="feGaussianBlur4674"
         stdDeviation="2.7592533" />
    </filter>
    <filter
       x="-0.13078998"
       y="-0.18749084"
       width="1.26158"
       height="1.3749816"
       color-interpolation-filters="sRGB"
       id="filter4676">
      <feGaussianBlur
         id="feGaussianBlur4678"
         stdDeviation="2.7592533" />
    </filter>
    <filter
       x="-0.37426057"
       y="-0.13802518"
       width="1.7485212"
       height="1.2760504"
       color-interpolation-filters="sRGB"
       id="filter4680">
      <feGaussianBlur
         id="feGaussianBlur4682"
         stdDeviation="2.7592533" />
    </filter>
    <filter
       x="-0.19658127"
       y="-0.18120626"
       width="1.3931625"
       height="1.3624125"
       color-interpolation-filters="sRGB"
       id="filter4684">
      <feGaussianBlur
         id="feGaussianBlur4686"
         stdDeviation="2.7592533" />
    </filter>
    <filter
       x="-0.24145845"
       y="-0.18464468"
       width="1.482917"
       height="1.3692894"
       color-interpolation-filters="sRGB"
       id="filter4688">
      <feGaussianBlur
         id="feGaussianBlur4690"
         stdDeviation="2.7592533" />
    </filter>
    <filter
       x="-0.64871836"
       y="-0.13239136"
       width="2.2974367"
       height="1.2647827"
       color-interpolation-filters="sRGB"
       id="filter4692">
      <feGaussianBlur
         id="feGaussianBlur4694"
         stdDeviation="2.7592533" />
    </filter>
    <filter
       x="-0.22949941"
       y="-0.18120626"
       width="1.4589988"
       height="1.3624125"
       color-interpolation-filters="sRGB"
       id="filter4696">
      <feGaussianBlur
         id="feGaussianBlur4698"
         stdDeviation="2.7592533" />
    </filter>
    <filter
       x="-4.8653712"
       y="-0.13571514"
       width="10.730742"
       height="1.2714303"
       color-interpolation-filters="sRGB"
       id="filter4700">
      <feGaussianBlur
         id="feGaussianBlur4702"
         stdDeviation="2.7592533" />
    </filter>
    <filter
       x="-0.21528263"
       y="-0.18120626"
       width="1.4305654"
       height="1.3624125"
       color-interpolation-filters="sRGB"
       id="filter4704">
      <feGaussianBlur
         id="feGaussianBlur4706"
         stdDeviation="2.7592533" />
    </filter>
    <filter
       x="-0.19697925"
       y="-0.18120626"
       width="1.3939584"
       height="1.3624125"
       color-interpolation-filters="sRGB"
       id="filter4708">
      <feGaussianBlur
         id="feGaussianBlur4710"
         stdDeviation="2.7592533" />
    </filter>
    <filter
       x="-0.2476024"
       y="-0.18120626"
       width="1.4952048"
       height="1.3624125"
       color-interpolation-filters="sRGB"
       id="filter4712">
      <feGaussianBlur
         id="feGaussianBlur4714"
         stdDeviation="2.7592533" />
    </filter>
    <filter
       x="-0.2476024"
       y="-0.18120626"
       width="1.4952048"
       height="1.3624125"
       color-interpolation-filters="sRGB"
       id="filter4716">
      <feGaussianBlur
         id="feGaussianBlur4718"
         stdDeviation="2.7592533" />
    </filter>
    <filter
       x="-0.2476024"
       y="-0.18120626"
       width="1.4952048"
       height="1.3624125"
       color-interpolation-filters="sRGB"
       id="filter4720">
      <feGaussianBlur
         id="feGaussianBlur4722"
         stdDeviation="2.7592533" />
    </filter>
    <filter
       x="-0.22949941"
       y="-0.18120626"
       width="1.4589988"
       height="1.3624125"
       color-interpolation-filters="sRGB"
       id="filter4724">
      <feGaussianBlur
         id="feGaussianBlur4726"
         stdDeviation="2.7592533" />
    </filter>
    <filter
       x="-0.2396742"
       y="-0.13329828"
       width="1.4793484"
       height="1.2665966"
       color-interpolation-filters="sRGB"
       id="filter4728">
      <feGaussianBlur
         id="feGaussianBlur4730"
         stdDeviation="2.7592533" />
    </filter>
    <filter
       x="-0.21528256"
       y="-0.18120626"
       width="1.4305651"
       height="1.3624125"
       color-interpolation-filters="sRGB"
       id="filter4732">
      <feGaussianBlur
         id="feGaussianBlur4734"
         stdDeviation="2.7592533" />
    </filter>
    <filter
       x="-4.8653712"
       y="-0.13571514"
       width="10.730742"
       height="1.2714303"
       color-interpolation-filters="sRGB"
       id="filter4736">
      <feGaussianBlur
         id="feGaussianBlur4738"
         stdDeviation="2.7592533" />
    </filter>
    <filter
       x="-0.2396742"
       y="-0.13329828"
       width="1.4793484"
       height="1.2665966"
       color-interpolation-filters="sRGB"
       id="filter4740">
      <feGaussianBlur
         id="feGaussianBlur4742"
         stdDeviation="2.7592533" />
    </filter>
    <filter
       x="-0.44148052"
       y="-0.044413414"
       width="1.882961"
       height="1.0888268"
       color-interpolation-filters="sRGB"
       id="filter4744">
      <feGaussianBlur
         id="feGaussianBlur4746"
         stdDeviation="2.7592533" />
    </filter>
  </defs>
  <metadata
     id="metadata3125">
    <rdf:RDF>
      <cc:Work
         rdf:about="">
        <dc:format>image/svg+xml</dc:format>
        <dc:type
           rdf:resource="http://purl.org/dc/dcmitype/StillImage" />
        <dc:title></dc:title>
      </cc:Work>
    </rdf:RDF>
  </metadata>
  <g
     transform="translate(11.136359,11.13637)"
     id="layer2-8-2-1"
     style="fill:#ffffff">
    <g
       transform="translate(-346.29868,-584.40759)"
       id="g4007-8-3-3-4"
       style="fill:#ffffff">
      <path
         d="m 816.15625,622.375 0,110 10,0 0,-110 -10,0 z"
         id="path3788-7-4-8-4"
         style="font-size:182.75830078000001322px;font-style:normal;font-variant:normal;font-weight:bold;font-stretch:normal;text-indent:0;text-align:start;text-decoration:none;line-height:125%;letter-spacing:0px;word-spacing:0px;text-transform:none;direction:ltr;block-progression:tb;writing-mode:lr-tb;text-anchor:start;baseline-shift:baseline;color:#000000;fill:#ffffff;fill-opacity:1;stroke:none;stroke-width:10;marker:none;visibility:visible;display:inline;overflow:visible;enable-background:accumulate;font-family:Raleway;-inkscape-font-specification:Raleway Bold"
         inkscape:connector-curvature="0" />
      <path
         d="m 825,289.09448 a 5,5 0 1 1 -10,0 5,5 0 1 1 10,0 z"
         id="path3850-4-4-1-5"
         style="fill:#ffffff;fill-opacity:1;stroke:none"
         inkscape:connector-curvature="0"
         transform="matrix(1.5,0,0,1.5,-408.83774,157.1295)" />
    </g>
    <g
       transform="translate(-346.13636,-584.40759)"
       id="text4011-1-2-7-0"
       style="font-size:68.05427551000001074px;font-style:normal;font-variant:normal;font-weight:300;font-stretch:normal;line-height:125%;letter-spacing:0px;word-spacing:0px;fill:#ffffff;fill-opacity:1;stroke:none;font-family:Raleway;-inkscape-font-specification:Raleway Light">
      <path
         d="m 371.22638,802.31317 -15.03999,-20.21212 -9.59565,8.71095 0,11.50117 -1.36109,0 0,-49.67962 1.36109,0 0,36.34098 24.09121,-21.84542 1.83747,0 -15.31222,14.01918 15.65249,21.16488 -1.63331,0"
         id="path8174-0-4-5-0"
         style="fill:#ffffff"
         inkscape:connector-curvature="0" />
      <path
         d="m 377.8957,802.31317 0,-35.18406 1.36109,0 0,35.18406 -1.36109,0 m 0,-44.43944 0,-4.35547 1.36109,0 0,4.35547 -1.36109,0"
         id="path8176-2-1-4-4"
         style="fill:#ffffff"
         inkscape:connector-curvature="0" />
      <path
         d="m 387.10961,784.75517 c 0,-2.3592 0.38564,-4.62767 1.15693,-6.80543 0.81664,-2.22308 1.95088,-4.17397 3.40271,-5.85267 1.45182,-1.72401 3.17586,-3.08509 5.17213,-4.08325 2.04161,-1.04347 4.26471,-1.56522 6.66932,-1.56525 3.76564,3e-5 6.71466,0.74863 8.84705,2.24579 2.13234,1.45186 3.78832,3.33469 4.96796,5.6485 l -1.29303,0.47638 c -1.31574,-2.44992 -3.06247,-4.21933 -5.24018,-5.30823 -2.17776,-1.1342 -4.60503,-1.70132 -7.2818,-1.70136 -2.40461,4e-5 -4.53697,0.52179 -6.39711,1.56525 -1.86016,0.99816 -3.4254,2.31388 -4.69574,3.94715 -1.27036,1.58796 -2.2458,3.40274 -2.92634,5.44434 -0.68054,1.99628 -1.02081,3.99254 -1.02081,5.98878 0,2.22312 0.40832,4.35549 1.22498,6.3971 0.81664,1.99627 1.92819,3.78836 3.33466,5.37629 1.40644,1.54257 3.06243,2.79023 4.96796,3.74298 1.9055,0.90739 3.94713,1.36109 6.12488,1.36109 1.08885,0 2.29114,-0.15879 3.60688,-0.47638 1.36106,-0.36296 2.63141,-0.86202 3.81104,-1.4972 1.17958,-0.68053 2.22308,-1.4745 3.1305,-2.3819 0.95272,-0.90738 1.56521,-1.92819 1.83746,-3.06244 l 1.36109,0.40833 c -0.45373,1.36109 -1.17964,2.56338 -2.17774,3.60687 -0.99816,1.04351 -2.15508,1.92821 -3.47077,2.65412 -1.27037,0.68055 -2.63145,1.20229 -4.08325,1.56525 -1.40648,0.36296 -2.74488,0.54443 -4.01521,0.54443 -2.44997,0 -4.71844,-0.52175 -6.80542,-1.56524 -2.08701,-1.0435 -3.90179,-2.42727 -5.44435,-4.15132 -1.4972,-1.72403 -2.6768,-3.67492 -3.53882,-5.85266 -0.81665,-2.17773 -1.22498,-4.40083 -1.22498,-6.66932"
         id="path8178-6-8-8-5"
         style="fill:#ffffff"
         inkscape:connector-curvature="0" />
      <path
         d="m 452.04084,802.31317 -15.04,-20.21212 -9.59565,8.71095 0,11.50117 -1.36109,0 0,-49.67962 1.36109,0 0,36.34098 24.09121,-21.84542 1.83747,0 -15.31221,14.01918 15.65248,21.16488 -1.6333,0"
         id="path8180-4-3-9-8"
         style="fill:#ffffff"
         inkscape:connector-curvature="0" />
      <path
         d="m 508.96505,800.95209 0,1.36108 c -0.77132,-0.0454 -1.3838,-0.31758 -1.83747,-0.81665 -0.40835,-0.54443 -0.61252,-1.17961 -0.61249,-1.90552 l 0,-3.2666 c -1.8148,2.31384 -4.08328,4.0152 -6.80542,5.10407 -2.67683,1.04349 -5.39899,1.56524 -8.16652,1.56524 -1.58794,0 -3.08514,-0.27221 -4.49158,-0.81665 -1.40646,-0.5898 -2.63144,-1.36108 -3.67493,-2.31384 -0.99813,-0.99813 -1.7921,-2.15505 -2.3819,-3.47077 -0.58981,-1.31571 -0.88471,-2.72216 -0.8847,-4.21937 -1e-5,-1.9055 0.47637,-3.49343 1.42914,-4.76379 0.95275,-1.3157 2.13236,-2.3592 3.53882,-3.1305 1.45181,-0.77126 3.01706,-1.3157 4.69574,-1.6333 1.72403,-0.36294 3.35733,-0.54442 4.89991,-0.54444 2.90363,2e-5 5.37626,0.24955 7.41792,0.7486 2.0416,0.45371 3.5161,0.86204 4.42352,1.22498 l 0,-4.01521 c -3e-5,-1.81475 -0.27224,-3.47074 -0.81665,-4.96796 -0.54446,-1.49716 -1.33843,-2.79019 -2.3819,-3.87909 -0.99815,-1.08884 -2.20044,-1.92817 -3.60687,-2.51801 -1.40648,-0.58977 -2.99441,-0.88467 -4.7638,-0.88471 -1.72406,4e-5 -3.56152,0.38568 -5.5124,1.15693 -1.9509,0.72594 -3.92447,1.79212 -5.92072,3.19855 l -0.81665,-1.08887 c 1.86014,-1.27032 3.81103,-2.35918 5.85267,-3.26661 2.08698,-0.90735 4.21934,-1.36105 6.3971,-1.36108 2.13234,3e-5 3.99249,0.36299 5.58045,1.08887 1.63327,0.68057 2.99436,1.63333 4.08325,2.85828 1.08884,1.225 1.90549,2.67683 2.44996,4.35547 0.5444,1.63333 0.81662,3.40274 0.81665,5.30823 l 0,19.53158 c 0.0907,0.40833 0.20413,0.7486 0.34027,1.02081 0.13608,0.22685 0.38561,0.34028 0.7486,0.34028 m -3.47077,-5.58045 c 0.68051,-0.99813 1.02078,-1.9282 1.02081,-2.79023 l 0,-7.00959 c -1.95091,-0.77126 -3.92449,-1.3157 -5.92072,-1.6333 -1.95091,-0.31757 -3.92448,-0.47636 -5.92072,-0.47638 -1.45184,2e-5 -2.94903,0.15881 -4.49158,0.47638 -1.54258,0.27223 -2.97172,0.74861 -4.28742,1.42914 -1.27036,0.68056 -2.33654,1.58795 -3.19855,2.72217 -0.81666,1.08888 -1.22498,2.44996 -1.22498,4.08325 0,1.45184 0.27221,2.76755 0.81665,3.94715 0.5898,1.13425 1.3384,2.10969 2.24579,2.92634 0.95275,0.81665 2.01894,1.45182 3.19855,1.90552 1.22497,0.45369 2.49531,0.68054 3.81104,0.68054 1.27033,0 2.58605,-0.11342 3.94715,-0.34027 1.36107,-0.27222 2.6541,-0.65786 3.8791,-1.15693 1.27032,-0.49906 2.42724,-1.13423 3.47076,-1.90552 1.08884,-0.81664 1.97355,-1.7694 2.65412,-2.85827"
         id="path8182-9-5-6-2"
         style="fill:#ffffff"
         inkscape:connector-curvature="0" />
      <path
         d="m 516.98694,797.41326 1.02082,-0.8847 c 3.67492,3.40271 7.80354,5.10407 12.38587,5.10407 1.36107,0 2.74484,-0.13611 4.15132,-0.40833 1.40643,-0.31758 2.67677,-0.79396 3.81104,-1.42914 1.17958,-0.68054 2.13234,-1.54256 2.85827,-2.58606 0.77126,-1.08886 1.1569,-2.38189 1.15693,-3.87909 -3e-5,-1.63329 -0.40836,-2.97169 -1.22498,-4.01521 -0.77131,-1.04348 -1.76944,-1.83745 -2.99439,-2.38189 -1.225,-0.58979 -2.5634,-0.97543 -4.0152,-1.15693 -1.40647,-0.22683 -2.74487,-0.34025 -4.0152,-0.34027 -1.67869,2e-5 -3.28931,-0.15878 -4.83186,-0.47638 -1.54257,-0.36294 -2.90365,-0.90737 -4.08325,-1.6333 -1.13425,-0.77126 -2.04164,-1.76939 -2.72217,-2.99439 -0.68055,-1.22495 -1.02082,-2.72215 -1.02082,-4.49158 0,-1.72402 0.38564,-3.17584 1.15693,-4.35548 0.77127,-1.17957 1.74671,-2.13233 2.92633,-2.85827 1.22497,-0.77125 2.56337,-1.31569 4.0152,-1.63331 1.49718,-0.36292 2.97169,-0.5444 4.42353,-0.54443 2.99437,3e-5 5.3309,0.45373 7.00959,1.36108 1.67865,0.86206 3.0851,2.10972 4.21936,3.74299 l -1.22497,0.54443 c -0.45372,-0.86199 -1.06621,-1.56521 -1.83747,-2.10968 -0.7713,-0.58977 -1.61064,-1.04347 -2.51801,-1.36108 -0.90741,-0.31756 -1.86017,-0.52172 -2.85828,-0.61249 -0.99814,-0.13608 -1.92822,-0.20413 -2.79022,-0.20417 -1.31573,4e-5 -2.65413,0.15883 -4.0152,0.47638 -1.31573,0.27225 -2.51802,0.72595 -3.60688,1.36109 -1.04351,0.6352 -1.90553,1.47454 -2.58606,2.51801 -0.63518,0.99816 -0.95277,2.22313 -0.95276,3.67493 -10e-6,1.63333 0.34026,2.99441 1.02081,4.08325 0.68054,1.04352 1.56524,1.88286 2.65412,2.51801 1.08886,0.58983 2.29115,1.02084 3.60688,1.29303 1.36107,0.22687 2.69947,0.34029 4.0152,0.34028 1.58791,1e-5 3.19853,0.15881 4.83185,0.47638 1.63328,0.27223 3.0851,0.77129 4.35548,1.49719 1.31568,0.68056 2.38187,1.63332 3.19855,2.85828 0.81662,1.17962 1.22494,2.65413 1.22497,4.42353 -3e-5,1.76942 -0.43104,3.28929 -1.29303,4.55963 -0.81668,1.22498 -1.88286,2.22311 -3.19855,2.99439 -1.31574,0.72591 -2.76756,1.24766 -4.35547,1.56525 -1.54259,0.36296 -3.03978,0.54443 -4.49159,0.54443 -2.94903,0 -5.53509,-0.54443 -7.75818,-1.6333 -2.22312,-1.08886 -4.10595,-2.40458 -5.64851,-3.94715"
         id="path8184-5-3-0-1"
         style="fill:#ffffff"
         inkscape:connector-curvature="0" />
      <path
         d="m 550.74825,797.41326 1.02081,-0.8847 c 3.67493,3.40271 7.80355,5.10407 12.38588,5.10407 1.36107,0 2.74484,-0.13611 4.15131,-0.40833 1.40643,-0.31758 2.67678,-0.79396 3.81104,-1.42914 1.17958,-0.68054 2.13234,-1.54256 2.85828,-2.58606 0.77125,-1.08886 1.1569,-2.38189 1.15692,-3.87909 -2e-5,-1.63329 -0.40835,-2.97169 -1.22497,-4.01521 -0.77131,-1.04348 -1.76944,-1.83745 -2.99439,-2.38189 -1.225,-0.58979 -2.5634,-0.97543 -4.0152,-1.15693 -1.40648,-0.22683 -2.74488,-0.34025 -4.01521,-0.34027 -1.67868,2e-5 -3.2893,-0.15878 -4.83185,-0.47638 -1.54257,-0.36294 -2.90366,-0.90737 -4.08326,-1.6333 -1.13424,-0.77126 -2.04163,-1.76939 -2.72217,-2.99439 -0.68054,-1.22495 -1.02081,-2.72215 -1.02081,-4.49158 0,-1.72402 0.38564,-3.17584 1.15692,-4.35548 0.77128,-1.17957 1.74672,-2.13233 2.92634,-2.85827 1.22496,-0.77125 2.56336,-1.31569 4.0152,-1.63331 1.49718,-0.36292 2.97169,-0.5444 4.42353,-0.54443 2.99436,3e-5 5.33089,0.45373 7.00959,1.36108 1.67864,0.86206 3.0851,2.10972 4.21936,3.74299 l -1.22498,0.54443 c -0.45372,-0.86199 -1.0662,-1.56521 -1.83746,-2.10968 -0.77131,-0.58977 -1.61064,-1.04347 -2.51801,-1.36108 -0.90741,-0.31756 -1.86017,-0.52172 -2.85828,-0.61249 -0.99815,-0.13608 -1.92822,-0.20413 -2.79022,-0.20417 -1.31574,4e-5 -2.65413,0.15883 -4.01521,0.47638 -1.31572,0.27225 -2.51801,0.72595 -3.60687,1.36109 -1.04351,0.6352 -1.90553,1.47454 -2.58607,2.51801 -0.63517,0.99816 -0.95276,2.22313 -0.95276,3.67493 0,1.63333 0.34027,2.99441 1.02082,4.08325 0.68053,1.04352 1.56524,1.88286 2.65412,2.51801 1.08885,0.58983 2.29114,1.02084 3.60687,1.29303 1.36107,0.22687 2.69947,0.34029 4.0152,0.34028 1.58792,1e-5 3.19854,0.15881 4.83186,0.47638 1.63328,0.27223 3.0851,0.77129 4.35547,1.49719 1.31569,0.68056 2.38187,1.63332 3.19855,2.85828 0.81662,1.17962 1.22495,2.65413 1.22498,4.42353 -3e-5,1.76942 -0.43104,3.28929 -1.29303,4.55963 -0.81668,1.22498 -1.88286,2.22311 -3.19855,2.99439 -1.31574,0.72591 -2.76757,1.24766 -4.35548,1.56525 -1.54258,0.36296 -3.03977,0.54443 -4.49158,0.54443 -2.94903,0 -5.53509,-0.54443 -7.75819,-1.6333 -2.22311,-1.08886 -4.10594,-2.40458 -5.6485,-3.94715"
         id="path8186-8-1-1-5"
         style="fill:#ffffff"
         inkscape:connector-curvature="0" />
      <path
         d="m 606.57401,797.41326 1.02081,-0.8847 c 3.67493,3.40271 7.80355,5.10407 12.38588,5.10407 1.36107,0 2.74484,-0.13611 4.15131,-0.40833 1.40643,-0.31758 2.67678,-0.79396 3.81104,-1.42914 1.17958,-0.68054 2.13234,-1.54256 2.85828,-2.58606 0.77125,-1.08886 1.15689,-2.38189 1.15692,-3.87909 -3e-5,-1.63329 -0.40835,-2.97169 -1.22497,-4.01521 -0.77131,-1.04348 -1.76944,-1.83745 -2.99439,-2.38189 -1.225,-0.58979 -2.5634,-0.97543 -4.0152,-1.15693 -1.40648,-0.22683 -2.74488,-0.34025 -4.01521,-0.34027 -1.67868,2e-5 -3.2893,-0.15878 -4.83185,-0.47638 -1.54257,-0.36294 -2.90366,-0.90737 -4.08326,-1.6333 -1.13424,-0.77126 -2.04163,-1.76939 -2.72217,-2.99439 -0.68054,-1.22495 -1.02081,-2.72215 -1.02081,-4.49158 0,-1.72402 0.38564,-3.17584 1.15692,-4.35548 0.77128,-1.17957 1.74672,-2.13233 2.92634,-2.85827 1.22496,-0.77125 2.56336,-1.31569 4.0152,-1.63331 1.49718,-0.36292 2.97169,-0.5444 4.42353,-0.54443 2.99436,3e-5 5.33089,0.45373 7.00959,1.36108 1.67864,0.86206 3.0851,2.10972 4.21936,3.74299 l -1.22498,0.54443 c -0.45372,-0.86199 -1.0662,-1.56521 -1.83746,-2.10968 -0.77131,-0.58977 -1.61064,-1.04347 -2.51801,-1.36108 -0.90741,-0.31756 -1.86017,-0.52172 -2.85828,-0.61249 -0.99815,-0.13608 -1.92822,-0.20413 -2.79022,-0.20417 -1.31574,4e-5 -2.65413,0.15883 -4.01521,0.47638 -1.31572,0.27225 -2.51801,0.72595 -3.60687,1.36109 -1.04351,0.6352 -1.90553,1.47454 -2.58607,2.51801 -0.63517,0.99816 -0.95276,2.22313 -0.95276,3.67493 0,1.63333 0.34027,2.99441 1.02082,4.08325 0.68053,1.04352 1.56524,1.88286 2.65412,2.51801 1.08885,0.58983 2.29114,1.02084 3.60687,1.29303 1.36107,0.22687 2.69947,0.34029 4.0152,0.34028 1.58792,1e-5 3.19854,0.15881 4.83186,0.47638 1.63328,0.27223 3.0851,0.77129 4.35547,1.49719 1.31569,0.68056 2.38187,1.63332 3.19855,2.85828 0.81662,1.17962 1.22495,2.65413 1.22498,4.42353 -3e-5,1.76942 -0.43104,3.28929 -1.29303,4.55963 -0.81668,1.22498 -1.88286,2.22311 -3.19855,2.99439 -1.31574,0.72591 -2.76757,1.24766 -4.35548,1.56525 -1.54258,0.36296 -3.03977,0.54443 -4.49158,0.54443 -2.94903,0 -5.53509,-0.54443 -7.75819,-1.6333 -2.22311,-1.08886 -4.10594,-2.40458 -5.6485,-3.94715"
         id="path8188-8-4-7-2"
         style="fill:#ffffff"
         inkscape:connector-curvature="0" />
      <path
         d="m 657.14471,802.99371 c -2.49534,-0.0454 -4.7865,-0.5898 -6.87348,-1.6333 -2.04164,-1.0435 -3.81105,-2.40458 -5.30824,-4.08326 -1.45183,-1.72403 -2.58607,-3.65223 -3.40271,-5.78461 -0.81666,-2.17772 -1.22498,-4.42351 -1.22498,-6.73737 0,-2.44994 0.43101,-4.78646 1.29303,-7.00959 0.90739,-2.22308 2.10968,-4.17397 3.60688,-5.85267 1.54255,-1.67864 3.33465,-2.99435 5.37629,-3.94715 2.04161,-0.99809 4.21934,-1.49716 6.53321,-1.49719 2.54067,3e-5 4.83183,0.54447 6.87348,1.6333 2.08697,1.0889 3.85638,2.49536 5.30823,4.21937 1.49716,1.72407 2.6314,3.69764 3.40272,5.92072 0.81661,2.17776 1.22494,4.35549 1.22497,6.53321 -3e-5,2.4046 -0.43104,4.69576 -1.29303,6.87348 -0.86205,2.17775 -2.06435,4.10595 -3.60687,5.78461 -1.49723,1.67868 -3.26664,3.01708 -5.30824,4.01521 -2.04165,0.99813 -4.24207,1.51987 -6.60126,1.56524 m -15.44832,-18.23854 c 0.0907,2.17775 0.52174,4.28743 1.29303,6.32905 0.77127,2.04163 1.83745,3.85641 3.19855,5.44434 1.36107,1.54257 2.949,2.79023 4.7638,3.74298 1.86013,0.90739 3.92444,1.36109 6.19294,1.36109 2.31382,0 4.4235,-0.49906 6.32904,-1.4972 1.9055,-0.99812 3.5388,-2.29115 4.89991,-3.87909 1.36105,-1.63329 2.40455,-3.44807 3.1305,-5.44434 0.72588,-2.04162 1.08883,-4.06056 1.08887,-6.05683 -4e-5,-2.17772 -0.40836,-4.2874 -1.22498,-6.32905 -0.77132,-2.0416 -1.86018,-3.8337 -3.2666,-5.37629 -1.36112,-1.5879 -2.99442,-2.85824 -4.89991,-3.81104 -1.86018,-0.95272 -3.87912,-1.4291 -6.05683,-1.42914 -2.31387,4e-5 -4.42355,0.52179 -6.32905,1.56525 -1.90553,0.99816 -3.53883,2.31388 -4.89991,3.94715 -1.36109,1.58796 -2.40459,3.40274 -3.1305,5.44434 -0.72591,1.99628 -1.08887,3.99254 -1.08886,5.98878"
         id="path8190-2-0-2-0"
         style="fill:#ffffff"
         inkscape:connector-curvature="0" />
      <path
         d="m 680.7266,784.75517 c -10e-6,-2.3592 0.38563,-4.62767 1.15692,-6.80543 0.81665,-2.22308 1.95088,-4.17397 3.40271,-5.85267 1.45182,-1.72401 3.17586,-3.08509 5.17213,-4.08325 2.04161,-1.04347 4.26472,-1.56522 6.66932,-1.56525 3.76564,3e-5 6.71466,0.74863 8.84705,2.24579 2.13234,1.45186 3.78833,3.33469 4.96796,5.6485 l -1.29303,0.47638 c -1.31574,-2.44992 -3.06247,-4.21933 -5.24018,-5.30823 -2.17776,-1.1342 -4.60502,-1.70132 -7.2818,-1.70136 -2.4046,4e-5 -4.53697,0.52179 -6.39711,1.56525 -1.86016,0.99816 -3.4254,2.31388 -4.69574,3.94715 -1.27035,1.58796 -2.2458,3.40274 -2.92633,5.44434 -0.68055,1.99628 -1.02082,3.99254 -1.02082,5.98878 0,2.22312 0.40832,4.35549 1.22498,6.3971 0.81664,1.99627 1.9282,3.78836 3.33466,5.37629 1.40644,1.54257 3.06243,2.79023 4.96796,3.74298 1.9055,0.90739 3.94713,1.36109 6.12489,1.36109 1.08884,0 2.29113,-0.15879 3.60687,-0.47638 1.36106,-0.36296 2.63141,-0.86202 3.81104,-1.4972 1.17958,-0.68053 2.22308,-1.4745 3.1305,-2.3819 0.95273,-0.90738 1.56521,-1.92819 1.83746,-3.06244 l 1.36109,0.40833 c -0.45373,1.36109 -1.17964,2.56338 -2.17774,3.60687 -0.99816,1.04351 -2.15508,1.92821 -3.47077,2.65412 -1.27037,0.68055 -2.63145,1.20229 -4.08325,1.56525 -1.40648,0.36296 -2.74488,0.54443 -4.0152,0.54443 -2.44998,0 -4.71845,-0.52175 -6.80543,-1.56524 -2.08701,-1.0435 -3.90179,-2.42727 -5.44434,-4.15132 -1.4972,-1.72403 -2.67681,-3.67492 -3.53883,-5.85266 -0.81665,-2.17773 -1.22498,-4.40083 -1.22497,-6.66932"
         id="path8192-6-0-6-5"
         style="fill:#ffffff"
         inkscape:connector-curvature="0" />
      <path
         d="m 718.96457,802.31317 0,-35.18406 1.36109,0 0,35.18406 -1.36109,0 m 0,-44.43944 0,-4.35547 1.36109,0 0,4.35547 -1.36109,0"
         id="path8194-1-1-5-9"
         style="fill:#ffffff"
         inkscape:connector-curvature="0" />
      <path
         d="m 756.72513,800.95209 0,1.36108 c -0.77131,-0.0454 -1.3838,-0.31758 -1.83746,-0.81665 -0.40836,-0.54443 -0.61252,-1.17961 -0.61249,-1.90552 l 0,-3.2666 c -1.81481,2.31384 -4.08328,4.0152 -6.80543,5.10407 -2.67682,1.04349 -5.39899,1.56524 -8.16651,1.56524 -1.58795,0 -3.08514,-0.27221 -4.49158,-0.81665 -1.40647,-0.5898 -2.63144,-1.36108 -3.67493,-2.31384 -0.99814,-0.99813 -1.7921,-2.15505 -2.3819,-3.47077 -0.58981,-1.31571 -0.88471,-2.72216 -0.88471,-4.21937 0,-1.9055 0.47638,-3.49343 1.42914,-4.76379 0.95275,-1.3157 2.13236,-2.3592 3.53882,-3.1305 1.45182,-0.77126 3.01706,-1.3157 4.69575,-1.6333 1.72403,-0.36294 3.35733,-0.54442 4.89991,-0.54444 2.90362,2e-5 5.37626,0.24955 7.41791,0.7486 2.0416,0.45371 3.51611,0.86204 4.42353,1.22498 l 0,-4.01521 c -3e-5,-1.81475 -0.27225,-3.47074 -0.81665,-4.96796 -0.54446,-1.49716 -1.33843,-2.79019 -2.3819,-3.87909 -0.99816,-1.08884 -2.20045,-1.92817 -3.60688,-2.51801 -1.40647,-0.58977 -2.99441,-0.88467 -4.7638,-0.88471 -1.72406,4e-5 -3.56152,0.38568 -5.51239,1.15693 -1.9509,0.72594 -3.92448,1.79212 -5.92072,3.19855 l -0.81666,-1.08887 c 1.86015,-1.27032 3.81103,-2.35918 5.85267,-3.26661 2.08699,-0.90735 4.21935,-1.36105 6.3971,-1.36108 2.13235,3e-5 3.9925,0.36299 5.58045,1.08887 1.63328,0.68057 2.99437,1.63333 4.08326,2.85828 1.08884,1.225 1.90549,2.67683 2.44995,4.35547 0.54441,1.63333 0.81662,3.40274 0.81666,5.30823 l 0,19.53158 c 0.0907,0.40833 0.20413,0.7486 0.34027,1.02081 0.13607,0.22685 0.38561,0.34028 0.74859,0.34028 m -3.47076,-5.58045 c 0.68051,-0.99813 1.02078,-1.9282 1.02081,-2.79023 l 0,-7.00959 c -1.95092,-0.77126 -3.92449,-1.3157 -5.92072,-1.6333 -1.95091,-0.31757 -3.92449,-0.47636 -5.92072,-0.47638 -1.45185,2e-5 -2.94904,0.15881 -4.49159,0.47638 -1.54257,0.27223 -2.97171,0.74861 -4.28741,1.42914 -1.27036,0.68056 -2.33654,1.58795 -3.19856,2.72217 -0.81665,1.08888 -1.22498,2.44996 -1.22497,4.08325 -1e-5,1.45184 0.27221,2.76755 0.81665,3.94715 0.5898,1.13425 1.33839,2.10969 2.24579,2.92634 0.95275,0.81665 2.01893,1.45182 3.19855,1.90552 1.22496,0.45369 2.49531,0.68054 3.81104,0.68054 1.27033,0 2.58604,-0.11342 3.94715,-0.34027 1.36106,-0.27222 2.65409,-0.65786 3.87909,-1.15693 1.27032,-0.49906 2.42725,-1.13423 3.47077,-1.90552 1.08884,-0.81664 1.97354,-1.7694 2.65412,-2.85827"
         id="path8196-3-8-4-4"
         style="fill:#ffffff"
         inkscape:connector-curvature="0" />
      <path
         d="m 767.12894,797.07299 0,-44.43944 1.36109,0 0,44.43944 c -1e-5,0.99814 0.34026,1.97358 1.02081,2.92634 0.72591,0.90739 1.74672,1.36108 3.06245,1.36108 0.45368,0 0.90737,-0.0227 1.36108,-0.068 0.49905,-0.0907 0.95275,-0.15879 1.36109,-0.20417 0.40831,-0.0907 0.74858,-0.15879 1.02081,-0.20416 0.2722,-0.0907 0.40831,-0.13611 0.40833,-0.13611 l 0.61248,1.29303 c -10e-6,0 -0.1588,0.0454 -0.47637,0.13611 -0.27224,0.0454 -0.63519,0.0907 -1.08887,0.13611 -0.45371,0.0907 -0.97546,0.15879 -1.56525,0.20416 -0.54445,0.0907 -1.11157,0.13611 -1.70136,0.13611 -1.72405,0 -3.06245,-0.54443 -4.0152,-1.6333 -0.9074,-1.13424 -1.36109,-2.44995 -1.36109,-3.94715"
         id="path8198-0-2-2-7"
         style="fill:#ffffff"
         inkscape:connector-curvature="0" />
      <path
         d="m 832.35578,782.64549 0,19.66768 -1.36109,0 0,-19.66768 c -3e-5,-1.86013 -0.0908,-3.67491 -0.27221,-5.44435 -0.18151,-1.76938 -0.58984,-3.35731 -1.22498,-4.7638 -0.6352,-1.40642 -1.56528,-2.51797 -2.79022,-3.33466 -1.17964,-0.86198 -2.81294,-1.29299 -4.89991,-1.29303 -1.8148,4e-5 -3.56153,0.34031 -5.24018,1.02082 -1.67869,0.68057 -3.19857,1.58796 -4.55964,2.72217 -1.36109,1.13427 -2.5407,2.44998 -3.53882,3.94715 -0.99814,1.45185 -1.72405,2.94904 -2.17774,4.49158 l 0,22.3218 -1.36108,0 0,-35.32017 1.36108,0 0,9.11928 c 0.72591,-1.40643 1.65598,-2.69946 2.79023,-3.8791 1.13423,-1.22494 2.38189,-2.24576 3.74298,-3.06244 1.36107,-0.86199 2.8129,-1.51984 4.35548,-1.97357 1.54254,-0.49903 3.0851,-0.74857 4.62769,-0.7486 2.4953,3e-5 4.44618,0.52178 5.85267,1.56525 1.40642,0.99816 2.44992,2.29119 3.13049,3.87909 0.72588,1.54259 1.15689,3.28932 1.29303,5.24018 0.18145,1.90554 0.27219,3.74301 0.27222,5.5124"
         id="path8200-9-5-1-6"
         style="fill:#ffffff"
         inkscape:connector-curvature="0" />
      <path
         d="m 840.49463,784.75517 c 0.0454,-2.3592 0.45369,-4.62767 1.22498,-6.80543 0.81665,-2.22308 1.9282,-4.17397 3.33466,-5.85267 1.45181,-1.72401 3.17585,-3.08509 5.17212,-4.08325 1.99625,-1.04347 4.21935,-1.56522 6.66932,-1.56525 2.58604,3e-5 4.92257,0.4991 7.00959,1.49719 2.13234,0.99816 3.94712,2.33656 5.44435,4.0152 1.49716,1.67871 2.65408,3.62959 3.47076,5.85267 0.86199,2.17776 1.31568,4.46892 1.36109,6.87348 l 0,0.7486 -32.32578,0 c 0.1361,2.13238 0.61248,4.17401 1.42914,6.12489 0.86201,1.95089 1.97356,3.67493 3.33466,5.17212 1.40644,1.4972 3.01706,2.69949 4.83185,3.60688 1.86014,0.86202 3.87908,1.29303 6.05683,1.29303 1.27033,0 2.54067,-0.15879 3.81104,-0.47638 1.31569,-0.36296 2.54067,-0.86202 3.67493,-1.4972 1.13421,-0.63517 2.15502,-1.40645 3.06244,-2.31384 0.90736,-0.90739 1.63327,-1.95088 2.17774,-3.1305 l 1.29303,0.34027 c -0.54447,1.3611 -1.33843,2.58607 -2.3819,3.67493 -0.99816,1.04351 -2.15508,1.92821 -3.47077,2.65412 -1.27037,0.68055 -2.63145,1.20229 -4.08325,1.56525 -1.40648,0.36296 -2.76756,0.54443 -4.08326,0.54443 -2.44997,0 -4.71844,-0.52175 -6.80543,-1.56524 -2.08701,-1.0435 -3.90178,-2.42727 -5.44434,-4.15132 -1.4972,-1.72403 -2.67681,-3.67492 -3.53882,-5.85266 -0.81666,-2.17773 -1.22498,-4.40083 -1.22498,-6.66932 m 32.25773,-0.68054 c -0.13614,-2.31383 -0.63521,-4.44619 -1.4972,-6.39711 -0.81668,-1.99623 -1.90555,-3.72027 -3.2666,-5.17212 -1.36112,-1.45179 -2.99442,-2.58603 -4.89991,-3.40272 -1.86017,-0.86198 -3.92448,-1.29299 -6.19294,-1.29303 -2.31386,4e-5 -4.40086,0.4991 -6.26099,1.4972 -1.81479,0.95279 -3.35735,2.20045 -4.62769,3.74298 -1.27036,1.54259 -2.26848,3.28932 -2.99439,5.24018 -0.68055,1.90554 -1.06619,3.83375 -1.15692,5.78462 l 30.89664,0"
         id="path8202-8-8-7-3"
         style="fill:#ffffff"
         inkscape:connector-curvature="0" />
      <path
         d="m 895.96416,800.67987 c -2e-5,0 -0.18149,0.11342 -0.54443,0.34027 -0.31761,0.22685 -0.7713,0.4537 -1.36109,0.68054 -0.54445,0.22685 -1.2023,0.43101 -1.97357,0.61249 -0.7713,0.22685 -1.63332,0.34027 -2.58606,0.34027 -1.63332,0 -3.06245,-0.49906 -4.28742,-1.49719 -1.22499,-0.99813 -1.83747,-2.31384 -1.83747,-3.94715 l 0,-28.85501 -5.10407,0 0,-1.36109 5.10407,0 0,-12.31782 1.36109,0 0,12.31782 8.50678,0 0,1.36109 -8.50678,0 0,28.85501 c 0.0907,1.31572 0.61248,2.33653 1.56525,3.06244 0.95275,0.68055 2.01893,1.02082 3.19855,1.02082 0.77127,0 1.49718,-0.0907 2.17773,-0.27222 0.68053,-0.18148 1.27033,-0.36295 1.76942,-0.54443 0.54441,-0.22685 0.95274,-0.43101 1.22497,-0.61249 0.31757,-0.18148 0.49905,-0.27222 0.54444,-0.27222 l 0.74859,1.08887"
         id="path8204-2-1-5-5"
         style="fill:#ffffff"
         inkscape:connector-curvature="0" />
      <path
         d="m 947.75772,766.993 1.49719,0 -15.44832,35.32017 -1.22498,0 -8.64289,-19.80379 -8.64289,19.80379 -1.22498,0 -15.44832,-35.32017 1.49719,0 14.56362,33.3466 8.50678,-19.53158 -5.92072,-13.67891 1.42914,0 5.24018,11.9095 5.24018,-11.9095 1.42914,0 -5.92072,13.67891 8.50678,19.53158 14.56362,-33.3466"
         id="path8206-0-4-2-4"
         style="fill:#ffffff"
         inkscape:connector-curvature="0" />
      <path
         d="m 969.90197,802.99371 c -2.49534,-0.0454 -4.7865,-0.5898 -6.87348,-1.6333 -2.04164,-1.0435 -3.81105,-2.40458 -5.30824,-4.08326 -1.45183,-1.72403 -2.58606,-3.65223 -3.40271,-5.78461 -0.81665,-2.17772 -1.22498,-4.42351 -1.22498,-6.73737 0,-2.44994 0.43101,-4.78646 1.29304,-7.00959 0.90738,-2.22308 2.10967,-4.17397 3.60687,-5.85267 1.54256,-1.67864 3.33465,-2.99435 5.37629,-3.94715 2.04161,-0.99809 4.21935,-1.49716 6.53321,-1.49719 2.54067,3e-5 4.83183,0.54447 6.87348,1.6333 2.08697,1.0889 3.85638,2.49536 5.30824,4.21937 1.49716,1.72407 2.63139,3.69764 3.40271,5.92072 0.81661,2.17776 1.22494,4.35549 1.22498,6.53321 -4e-5,2.4046 -0.43105,4.69576 -1.29304,6.87348 -0.86205,2.17775 -2.06434,4.10595 -3.60687,5.78461 -1.49723,1.67868 -3.26664,3.01708 -5.30824,4.01521 -2.04165,0.99813 -4.24207,1.51987 -6.60126,1.56524 m -15.44832,-18.23854 c 0.0907,2.17775 0.52174,4.28743 1.29303,6.32905 0.77128,2.04163 1.83746,3.85641 3.19855,5.44434 1.36108,1.54257 2.94901,2.79023 4.7638,3.74298 1.86013,0.90739 3.92445,1.36109 6.19294,1.36109 2.31382,0 4.4235,-0.49906 6.32905,-1.4972 1.90549,-0.99812 3.53879,-2.29115 4.89991,-3.87909 1.36105,-1.63329 2.40455,-3.44807 3.13049,-5.44434 0.72588,-2.04162 1.08883,-4.06056 1.08887,-6.05683 -4e-5,-2.17772 -0.40836,-4.2874 -1.22498,-6.32905 -0.77131,-2.0416 -1.86018,-3.8337 -3.2666,-5.37629 -1.36112,-1.5879 -2.99442,-2.85824 -4.89991,-3.81104 -1.86017,-0.95272 -3.87912,-1.4291 -6.05683,-1.42914 -2.31386,4e-5 -4.42354,0.52179 -6.32905,1.56525 -1.90553,0.99816 -3.53883,2.31388 -4.89991,3.94715 -1.36109,1.58796 -2.40459,3.40274 -3.13049,5.44434 -0.72592,1.99628 -1.08888,3.99254 -1.08887,5.98878"
         id="path8208-6-4-9-0"
         style="fill:#ffffff"
         inkscape:connector-curvature="0" />
      <path
         d="m 1010.6335,766.993 0,1.36109 c -1.8148,0.0908 -3.4707,0.45373 -4.9679,1.08887 -1.4972,0.58983 -2.8356,1.40648 -4.0152,2.44995 -1.1343,0.99816 -2.10972,2.20045 -2.92636,3.60688 -0.77129,1.36111 -1.38378,2.8583 -1.83747,4.49158 l 0,22.3218 -1.36108,0 0,-35.32017 1.36108,0 0,9.11928 c 1.45182,-2.85826 3.31193,-5.08136 5.58043,-6.66932 2.3139,-1.63327 5.036,-2.44992 8.1665,-2.44996"
         id="path8210-6-3-7-7"
         style="fill:#ffffff"
         inkscape:connector-curvature="0" />
      <path
         d="m 1043.3953,802.31317 -15.04,-20.21212 -9.5957,8.71095 0,11.50117 -1.3611,0 0,-49.67962 1.3611,0 0,36.34098 24.0912,-21.84542 1.8375,0 -15.3122,14.01918 15.6525,21.16488 -1.6333,0"
         id="path8212-9-3-7-2"
         style="fill:#ffffff"
         inkscape:connector-curvature="0" />
    </g>
    <g
       transform="translate(-326.13631,-584.40759)"
       id="g3895-3-0-6-7"
       style="fill:#ffffff">
      <path
         d="m 688,314.09375 45,110 14,0 45,-110 -12,0 -40,97.78125 -40,-97.78125 z"
         id="path3866-2-1-0-6"
         style="fill:#ffffff;fill-opacity:1;stroke:none"
         inkscape:connector-curvature="0"
         transform="translate(-20.00005,308.2677)" />
    </g>
    <path
       d="m 265.36364,37.953855 c -30.31644,0 -55,24.68356 -55,55 0,30.316445 24.68356,55.000005 55,55.000005 30.31644,0 55,-24.68356 55,-55.000005 0,-30.31644 -24.68356,-55 -55,-55 z m 0,10 c 24.91204,0 45,20.08796 45,45 0,24.912045 -20.08796,45.000005 -45,45.000005 -24.91204,0 -45,-20.08796 -45,-45.000005 0,-24.91204 20.08796,-45 45,-45 z"
       id="path3905-8-9-2-7"
       style="font-size:medium;font-style:normal;font-variant:normal;font-weight:normal;font-stretch:normal;text-indent:0;text-align:start;text-decoration:none;line-height:normal;letter-spacing:normal;word-spacing:normal;text-transform:none;direction:ltr;block-progression:tb;writing-mode:lr-tb;text-anchor:start;baseline-shift:baseline;color:#000000;fill:#ffffff;fill-opacity:1;stroke:none;stroke-width:10;marker:none;visibility:visible;display:inline;overflow:visible;enable-background:accumulate;font-family:Sans;-inkscape-font-specification:Sans"
       inkscape:connector-curvature="0" />
    <g
       transform="translate(-361.13642,-584.40759)"
       id="g3989-3-5-6-8"
       style="fill:#ffffff">
      <g
         transform="translate(-505,0)"
         id="g4984-7-6-5-0-0"
         style="fill:#ffffff">
        <g
           transform="translate(499.44444,4.7619024)"
           id="g3843-8-0-0-3-1-6"
           style="font-size:182.75830078000001322px;font-style:normal;font-variant:normal;font-weight:bold;font-stretch:normal;line-height:125%;letter-spacing:0px;word-spacing:0px;fill:#ffffff;fill-opacity:1;stroke:#000000;stroke-width:10;stroke-miterlimit:4;stroke-opacity:1;stroke-dasharray:none;font-family:Raleway;-inkscape-font-specification:Raleway Bold">
          <path
             d="m 345,314.09375 0,110 10,0 0,-50 c 0,-19.16666 4.73751,-31.50819 11.78125,-39.09375 7.04374,-7.58556 16.71878,-10.90625 28.21875,-10.90625 8.75003,0 18.72891,3.2914 26.46875,11.03125 C 429.20859,342.86485 435,355.13541 435,374.09375 l 0,50 10,0 0,-50 c 0,-19.16666 4.73751,-31.50819 11.78125,-39.09375 7.04374,-7.58556 16.71878,-10.90625 28.21875,-10.90625 8.75003,0 18.72891,3.2914 26.46875,11.03125 C 519.20859,342.86485 525,355.13541 525,374.09375 l 0,50 10,0 0,-50 c 0,-21.04166 -6.7086,-36.2711 -16.46875,-46.03125 C 508.7711,318.30235 496.25003,314.09375 485,314.09375 c -13.49997,0 -26.32498,4.17931 -35.53125,14.09375 -4.13742,4.45568 -7.45035,9.98067 -9.875,16.59375 -2.83134,-6.72178 -6.62945,-12.2857 -11.0625,-16.71875 C 418.7711,318.30235 406.25003,314.09375 395,314.09375 c -13.49997,0 -26.32498,4.17931 -35.53125,14.09375 -1.61794,1.74239 -3.10158,3.65009 -4.46875,5.71875 l 0,-19.8125 z"
             id="path3790-8-7-8-7-3-9-1"
             style="font-size:182.75830078000001322px;font-style:normal;font-variant:normal;font-weight:bold;font-stretch:normal;text-indent:0;text-align:start;text-decoration:none;line-height:125%;letter-spacing:0px;word-spacing:0px;text-transform:none;direction:ltr;block-progression:tb;writing-mode:lr-tb;text-anchor:start;baseline-shift:baseline;color:#000000;fill:#ffffff;fill-opacity:1;stroke:none;stroke-width:10;marker:none;visibility:visible;display:inline;overflow:visible;enable-background:accumulate;font-family:Raleway;-inkscape-font-specification:Raleway Bold"
             inkscape:connector-curvature="0"
             transform="translate(20.555621,303.5058)" />
        </g>
      </g>
      <g
         transform="translate(5,7.3e-4)"
         id="g4984-7-7-6-8-5-4"
         style="fill:#ffffff">
        <g
           transform="translate(499.44444,4.7619024)"
           id="g3843-8-0-3-7-7-9-0"
           style="font-size:182.75830078000001322px;font-style:normal;font-variant:normal;font-weight:bold;font-stretch:normal;line-height:125%;letter-spacing:0px;word-spacing:0px;fill:#ffffff;fill-opacity:1;stroke:#000000;stroke-width:10;stroke-miterlimit:4;stroke-opacity:1;stroke-dasharray:none;font-family:Raleway;-inkscape-font-specification:Raleway Bold">
          <path
             d="m 345,314.09375 0,110 10,0 0,-50 c 0,-19.16666 4.73751,-31.50819 11.78125,-39.09375 7.04374,-7.58556 16.71878,-10.90625 28.21875,-10.90625 8.75003,0 18.72891,3.2914 26.46875,11.03125 C 429.20859,342.86485 435,355.13541 435,374.09375 l 0,50 10,0 0,-50 c 0,-19.16666 4.73751,-31.50819 11.78125,-39.09375 7.04374,-7.58556 16.71878,-10.90625 28.21875,-10.90625 8.75003,0 18.72891,3.2914 26.46875,11.03125 C 519.20859,342.86485 525,355.13541 525,374.09375 l 0,50 10,0 0,-50 c 0,-21.04166 -6.7086,-36.2711 -16.46875,-46.03125 C 508.7711,318.30235 496.25003,314.09375 485,314.09375 c -13.49997,0 -26.32498,4.17931 -35.53125,14.09375 -4.13742,4.45568 -7.45035,9.98067 -9.875,16.59375 -2.83134,-6.72178 -6.62945,-12.2857 -11.0625,-16.71875 C 418.7711,318.30235 406.25003,314.09375 395,314.09375 c -13.49997,0 -26.32498,4.17931 -35.53125,14.09375 -1.61794,1.74239 -3.10158,3.65009 -4.46875,5.71875 l 0,-19.8125 z"
             id="path3790-8-7-8-9-2-7-2-6"
             style="font-size:182.75830078000001322px;font-style:normal;font-variant:normal;font-weight:bold;font-stretch:normal;text-indent:0;text-align:start;text-decoration:none;line-height:125%;letter-spacing:0px;word-spacing:0px;text-transform:none;direction:ltr;block-progression:tb;writing-mode:lr-tb;text-anchor:start;baseline-shift:baseline;color:#000000;fill:#ffffff;fill-opacity:1;stroke:none;stroke-width:10;marker:none;visibility:visible;display:inline;overflow:visible;enable-background:accumulate;font-family:Raleway;-inkscape-font-specification:Raleway Bold"
             inkscape:connector-curvature="0"
             transform="translate(20.555621,303.5058)" />
        </g>
      </g>
    </g>
  </g>
</svg>
