<?xml version="1.0" encoding="utf-8"?>
<!-- Generated by IcoMoon.io -->
<!DOCTYPE svg PUBLIC "-//W3C//DTD SVG 1.1//EN" "http://www.w3.org/Graphics/SVG/1.1/DTD/svg11.dtd">
<svg version="1.1" xmlns="http://www.w3.org/2000/svg" xmlns:xlink="http://www.w3.org/1999/xlink" width="32" height="32" viewBox="0 0 32 32">
	<path d="M16 21.333c2.941 0 5.333-2.393 5.333-5.333v-8c0-2.941-2.392-5.333-5.333-5.333s-5.333 2.392-5.333 5.333v8c0 2.94 2.392 5.333 5.333 5.333z" fill="#ffffff" />
	<path d="M25.333 16v-2.667c0-0.736-0.596-1.333-1.333-1.333s-1.333 0.597-1.333 1.333v2.667c0 3.676-2.991 6.667-6.667 6.667s-6.667-2.991-6.667-6.667v-2.667c0-0.736-0.596-1.333-1.333-1.333s-1.333 0.597-1.333 1.333v2.667c0 4.693 3.484 8.576 8 9.227v1.44h-4c-0.737 0-1.333 0.596-1.333 1.333s0.596 1.333 1.333 1.333h10.667c0.737 0 1.333-0.596 1.333-1.333s-0.596-1.333-1.333-1.333h-4v-1.44c4.516-0.651 8-4.533 8-9.227z" fill="#ffffff" />
</svg>
