<?xml version="1.0" encoding="utf-8"?>
<!-- Generated by IcoMoon.io -->
<!DOCTYPE svg PUBLIC "-//W3C//DTD SVG 1.1//EN" "http://www.w3.org/Graphics/SVG/1.1/DTD/svg11.dtd">
<svg version="1.1" xmlns="http://www.w3.org/2000/svg" xmlns:xlink="http://www.w3.org/1999/xlink" width="32" height="32" viewBox="0 0 32 32">
	<path d="M6 16h6v2h-6v-2zM6 20h6v2h-6v-2zM6 24h6v2h-6v-2zM28.232 6.232l-4.465-4.464c-0.972-0.972-2.893-1.768-4.268-1.768h-15c-1.375 0-2.5 1.125-2.5 2.5v27c0 1.375 1.125 2.5 2.5 2.5h23c1.375 0 2.5-1.125 2.5-2.5v-19c0-1.375-0.796-3.296-1.768-4.268zM26.818 7.646c0.098 0.098 0.195 0.218 0.29 0.354h-5.108v-5.108c0.136 0.095 0.256 0.192 0.354 0.29l4.465 4.464zM28 29.5c0 0.271-0.229 0.5-0.5 0.5h-23c-0.271 0-0.5-0.229-0.5-0.5v-27c0-0.271 0.229-0.5 0.5-0.5h15c0.151 0 0.32 0.019 0.5 0.053v7.947h7.947c0.034 0.18 0.053 0.349 0.053 0.5v19zM18 22h5.9c-0.463 2.282-2.481 4-4.9 4-2.761 0-5-2.239-5-5 0-2.419 1.718-4.436 4-4.9v5.9zM21 14c2.761 0 5 2.239 5 5 0 0.342-0.035 0.677-0.1 1h-5.9v-5.9c0.323-0.066 0.658-0.1 1-0.1z" fill="#333333" />
</svg>
