<?xml version="1.0" encoding="utf-8"?>
<!-- Generated by IcoMoon.io -->
<!DOCTYPE svg PUBLIC "-//W3C//DTD SVG 1.1//EN" "http://www.w3.org/Graphics/SVG/1.1/DTD/svg11.dtd">
<svg version="1.1" xmlns="http://www.w3.org/2000/svg" xmlns:xlink="http://www.w3.org/1999/xlink" width="32" height="32" viewBox="0 0 32 32">
	<path d="M21.569 14.74c-1.896-0.895-4.312-1.076-6.089 0.189 2.161-0.206 4.53 0.151 6.097 1.785 1.5-1.721 3.879-2.044 6.030-1.867-1.796-1.192-4.163-1.032-6.038-0.107zM20.802 18.93c-2.137-0.049-4.201 0.724-5.972 1.878-3.349-1.425-7.585-1.16-10.438 1.218 0.823-0.029 1.625-0.233 2.439-0.337 2.974-0.296 6.143 0.442 8.391 2.494 0.93-1.361 2.239-2.445 3.739-3.123 1.971-0.954 4.192-1.053 6.338-1.079-1.303-0.895-2.957-1.061-4.498-1.052zM28.232 6.232l-4.465-4.464c-0.972-0.972-2.893-1.768-4.268-1.768h-15c-1.375 0-2.5 1.125-2.5 2.5v27c0 1.375 1.125 2.5 2.5 2.5h23c1.375 0 2.5-1.125 2.5-2.5v-19c0-1.375-0.796-3.296-1.768-4.268zM26.818 7.646c0.098 0.098 0.195 0.218 0.29 0.354h-5.108v-5.108c0.136 0.095 0.256 0.192 0.354 0.29l4.465 4.464zM28 29.5c0 0.271-0.229 0.5-0.5 0.5h-23c-0.271 0-0.5-0.229-0.5-0.5v-27c0-0.271 0.229-0.5 0.5-0.5h15c0.151 0 0.32 0.019 0.5 0.053v7.947h7.947c0.034 0.18 0.053 0.349 0.053 0.5v19z" fill="#333333" />
</svg>
