<?xml version="1.0" encoding="utf-8"?>
<!-- Generated by IcoMoon.io -->
<!DOCTYPE svg PUBLIC "-//W3C//DTD SVG 1.1//EN" "http://www.w3.org/Graphics/SVG/1.1/DTD/svg11.dtd">
<svg version="1.1" xmlns="http://www.w3.org/2000/svg" xmlns:xlink="http://www.w3.org/1999/xlink" width="32" height="32" viewBox="0 0 32 32">
	<path d="M12 19.108v-3.57c0-0.473 0.209-0.92 0.589-1.259 0.38-0.339 0.881-0.526 1.411-0.526v-1.785c-2.2 0-4 1.606-4 3.569v2.677c0 0.493-0.448 0.892-1 0.892h-1v1.785h1c0.552 0 1 0.4 1 0.892v2.677c0 1.963 1.8 3.569 4 3.569v-1.785c-0.53 0-1.031-0.187-1.411-0.526-0.38-0.339-0.589-0.786-0.589-1.259v-3.57c0-0.493-0.448-0.892-1-0.892 0.552 0 1-0.4 1-0.892zM20 20.892v3.57c0 0.473-0.209 0.92-0.589 1.259-0.38 0.339-0.881 0.526-1.411 0.526v1.785c2.2 0 4-1.606 4-3.569v-2.677c0-0.493 0.448-0.892 1-0.892h1v-1.785h-1c-0.552 0-1-0.4-1-0.892v-2.677c0-1.963-1.8-3.569-4-3.569v1.785c0.53 0 1.031 0.187 1.411 0.526 0.38 0.339 0.589 0.786 0.589 1.259v3.57c0 0.493 0.448 0.892 1 0.892-0.552-0-1 0.4-1 0.892zM28.232 6.232l-4.465-4.464c-0.972-0.972-2.893-1.768-4.268-1.768h-15c-1.375 0-2.5 1.125-2.5 2.5v27c0 1.375 1.125 2.5 2.5 2.5h23c1.375 0 2.5-1.125 2.5-2.5v-19c0-1.375-0.796-3.296-1.768-4.268zM26.818 7.646c0.098 0.098 0.195 0.218 0.29 0.354h-5.108v-5.108c0.136 0.095 0.256 0.192 0.354 0.29l4.465 4.464zM28 29.5c0 0.271-0.229 0.5-0.5 0.5h-23c-0.271 0-0.5-0.229-0.5-0.5v-27c0-0.271 0.229-0.5 0.5-0.5h15c0.151 0 0.32 0.019 0.5 0.053v7.947h7.947c0.034 0.18 0.053 0.349 0.053 0.5v19z" fill="#333333" />
</svg>
