<?xml version="1.0" encoding="utf-8"?>
<!-- Generated by IcoMoon.io -->
<!DOCTYPE svg PUBLIC "-//W3C//DTD SVG 1.1//EN" "http://www.w3.org/Graphics/SVG/1.1/DTD/svg11.dtd">
<svg version="1.1" xmlns="http://www.w3.org/2000/svg" xmlns:xlink="http://www.w3.org/1999/xlink" width="32" height="32" viewBox="0 0 32 32">
	<path d="M22.969 25.168c-0.592-0.093-0.606-1.708-0.606-1.708s1.74-1.708 2.119-4.005c1.020 0 1.65-2.442 0.63-3.301 0.043-0.904 1.311-7.099-5.112-7.099-6.424 0-5.155 6.195-5.112 7.099-1.020 0.859-0.39 3.301 0.63 3.301 0.379 2.297 2.12 4.005 2.12 4.005s-0.014 1.615-0.606 1.708c-1.908 0.301-9.031 3.416-9.031 6.832h24c0-3.416-7.124-6.531-9.031-6.832zM10.752 25.713c1.378-0.848 3.051-1.635 4.423-2.107-0.492-0.701-1.040-1.654-1.385-2.783-0.481-0.393-0.873-0.954-1.125-1.644-0.252-0.691-0.348-1.464-0.269-2.178 0.056-0.512 0.202-0.99 0.427-1.409-0.136-1.456-0.232-4.314 1.639-6.398 0.725-0.808 1.642-1.389 2.741-1.74-0.196-2.024-1.224-4.399-5.202-4.399-6.424 0-5.155 6.195-5.112 7.099-1.020 0.859-0.39 3.301 0.63 3.301 0.379 2.297 2.12 4.005 2.12 4.005s-0.014 1.615-0.606 1.708c-1.908 0.301-9.031 3.416-9.031 6.832h10.3c0.147-0.096 0.297-0.192 0.452-0.287z" fill="#333333" />
</svg>
