<svg xmlns="http://www.w3.org/2000/svg" viewBox="0 0 36 36"><path fill="#b4b5b8" d="m35.55 32.48-.95-4.33-1.97-1.71.15-.27-.56-.6 1.37-3.19c.11-.27.16-.56.12-.86L31.77 5.79c-.02-.64-.31-1.2-.73-1.46L22.35.91c-.32-.19-.69-.07-.91.29l-5.17 8.63c-.15.24-.25.52-.31.82l-.74 5.09c-.03.17-.09.32-.17.44l-.39.61c-.09.15-.21.26-.35.32l-2.63 1.33c-.23.1-.42.31-.56.58L3.65 33.64c-.2.39-.17.91.05 1.27l.5.79h30.08l1.11-2c.19-.35.25-.79.16-1.21Z"/><path fill="#869193" d="m35.55 32.48-.95-4.33-2.38-2.58 1.37-3.19c.11-.27.16-.56.12-.86L31.77 5.79c0-.07 0-.14-.02-.21-1.53-.6-4.37-1.74-5.75-2.29-.42-.16-.67.02-.76.19-1.41 2.51-5.44 9.44-5.44 9.44-.12.22-.2.47-.25.73l-.96 5.76c-.03.18-.08.35-.14.51l-.56 1.41s-.22.58-.3.65c-.1.09-.5.06-.5.06l-.16-1.94a.37.37 0 0 0-.17-.3l-.37-.21a.18.18 0 0 0-.2 0l-4.1 2.18c-.14.07-.26.2-.34.36L5.43 33.99c-.1.19-.25.29-.42.3h-1.5c0 .18.04.34.11.48.02.05.05.09.07.14l.31.48.19.31h30.08l.8-1.45.31-.56c.12-.22.19-.47.2-.74 0-.16 0-.32-.04-.47z"/><path fill="#b4b5b8" d="m34.6 28.15-3.94-4.26-.44.04-1.63 1.15-3.09 1.76-5.78 4.24.33.29 10.84-3.04c.08-.02.15-.01.23.02l.91.44s.09.06.13.1l.56.64c.14.15.33.17.47.03l1.47-1.15-.06-.25Z"/><path fill="#869193" d="m9.06 21.76-1.71 2.33c-.07.1-.17.15-.28.15l-.57-.02c-.1 0-.2-.05-.27-.14l-.75-.92c-.11-.13-.27-.18-.41-.12l-2.05.82c-.14.06-.29.05-.42-.03l-.69-.38a.66.66 0 0 1-.29-.36L.41 19.48a1.6 1.6 0 0 1-.06-.69l.12-.8c.04-.28.18-.52.37-.67l3.48-2.74c.23-.18.5-.24.76-.16l.89.25c.18.05.34.19.44.38l2.72 5.32c.07.14.1.29.1.46v.43c-.02.19-.07.37-.18.51h.01Z"/><path fill="#b4b5b8" d="m2.09 21.94 4.28-2.6.43.02 1.4 1.01.61-.63-.36-.69-1.14-.69-.2-.4.13-1.28-.82-1.62a.74.74 0 0 0-.44-.38l-.89-.25a.87.87 0 0 0-.76.16L.85 17.33c-.19.15-.33.4-.37.67l-.12.8c-.04.23-.02.47.06.69l.73 2.19.93.25Z"/><path fill="#869193" d="m12.63 8.57-.11 1.25c0 .09-.05.17-.11.21l-.93.66-.13.07c-.03.01-.12.01-.16-.02-.02-.02-.08-.08-.11-.12l-.85-1.09a.34.34 0 0 1-.06-.2v-.58c0-.08.04-.16.1-.2l.92-.61c.07-.04.14-.06.22-.06l.79.07c.06 0 .13.04.17.1l.2.26c.05.07.08.16.07.25h-.01Z"/><path fill="#b4b5b8" d="m11.33 9.39 1.29-.96s-.03-.08-.05-.11l-.2-.26a.23.23 0 0 0-.17-.1l-.79-.07a.35.35 0 0 0-.22.06l-.92.61c-.06.04-.1.12-.1.2v.33l1.16.29Zm5.4-4.81s.05.17.05.23c0 .07-.05.23-.06.3-.03.17-.1.5-.14.66-.02.09-.02.27-.07.35-.03.05-.06.07-.17.18s-.14.16-.21.19c-.03.02-.08.02-.14.03s-.11.01-.13 0c-.03-.02-.06-.08-.11-.17-.22-.42-.65-1.22-.88-1.64-.02-.04-.07-.15-.07-.19s.05-.13.09-.17c.05-.04.81-.28.81-.28.11-.04.22-.03.3.02 0 0 .39.25.51.33.06.04.18.09.22.14z"/><path fill="#869193" d="m11.88 17.35-2.53-.12c-.12 0-.23-.09-.3-.21l-.5-1a.4.4 0 0 1-.02-.32l.22-.67c.04-.11.04-.24 0-.36l-.29-1.09c-.04-.16.02-.33.14-.39 0 0 1.41-.79 1.49-.83.16-.08.34-.09.45-.02.13.07 2.04 1.21 2.04 1.21.07.04.13.11.17.2l.13.33c.03.07.04.15.03.23l-.34 2.34c-.02.13-.07.24-.16.31l-.33.3c-.06.06-.13.08-.21.08h.01Z"/><path fill="#b4b5b8" d="M12.92 14.32c.01-.08 0-.16-.03-.23l-.13-.33a.38.38 0 0 0-.17-.2s-1.91-1.14-2.04-1.21c-.12-.07-.29-.05-.45.02-.08.04-1.49.83-1.49.83-.12.07-.18.24-.14.39l.29 1.09c.03.12.03.25 0 .36l-.22.67q-.03.105 0 .21l.68.17.2-.07.56-.71.2-.08 1.57.22.3-.08.89-1.04h-.02Z"/></svg>