<svg xmlns="http://www.w3.org/2000/svg" viewBox="0 0 36 36"><path fill="#d4ab88" d="M7.432 30.68s.165-.267.216-.363c.308-.566-.144-1.056-.4-1.227-.299-.214-.843-.534-1.398.15-.144.16-.493.672-.586.874A38 38 0 0 0 3.682 33.2c-.226.533-.72 2.187-.72 2.187a.4.4 0 0 0 .083.352l.154.15c.113.107.298.096.421.021l3.946-3.628c.267-.246.298-.598.082-.897-.103-.15-.329-.501-.226-.693z"/><path fill="#d4ab88" d="m15.067 19.026-1.438-1.558s-5.92 8.826-8.252 12.454c-.308.48-.472 1.249-.01 1.622.576.47 1.017.16 1.531-.373 2.528-2.508 9.31-10.042 9.649-10.426l-1.49-1.75.02.031z"/><path fill="#fa743e" d="m12.437 19.283 2.99 2.732a23 23 0 0 1 1.377-1.367l-3.165-3.19-1.202 1.814z"/><path fill="#d4ab88" d="m10.773 10.36-3.74-3.798L3.26 2.528l.72-.929 4.367 3.394 2.98 2.326z"/><path fill="#d4ab88" d="M4.565 2.355c.15-.451-.69-1.161-1.875-1.586S.42.366.27.817c-.15.452.69 1.162 1.876 1.586s2.268.404 2.418-.048M27.8 4.8c-.617.193-3.227.812-5.632 1.495-2.569.736-4.603 1.409-4.603 1.409l-1.213 3.137 6.196-2.582 5.58-2.327c-.144-.277-.185-.822-.329-1.12z"/><path fill="#d4ab88" d="M29.138 6.183c1.262-.205 2.229-.74 2.16-1.194s-1.146-.656-2.408-.45c-1.261.204-2.229.739-2.16 1.193s1.147.656 2.408.45"/><path fill="#fa743e" d="m16.804 20.638-3.658-1.227s-1.953-1.953-2.57-4.728c-.729-3.308.75-7.364.75-7.364l2.6.63 3.638-.235s-1.13 3.138-.452 5.496c.678 2.21 1.983 2.423 1.983 2.423l-1.038 4.023-1.264.993z"/><path fill="#d4ab88" d="M35.927 9.763c-.051-.16-.185-.245-.339-.213l-5.22.864c-.339.053-.555.374-.534.747v.246c-.01.192 0 .288-.216.363-.257.192-.812.426-.473 1.27.257.565.678.65 1.51.213.782-.406 2.56-1.003 3.423-1.654.524-.384 1.798-1.27 1.798-1.27.103-.086.133-.214.103-.32z"/><path fill="#fa743e" d="M35.927 9.763c-.051-.16-.185-.245-.34-.213l-5.22.864c-.338.053-.575.384-.544.758 0 0 .01.256-.01.416 0 0 3.042-.747 3.576-.694.4.032.627.769.627.769.904-.587 1.87-1.334 1.87-1.334.103-.086.133-.214.103-.32l-.052-.246z"/><path fill="#d4ab88" d="M31.56 11.77c-.299-.662-.689-.374-1.48-.14-2.62.833-8.837 2.647-11.612 3.565l1.295 3.596c2.939-1.494 8.858-4.386 11.252-5.709 1.007-.566.894-.608.575-1.323h-.02z"/><path fill="#fa743e" d="M16.958 15.686s-.668.694-.185 2.177 1.295 1.772 1.295 1.772.668-.31 1.695-.833l-.72-3.81-2.054.683h-.02z"/><path fill="#963b22" d="M12.838 2.57c-.103.555 2.003 3.362 2.301 4.216 1.274-.224 2.138-1.44 2.446-1.793.658-.79 1.007-2.06.02-2.924-.082-.33-.164-1.302-2.342-1.377-1.038-.053-2.179.609-2.425 1.91z"/><path fill="#d4ab88" d="M15.684 2.069c-.853.139-1.521-.246-2.158.053-.031-.053.133-.299.318-.416-.37 0-.801.416-.986.779-.103.17-.165.384-.185.576-.052.438-.052.715-.134.78-.483.362-.483.8-.534 1.376-.062.694-.185.94.288 1.27.236.17 2.528.47 2.846-.01.319-.481.4-.524.575-.534.185.245 1.08.085 1.418-.224.298-.267.504-.758.185-1.014-.452-.363-.811-.16-1.561.405-.103.086-.268-.33.236-.97 0 0-.874-1.047-.319-2.071z"/><path fill="#d4ab88" d="M12.838 6.305c.236.171.647.14.493.993-.041.256-.185.544-.35.63-.215.106-.215.074-.267.288-.051.277.77 1.024 1.069 1.078.298.053 1.716-.353 1.819-.683.082-.246-.483-.353-.237-1.334.206-.854.463-1.11.976-1.58-.42-.181-3.986.267-3.504.598z"/><path fill="#fa743e" d="M3.23 35.92a.29.29 0 0 0 .4 0l3.957-3.64c.257-.234.288-.64.072-.949 0 0-.144-.213-.206-.363 0 0-2.178 2.327-2.65 2.583-.35.192-1.12-.342-1.12-.342-.422 1.132-.535 1.612-.71 2.188-.041.128.02.267.103.342l.174.181z"/></svg>