<svg xmlns="http://www.w3.org/2000/svg" viewBox="0 0 36 36"><path fill="#f7dece" d="M7.432 30.68s.164-.267.216-.363c.308-.565-.144-1.056-.401-1.227-.298-.213-.843-.534-1.398.15-.143.16-.493.672-.585.875a38 38 0 0 0-1.583 3.084c-.226.533-.72 2.188-.72 2.188a.4.4 0 0 0 .083.352l.154.149c.113.107.298.096.422.021l3.945-3.628c.268-.245.298-.598.083-.896-.103-.15-.33-.502-.226-.694z"/><path fill="#f7dece" d="m15.067 19.027-1.438-1.559s-5.92 8.826-8.252 12.454c-.308.48-.472 1.249-.01 1.623.576.47 1.017.16 1.531-.374 2.528-2.508 9.31-10.042 9.649-10.426l-1.49-1.75.02.031z"/><path fill="#fa743e" d="m12.436 19.283 2.99 2.732c.699-.758 1.377-1.367 1.377-1.367l-3.165-3.19-1.202 1.814z"/><path fill="#f7dece" d="m10.772 10.36-3.74-3.798L3.26 2.528l.72-.929 4.367 3.394 2.98 2.326z"/><path fill="#f7dece" d="M4.565 2.355c.15-.451-.69-1.161-1.875-1.586S.42.366.27.817c-.15.452.69 1.162 1.876 1.586s2.268.404 2.418-.048M27.799 4.8c-.617.193-3.227.812-5.631 1.495-2.57.736-4.604 1.409-4.604 1.409l-1.212 3.137 6.196-2.582 5.58-2.327c-.144-.277-.186-.822-.33-1.12z"/><path fill="#f7dece" d="M29.138 6.183c1.262-.205 2.229-.74 2.16-1.194s-1.146-.656-2.408-.45c-1.261.204-2.229.739-2.16 1.193s1.147.656 2.408.45"/><path fill="#fa743e" d="m16.804 20.638-3.658-1.227s-1.953-1.953-2.57-4.728c-.729-3.308.75-7.364.75-7.364l2.6.63 3.638-.235s-1.13 3.138-.452 5.496c.678 2.21 1.983 2.423 1.983 2.423l-1.038 4.023-1.264.993z"/><path fill="#f7dece" d="M35.927 9.763c-.051-.16-.185-.245-.339-.213l-5.22.864c-.339.054-.555.374-.534.747v.246c-.01.192 0 .288-.216.363-.257.192-.812.427-.473 1.27.257.565.678.65 1.51.213.782-.405 2.56-1.003 3.423-1.654.524-.384 1.798-1.27 1.798-1.27.103-.086.133-.213.103-.32z"/><path fill="#fa743e" d="M35.927 9.763c-.051-.16-.185-.245-.34-.213l-5.22.864c-.338.054-.575.385-.544.758 0 0 .01.256-.01.416 0 0 3.042-.747 3.576-.693.4.032.627.768.627.768.904-.587 1.87-1.334 1.87-1.334.103-.086.133-.213.103-.32l-.052-.246z"/><path fill="#f7dece" d="M31.56 11.77c-.299-.662-.689-.374-1.48-.14-2.62.833-8.837 2.647-11.612 3.565l1.295 3.597c2.939-1.495 8.858-4.387 11.252-5.71 1.007-.566.894-.608.575-1.323h-.02z"/><path fill="#fa743e" d="M16.958 15.686s-.668.694-.185 2.177 1.294 1.772 1.294 1.772.668-.31 1.696-.833l-.72-3.81-2.055.683h-.02z"/><path fill="#292f33" d="M12.838 2.57c-.103.556 2.003 3.362 2.301 4.216 1.274-.224 2.138-1.44 2.446-1.793.658-.79 1.007-2.06.02-2.924-.082-.33-.164-1.302-2.342-1.377-1.038-.053-2.179.609-2.425 1.91z"/><path fill="#f7dece" d="M15.684 2.069c-.853.139-1.521-.246-2.158.053-.031-.053.133-.299.318-.416-.37 0-.801.416-.986.78-.103.17-.165.383-.185.575-.052.438-.052.715-.134.78-.483.362-.483.8-.534 1.376-.062.694-.185.94.288 1.27.236.17 2.528.47 2.846-.01s.4-.524.575-.534c.185.245 1.08.085 1.418-.224.298-.267.504-.758.185-1.014-.452-.363-.811-.16-1.561.405-.103.086-.268-.33.236-.97 0 0-.874-1.047-.319-2.071z"/><path fill="#f7dece" d="M12.838 6.305c.236.171.647.14.493.993-.041.256-.185.544-.35.63-.215.106-.215.074-.267.288-.051.277.77 1.024 1.069 1.078.298.053 1.716-.353 1.819-.683.082-.246-.483-.353-.237-1.334.206-.854.463-1.11.976-1.58-.42-.181-3.986.267-3.504.598z"/><path fill="#fa743e" d="M3.23 35.92a.29.29 0 0 0 .4 0l3.956-3.64c.257-.234.288-.64.072-.949 0 0-.144-.213-.205-.363 0 0-2.179 2.327-2.651 2.583-.35.192-1.12-.342-1.12-.342-.422 1.132-.535 1.612-.71 2.188-.04.128.021.267.103.342l.175.181z"/></svg>