<svg xmlns="http://www.w3.org/2000/svg" viewBox="0 0 36 36"><path fill="#ffdc5d" d="M7.432 30.68s.164-.267.216-.363c.308-.565-.144-1.056-.401-1.227-.298-.213-.843-.534-1.398.15-.143.16-.493.672-.585.875a38 38 0 0 0-1.583 3.084c-.226.533-.72 2.187-.72 2.187a.4.4 0 0 0 .083.352l.154.15c.113.107.298.096.422.021l3.946-3.628c.267-.246.298-.598.082-.897-.103-.149-.33-.501-.226-.693z"/><path fill="#ffdc5d" d="m15.067 19.027-1.439-1.559S7.71 26.294 5.377 29.922c-.308.48-.473 1.249-.01 1.623.575.47 1.017.16 1.53-.374 2.529-2.508 9.31-10.042 9.65-10.426l-1.49-1.75.02.031z"/><path fill="#fa743e" d="m12.437 19.283 2.99 2.732a23 23 0 0 1 1.377-1.367l-3.165-3.19-1.202 1.814z"/><path fill="#ffdc5d" d="m10.772 10.361-3.74-3.8L3.26 2.529l.72-.929 4.367 3.394 2.98 2.326z"/><path fill="#ffdc5d" d="M4.565 2.355c.15-.451-.69-1.161-1.875-1.586S.42.366.27.817c-.15.452.69 1.162 1.876 1.586s2.268.404 2.418-.048M27.799 4.8c-.617.193-3.227.812-5.631 1.495-2.57.736-4.604 1.409-4.604 1.409l-1.212 3.137 6.196-2.582 5.58-2.327c-.144-.277-.185-.822-.33-1.12z"/><path fill="#ffdc5d" d="M29.138 6.183c1.262-.205 2.229-.74 2.16-1.194s-1.146-.656-2.408-.45c-1.261.204-2.229.739-2.16 1.193s1.147.656 2.408.45"/><path fill="#fa743e" d="m16.803 20.638-3.658-1.227s-1.952-1.953-2.569-4.728c-.73-3.308.75-7.364.75-7.364l2.6.63 3.638-.235s-1.13 3.138-.452 5.496c.678 2.21 1.983 2.423 1.983 2.423l-1.038 4.023-1.264.993z"/><path fill="#ffdc5d" d="M35.927 9.763c-.051-.16-.185-.245-.34-.213l-5.22.864c-.338.053-.554.374-.534.747v.245c-.01.193 0 .289-.215.363-.257.192-.812.427-.473 1.27.257.566.678.651 1.51.214.781-.406 2.559-1.003 3.422-1.654.524-.385 1.799-1.27 1.799-1.27.102-.086.133-.214.102-.32z"/><path fill="#fa743e" d="M35.927 9.763c-.051-.16-.185-.245-.339-.213l-5.22.864c-.34.053-.576.384-.545.758 0 0 .01.256-.01.416 0 0 3.042-.747 3.576-.694.4.032.627.769.627.769.904-.587 1.87-1.334 1.87-1.334.103-.086.134-.214.103-.32l-.052-.246z"/><path fill="#ffdc5d" d="M31.56 11.77c-.298-.662-.689-.374-1.48-.14-2.62.833-8.837 2.647-11.612 3.565l1.295 3.597c2.939-1.495 8.858-4.387 11.252-5.71 1.007-.566.894-.608.576-1.323h-.021z"/><path fill="#fa743e" d="M16.958 15.686s-.668.694-.185 2.177 1.294 1.772 1.294 1.772.668-.31 1.696-.833l-.72-3.81-2.055.683h-.02z"/><path fill="#ffac33" d="M12.837 2.57c-.103.556 2.004 3.362 2.302 4.216 1.274-.224 2.137-1.44 2.446-1.793.657-.79 1.007-2.06.02-2.924-.082-.33-.164-1.302-2.343-1.377-1.038-.053-2.178.609-2.425 1.91z"/><path fill="#ffdc5d" d="M15.683 2.069c-.853.139-1.52-.246-2.158.053-.03-.053.134-.299.319-.416-.37 0-.802.416-.987.78-.102.17-.164.383-.185.575-.051.438-.051.715-.133.78-.483.362-.483.8-.534 1.376-.062.694-.186.94.287 1.27.237.17 2.528.47 2.847-.01s.4-.524.575-.534c.185.245 1.079.085 1.418-.224.298-.267.504-.758.185-1.014-.452-.363-.812-.16-1.562.405-.103.086-.267-.33.236-.97 0 0-.873-1.047-.318-2.071z"/><path fill="#ffdc5d" d="M12.837 6.305c.236.171.647.14.493.993-.04.256-.185.544-.35.63-.215.106-.215.074-.266.288-.052.277.77 1.024 1.068 1.078.298.053 1.717-.353 1.82-.683.082-.246-.484-.353-.237-1.334.205-.854.462-1.11.976-1.58-.421-.181-3.987.267-3.504.598z"/><path fill="#fa743e" d="M3.23 35.92a.29.29 0 0 0 .4 0l3.956-3.64c.257-.234.288-.64.072-.949 0 0-.144-.213-.205-.363 0 0-2.179 2.327-2.651 2.583-.35.192-1.12-.342-1.12-.342-.422 1.132-.535 1.612-.71 2.188-.04.128.021.267.103.342l.175.181z"/></svg>