<svg xmlns="http://www.w3.org/2000/svg" viewBox="0 0 36 36"><path fill="#b6b6b6" d="m32.06 21.45-16.89-6.19v-1.49L32.21 20z"/><path fill="#664333" d="m28.33 17.39-13.37-4.22-7.3-4.74 19.31 5.45z"/><path fill="#b6b6b6" d="m12.92 16.28-11.51 4.5v-2.26l11.51-4.5z"/><path fill="#4f4f4f" d="m32.95 20.14-18.56-6.1-10.81-6.5.42.05 10.49 6.32 18.41 5.98z"/><path fill="#636363" d="m32.98 20.09-18.49-6.08L4 7.62l1.12-1.34 10.29 6.25 17.99 5.73z"/><path fill="#4f4f4f" d="M32.95 20.14 21.7 13.23 3.6 7.56l-.59-.39 18.77 5.87 11.5 7.09h-.33Z"/><path fill="#b6b6b6" d="m12.93 16.29-11.51 4.5v-2.27l11.51-4.49z"/><path fill="#9f5c3a" d="m5.95 18.8-1.89.69-1.84-.59 2.13-.9z"/><path fill="#f6c24b" d="M30.55 19.89c.1-.42.09-.99-.08-1.59-.3-1.09-.97-1.86-1.49-1.72-.22.06-.38.27-.47.56l-2.57-1.6-1.02.19h-.02c-.37-.22-.96-.38-1.63-.38-.31 0-.61.04-.87.1-.07-.47-.66-1.07-1.5-1.44-.95-.43-1.88-.44-2.2-.05h-.31v-.09c-.11-.53-1.09-.79-2.2-.57-.45.09-.86.24-1.17.44-.41-.21-1.08-.27-1.81-.12-.7.14-1.29.44-1.6.78-.41-.16-1.02-.19-1.66-.06-1.11.22-1.94.84-1.82 1.37.06.24.07.29.15.6l-.89.24c-.41-.14-.96-.17-1.56-.07-1.11.19-1.95.76-1.87 1.31l.16.63c-.35.29-.53.61-.45.9.15.54 1.22 1.2 2.31.9.11-.03.21-.06.31-.1v1.12l9.61 2.94v.05l.46.09 2.76.84 10.13-3.78.11-.39 2.17-.76-.98-.33Z"/><path fill="#d89636" d="M30.55 19.89c.1-.42.09-.99-.08-1.59-.3-1.09-.97-1.86-1.49-1.72-.22.06-.38.27-.47.56l-2.57-1.6-1.02.19h-.02c-.37-.22-.96-.38-1.63-.38-.31 0-.61.04-.87.1-.07-.47-.66-1.07-1.5-1.44-.95-.43-1.88-.44-2.2-.05h-.31v-.09c-.11-.53-1.09-.79-2.2-.57-.45.09-.86.24-1.17.44-.41-.21-1.08-.27-1.81-.12-.7.14-1.29.44-1.6.78-.41-.16-1.02-.19-1.66-.06-.7.14-1.29.44-1.6.77l20.01 6.62.9-.34.11-.39 2.17-.76-.98-.33v-.02Z"/><path fill="#d33b2f" d="M21.45 15.83c.14.51-.45.83-.98 1.02-.64.21-1.36.18-1.47-.3-.13-.51.24-1.06.92-1.25s1.4.03 1.54.54h-.01Z"/><path fill="#c88433" d="M26.99 19.89s0-.08-.08-.07c-.06 0-.07.04-.08.08-.17.46-.96.84-1.94.98h-.07s-.07 0-.11.01l-.46.8c.21 0 .43-.01.67-.04.02 0 .08-.01.1-.01 1.25-.18 2.1-.71 2.06-1.12a9 9 0 0 0-.08-.64h-.01Zm-.65-3.04c-.26.42-1.11.64-2.1.58h-.07c-.91-.06-1.56-.4-1.85-.81-.01-.02-.02-.04-.07-.05-.07 0-.07.03-.07.04-.02.23-.02.53-.03.64-.01.41.81.87 1.97.94h.1c1.26.08 2.21-.28 2.24-.69 0-.11.04-.41.05-.64 0-.03.01-.08-.06-.08-.06 0-.07.03-.1.07zm-7.27 5.67c-.26.42-1.11.64-2.1.58h-.07c-.91-.06-1.56-.4-1.85-.81-.01-.02-.02-.04-.07-.05-.07 0-.07.03-.07.04-.02.23-.02.53-.03.64-.01.41.81.87 1.97.94h.1c1.26.08 2.21-.28 2.24-.69 0-.11.04-.41.05-.64 0-.03.01-.08-.06-.08-.06 0-.07.03-.1.07z"/><path fill="#5386dc" d="M23.32 21.56c-.24.28-.61.44-.99.42l-2.59-.35c-.19 0-.11-.23.02-.36l1.02-1.52c.23-.25.57-.39.93-.39l2.31.18c.19 0 .46 0 .31.25l-1 1.78h-.01Z"/><path fill="#c88433" d="M20.31 18.05c-.12.48-.87.94-1.82 1.19l-.07.02c-.88.22-1.61.09-2.01-.21-.02 0-.03-.04-.08-.02-.06.01-.06.05-.06.07.05.23.14.51.17.62.11.39 1.04.58 2.16.3l.1-.03c1.22-.31 2.01-.94 1.93-1.34-.02-.11-.08-.4-.15-.63 0-.03-.01-.08-.08-.06-.06.01-.06.05-.07.09z"/><path fill="#558956" d="M11.09 18.75c.09.42-.56.92-1.44.99s-1.78-.31-1.92-.73c-.19-.59.48-1.13 1.42-1.21s1.82.43 1.93.94h.01Z"/><path fill="#b6b6b6" d="m33.07 20.29-13.76 4.96L.46 18.89l.94-.38 17.95 5.85 12.73-4.41z"/><path fill="#c77e61" d="M18.58 33.63 2.45 27.88l-.37-6.66 16.53 5.08z"/><path fill="#9f5c3a" d="m31.26 29.3-10.68 4.46.13-7.23 10.89-3.9z"/><path fill="#636363" d="m2.74 29-1.12-.5.6-.99 1.61.93zm7.87 1.7-.95-.23.16-6.74.58.43zm10.17 4.43-1.34.66v-8.92l1.46-.48zM31.74 31l-1.1.29.68-8.66 1.22-.24z"/><path fill="#636363" d="m31.19 29.99-10.63 4.69.09-1.34 10.57-4.54zM2.92 27.43l-1.02-.22-.05-6.35.56.07z"/><path fill="#b6b6b6" d="m8.92 29.7-6.29-2.45.27-.09 6.27 2.39zm9.37 3.63-8.09-3.12.4-.12 7.9 3.02z"/><path fill="#7f7f7f" d="m30.74 29-9.93 4.26v-.22l9.76-4.14z"/><path fill="#9e9e9e" d="M19.45 35.16 1.61 27.97l-.12-1.15 17.96 6.96zm-.15-7.77L.64 20.78l-.2-1.9 18.87 6.37v2.14Z"/><path fill="#9e9e9e" d="m2.74 29-1.12-.5-.79-8.32 1.29.78zm16.7 6.83-1.19-.51-.05-8.35 1.28-.33zm-9.24-5.54-1.26-.18-.25-6.53 1.3.43z"/><path fill="#636363" d="M19.3 27.39v-2.13l13.78-4.97-.22 2.03z"/><path fill="#b6b6b6" d="M16.53 10.88c-.17.34-3.48-.87-6.46-1.97s-6.1-2.67-5.79-3.2c.37-.63 1.07-2.38 3.17-4.03 2.44-1.91 5.06-1.95 7.36-.37 2.61 1.78 4 5.09 1.72 9.58Z"/><path fill="#636363" d="M17.95 11.1c-.17.34-3.13-1.01-5.92-1.89-2.93-.91-6.5-2.44-6.19-2.96.37-.63 1.07-2.38 3.17-4.03 2.44-1.91 5.06-1.95 7.36-.37 2.61 1.78 3.87 4.76 1.58 9.25"/><path fill="#c77e61" d="M18.14 11.17c-.16.35-2.97-.74-5.85-1.76s-6.51-2.37-6.2-2.9c.37-.63 1.45-2.83 3.15-4.04 1.84-1.32 3.12-1.66 4.95-1.23 1.56.36 2.53.75 4.12 1.22 3.2.95 1.21 5.8-.17 8.71"/><path fill="#b6b6b6" d="M24.25 13.92c-.17.34-2.71-1.65-5.7-2.68S11.7 8.55 12 8.03c.37-.63 1.07-2.38 3.17-4.03 2.44-1.91 5.06-1.95 7.36-.37 2.61 1.78 4 5.81 1.72 10.3Z"/><path fill="#636363" d="M25.67 14.52c-.17.34-3.02-1.89-5.95-2.88s-6.47-2.54-6.17-3.07c.37-.63 1.07-2.38 3.17-4.03 2.44-1.91 5.06-1.95 7.36-.37 2.61 1.78 3.87 5.87 1.58 10.35Z"/><path fill="#c77e61" d="M25.86 13.49c-.16.35-2.97-.74-5.85-1.76-2.9-1.02-6.51-2.37-6.2-2.9.37-.63 1.45-2.83 3.15-4.04 1.84-1.32 3.12-1.66 4.95-1.23 1.56.36 3.44 1.12 6.74 2.23.87.29-1.41 4.79-2.78 7.69Z"/><path fill="#b6b6b6" d="m3.01 7.17.82-1.62 18.68 5.79-.73 1.71z"/><path fill="#b6b6b6" d="M32.59 17.89c-.16.32-3.65-1.65-6.27-3.23-2.63-1.59-5.52-3.43-5.24-3.92.35-.6.99-2.25 3.02-3.78 2.35-1.77 4.93-1.74 7.24-.17 2.62 1.77 3.38 6.87 1.24 11.11h.01Z"/><path fill="#636363" d="M34.07 18.51c-.16.32-3.65-1.65-6.27-3.23-2.63-1.59-5.52-3.43-5.24-3.92.35-.6.99-2.25 3.02-3.78 2.35-1.77 4.93-1.74 7.24-.17 2.62 1.77 3.38 6.87 1.24 11.11h.01Z"/><path fill="#9f5c3a" d="M33.53 18.22c-.16.3-3.32-1.49-5.69-2.92-2.39-1.44-5.01-3.11-4.74-3.58.33-.56.94-2.12 2.82-3.57 2.18-1.69 4.54-1.7 6.64-.27 2.37 1.61 2.99 6.35.97 10.34"/><path fill="#636363" d="m21.77 13.04.77-1.71 11.58 7.18-.83 1.63z"/><path fill="#c88433" d="M33.12 30.55c-.46 0-.88.08-1.24.22-.27-.07-.56-.1-.87-.1-1.28 0-2.32.63-2.32 1.41v.13c-1.08.12-1.9.7-1.9 1.39 0 .78 1.04 1.41 2.32 1.41s2.32-.63 2.32-1.41c0-.04 0-.09-.01-.13.3-.03.58-.1.83-.2.27.07.56.1.87.1 1.28 0 2.32-.63 2.32-1.41s-1.04-1.41-2.32-1.41"/><path fill="#f8c34a" d="M35.18 31.32c-.39-.46-1.16-.77-2.07-.77-.46 0-.88.08-1.24.22.49.12.9.35 1.15.62-.03-.04-.07-.07-.1-.1-.36.5-1.17.85-2.13.85-.75 0-1.42-.22-1.84-.56 0 .02-.01.04-.01.06 0 .2.13.39.34.55h-.17c-.81 0-1.53.26-1.94.64a.6.6 0 0 0-.12.33c0 .55.93 1 2.08 1s2.08-.45 2.08-1c0-.07-.01-.14-.04-.2-.1-.12-.22-.22-.36-.32h.21c1.15 0 2.08-.45 2.08-1 0-.07 0-.13-.04-.2.16.19.25.41.25.64 0 .16-.04.3-.12.44 1.12 0 2.02-.46 2.02-1 0-.07-.01-.14-.04-.2Z"/><path fill="#c88433" d="M33.79 29.67c0-.78-1.04-1.41-2.32-1.41s-2.32.63-2.32 1.41v.06c-.42.26-.68.61-.68 1 0 .78 1.04 1.41 2.32 1.41s2.32-.63 2.32-1.41v-.06c.42-.26.68-.61.68-1"/><path fill="#f8c34a" d="M31.47 31.08c-1.24 0-2.26-.6-2.31-1.35-.11.07-.21.14-.3.22a.6.6 0 0 0-.12.33c0 .55.93 1 2.08 1 .59 0 1.12-.12 1.5-.31-.26.06-.55.1-.85.1Zm2.07-2.05c-.39-.46-1.16-.77-2.07-.77-.81 0-1.53.26-1.94.64a.6.6 0 0 0-.12.33c0 .55.93 1 2.08 1s2.08-.45 2.08-1c0-.07-.01-.14-.04-.2Z"/><path fill="#c88433" d="M3.68 33.14c1.28 0 2.32-.63 2.32-1.41s-1.04-1.41-2.32-1.41-2.32.63-2.32 1.41 1.04 1.41 2.32 1.41"/><path fill="#f8c34a" d="M5.74 31.09c-.39-.46-1.16-.77-2.07-.77-.81 0-1.53.26-1.94.64a.6.6 0 0 0-.12.33c0 .55.93 1 2.08 1s2.08-.45 2.08-1c0-.07 0-.14-.04-.2z"/></svg>