<svg xmlns="http://www.w3.org/2000/svg" viewBox="0 0 36 36"><path fill="#cc8956" d="m24.35 13.04-13.97 11.6L5 29.15c-.47.38-1.14.33-1.51-.12s-.31-1.12.14-1.51l5.36-4.5 4.82-3.83-2-2.43-10.07 8.3h-.01c-1.79 1.57-2.04 4.23-.55 6.01 1.49 1.77 4.15 1.98 6 .49l.03-.02 19.17-16.08-2.02-2.42z"/><path fill="#9aaab4" d="M24.61 11.67c-.05-.33-.63-1.23-1.52-2.28-1.03-1.23-2.11-2.02-2.4-1.78-.02.02-.03.04-.05.06h-.01s0 .02-.01.07v.02c-.05.43-.26 2.12-.54 2.66-.39.75-8.92 7.15-9.72 7.89l2.32 1.88c2.73-2.38 7.38-6.39 8.03-6.93.73-.59 1.54-1.37 3.05-1.06.68.14.88-.31.84-.54z"/><path fill="#9aaab4" d="M18.4 12.56s-.29-.12-.54.09-.17.51-.17.51l1.4 1.65s.32.11.55-.1c.26-.24.18-.5.18-.5l-1.41-1.64z"/><path fill="#cc8956" d="m13.3 19.54 4.47-3.78-2-2.42-4.34 3.57z"/><path fill="#cc8956" d="M16.92 13.23s-.32-.14-.61.1-.19.57-.19.57l1.58 1.87s.37.12.62-.12c.29-.27.2-.56.2-.56z"/><path fill="#fcab40" d="M25.88 2.38c-4.51 3.26-9.39 7.05-14.23 8.87-3.93 1.48-7.07-.93-8.52-1.28-.42-.1-.91.14-.92.68-.02 1.61 2.15 4.8 5.35 8.59s6.51 7.15 7.84 6.79c.32-.09.67-.36.68-.94.02-1.48-1.77-5.13-.03-8.49 1.49-2.87 5.06-6.27 13.7-13.15.79-.63 1.89-.71 2.74.14.62.63.78 2.02-.15 2.79-2.6 2.2-9.21 7.68-9.21 7.68l2.01 2.41s6.37-5.34 8.18-6.89c1.6-1.36 2.43-2.71 2.48-4.5.07-2.57-2.05-5-4.99-4.91-1.83.05-3.26.98-4.95 2.2z"/><path fill="#fcab40" d="m27.138 3.319-1.971 1.65 4.698 5.612 1.971-1.65z"/><path fill="#ffc34a" d="M25.88 2.38c-4.51 3.26-9.39 7.05-14.23 8.87-3.93 1.48-7.07-.93-8.52-1.28-.42-.1-.91.14-.92.68-.02 1.61 2.15 4.8 5.35 8.59s6.51 7.15 7.84 6.79c.32-.09.67-.36.68-.94.02-1.48-1.77-5.13-.03-8.49 1.49-2.87 5.06-6.27 13.7-13.15.79-.63 1.89-.71 2.74.14.62.63.78 2.02-.15 2.79-2.6 2.2-9.21 7.68-9.21 7.68l2.01 2.41s6.37-5.34 8.18-6.89c1.6-1.36 2.43-2.71 2.48-4.5.07-2.57-2.05-5-4.99-4.91-1.83.05-3.26.98-4.95 2.2z"/><path fill="#ffea94" d="M16.83 10.54c-.69.52-1.48 1.22-3.43 2.22-2.1 1.08-3.9 1.77-5.06 2.03-1.93.43-2.17 0-2.83-.89-.83-1.13-.71-1.54-.35-1.35 1.46.74 2.77.94 4.89.59 2.02-.34 4.62-1.59 6.61-2.77.23-.14.33-.17.39-.1s-.03.14-.22.28z"/><path fill="#cc8956" d="m26.85 10.97-5.35 4.45 2.02 2.41 5.35-4.45z"/><path fill="#eaa149" d="M27.34 10.49s-.44-.18-.83.13-.26.78-.26.78l2.15 2.53s.5.16.84-.16c.4-.37.27-.76.27-.76z"/></svg>