<svg xmlns="http://www.w3.org/2000/svg" viewBox="0 0 36 36"><path fill="#31373d" d="M9.49 25.76c-.18-.28-.3-.85.03-.78.81.16 3.66.14 5.1.58 1.62.49 3.06 2.14 4.04 2.04 2.61-.28 5.74-2.56 5.35-4.29-.54-2.36-3.32-3.84-5.05-3.94-2.36-.14-8.16 1.71-10.96 2.48-1.3.36-4.17.55-5.4.01-1.11-.49-2.88-1.41-2.57-4.02.14-1.24 1.24-2.26 1.24-2.26 0 .01-1.03-9.95 11.4-12.64 3.22-.7 5.75-.63 8.35-.04.59.14 1.09.26 1.47.01C28.53-.97 32.2-.15 33.7.75c.27.16.62.56.37.8-.33.31-1.27-.33-2.76 2.05-.56.89-.5 1.82-.48 2.62.01.65.15 1.8.73 2.54.52.68.92 1.13 1.29 1.66 2.49 3.61 4.74 9.27 1.72 14.56-4.8 8.39-14.19 6.77-14.64 6.56-.65-.29-1.14 1.08-3.38 2.45-1.54.93-4.38 1.53-5.33 1.99-.26.13-.3-.6-.16-.85.82-1.41 3.12-4.03 2.91-5.21-.19-1.06-3.58-2.8-4.45-4.17Z"/><path fill="#c3cee0" d="M2.61 21.86c1.23.54 4.1.34 5.4-.01 2.8-.77 8.59-2.62 10.96-2.48 1.72.1 4.51 1.57 5.05 3.94a1.6 1.6 0 0 1 .02.51c.05-.43 0-1.44-.11-1.91-.17-.74-.4-1.32-.08-1.37.53-.08 1.49.55 2.18 1.31.56.61 1.24 1.83 1.95 1.52.95-.41 2.94-4.01-2.03-6.37-1.41-.67-3.33-.83-5-.08-1.23.55-1.56.99-3.69 1.1-2.86.15-3.99-1.71-7.02-1.48-2.91.22-5.2 2.03-5.2 2.03s-.45.93-1.93 1.39c-1.11.35-2.22.29-2.63.25.55.89 1.46 1.35 2.13 1.65"/><path fill="#31373d" d="M21.51 17.57c.47 1.52-.1 2.48-.08 3.99.02 1.57 1.03 2.97.36 3.49-1.25.98-5.2-3.13-5.58-5.09-.65-3.24.47-5.47 2.71-5.66 1.47-.13 1.76.6 2.58 3.27Z"/><path fill="#c3cee0" d="M10.97 10.72c.56 2.65-1.6 3.05-2.89 3.56-1.65.64-2.62 2.9-3.6 2.83-1.71-.1-2.23-3 .07-6.13 1.99-2.72 5.89-2.85 6.43-.26Z"/><path d="M4.31 17.22c.62 0 1.13-.49 1.13-1.09s-.51-1.09-1.13-1.09-1.13.49-1.13 1.09.51 1.09 1.13 1.09"/><path fill="#8496af" d="M4.07 15.61c.09.02.16-.04.37.03.21.06.25.14.32.18.05.02.13-.02.15-.14.02-.16-.19-.27-.36-.32-.16-.05-.38-.06-.47.02-.07.07-.13.21 0 .24Z"/></svg>