<svg xmlns="http://www.w3.org/2000/svg" viewBox="0 0 36 36"><path fill="#d99e82" d="M7.29 35.07c.06-.18-.13-.4-.42-.49s-.57-.02-.63.16.13.4.42.49.57.02.63-.16m16.85-.03c.06-.18-.13-.4-.42-.49s-.57-.02-.63.16.13.4.42.49.57.02.63-.16"/><path fill="#d99e82" d="M14.97 35.92c-2.53.03-2.07-.15-2.46-.17-1.01-.06-.11.17-2.32.17-1.16 0-1.93 0-2.27-.02-.27-.03-.34.04-1.15.04-.49 0-.89-.06-.93-.73-.02-.28.68-.48 1.29-.43.28.02.51.12.81.03.25-.08.85-.45 1.39-.79.52-.32 1.24-.48 1.43-.65 1.65-1.54 1.59-2.03 1.59-2.03l3.4 1.92s1.32 2.65-.8 2.68Zm14.2-6c-.76-.58-2.22 1.22-3.21 2.07-.8.68-.54 2.01-1.32 2.69-.13.11-.51.09-.69.07-.61-.05-1.31.15-1.29.43.04.67.44.73.93.73.81 0 .88-.06 1.15-.04.34.03 2.35.12 2.6-.03.56-.34.53-1.77.86-2.28.39-.6 2.12-.71 2.23-1.5.11-.77-.18-1.32-1.23-2.14h-.02ZM7.29 19.76c-.49-.1-.54-.46-.75-.46-.12 0-.78.52-1.14.11-.33-.37-1.02-1.16-.95-1.35.16-.41 1.1-1.37 1.1-1.37l.75-.82 1.93.89s.33 1.39.1 1.77c-.62 1.04-.83 1.28-1.03 1.24Zm24-2.57c.1.12.12.46.09.61-.1.51-.62 1.26-1.06 1.79-.09.11.39.27.39.41 0 .27-.46.73-.72.79-.21.05-.58-.31-.8-.3-.04 0-.08.23-.27.35-.23.14-.49.1-.55-.02-.35-.72-.76-1.5-1.34-2.06.05-2.26 1.83-2.38 1.83-2.38s2.03.3 2.44.79h.01Z"/><path fill="#774c3a" d="M30.35 16.64c-.41-.21-1.22-.65-1.45-.95-.85-1.11-1.51-4.88-1.93-5.25-.32-.28-5.24-4.65-6.15-5.13-.47-.26-1.05-.44-1.46-.56-.63-1.1-1.47-1.43-2.12-1.75-.22-.11-.64-.31-.71-.55C16.1.94 14.42-.21 12.84.18c-1.82.44-1.35 2.7-1.52 2.9-.08.1-.26.48-.2.91.1.67.49.7.68 1.15.15.35-.37 2.05.76 2.91-.48 1.28-1.55 4.05-1.89 4.41-.47.51-3.09 2.15-3.86 2.67-1.25.83-1.46 1.65-2.16 1.82-.1.02.02.11.11.14.22.06.52.15 1.06.07.12-.02.05.67.05.67 0 .1.27-.02.35-.07.71-.41.76-.68.84-.68.18 0 .1.74.1.74 0 .09.31 0 .44-.07.65-.38.51-.55.82-.64.25-.07.76.17 1.02.13 1.1-.2 3.44-1.76 3.92-2.16.08-.07.18-.22.3-.44.04.29.02.64.17 1.29.15.67 1.02 1.52 1.66 2.49-2.42 1.72-4.58 3.52-4.56 5.02.03 2.41-.12 3.43.86 7.58.27 1.16-1.03 1.99-1.55 2.21-.29.12-.03.55 1.01.57.29 0 .66-.09.93-.17.48-.14-.2 1.17-.04 1.17 1.23-.04 1.98-.7 2.36-.96.57-.39 1.38.55 1.84.65.31.07-.87-1.92-.84-3.4 0-.58.75-1.79.5-3.45-.16-1.06-.65-2.39-.72-2.87-.04-.31 1.18-.5 2.34-.7.39.85 1.03 2.1 1.86 3.25.46.65.62 1.2 1.58 1.45.51.13.36.48 1.11.92 1.18.69 3.04 1.33 3.14 1.45.21.24 0 1.28-.44 1.96-.07.11.22.07.32 0 0 0 1.44-.66 1.6-1.25.06-.24.75.62.75.62.07.06.2.2.22.11 0 0 .67-1.88.62-2.27-.04-.29 1.13-.29 1.13-.29.12-.03.28-.12.17-.17-.6-.3-2.41-1.38-2.89-1.88-.31-.31-.4-.88-1.66-1.69-1.09-.7-1.61-.65-2.05-.95-.2-.14-.24-1.18-.29-1.94a9 9 0 0 0-.13-1.02c1.46-.74 1.76-1.81 1.98-3.16.25-1.61-.18-2.36-1.1-3.89-.44-.73-.94-1.41-1.26-2.04-.07-.14.05-.29.2-.25.71.17.95.24 1.51.41.69.21 1.91 3.99 2.68 5.25.14.24.67.74.89.97.05.05.15.12.18.06.17-.35.2-.65.32-.65.27 0 .62.03.83.05.07 0 .14.04.15-.03 0 0 .03-.92.03-1.05 0-.17.78-.2 1.03-.22.07 0 .01-.12-.02-.18-.11-.17-.21-.35-.43-.67-.13-.19.55-.15.73-.17.09 0 .01-.12-.07-.16h.01Z"/><path fill="#a06b58" d="M13.6 14.31c.16.37 0 .86.26 1.73.28.93.99 1.95 1.4 2.56.78-.37 2.07-1.02 2.99-1.46.03-1.9.37-3.78.54-5.66.14-1.53-.53-1.94-2.19-2.04-.71-.04-.98.98-1.95 1.02-.92.03-1.25-.55-1.54 1.73-.09.72-.23 1.46.06 1.69.18.14.32.21.42.42Z"/><path fill="#d3897a" d="M16.76 4.29c-.21 0-.17-.32-.2-.87 0-.1-.45-.67.07-1.25.35-.39.89.15.8 1-.05.47-.28 1.11-.68 1.12z"/><path fill="#d99e82" d="M15.39 3.16c.16.81-.67 1.21-.55 1.55.12.35.6.72.67 1.26.09.69-.52 1.41-1.37 1.85-.37.19-1.28.08-1.72-.7-.43-.78-.06-1.91-.23-2.07-.38-.37-.78-.51-.86-1.09-.06-.46.18-.62.24-.78.08-.21 0-1.24.73-1.59 1.26-.62 1.91.69 2.16.81.32.16.82.15.94.77Z"/><path fill="#c17a72" d="M14.7 4.27c-.48.64-1.18 0-1.82 0-.38 0-.2.47-.83.42-.25-.02-.65-.4-.64-.85.01-.52 1.18-.27 1.36-.29.19-.03.39-.35 1-.32.95.05 1.6.14.92 1.03Z"/><path fill="#d3897a" d="M13.65 5.24c-.18.09-.26-.05-.62-.08-.23-.02-.38.19-.48.14-.08-.04 0-.26.03-.35.06-.19.16-.37.23-.44.05-.05.16-.06.26-.03.2.05.56.37.65.46.04.04-.02.28-.07.3"/></svg>