<?xml version="1.0" encoding="utf-8"?>
<!-- Generated by IcoMoon.io -->
<!DOCTYPE svg PUBLIC "-//W3C//DTD SVG 1.1//EN" "http://www.w3.org/Graphics/SVG/1.1/DTD/svg11.dtd">
<svg version="1.1" xmlns="http://www.w3.org/2000/svg" xmlns:xlink="http://www.w3.org/1999/xlink" width="32" height="32" viewBox="0 0 32 32">
	<path d="M25.333 8h-2.115l-1.333-1.333c-0.772-0.772-2.127-1.333-3.219-1.333h-5.333c-1.092 0-2.447 0.561-3.219 1.333l-1.333 1.333h-2.115c-2.205 0-4 1.795-4 4v10.667c0 2.205 1.795 4 4 4h18.667c2.205 0 4-1.795 4-4v-10.667c0-2.205-1.795-4-4-4zM16 21.333c-2.577 0-4.667-2.091-4.667-4.667 0-2.579 2.089-4.667 4.667-4.667s4.667 2.088 4.667 4.667c0 2.576-2.089 4.667-4.667 4.667zM24 15.065c-0.959 0-1.733-0.773-1.733-1.732s0.775-1.735 1.733-1.735 1.733 0.776 1.733 1.735-0.775 1.732-1.733 1.732z" fill="#ffffff" />
</svg>
