<?xml version="1.0" encoding="utf-8"?>
<!-- Generated by IcoMoon.io -->
<!DOCTYPE svg PUBLIC "-//W3C//DTD SVG 1.1//EN" "http://www.w3.org/Graphics/SVG/1.1/DTD/svg11.dtd">
<svg version="1.1" xmlns="http://www.w3.org/2000/svg" xmlns:xlink="http://www.w3.org/1999/xlink" width="32" height="32" viewBox="0 0 32 32">
	<path d="M25.333 26.667h-18.667c-2.205 0-4-1.795-4-4v-10.667c0-2.205 1.795-4 4-4h2.115l1.333-1.333c0.772-0.772 2.128-1.333 3.219-1.333h5.333c1.091 0 2.447 0.561 3.219 1.333l1.333 1.333h2.115c2.205 0 4 1.795 4 4v10.667c0 2.205-1.795 4-4 4zM6.667 10.667c-0.736 0-1.333 0.597-1.333 1.333v10.667c0 0.736 0.597 1.333 1.333 1.333h18.667c0.736 0 1.333-0.597 1.333-1.333v-10.667c0-0.736-0.597-1.333-1.333-1.333h-2.667c-0.355 0-0.693-0.14-0.943-0.391l-1.724-1.724c-0.268-0.268-0.953-0.552-1.333-0.552h-5.333c-0.38 0-1.065 0.284-1.333 0.552l-1.724 1.724c-0.249 0.251-0.588 0.391-0.943 0.391h-2.667z" fill="#ffffff" />
	<path d="M16 13.333c1.839 0 3.333 1.495 3.333 3.333s-1.495 3.333-3.333 3.333-3.333-1.495-3.333-3.333 1.495-3.333 3.333-3.333M16 12c-2.579 0-4.667 2.088-4.667 4.667 0 2.576 2.088 4.667 4.667 4.667s4.667-2.091 4.667-4.667c0-2.579-2.088-4.667-4.667-4.667z" fill="#ffffff" />
	<path d="M24 11.599c-0.959 0-1.733 0.776-1.733 1.735s0.775 1.732 1.733 1.732 1.733-0.773 1.733-1.732-0.775-1.735-1.733-1.735z" fill="#ffffff" />
</svg>
