<?xml version="1.0" encoding="utf-8"?>
<!-- Generated by IcoMoon.io -->
<!DOCTYPE svg PUBLIC "-//W3C//DTD SVG 1.1//EN" "http://www.w3.org/Graphics/SVG/1.1/DTD/svg11.dtd">
<svg version="1.1" xmlns="http://www.w3.org/2000/svg" xmlns:xlink="http://www.w3.org/1999/xlink" width="32" height="32" viewBox="0 0 32 32">
	<path d="M28.994 0h-9.018c-1.653 0-3.962 0.956-5.131 2.125l-13.968 13.968c-1.169 1.169-1.169 3.082 0 4.251l10.778 10.778c1.169 1.169 3.082 1.169 4.251 0l13.968-13.968c1.169-1.169 2.125-3.478 2.125-5.131v-9.018c0-1.653-1.353-3.006-3.006-3.006zM25 10c-1.657 0-3-1.343-3-3s1.343-3 3-3 3 1.343 3 3-1.343 3-3 3z" fill="#ffffff" />
</svg>
