<?xml version="1.0" encoding="utf-8"?>
<!-- Generated by IcoMoon.io -->
<!DOCTYPE svg PUBLIC "-//W3C//DTD SVG 1.1//EN" "http://www.w3.org/Graphics/SVG/1.1/DTD/svg11.dtd">
<svg version="1.1" xmlns="http://www.w3.org/2000/svg" xmlns:xlink="http://www.w3.org/1999/xlink" width="32" height="32" viewBox="0 0 32 32">
	<path d="M19.463 21.96c-0.691-0.11-0.707-2.010-0.707-2.010s2.030-2.010 2.473-4.713c1.19 0 1.926-2.873 0.735-3.884 0.050-1.064 1.53-8.354-5.964-8.354-7.494 0-6.014 7.29-5.965 8.354-1.19 1.011-0.455 3.884 0.735 3.884 0.442 2.703 2.473 4.713 2.473 4.713s-0.016 1.9-0.707 2.010c-2.226 0.354-10.537 4.020-10.537 8.040h28c0-4.020-8.311-7.685-10.537-8.040z" fill="#ffffff" />
</svg>
