<?xml version="1.0" encoding="utf-8"?>
<!-- Generated by IcoMoon.io -->
<!DOCTYPE svg PUBLIC "-//W3C//DTD SVG 1.1//EN" "http://www.w3.org/Graphics/SVG/1.1/DTD/svg11.dtd">
<svg version="1.1" xmlns="http://www.w3.org/2000/svg" xmlns:xlink="http://www.w3.org/1999/xlink" width="32" height="32" viewBox="0 0 32 32">
	<path d="M26.5 20l-0.464-13.001c-0.020-0.55 0.414-0.999 0.964-0.999h4c0.55 0 0.921 0.443 0.824 0.984l-2.324 13.016zM30 24.25c0 0.962-0.788 1.75-1.75 1.75h-0.5c-0.962 0-1.75-0.788-1.75-1.75v-0.5c0-0.962 0.788-1.75 1.75-1.75h0.5c0.962 0 1.75 0.788 1.75 1.75v0.5zM12 6c-6.627 0-12 4.477-12 10 0 5.523 5.373 10 12 10 6.627 0 12-4.477 12-10 0-5.523-5.373-10-12-10zM20 14h-2.321l-3.679 3.679v2.321h3v2h-8v-2h3v-2.321l-5.679-5.679h-1.314v-2h5.988v2h-1.315l3.321 3.321 1-1v-2.321h6v2z" fill="#ffffff" />
</svg>
